<svg viewBox="0 0 464.07 272.82" xmlns="http://www.w3.org/2000/svg" xmlns:xlink="http://www.w3.org/1999/xlink" id="_图层_1" overflow="hidden"><defs></defs><g><path d="M14.92 29.69 411.77 29.69C419.59 29.69 425.94 36.04 425.94 43.86L425.94 228.96C425.94 236.78 419.59 243.13 411.77 243.13L14.92 243.13C7.1 243.13 0.75 236.78 0.75 228.96L0.75 43.86C0.75 36.04 7.1 29.69 14.92 29.69Z" stroke="#000000" stroke-width="1.5" stroke-miterlimit="10" fill="none"/><path d="M223.23 178.38 260.08 178.38C263.99 178.38 267.17 181.56 267.17 185.47L267.17 205.31C267.17 209.22 263.99 212.4 260.08 212.4L223.23 212.4C219.32 212.4 216.14 209.22 216.14 205.31L216.14 185.47C216.14 181.56 219.32 178.38 223.23 178.38Z" stroke="#000000" stroke-width="1.2" stroke-linecap="round" stroke-linejoin="round" fill="none"/><path d="M223.23 125.58 260.08 125.58C263.99 125.58 267.17 128.76 267.17 132.67L267.17 152.51C267.17 156.42 263.99 159.6 260.08 159.6L223.23 159.6C219.32 159.6 216.14 156.42 216.14 152.51L216.14 132.67C216.14 128.76 219.32 125.58 223.23 125.58Z" stroke="#000000" stroke-miterlimit="10" fill="none"/><rect x="301.98" y="125.58" rx="7.09" ry="7.09" width="51.02" height="34.02" stroke="#000000" stroke-width="1.2" stroke-linecap="round" stroke-linejoin="round" fill="none"/><path d="M309.07 178.39 345.92 178.39C349.83 178.39 353.01 181.57 353.01 185.48L353.01 205.32C353.01 209.23 349.83 212.41 345.92 212.41L309.07 212.41C305.16 212.41 301.98 209.23 301.98 205.32L301.98 185.48C301.98 181.57 305.16 178.39 309.07 178.39Z" stroke="#000000" stroke-width="1.2" stroke-linecap="round" stroke-linejoin="round" fill="none"/><path d="M56.66 178.39 93.51 178.39C97.42 178.39 100.6 181.57 100.6 185.48L100.6 205.32C100.6 209.23 97.42 212.41 93.51 212.41L56.66 212.41C52.75 212.41 49.57 209.23 49.57 205.32L49.57 185.48C49.57 181.57 52.75 178.39 56.66 178.39Z" stroke="#000000" stroke-width="1.2" stroke-miterlimit="10" fill="none"/><path d="M56.66 125.27 93.51 125.27C97.42 125.27 100.6 128.45 100.6 132.36L100.6 152.2C100.6 156.11 97.42 159.29 93.51 159.29L56.66 159.29C52.75 159.29 49.57 156.11 49.57 152.2L49.57 132.36C49.57 128.45 52.75 125.27 56.66 125.27Z" stroke="#000000" stroke-width="1.2" stroke-miterlimit="10" fill="none"/><path d="M279.31 64.06 347.34 64.06C350.47 64.06 353.01 66.6 353.01 69.73L353.01 92.41C353.01 95.54 350.47 98.08 347.34 98.08L279.31 98.08C276.18 98.08 273.64 95.54 273.64 92.41L273.64 69.73C273.64 66.6 276.18 64.06 279.31 64.06Z" stroke="#000000" stroke-width="1.2" stroke-linecap="round" stroke-linejoin="round" fill="none"/><path d="M238.82 169.85C238.82 168.29 240.09 167.02 241.65 167.02 243.21 167.02 244.48 168.29 244.48 169.85 244.48 171.41 243.21 172.68 241.65 172.68 240.09 172.68 238.82 171.41 238.82 169.85Z" stroke-width="0"/><g><path d="M125.97 178.57 126.74 178.57 126.74 183.69 125.77 183.69 125.77 180.39 124.47 182.33 123.94 182.33 122.63 180.38 122.63 183.7 121.67 183.7 121.67 178.58 122.48 178.58 124.23 181.23 125.97 178.58Z" stroke-width="0"/><path d="M130.41 180.39C130.68 180.67 130.82 181.06 130.82 181.58L130.82 183.69 130 183.69C130 183.69 129.99 183.59 129.98 183.5 129.98 183.41 129.96 183.34 129.95 183.27 129.84 183.44 129.7 183.56 129.53 183.64 129.36 183.72 129.15 183.76 128.91 183.76 128.67 183.76 128.43 183.72 128.22 183.63 128.01 183.54 127.85 183.41 127.73 183.24 127.61 183.07 127.55 182.87 127.55 182.63 127.55 182.39 127.62 182.18 127.76 182 127.9 181.82 128.08 181.68 128.32 181.58 128.55 181.48 128.81 181.43 129.09 181.43 129.34 181.43 129.6 181.47 129.87 181.56 129.86 181.02 129.63 180.75 129.18 180.75 128.83 180.75 128.57 180.91 128.4 181.23L127.71 180.83C127.84 180.56 128.04 180.35 128.31 180.19 128.58 180.03 128.9 179.96 129.26 179.96 129.75 179.96 130.13 180.1 130.41 180.38ZM129.86 182.22C129.63 182.16 129.42 182.14 129.25 182.14 129.02 182.14 128.84 182.18 128.72 182.26 128.59 182.34 128.53 182.46 128.53 182.61 128.53 182.75 128.58 182.85 128.68 182.92 128.78 182.99 128.91 183.03 129.07 183.03 129.28 183.03 129.46 182.97 129.62 182.85 129.78 182.73 129.86 182.57 129.86 182.36L129.86 182.22Z" stroke-width="0"/><path d="M133.95 183.47C133.67 183.68 133.31 183.78 132.87 183.78 132.49 183.78 132.16 183.7 131.88 183.53 131.6 183.37 131.42 183.14 131.32 182.85L132.03 182.44C132.1 182.61 132.21 182.75 132.36 182.84 132.51 182.93 132.68 182.98 132.89 182.98 133.04 182.98 133.16 182.95 133.25 182.9 133.34 182.84 133.38 182.76 133.38 182.66 133.38 182.54 133.32 182.45 133.21 182.39 133.09 182.33 132.91 182.26 132.66 182.19 132.41 182.12 132.21 182.04 132.05 181.97 131.89 181.9 131.76 181.8 131.64 181.67 131.53 181.54 131.47 181.36 131.47 181.15 131.47 180.91 131.54 180.7 131.67 180.52 131.8 180.34 131.98 180.21 132.21 180.11 132.43 180.02 132.68 179.97 132.95 179.97 133.31 179.97 133.62 180.05 133.87 180.2 134.12 180.36 134.28 180.56 134.35 180.82L133.64 181.22C133.5 180.92 133.26 180.76 132.93 180.76 132.79 180.76 132.68 180.79 132.59 180.84 132.51 180.89 132.46 180.97 132.46 181.07 132.46 181.18 132.52 181.27 132.63 181.33 132.74 181.39 132.92 181.45 133.15 181.52 133.4 181.59 133.61 181.66 133.77 181.73 133.93 181.8 134.07 181.91 134.19 182.05 134.31 182.19 134.36 182.38 134.36 182.61 134.36 182.97 134.22 183.25 133.94 183.46Z" stroke-width="0"/><path d="M135 180.88C135.17 180.59 135.4 180.37 135.68 180.21 135.97 180.05 136.27 179.98 136.6 179.98 136.93 179.98 137.23 180.06 137.51 180.21 137.79 180.37 138.02 180.59 138.19 180.88 138.36 181.17 138.45 181.5 138.45 181.88 138.45 182.26 138.37 182.59 138.19 182.88 138.02 183.17 137.79 183.39 137.51 183.55 137.23 183.7 136.92 183.78 136.6 183.78 136.28 183.78 135.96 183.7 135.68 183.55 135.4 183.4 135.17 183.17 135 182.88 134.83 182.59 134.74 182.26 134.74 181.88 134.74 181.5 134.82 181.17 135 180.88ZM135.99 182.65C136.15 182.84 136.35 182.93 136.6 182.93 136.85 182.93 137.04 182.84 137.2 182.65 137.36 182.46 137.44 182.21 137.44 181.88 137.44 181.55 137.36 181.3 137.2 181.11 137.04 180.92 136.84 180.82 136.6 180.82 136.36 180.82 136.16 180.92 135.99 181.11 135.83 181.3 135.75 181.56 135.75 181.88 135.75 182.2 135.83 182.46 135.99 182.65Z" stroke-width="0"/><path d="M142.19 180.37C142.42 180.63 142.54 181.02 142.54 181.52L142.54 183.69 141.57 183.69 141.57 181.84C141.57 181.18 141.35 180.85 140.91 180.85 140.68 180.85 140.49 180.94 140.35 181.12 140.21 181.3 140.14 181.55 140.14 181.88L140.14 183.7 139.17 183.7 139.17 180.07 140.02 180.07C140.04 180.35 140.06 180.55 140.08 180.65 140.31 180.2 140.7 179.98 141.24 179.98 141.64 179.98 141.96 180.11 142.19 180.38Z" stroke-width="0"/><path d="M145.15 183.51C144.88 183.33 144.7 183.05 144.61 182.68L145.45 182.23C145.51 182.44 145.59 182.6 145.7 182.7 145.81 182.8 145.95 182.85 146.13 182.85 146.36 182.85 146.53 182.76 146.63 182.59 146.73 182.42 146.78 182.15 146.78 181.8L146.78 178.57 147.79 178.57 147.79 181.9C147.79 182.57 147.63 183.05 147.32 183.34 147.01 183.63 146.61 183.78 146.12 183.78 145.74 183.78 145.42 183.69 145.15 183.51Z" stroke-width="0"/><path d="M151.41 180.39C151.69 180.67 151.82 181.06 151.82 181.58L151.82 183.69 151 183.69C151 183.69 150.99 183.59 150.98 183.5 150.98 183.41 150.96 183.34 150.95 183.27 150.84 183.44 150.7 183.56 150.53 183.64 150.36 183.72 150.15 183.76 149.91 183.76 149.67 183.76 149.43 183.72 149.22 183.63 149.01 183.54 148.85 183.41 148.73 183.24 148.61 183.07 148.55 182.87 148.55 182.63 148.55 182.39 148.62 182.18 148.76 182 148.9 181.82 149.08 181.68 149.32 181.58 149.55 181.48 149.81 181.43 150.09 181.43 150.34 181.43 150.6 181.47 150.87 181.56 150.86 181.02 150.63 180.75 150.18 180.75 149.82 180.75 149.57 180.91 149.4 181.23L148.71 180.83C148.84 180.56 149.04 180.35 149.31 180.19 149.58 180.03 149.9 179.96 150.26 179.96 150.75 179.96 151.13 180.1 151.41 180.38ZM150.86 182.22C150.63 182.16 150.42 182.14 150.25 182.14 150.02 182.14 149.84 182.18 149.72 182.26 149.59 182.34 149.53 182.46 149.53 182.61 149.53 182.75 149.58 182.85 149.68 182.92 149.78 182.99 149.91 183.03 150.07 183.03 150.28 183.03 150.46 182.97 150.62 182.85 150.78 182.73 150.86 182.57 150.86 182.36L150.86 182.22Z" stroke-width="0"/><path d="M155 180.04C155.12 180.08 155.21 180.14 155.28 180.2L154.9 180.95C154.78 180.87 154.64 180.82 154.49 180.82 154.24 180.82 154.04 180.92 153.88 181.13 153.73 181.34 153.65 181.63 153.65 182L153.65 183.69 152.68 183.69 152.68 180.06 153.53 180.06C153.55 180.34 153.57 180.53 153.59 180.63 153.7 180.41 153.84 180.24 154.01 180.13 154.18 180.02 154.38 179.96 154.6 179.96 154.74 179.96 154.87 179.98 154.99 180.02Z" stroke-width="0"/></g><g><path d="M125.93 206.97 126.7 206.97 126.7 212.09 125.73 212.09 125.73 208.79 124.43 210.73 123.9 210.73 122.59 208.78 122.59 212.1 121.63 212.1 121.63 206.98 122.44 206.98 124.19 209.63 125.93 206.98Z" stroke-width="0"/><path d="M130.38 208.79C130.65 209.07 130.79 209.46 130.79 209.98L130.79 212.09 129.97 212.09C129.97 212.09 129.96 211.99 129.95 211.9 129.95 211.81 129.93 211.74 129.92 211.67 129.81 211.84 129.67 211.96 129.5 212.05 129.33 212.13 129.12 212.17 128.88 212.17 128.64 212.17 128.4 212.13 128.19 212.04 127.98 211.95 127.82 211.82 127.7 211.65 127.58 211.48 127.52 211.28 127.52 211.04 127.52 210.8 127.59 210.59 127.73 210.41 127.87 210.23 128.05 210.09 128.29 209.99 128.52 209.89 128.78 209.84 129.06 209.84 129.31 209.84 129.57 209.88 129.84 209.97 129.83 209.43 129.6 209.17 129.15 209.17 128.8 209.17 128.54 209.33 128.37 209.65L127.68 209.25C127.81 208.98 128.01 208.77 128.28 208.61 128.55 208.45 128.87 208.38 129.23 208.38 129.72 208.38 130.1 208.52 130.38 208.8ZM129.83 210.62C129.6 210.56 129.39 210.54 129.22 210.54 128.99 210.54 128.81 210.58 128.69 210.66 128.56 210.74 128.5 210.86 128.5 211.01 128.5 211.15 128.55 211.25 128.65 211.33 128.75 211.4 128.88 211.44 129.04 211.44 129.25 211.44 129.43 211.38 129.59 211.26 129.75 211.14 129.83 210.98 129.83 210.77L129.83 210.63Z" stroke-width="0"/><path d="M133.96 208.44C134.08 208.48 134.17 208.54 134.24 208.6L133.86 209.35C133.74 209.27 133.6 209.22 133.45 209.22 133.2 209.22 133 209.33 132.84 209.54 132.69 209.75 132.61 210.04 132.61 210.41L132.61 212.1 131.64 212.1 131.64 208.47 132.49 208.47C132.51 208.75 132.53 208.94 132.55 209.04 132.66 208.82 132.8 208.66 132.97 208.54 133.14 208.43 133.34 208.37 133.56 208.37 133.7 208.37 133.83 208.39 133.95 208.43Z" stroke-width="0"/><path d="M134.73 207.83C134.62 207.71 134.56 207.57 134.56 207.41 134.56 207.25 134.62 207.11 134.73 206.99 134.84 206.87 134.98 206.81 135.14 206.81 135.3 206.81 135.44 206.87 135.55 206.99 135.67 207.11 135.72 207.25 135.72 207.41 135.72 207.57 135.66 207.71 135.55 207.83 135.43 207.95 135.3 208.01 135.14 208.01 134.98 208.01 134.85 207.95 134.74 207.83ZM135.63 212.1 134.66 212.1 134.66 208.47 135.63 208.47 135.63 212.1Z" stroke-width="0"/><path d="M139.56 208.77C139.79 209.03 139.91 209.42 139.91 209.92L139.91 212.09 138.94 212.09 138.94 210.23C138.94 209.57 138.72 209.24 138.28 209.24 138.05 209.24 137.86 209.33 137.72 209.51 137.58 209.69 137.51 209.94 137.51 210.27L137.51 212.09 136.54 212.09 136.54 208.46 137.39 208.46C137.41 208.75 137.43 208.94 137.45 209.04 137.68 208.59 138.07 208.37 138.61 208.37 139.01 208.37 139.33 208.5 139.56 208.77Z" stroke-width="0"/><path d="M143.44 208.79C143.71 209.07 143.85 209.46 143.85 209.98L143.85 212.09 143.03 212.09C143.03 212.09 143.02 211.99 143.01 211.9 143.01 211.81 142.99 211.74 142.98 211.67 142.87 211.84 142.73 211.96 142.56 212.05 142.39 212.13 142.18 212.17 141.94 212.17 141.7 212.17 141.46 212.13 141.25 212.04 141.04 211.95 140.88 211.82 140.76 211.65 140.64 211.48 140.58 211.28 140.58 211.04 140.58 210.8 140.65 210.59 140.79 210.41 140.93 210.23 141.11 210.09 141.35 209.99 141.58 209.89 141.84 209.84 142.12 209.84 142.37 209.84 142.63 209.88 142.9 209.97 142.89 209.43 142.66 209.17 142.21 209.17 141.86 209.17 141.6 209.33 141.43 209.65L140.74 209.25C140.87 208.98 141.07 208.77 141.34 208.61 141.61 208.45 141.93 208.38 142.29 208.38 142.78 208.38 143.16 208.52 143.44 208.8ZM142.89 210.62C142.66 210.56 142.45 210.54 142.28 210.54 142.05 210.54 141.87 210.58 141.75 210.66 141.62 210.74 141.56 210.86 141.56 211.01 141.56 211.15 141.61 211.25 141.71 211.33 141.81 211.4 141.94 211.44 142.1 211.44 142.31 211.44 142.49 211.38 142.65 211.26 142.81 211.14 142.89 210.98 142.89 210.77L142.89 210.63Z" stroke-width="0"/><path d="M147.21 211.88C146.97 212.08 146.64 212.17 146.22 212.17 145.83 212.17 145.51 212.07 145.27 211.86 145.03 211.65 144.91 211.28 144.91 210.74L144.91 209.28 144.27 209.28 144.27 208.46 144.91 208.46 144.91 207.35 145.88 207.35 145.88 208.46 146.97 208.46 146.97 209.28 145.88 209.28 145.88 210.58C145.88 210.82 145.92 211.01 146.01 211.13 146.09 211.26 146.23 211.32 146.42 211.32 146.58 211.32 146.74 211.27 146.88 211.17L147.22 211.87Z" stroke-width="0"/><path d="M150.05 208.59C150.3 208.73 150.49 208.93 150.63 209.19 150.77 209.45 150.84 209.75 150.84 210.08 150.84 210.23 150.83 210.38 150.8 210.54L148.39 210.54C148.43 210.81 148.53 211.01 148.68 211.15 148.83 211.29 149.03 211.36 149.25 211.36 149.41 211.36 149.56 211.32 149.69 211.25 149.82 211.18 149.92 211.07 149.99 210.92L150.7 211.34C150.6 211.61 150.41 211.81 150.14 211.96 149.86 212.1 149.55 212.18 149.21 212.18 148.87 212.18 148.58 212.11 148.3 211.96 148.02 211.82 147.8 211.6 147.62 211.31 147.45 211.02 147.36 210.67 147.36 210.27 147.36 209.87 147.44 209.53 147.62 209.24 147.79 208.96 148.01 208.74 148.29 208.6 148.57 208.46 148.86 208.38 149.19 208.38 149.52 208.38 149.8 208.45 150.05 208.59ZM148.67 209.35C148.53 209.47 148.44 209.64 148.4 209.86L149.84 209.86C149.82 209.64 149.75 209.46 149.63 209.35 149.51 209.23 149.35 209.17 149.16 209.17 148.97 209.17 148.81 209.23 148.67 209.35Z" stroke-width="0"/></g><path d="M238.82 117.07C238.82 115.51 240.09 114.24 241.65 114.24 243.21 114.24 244.48 115.51 244.48 117.07 244.48 118.63 243.21 119.9 241.65 119.9 240.09 119.9 238.82 118.63 238.82 117.07Z" stroke-width="0"/><path d="M72.25 117.07C72.25 115.51 73.52 114.24 75.08 114.24 76.64 114.24 77.91 115.51 77.91 117.07 77.91 118.63 76.64 119.9 75.08 119.9 73.52 119.9 72.25 118.63 72.25 117.07Z" stroke-width="0"/><path d="M324.66 117.04C324.66 115.47 325.93 114.21 327.49 114.21 329.05 114.21 330.33 115.48 330.33 117.04 330.33 118.6 329.06 119.87 327.49 119.87 325.92 119.87 324.66 118.6 324.66 117.04Z" stroke-width="0"/><path d="M310.49 55.52C310.49 53.96 311.76 52.69 313.33 52.69 314.9 52.69 316.16 53.96 316.16 55.52 316.16 57.08 314.89 58.35 313.33 58.35 311.77 58.35 310.49 57.08 310.49 55.52Z" stroke-width="0"/><path d="M111.96 209.58C111.96 208.02 113.23 206.75 114.8 206.75 116.37 206.75 117.63 208.02 117.63 209.58 117.63 211.14 116.36 212.42 114.8 212.42 113.24 212.42 111.96 211.15 111.96 209.58Z" stroke-width="0"/><path d="M111.95 181.08C111.95 179.52 113.22 178.25 114.78 178.25 116.34 178.25 117.62 179.52 117.62 181.08 117.62 182.64 116.35 183.91 114.78 183.91 113.21 183.91 111.95 182.64 111.95 181.08Z" stroke-width="0"/><path d="M111.96 195.38C111.96 193.81 113.23 192.55 114.79 192.55 116.35 192.55 117.63 193.82 117.63 195.38 117.63 196.94 116.36 198.21 114.79 198.21 113.22 198.21 111.96 196.94 111.96 195.38Z" stroke-width="0"/><path d="M364.35 209.56C364.35 208 365.62 206.73 367.18 206.73 368.74 206.73 370.01 208 370.01 209.56 370.01 211.12 368.74 212.4 367.18 212.4 365.62 212.4 364.35 211.13 364.35 209.56Z" stroke-width="0"/><path d="M364.35 195.4C364.35 193.83 365.62 192.57 367.18 192.57 368.74 192.57 370.02 193.84 370.02 195.4 370.02 196.96 368.75 198.23 367.18 198.23 365.61 198.23 364.35 196.96 364.35 195.4Z" stroke-width="0"/><path d="M364.35 181.22C364.35 179.66 365.62 178.39 367.18 178.39 368.74 178.39 370.02 179.66 370.02 181.22 370.02 182.78 368.75 184.05 367.18 184.05 365.61 184.05 364.35 182.78 364.35 181.22Z" stroke-width="0"/><g><path d="M375.6 178.77 378.08 182.16 378.08 178.77 379.03 178.77 379.03 183.89 378.2 183.89 375.71 180.5 375.71 183.89 374.78 183.89 374.78 178.77 375.6 178.77Z" stroke-width="0"/><path d="M380.06 181.08C380.23 180.79 380.46 180.57 380.74 180.41 381.02 180.25 381.33 180.18 381.66 180.18 381.99 180.18 382.29 180.26 382.57 180.41 382.85 180.57 383.08 180.79 383.25 181.08 383.42 181.37 383.51 181.7 383.51 182.08 383.51 182.46 383.42 182.79 383.25 183.08 383.08 183.37 382.85 183.59 382.57 183.74 382.29 183.89 381.98 183.97 381.66 183.97 381.34 183.97 381.02 183.89 380.74 183.74 380.46 183.59 380.23 183.36 380.06 183.08 379.89 182.79 379.8 182.46 379.8 182.08 379.8 181.7 379.88 181.37 380.06 181.08ZM381.05 182.85C381.21 183.04 381.41 183.13 381.66 183.13 381.91 183.13 382.1 183.04 382.26 182.85 382.42 182.66 382.5 182.41 382.5 182.08 382.5 181.75 382.42 181.5 382.26 181.31 382.1 181.12 381.9 181.02 381.66 181.02 381.42 181.02 381.22 181.12 381.05 181.31 380.89 181.5 380.81 181.76 380.81 182.08 380.81 182.4 380.89 182.66 381.05 182.85Z" stroke-width="0"/><path d="M386.54 180.24C386.66 180.28 386.75 180.34 386.82 180.4L386.44 181.15C386.32 181.07 386.18 181.02 386.03 181.02 385.78 181.02 385.58 181.13 385.42 181.34 385.27 181.55 385.19 181.84 385.19 182.21L385.19 183.9 384.22 183.9 384.22 180.27 385.07 180.27C385.09 180.55 385.11 180.74 385.13 180.84 385.24 180.62 385.38 180.46 385.55 180.34 385.72 180.23 385.92 180.17 386.14 180.17 386.28 180.17 386.41 180.19 386.53 180.23Z" stroke-width="0"/><path d="M392.17 180.58C392.39 180.84 392.5 181.22 392.5 181.72L392.5 183.9 391.55 183.9 391.55 182.04C391.55 181.38 391.37 181.05 391 181.05 390.8 181.05 390.64 181.14 390.52 181.32 390.4 181.5 390.34 181.75 390.34 182.08L390.34 183.9 389.39 183.9 389.39 182.04C389.39 181.38 389.21 181.05 388.84 181.05 388.64 181.05 388.48 181.14 388.36 181.32 388.24 181.5 388.19 181.75 388.19 182.08L388.19 183.9 387.24 183.9 387.24 180.27 388.07 180.27C388.09 180.54 388.11 180.71 388.13 180.8 388.37 180.38 388.71 180.18 389.17 180.18 389.41 180.18 389.63 180.24 389.81 180.37 389.99 180.5 390.13 180.68 390.22 180.93 390.34 180.67 390.49 180.48 390.68 180.36 390.87 180.24 391.09 180.18 391.32 180.18 391.67 180.18 391.95 180.31 392.17 180.58Z" stroke-width="0"/><path d="M396.03 180.6C396.31 180.88 396.44 181.27 396.44 181.79L396.44 183.9 395.62 183.9C395.62 183.9 395.62 183.8 395.6 183.71 395.6 183.62 395.58 183.55 395.57 183.48 395.46 183.65 395.32 183.77 395.15 183.86 394.98 183.94 394.77 183.98 394.53 183.98 394.29 183.98 394.05 183.94 393.84 183.85 393.63 183.76 393.47 183.63 393.35 183.46 393.23 183.29 393.17 183.09 393.17 182.85 393.17 182.61 393.24 182.4 393.38 182.22 393.52 182.04 393.7 181.9 393.94 181.8 394.17 181.7 394.43 181.65 394.71 181.65 394.96 181.65 395.22 181.69 395.49 181.78 395.48 181.24 395.25 180.98 394.8 180.98 394.45 180.98 394.19 181.14 394.02 181.46L393.33 181.06C393.46 180.79 393.66 180.58 393.93 180.42 394.2 180.26 394.52 180.19 394.88 180.19 395.37 180.19 395.75 180.33 396.03 180.61ZM395.48 182.43C395.25 182.37 395.04 182.35 394.87 182.35 394.64 182.35 394.46 182.39 394.34 182.47 394.21 182.55 394.15 182.67 394.15 182.82 394.15 182.96 394.2 183.06 394.3 183.14 394.4 183.21 394.53 183.25 394.69 183.25 394.9 183.25 395.08 183.19 395.24 183.07 395.4 182.95 395.48 182.79 395.48 182.58L395.48 182.44Z" stroke-width="0"/><path d="M398.27 183.9 397.3 183.9 397.3 178.57 398.27 178.57 398.27 183.9Z" stroke-width="0"/></g><g><path d="M377.35 195.85 377.35 194.97 379.31 194.97 379.31 197.06C379.15 197.32 378.9 197.52 378.55 197.67 378.2 197.82 377.82 197.9 377.4 197.9 376.9 197.9 376.46 197.79 376.07 197.56 375.68 197.34 375.38 197.02 375.17 196.62 374.96 196.22 374.85 195.76 374.85 195.24 374.85 194.72 374.96 194.26 375.18 193.85 375.4 193.45 375.71 193.14 376.09 192.92 376.48 192.7 376.91 192.59 377.38 192.59 377.85 192.59 378.26 192.7 378.61 192.91 378.96 193.12 379.19 193.39 379.31 193.73L378.47 194.21C378.37 194 378.22 193.83 378.03 193.7 377.84 193.58 377.61 193.51 377.35 193.51 377.07 193.51 376.83 193.58 376.61 193.72 376.39 193.86 376.22 194.06 376.09 194.32 375.96 194.58 375.9 194.88 375.9 195.23 375.9 195.58 375.96 195.89 376.09 196.15 376.22 196.41 376.4 196.61 376.64 196.75 376.88 196.89 377.15 196.96 377.46 196.96 377.82 196.96 378.11 196.86 378.31 196.66L378.31 195.83 377.34 195.83Z" stroke-width="0"/><path d="M382.53 194.32C382.78 194.46 382.97 194.66 383.11 194.92 383.25 195.18 383.32 195.48 383.32 195.81 383.32 195.96 383.31 196.11 383.28 196.27L380.87 196.27C380.91 196.54 381.01 196.74 381.16 196.88 381.31 197.02 381.51 197.09 381.73 197.09 381.89 197.09 382.04 197.05 382.17 196.98 382.3 196.91 382.4 196.8 382.47 196.65L383.18 197.07C383.08 197.34 382.89 197.54 382.62 197.69 382.34 197.83 382.03 197.91 381.69 197.91 381.35 197.91 381.06 197.84 380.78 197.69 380.5 197.55 380.28 197.33 380.1 197.04 379.93 196.75 379.84 196.4 379.84 196 379.84 195.6 379.92 195.26 380.1 194.97 380.27 194.69 380.49 194.47 380.77 194.33 381.05 194.19 381.34 194.11 381.67 194.11 382 194.11 382.28 194.18 382.53 194.32ZM381.15 195.08C381.01 195.2 380.92 195.37 380.88 195.59L382.32 195.59C382.3 195.37 382.23 195.19 382.11 195.08 381.99 194.96 381.83 194.9 381.64 194.9 381.45 194.9 381.29 194.96 381.15 195.08Z" stroke-width="0"/><path d="M386.99 194.5C387.22 194.76 387.34 195.15 387.34 195.65L387.34 197.82 386.37 197.82 386.37 195.96C386.37 195.3 386.15 194.97 385.71 194.97 385.48 194.97 385.29 195.06 385.15 195.24 385.01 195.42 384.94 195.67 384.94 196L384.94 197.82 383.97 197.82 383.97 194.19 384.82 194.19C384.84 194.48 384.86 194.67 384.88 194.77 385.11 194.32 385.5 194.1 386.04 194.1 386.44 194.1 386.76 194.23 386.99 194.5Z" stroke-width="0"/><path d="M390.69 197.61C390.45 197.81 390.12 197.9 389.7 197.9 389.31 197.9 388.99 197.8 388.75 197.59 388.51 197.38 388.39 197.01 388.39 196.47L388.39 195.01 387.75 195.01 387.75 194.19 388.39 194.19 388.39 193.08 389.36 193.08 389.36 194.19 390.45 194.19 390.45 195.01 389.36 195.01 389.36 196.31C389.36 196.55 389.4 196.74 389.49 196.86 389.58 196.98 389.71 197.05 389.9 197.05 390.06 197.05 390.22 197 390.36 196.9L390.7 197.6Z" stroke-width="0"/><path d="M392.1 197.82 391.13 197.82 391.13 192.49 392.1 192.49 392.1 197.82Z" stroke-width="0"/><path d="M395.47 194.32C395.72 194.46 395.91 194.66 396.05 194.92 396.19 195.18 396.26 195.48 396.26 195.81 396.26 195.96 396.25 196.11 396.22 196.27L393.81 196.27C393.85 196.54 393.95 196.74 394.1 196.88 394.25 197.02 394.45 197.09 394.67 197.09 394.83 197.09 394.98 197.05 395.11 196.98 395.24 196.91 395.34 196.8 395.41 196.65L396.12 197.07C396.02 197.34 395.83 197.54 395.56 197.69 395.28 197.83 394.97 197.91 394.63 197.91 394.29 197.91 394 197.84 393.72 197.69 393.44 197.55 393.22 197.33 393.04 197.04 392.87 196.75 392.78 196.4 392.78 196 392.78 195.6 392.86 195.26 393.04 194.97 393.21 194.69 393.43 194.47 393.71 194.33 393.99 194.19 394.28 194.11 394.61 194.11 394.94 194.11 395.22 194.18 395.47 194.32ZM394.09 195.08C393.95 195.2 393.86 195.37 393.82 195.59L395.26 195.59C395.24 195.37 395.17 195.19 395.05 195.08 394.93 194.96 394.77 194.9 394.58 194.9 394.39 194.9 394.23 194.96 394.09 195.08Z" stroke-width="0"/></g><g><path d="M375.59 206.63 376.61 206.63 376.61 210.84 378.94 210.84 378.94 211.75 375.59 211.75 375.59 206.63Z" stroke-width="0"/><path d="M379.64 207.49C379.53 207.37 379.47 207.23 379.47 207.07 379.47 206.91 379.53 206.77 379.64 206.65 379.75 206.53 379.89 206.47 380.05 206.47 380.21 206.47 380.35 206.53 380.46 206.65 380.58 206.77 380.63 206.91 380.63 207.07 380.63 207.23 380.57 207.37 380.46 207.49 380.34 207.61 380.21 207.67 380.05 207.67 379.89 207.67 379.76 207.61 379.65 207.49ZM380.54 211.76 379.57 211.76 379.57 208.13 380.54 208.13 380.54 211.76Z" stroke-width="0"/><path d="M384.94 208.13 384.94 213.38 383.97 213.38 383.97 211.3C383.84 211.48 383.69 211.62 383.49 211.71 383.3 211.8 383.09 211.84 382.87 211.84 382.57 211.84 382.3 211.77 382.05 211.62 381.8 211.47 381.6 211.25 381.46 210.96 381.31 210.67 381.24 210.33 381.24 209.94 381.24 209.55 381.31 209.2 381.46 208.91 381.61 208.62 381.81 208.41 382.05 208.26 382.3 208.11 382.57 208.04 382.87 208.04 383.11 208.04 383.33 208.09 383.53 208.2 383.73 208.31 383.89 208.46 384.02 208.67 384.05 208.4 384.07 208.22 384.08 208.13L384.93 208.13ZM383.71 210.72C383.88 210.55 383.96 210.29 383.96 209.94 383.96 209.59 383.87 209.32 383.7 209.14 383.53 208.96 383.33 208.87 383.09 208.87 382.83 208.87 382.63 208.97 382.47 209.16 382.31 209.35 382.24 209.61 382.24 209.94 382.24 210.27 382.32 210.52 382.47 210.7 382.63 210.88 382.83 210.98 383.09 210.98 383.33 210.98 383.54 210.89 383.71 210.73Z" stroke-width="0"/><path d="M388.19 208.13 389.16 208.13 389.16 211.76 388.3 211.76C388.28 211.48 388.26 211.29 388.24 211.19 388.12 211.41 387.96 211.57 387.76 211.68 387.56 211.79 387.34 211.84 387.09 211.84 386.68 211.84 386.36 211.71 386.13 211.45 385.9 211.19 385.78 210.81 385.78 210.3L385.78 208.13 386.75 208.13 386.75 209.98C386.75 210.65 386.96 210.98 387.39 210.98 387.62 210.98 387.81 210.89 387.96 210.71 388.1 210.53 388.18 210.27 388.18 209.95L388.18 208.14Z" stroke-width="0"/><path d="M390.15 207.49C390.04 207.37 389.98 207.23 389.98 207.07 389.98 206.91 390.04 206.77 390.15 206.65 390.26 206.53 390.4 206.47 390.56 206.47 390.72 206.47 390.86 206.53 390.97 206.65 391.09 206.77 391.14 206.91 391.14 207.07 391.14 207.23 391.08 207.37 390.97 207.49 390.85 207.61 390.72 207.67 390.56 207.67 390.4 207.67 390.27 207.61 390.16 207.49ZM391.05 211.76 390.08 211.76 390.08 208.13 391.05 208.13 391.05 211.76Z" stroke-width="0"/><path d="M394.47 206.43 395.44 206.43 395.44 211.76 394.59 211.76C394.57 211.49 394.55 211.31 394.53 211.21 394.4 211.42 394.24 211.58 394.04 211.68 393.84 211.78 393.62 211.84 393.38 211.84 393.08 211.84 392.81 211.77 392.56 211.62 392.31 211.47 392.11 211.25 391.97 210.96 391.82 210.67 391.75 210.33 391.75 209.94 391.75 209.55 391.82 209.2 391.97 208.91 392.12 208.62 392.32 208.41 392.56 208.26 392.81 208.11 393.08 208.04 393.38 208.04 393.6 208.04 393.8 208.08 393.99 208.17 394.18 208.26 394.34 208.39 394.47 208.58L394.47 206.43ZM394.22 210.74C394.39 210.56 394.47 210.3 394.47 209.94 394.47 209.58 394.39 209.33 394.22 209.16 394.05 208.99 393.85 208.91 393.6 208.91 393.34 208.91 393.14 209 392.98 209.18 392.82 209.36 392.75 209.62 392.75 209.94 392.75 210.26 392.83 210.53 392.98 210.72 393.14 210.91 393.34 211.01 393.6 211.01 393.84 211.01 394.05 210.92 394.22 210.74Z" stroke-width="0"/></g><g><path d="M124.77 196.94C124.95 196.81 125.09 196.63 125.2 196.39L126.05 196.88C125.92 197.23 125.69 197.51 125.36 197.73 125.02 197.95 124.62 198.06 124.16 198.06 123.7 198.06 123.29 197.95 122.92 197.73 122.55 197.51 122.25 197.2 122.03 196.8 121.81 196.4 121.7 195.93 121.7 195.41 121.7 194.89 121.81 194.43 122.03 194.02 122.25 193.62 122.54 193.31 122.92 193.09 123.3 192.87 123.71 192.76 124.16 192.76 124.61 192.76 125.03 192.87 125.36 193.09 125.7 193.31 125.93 193.59 126.05 193.94L125.2 194.43C125.09 194.2 124.95 194.01 124.77 193.88 124.59 193.75 124.38 193.68 124.13 193.68 123.87 193.68 123.64 193.75 123.43 193.89 123.22 194.03 123.06 194.23 122.94 194.49 122.82 194.75 122.76 195.05 122.76 195.4 122.76 195.75 122.82 196.05 122.94 196.31 123.06 196.57 123.22 196.77 123.43 196.91 123.64 197.05 123.87 197.12 124.13 197.12 124.38 197.12 124.59 197.06 124.77 196.92Z" stroke-width="0"/><path d="M129.31 194.68C129.58 194.96 129.72 195.35 129.72 195.87L129.72 197.98 128.9 197.98C128.9 197.98 128.89 197.88 128.88 197.79 128.88 197.7 128.86 197.63 128.85 197.56 128.74 197.73 128.6 197.85 128.43 197.93 128.26 198.01 128.05 198.05 127.81 198.05 127.57 198.05 127.33 198.01 127.12 197.92 126.91 197.83 126.75 197.7 126.63 197.53 126.51 197.36 126.45 197.16 126.45 196.92 126.45 196.68 126.52 196.47 126.66 196.29 126.8 196.11 126.98 195.97 127.22 195.87 127.45 195.77 127.71 195.72 127.99 195.72 128.24 195.72 128.5 195.76 128.77 195.85 128.76 195.31 128.53 195.04 128.08 195.04 127.73 195.04 127.47 195.2 127.3 195.52L126.61 195.12C126.74 194.85 126.94 194.64 127.21 194.48 127.48 194.32 127.8 194.25 128.16 194.25 128.65 194.25 129.03 194.39 129.31 194.67ZM128.76 196.51C128.53 196.45 128.32 196.43 128.15 196.43 127.92 196.43 127.74 196.47 127.62 196.55 127.49 196.63 127.43 196.75 127.43 196.9 127.43 197.04 127.48 197.14 127.58 197.21 127.68 197.28 127.81 197.32 127.97 197.32 128.18 197.32 128.36 197.26 128.52 197.14 128.68 197.02 128.76 196.86 128.76 196.65L128.76 196.51Z" stroke-width="0"/><path d="M133.6 194.66C133.83 194.92 133.95 195.31 133.95 195.81L133.95 197.98 132.98 197.98 132.98 196.13C132.98 195.47 132.76 195.14 132.32 195.14 132.09 195.14 131.9 195.23 131.76 195.41 131.62 195.59 131.55 195.84 131.55 196.17L131.55 197.99 130.58 197.99 130.58 194.36 131.43 194.36C131.45 194.64 131.47 194.84 131.49 194.94 131.72 194.49 132.11 194.27 132.65 194.27 133.05 194.27 133.37 194.4 133.6 194.67Z" stroke-width="0"/><path d="M134.87 193.71C134.76 193.59 134.7 193.45 134.7 193.29 134.7 193.13 134.76 192.99 134.87 192.87 134.98 192.75 135.12 192.7 135.28 192.7 135.44 192.7 135.58 192.76 135.69 192.88 135.81 193 135.86 193.14 135.86 193.3 135.86 193.46 135.8 193.6 135.69 193.72 135.57 193.84 135.44 193.9 135.28 193.9 135.12 193.9 134.99 193.84 134.88 193.72ZM135.77 197.98 134.8 197.98 134.8 194.35 135.77 194.35 135.77 197.98Z" stroke-width="0"/><path d="M138.95 197.75C138.67 197.96 138.31 198.06 137.87 198.06 137.49 198.06 137.16 197.98 136.88 197.81 136.6 197.65 136.41 197.42 136.32 197.13L137.03 196.72C137.1 196.89 137.21 197.03 137.36 197.12 137.51 197.22 137.68 197.26 137.88 197.26 138.03 197.26 138.15 197.23 138.24 197.18 138.33 197.12 138.37 197.04 138.37 196.94 138.37 196.82 138.31 196.73 138.19 196.67 138.07 196.61 137.89 196.54 137.64 196.47 137.39 196.4 137.19 196.32 137.03 196.25 136.87 196.18 136.74 196.08 136.62 195.95 136.51 195.82 136.45 195.64 136.45 195.43 136.45 195.19 136.52 194.98 136.65 194.8 136.78 194.62 136.96 194.49 137.19 194.39 137.41 194.3 137.66 194.25 137.92 194.25 138.28 194.25 138.59 194.33 138.84 194.48 139.09 194.64 139.25 194.84 139.32 195.1L138.61 195.5C138.47 195.2 138.23 195.04 137.9 195.04 137.76 195.04 137.65 195.07 137.56 195.12 137.48 195.17 137.43 195.25 137.43 195.35 137.43 195.46 137.49 195.55 137.6 195.61 137.71 195.67 137.89 195.73 138.12 195.8 138.37 195.87 138.58 195.94 138.74 196.01 138.9 196.08 139.04 196.19 139.16 196.33 139.28 196.47 139.34 196.66 139.34 196.89 139.34 197.25 139.2 197.53 138.92 197.74Z" stroke-width="0"/><path d="M142.47 197.77C142.23 197.97 141.9 198.06 141.48 198.06 141.09 198.06 140.77 197.96 140.53 197.75 140.29 197.54 140.17 197.17 140.17 196.63L140.17 195.17 139.53 195.17 139.53 194.35 140.17 194.35 140.17 193.24 141.14 193.24 141.14 194.35 142.23 194.35 142.23 195.17 141.14 195.17 141.14 196.47C141.14 196.71 141.18 196.9 141.27 197.02 141.35 197.15 141.49 197.21 141.68 197.21 141.84 197.21 142 197.16 142.14 197.06L142.48 197.76Z" stroke-width="0"/><path d="M145.32 194.48C145.57 194.62 145.76 194.82 145.9 195.08 146.04 195.34 146.11 195.64 146.11 195.97 146.11 196.12 146.1 196.27 146.07 196.42L143.66 196.42C143.7 196.69 143.8 196.9 143.95 197.03 144.1 197.17 144.3 197.24 144.52 197.24 144.68 197.24 144.83 197.2 144.96 197.13 145.09 197.06 145.19 196.95 145.26 196.8L145.97 197.22C145.87 197.49 145.68 197.69 145.41 197.84 145.13 197.98 144.82 198.06 144.48 198.06 144.14 198.06 143.85 197.99 143.57 197.84 143.29 197.69 143.07 197.48 142.89 197.19 142.72 196.9 142.63 196.55 142.63 196.15 142.63 195.75 142.71 195.41 142.89 195.12 143.06 194.84 143.28 194.62 143.56 194.48 143.84 194.34 144.13 194.26 144.46 194.26 144.79 194.26 145.07 194.33 145.32 194.47ZM143.94 195.24C143.8 195.36 143.71 195.53 143.67 195.75L145.11 195.75C145.09 195.53 145.02 195.35 144.9 195.24 144.78 195.12 144.62 195.06 144.43 195.06 144.24 195.06 144.08 195.12 143.94 195.24Z" stroke-width="0"/><path d="M149.07 194.32C149.19 194.36 149.28 194.42 149.35 194.48L148.97 195.23C148.85 195.15 148.71 195.1 148.56 195.1 148.31 195.1 148.11 195.2 147.95 195.41 147.8 195.62 147.72 195.91 147.72 196.28L147.72 197.97 146.75 197.97 146.75 194.34 147.6 194.34C147.62 194.62 147.64 194.81 147.66 194.91 147.77 194.69 147.91 194.52 148.08 194.41 148.25 194.3 148.45 194.24 148.67 194.24 148.81 194.24 148.94 194.26 149.06 194.3Z" stroke-width="0"/></g><g><path d="M310.4 192.54 311.97 196.77 313.47 192.54 314.71 192.54 312.43 198.4 311.45 198.4 309.08 192.54 310.4 192.54Z" stroke-width="0"/><path d="M317.63 194.62C317.94 194.94 318.1 195.39 318.1 195.98L318.1 198.4 317.16 198.4C317.16 198.4 317.15 198.29 317.14 198.19 317.14 198.09 317.12 198 317.1 197.93 316.98 198.12 316.82 198.26 316.62 198.36 316.43 198.45 316.19 198.5 315.91 198.5 315.63 198.5 315.36 198.45 315.12 198.35 314.88 198.25 314.69 198.1 314.56 197.91 314.42 197.72 314.35 197.48 314.35 197.22 314.35 196.96 314.43 196.7 314.59 196.5 314.75 196.3 314.96 196.14 315.23 196.02 315.5 195.91 315.79 195.85 316.11 195.85 316.4 195.85 316.69 195.9 317 195.99 316.98 195.38 316.72 195.07 316.22 195.07 315.81 195.07 315.52 195.25 315.33 195.61L314.54 195.15C314.69 194.84 314.92 194.6 315.23 194.42 315.54 194.24 315.9 194.15 316.32 194.15 316.88 194.15 317.32 194.31 317.63 194.63ZM317.01 196.71C316.74 196.65 316.51 196.61 316.31 196.61 316.05 196.61 315.85 196.66 315.7 196.75 315.56 196.84 315.48 196.98 315.48 197.15 315.48 197.3 315.54 197.42 315.65 197.51 315.76 197.6 315.91 197.64 316.09 197.64 316.33 197.64 316.54 197.57 316.72 197.44 316.9 197.3 316.99 197.12 316.99 196.88L316.99 196.72Z" stroke-width="0"/><path d="M321.71 197.05 322.56 197.55C322.43 197.86 322.22 198.09 321.93 198.25 321.64 198.41 321.31 198.49 320.95 198.49 320.59 198.49 320.24 198.41 319.92 198.24 319.6 198.07 319.34 197.82 319.14 197.5 318.94 197.17 318.84 196.78 318.84 196.33 318.84 195.88 318.94 195.48 319.14 195.15 319.34 194.82 319.6 194.57 319.92 194.41 320.24 194.24 320.58 194.16 320.95 194.16 321.32 194.16 321.65 194.24 321.93 194.4 322.22 194.56 322.43 194.79 322.56 195.1L321.71 195.6C321.52 195.29 321.27 195.14 320.94 195.14 320.65 195.14 320.42 195.25 320.25 195.46 320.08 195.68 319.99 195.97 319.99 196.34 319.99 196.71 320.08 196.99 320.25 197.21 320.43 197.43 320.66 197.54 320.94 197.54 321.26 197.54 321.52 197.38 321.71 197.07Z" stroke-width="0"/><path d="M330.26 192.54 331.14 192.54 331.14 198.4 330.04 198.4 330.04 194.62 328.55 196.84 327.94 196.84 326.44 194.61 326.44 198.4 325.34 198.4 325.34 192.54 326.26 192.54 328.26 195.57 330.25 192.54Z" stroke-width="0"/><path d="M332.33 195.18C332.52 194.85 332.79 194.59 333.11 194.42 333.43 194.25 333.79 194.15 334.17 194.15 334.55 194.15 334.89 194.24 335.21 194.42 335.53 194.6 335.79 194.85 335.99 195.18 336.18 195.51 336.28 195.89 336.28 196.32 336.28 196.75 336.18 197.13 335.99 197.46 335.8 197.79 335.54 198.04 335.21 198.22 334.89 198.4 334.54 198.48 334.17 198.48 333.8 198.48 333.44 198.39 333.11 198.22 332.78 198.04 332.52 197.79 332.33 197.46 332.14 197.13 332.04 196.75 332.04 196.32 332.04 195.89 332.14 195.51 332.33 195.18ZM333.47 197.2C333.65 197.42 333.88 197.52 334.16 197.52 334.44 197.52 334.67 197.41 334.85 197.2 335.03 196.98 335.12 196.69 335.12 196.32 335.12 195.95 335.03 195.66 334.85 195.44 334.67 195.22 334.44 195.11 334.16 195.11 333.88 195.11 333.65 195.22 333.47 195.44 333.29 195.66 333.19 195.95 333.19 196.32 333.19 196.69 333.28 196.98 333.47 197.2Z" stroke-width="0"/><path d="M339.96 192.3 341.07 192.3 341.07 198.39 340.09 198.39C340.06 198.08 340.04 197.87 340.03 197.77 339.89 198.01 339.7 198.19 339.47 198.31 339.24 198.43 338.99 198.49 338.71 198.49 338.37 198.49 338.06 198.4 337.77 198.23 337.49 198.06 337.26 197.81 337.09 197.48 336.92 197.15 336.83 196.76 336.83 196.32 336.83 195.88 336.92 195.48 337.09 195.15 337.26 194.82 337.49 194.57 337.77 194.4 338.05 194.23 338.36 194.14 338.71 194.14 338.96 194.14 339.19 194.19 339.41 194.29 339.63 194.39 339.81 194.55 339.96 194.75L339.96 192.29ZM339.67 197.23C339.86 197.03 339.96 196.72 339.96 196.32 339.96 195.92 339.86 195.62 339.67 195.43 339.48 195.24 339.24 195.14 338.97 195.14 338.68 195.14 338.44 195.24 338.26 195.45 338.08 195.66 337.99 195.95 337.99 196.32 337.99 196.69 338.08 196.99 338.26 197.21 338.44 197.43 338.67 197.54 338.97 197.54 339.25 197.54 339.48 197.44 339.67 197.24Z" stroke-width="0"/><path d="M344.93 194.39C345.22 194.55 345.44 194.78 345.59 195.08 345.74 195.38 345.83 195.72 345.83 196.1 345.83 196.27 345.81 196.44 345.78 196.62L343.03 196.62C343.08 196.93 343.19 197.16 343.37 197.32 343.55 197.48 343.76 197.56 344.03 197.56 344.22 197.56 344.38 197.52 344.53 197.44 344.68 197.36 344.79 197.23 344.87 197.07L345.69 197.55C345.58 197.85 345.36 198.09 345.05 198.25 344.73 198.41 344.38 198.5 343.99 198.5 343.6 198.5 343.27 198.42 342.95 198.25 342.63 198.08 342.37 197.84 342.18 197.51 341.99 197.18 341.89 196.78 341.89 196.32 341.89 195.86 341.99 195.47 342.18 195.14 342.37 194.81 342.63 194.57 342.94 194.4 343.25 194.23 343.6 194.15 343.96 194.15 344.32 194.15 344.65 194.23 344.94 194.39ZM343.36 195.26C343.21 195.4 343.1 195.59 343.05 195.84L344.7 195.84C344.68 195.58 344.6 195.39 344.46 195.25 344.32 195.11 344.14 195.05 343.93 195.05 343.72 195.05 343.52 195.12 343.37 195.26Z" stroke-width="0"/></g><g><path d="M226.69 192.53C227.15 192.53 227.56 192.61 227.91 192.77 228.26 192.93 228.52 193.16 228.71 193.45 228.9 193.74 228.99 194.08 228.99 194.47 228.99 194.86 228.9 195.19 228.71 195.48 228.52 195.77 228.25 196 227.91 196.15 227.56 196.31 227.16 196.39 226.69 196.39L225.83 196.39 225.83 198.39 224.67 198.39 224.67 192.53 226.69 192.53ZM226.56 195.4C226.92 195.4 227.21 195.32 227.43 195.16 227.65 195 227.76 194.77 227.76 194.46 227.76 194.15 227.65 193.91 227.43 193.75 227.21 193.59 226.92 193.51 226.56 193.51L225.83 193.51 225.83 195.4 226.56 195.4Z" stroke-width="0"/><path d="M232.36 194.24 233.47 194.24 233.47 198.38 232.49 198.38C232.47 198.06 232.45 197.84 232.43 197.73 232.29 197.98 232.11 198.17 231.89 198.29 231.67 198.41 231.41 198.47 231.12 198.47 230.66 198.47 230.29 198.32 230.02 198.02 229.75 197.72 229.62 197.28 229.62 196.71L229.62 194.23 230.73 194.23 230.73 196.34C230.73 197.1 230.98 197.48 231.47 197.48 231.74 197.48 231.95 197.38 232.12 197.17 232.28 196.96 232.37 196.67 232.37 196.3L232.37 194.23Z" stroke-width="0"/><path d="M235.62 198.38 234.51 198.38 234.51 192.29 235.62 192.29 235.62 198.38Z" stroke-width="0"/><path d="M239.25 198.13C238.93 198.37 238.52 198.49 238.01 198.49 237.57 198.49 237.2 198.4 236.88 198.21 236.56 198.02 236.35 197.76 236.24 197.43L237.05 196.96C237.13 197.16 237.26 197.31 237.43 197.42 237.6 197.53 237.8 197.58 238.03 197.58 238.2 197.58 238.34 197.55 238.44 197.48 238.54 197.42 238.59 197.33 238.59 197.21 238.59 197.08 238.52 196.97 238.39 196.9 238.26 196.83 238.05 196.75 237.77 196.67 237.49 196.58 237.26 196.5 237.08 196.42 236.9 196.34 236.75 196.22 236.62 196.07 236.49 195.92 236.42 195.72 236.42 195.47 236.42 195.19 236.5 194.95 236.65 194.75 236.8 194.55 237.01 194.39 237.26 194.29 237.52 194.18 237.8 194.13 238.1 194.13 238.52 194.13 238.87 194.22 239.16 194.4 239.45 194.58 239.63 194.81 239.7 195.11L238.89 195.57C238.73 195.22 238.46 195.05 238.08 195.05 237.92 195.05 237.79 195.08 237.7 195.14 237.6 195.2 237.56 195.29 237.56 195.4 237.56 195.53 237.62 195.63 237.75 195.69 237.88 195.76 238.08 195.83 238.35 195.9 238.64 195.98 238.87 196.06 239.06 196.14 239.25 196.22 239.41 196.34 239.54 196.5 239.67 196.66 239.74 196.88 239.74 197.14 239.74 197.55 239.58 197.87 239.26 198.11Z" stroke-width="0"/><path d="M243.22 194.38C243.51 194.54 243.73 194.77 243.88 195.07 244.04 195.37 244.12 195.71 244.12 196.09 244.12 196.26 244.1 196.43 244.07 196.61L241.32 196.61C241.37 196.92 241.48 197.15 241.66 197.31 241.84 197.47 242.05 197.55 242.32 197.55 242.51 197.55 242.67 197.51 242.82 197.43 242.97 197.35 243.08 197.22 243.16 197.06L243.98 197.54C243.87 197.84 243.65 198.08 243.34 198.24 243.02 198.4 242.67 198.49 242.28 198.49 241.89 198.49 241.56 198.41 241.24 198.24 240.92 198.07 240.66 197.83 240.47 197.5 240.28 197.17 240.18 196.77 240.18 196.31 240.18 195.85 240.28 195.46 240.47 195.13 240.66 194.8 240.92 194.56 241.23 194.39 241.54 194.22 241.89 194.14 242.25 194.14 242.61 194.14 242.94 194.22 243.23 194.38ZM241.65 195.25C241.5 195.39 241.39 195.58 241.34 195.83L242.99 195.83C242.97 195.57 242.89 195.38 242.75 195.24 242.61 195.1 242.43 195.04 242.22 195.04 242.01 195.04 241.81 195.11 241.66 195.25Z" stroke-width="0"/><path d="M247.54 192.53 249.11 196.76 250.61 192.53 251.85 192.53 249.57 198.39 248.59 198.39 246.22 192.53 247.54 192.53Z" stroke-width="0"/><path d="M254.77 194.61C255.08 194.93 255.24 195.38 255.24 195.97L255.24 198.39 254.3 198.39C254.3 198.39 254.29 198.28 254.28 198.18 254.28 198.08 254.26 197.99 254.24 197.92 254.12 198.11 253.96 198.25 253.76 198.35 253.57 198.44 253.33 198.49 253.05 198.49 252.77 198.49 252.5 198.44 252.26 198.34 252.02 198.24 251.83 198.09 251.7 197.9 251.56 197.71 251.49 197.47 251.49 197.21 251.49 196.95 251.57 196.69 251.73 196.49 251.89 196.28 252.1 196.13 252.37 196.01 252.64 195.9 252.93 195.84 253.25 195.84 253.54 195.84 253.83 195.89 254.14 195.98 254.12 195.37 253.86 195.06 253.36 195.06 252.95 195.06 252.66 195.24 252.47 195.6L251.68 195.14C251.83 194.83 252.06 194.59 252.37 194.41 252.68 194.23 253.04 194.14 253.46 194.14 254.02 194.14 254.46 194.3 254.77 194.62ZM254.15 196.7C253.88 196.64 253.65 196.6 253.45 196.6 253.19 196.6 252.99 196.65 252.84 196.74 252.7 196.83 252.62 196.97 252.62 197.14 252.62 197.29 252.68 197.41 252.79 197.5 252.9 197.59 253.05 197.63 253.23 197.63 253.47 197.63 253.68 197.56 253.86 197.43 254.04 197.29 254.13 197.11 254.13 196.87L254.13 196.71Z" stroke-width="0"/><path d="M258.85 197.04 259.7 197.54C259.57 197.85 259.36 198.08 259.07 198.24 258.78 198.4 258.45 198.48 258.09 198.48 257.73 198.48 257.38 198.4 257.06 198.23 256.74 198.06 256.48 197.81 256.28 197.49 256.08 197.16 255.98 196.77 255.98 196.32 255.98 195.87 256.08 195.47 256.28 195.14 256.48 194.81 256.74 194.56 257.06 194.4 257.38 194.23 257.72 194.15 258.09 194.15 258.46 194.15 258.79 194.23 259.07 194.39 259.36 194.55 259.57 194.78 259.7 195.09L258.85 195.59C258.66 195.28 258.41 195.13 258.08 195.13 257.79 195.13 257.56 195.24 257.39 195.45 257.22 195.67 257.13 195.96 257.13 196.33 257.13 196.7 257.22 196.98 257.39 197.2 257.57 197.42 257.8 197.53 258.08 197.53 258.4 197.53 258.66 197.37 258.85 197.06Z" stroke-width="0"/></g><line x1="296.56" y1="81.48" x2="332.06" y2="81.48" stroke="#000000" stroke-width="1.5" stroke-linecap="round" stroke-miterlimit="10" fill="none"/><g><path d="M297.25 71.88 298.82 76.11 300.32 71.88 301.56 71.88 299.28 77.74 298.3 77.74 295.93 71.88 297.25 71.88Z" stroke-width="0"/><path d="M304.47 73.97C304.78 74.29 304.94 74.74 304.94 75.33L304.94 77.75 304 77.75C304 77.75 303.99 77.64 303.98 77.54 303.98 77.44 303.96 77.35 303.94 77.28 303.82 77.47 303.66 77.61 303.46 77.71 303.26 77.81 303.03 77.85 302.75 77.85 302.47 77.85 302.2 77.8 301.96 77.7 301.72 77.6 301.53 77.45 301.4 77.26 301.26 77.07 301.19 76.83 301.19 76.57 301.19 76.31 301.27 76.05 301.43 75.85 301.59 75.64 301.8 75.49 302.07 75.37 302.34 75.26 302.63 75.2 302.95 75.2 303.24 75.2 303.53 75.25 303.84 75.34 303.82 74.73 303.56 74.42 303.06 74.42 302.65 74.42 302.36 74.6 302.17 74.96L301.38 74.5C301.53 74.19 301.76 73.95 302.07 73.77 302.38 73.59 302.74 73.5 303.16 73.5 303.72 73.5 304.16 73.66 304.47 73.98ZM303.85 76.06C303.58 76 303.35 75.96 303.15 75.96 302.89 75.96 302.69 76.01 302.54 76.1 302.4 76.19 302.32 76.33 302.32 76.5 302.32 76.65 302.38 76.77 302.49 76.86 302.6 76.95 302.75 76.99 302.93 76.99 303.17 76.99 303.38 76.92 303.56 76.79 303.74 76.65 303.83 76.47 303.83 76.23L303.83 76.07Z" stroke-width="0"/><path d="M308.55 76.4 309.4 76.9C309.27 77.21 309.06 77.44 308.77 77.6 308.48 77.76 308.15 77.84 307.79 77.84 307.43 77.84 307.08 77.76 306.76 77.59 306.44 77.42 306.18 77.17 305.98 76.85 305.78 76.52 305.68 76.13 305.68 75.68 305.68 75.23 305.78 74.83 305.98 74.5 306.18 74.17 306.44 73.92 306.76 73.76 307.08 73.59 307.42 73.51 307.79 73.51 308.16 73.51 308.49 73.59 308.77 73.75 309.06 73.91 309.27 74.14 309.4 74.45L308.55 74.95C308.36 74.64 308.11 74.49 307.78 74.49 307.49 74.49 307.26 74.6 307.09 74.81 306.92 75.03 306.83 75.32 306.83 75.69 306.83 76.06 306.92 76.34 307.09 76.56 307.27 76.78 307.5 76.89 307.78 76.89 308.1 76.89 308.36 76.73 308.55 76.42Z" stroke-width="0"/><path d="M315.61 77.74 314.23 77.74 313.62 77.1C313.08 77.59 312.43 77.84 311.68 77.84 311.08 77.84 310.59 77.69 310.22 77.39 309.85 77.09 309.66 76.67 309.66 76.13 309.66 75.69 309.78 75.33 310.01 75.05 310.24 74.77 310.57 74.53 310.98 74.32 310.77 74.08 310.63 73.87 310.54 73.68 310.46 73.49 310.42 73.29 310.42 73.08 310.42 72.76 310.5 72.49 310.66 72.26 310.82 72.03 311.03 71.86 311.3 71.74 311.57 71.62 311.87 71.56 312.19 71.56 312.51 71.56 312.82 71.62 313.07 71.74 313.32 71.86 313.51 72.03 313.65 72.25 313.78 72.47 313.85 72.71 313.85 72.98 313.85 73.34 313.74 73.64 313.51 73.87 313.28 74.1 312.96 74.32 312.55 74.53L313.55 75.59C313.73 75.2 313.85 74.76 313.92 74.27L315.03 74.27C314.91 75.06 314.66 75.76 314.28 76.35L315.61 77.74ZM312.94 76.39 311.61 74.98C311.36 75.12 311.16 75.28 311.03 75.44 310.89 75.61 310.82 75.8 310.82 76.02 310.82 76.28 310.91 76.48 311.09 76.63 311.27 76.77 311.5 76.85 311.8 76.85 312.21 76.85 312.59 76.7 312.94 76.39ZM311.64 73.43C311.7 73.55 311.8 73.7 311.95 73.87 312.21 73.75 312.4 73.62 312.53 73.49 312.66 73.36 312.73 73.2 312.73 73.02 312.73 72.87 312.68 72.74 312.57 72.64 312.47 72.54 312.33 72.49 312.16 72.49 311.98 72.49 311.83 72.54 311.72 72.64 311.61 72.74 311.55 72.89 311.55 73.07 311.55 73.18 311.58 73.3 311.64 73.42Z" stroke-width="0"/><path d="M319.64 77.05C319.43 77.32 319.17 77.52 318.84 77.65 318.51 77.78 318.16 77.84 317.79 77.84 317.25 77.84 316.75 77.71 316.32 77.46 315.88 77.21 315.59 76.85 315.45 76.38L316.39 75.84C316.52 76.14 316.7 76.37 316.95 76.54 317.2 76.71 317.49 76.79 317.83 76.79 318.11 76.79 318.33 76.73 318.49 76.62 318.65 76.51 318.73 76.35 318.73 76.13 318.73 75.96 318.68 75.82 318.57 75.71 318.46 75.6 318.32 75.51 318.16 75.45 318 75.39 317.77 75.31 317.49 75.23 317.11 75.12 316.8 75.01 316.56 74.9 316.32 74.79 316.11 74.63 315.94 74.41 315.77 74.19 315.68 73.9 315.68 73.55 315.68 73.17 315.78 72.85 315.98 72.59 316.18 72.33 316.44 72.13 316.77 72 317.1 71.87 317.45 71.8 317.83 71.8 318.35 71.8 318.79 71.92 319.16 72.15 319.53 72.38 319.77 72.7 319.87 73.1L318.93 73.64C318.83 73.39 318.69 73.19 318.5 73.05 318.31 72.91 318.07 72.84 317.78 72.84 317.52 72.84 317.31 72.9 317.14 73.02 316.98 73.14 316.9 73.3 316.9 73.5 316.9 73.65 316.95 73.77 317.05 73.87 317.15 73.97 317.28 74.05 317.44 74.11 317.6 74.17 317.81 74.24 318.08 74.32 318.46 74.43 318.78 74.55 319.03 74.66 319.28 74.77 319.5 74.95 319.67 75.17 319.85 75.4 319.94 75.69 319.94 76.06 319.94 76.46 319.84 76.79 319.63 77.06Z" stroke-width="0"/><path d="M323.46 73.74C323.75 73.9 323.97 74.13 324.12 74.43 324.28 74.73 324.36 75.07 324.36 75.45 324.36 75.62 324.34 75.79 324.31 75.97L321.56 75.97C321.61 76.28 321.72 76.51 321.9 76.67 322.08 76.83 322.29 76.91 322.56 76.91 322.75 76.91 322.91 76.87 323.06 76.79 323.21 76.71 323.32 76.58 323.4 76.42L324.22 76.9C324.11 77.2 323.89 77.44 323.58 77.6 323.26 77.77 322.91 77.85 322.52 77.85 322.13 77.85 321.8 77.77 321.48 77.6 321.16 77.43 320.9 77.19 320.71 76.86 320.52 76.53 320.42 76.13 320.42 75.67 320.42 75.21 320.52 74.82 320.71 74.49 320.9 74.16 321.16 73.92 321.47 73.75 321.78 73.59 322.13 73.5 322.49 73.5 322.85 73.5 323.18 73.58 323.47 73.74ZM321.89 74.61C321.74 74.75 321.63 74.94 321.58 75.19L323.23 75.19C323.21 74.93 323.13 74.74 322.99 74.6 322.85 74.46 322.67 74.4 322.46 74.4 322.25 74.4 322.05 74.47 321.9 74.61Z" stroke-width="0"/><path d="M328.16 73.97C328.47 74.29 328.63 74.74 328.63 75.33L328.63 77.75 327.69 77.75C327.69 77.75 327.68 77.64 327.67 77.54 327.67 77.44 327.65 77.35 327.63 77.28 327.51 77.47 327.35 77.61 327.15 77.71 326.96 77.8 326.72 77.85 326.44 77.85 326.16 77.85 325.89 77.8 325.65 77.7 325.41 77.6 325.23 77.45 325.09 77.26 324.95 77.07 324.88 76.83 324.88 76.57 324.88 76.31 324.96 76.05 325.12 75.85 325.28 75.64 325.49 75.49 325.76 75.37 326.03 75.26 326.32 75.2 326.64 75.2 326.93 75.2 327.22 75.25 327.53 75.34 327.51 74.73 327.25 74.42 326.75 74.42 326.34 74.42 326.05 74.6 325.86 74.96L325.07 74.5C325.22 74.19 325.45 73.95 325.76 73.77 326.07 73.59 326.43 73.5 326.85 73.5 327.41 73.5 327.85 73.66 328.16 73.98ZM327.54 76.06C327.27 76 327.04 75.96 326.84 75.96 326.58 75.96 326.38 76.01 326.23 76.1 326.09 76.19 326.02 76.33 326.02 76.5 326.02 76.65 326.08 76.77 326.19 76.86 326.3 76.95 326.45 76.99 326.63 76.99 326.87 76.99 327.08 76.92 327.26 76.79 327.44 76.65 327.53 76.47 327.53 76.23L327.53 76.07Z" stroke-width="0"/><path d="M330.72 77.74 329.61 77.74 329.61 71.65 330.72 71.65 330.72 77.74Z" stroke-width="0"/></g><g><path d="M56.01 192.35 58.38 198.21 57.15 198.21 56.64 196.87 54.36 196.87 53.86 198.21 52.7 198.21 55 192.35 56.02 192.35ZM56.26 195.88 55.48 193.82 54.72 195.88 56.26 195.88Z" stroke-width="0"/><path d="M61.47 196.86 62.32 197.36C62.19 197.67 61.98 197.9 61.69 198.06 61.4 198.22 61.07 198.3 60.71 198.3 60.35 198.3 60 198.22 59.68 198.05 59.36 197.88 59.1 197.63 58.9 197.31 58.7 196.98 58.6 196.59 58.6 196.14 58.6 195.69 58.7 195.29 58.9 194.96 59.1 194.63 59.36 194.38 59.68 194.22 60 194.05 60.34 193.97 60.71 193.97 61.08 193.97 61.41 194.05 61.69 194.21 61.98 194.37 62.19 194.6 62.32 194.91L61.47 195.41C61.28 195.1 61.03 194.95 60.7 194.95 60.41 194.95 60.18 195.06 60.01 195.27 59.84 195.49 59.75 195.78 59.75 196.15 59.75 196.52 59.84 196.8 60.01 197.02 60.19 197.24 60.42 197.35 60.7 197.35 61.02 197.35 61.28 197.19 61.47 196.88Z" stroke-width="0"/><path d="M65.46 196.86 66.31 197.36C66.18 197.67 65.97 197.9 65.68 198.06 65.39 198.22 65.06 198.3 64.7 198.3 64.34 198.3 63.99 198.22 63.67 198.05 63.35 197.88 63.09 197.63 62.89 197.31 62.69 196.98 62.59 196.59 62.59 196.14 62.59 195.69 62.69 195.29 62.89 194.96 63.09 194.63 63.35 194.38 63.67 194.22 63.99 194.05 64.33 193.97 64.7 193.97 65.07 193.97 65.4 194.05 65.68 194.21 65.97 194.37 66.18 194.6 66.31 194.91L65.46 195.41C65.27 195.1 65.02 194.95 64.69 194.95 64.4 194.95 64.17 195.06 64 195.27 63.83 195.49 63.74 195.78 63.74 196.15 63.74 196.52 63.83 196.8 64 197.02 64.18 197.24 64.41 197.35 64.69 197.35 65.01 197.35 65.27 197.19 65.46 196.88Z" stroke-width="0"/><path d="M69.64 194.2C69.93 194.36 70.15 194.59 70.3 194.89 70.45 195.19 70.54 195.53 70.54 195.91 70.54 196.08 70.52 196.25 70.49 196.43L67.74 196.43C67.79 196.74 67.9 196.97 68.08 197.13 68.26 197.29 68.47 197.37 68.74 197.37 68.93 197.37 69.09 197.33 69.24 197.25 69.39 197.17 69.5 197.04 69.58 196.88L70.4 197.36C70.29 197.66 70.07 197.9 69.76 198.06 69.44 198.23 69.09 198.31 68.7 198.31 68.31 198.31 67.98 198.23 67.66 198.06 67.34 197.89 67.08 197.65 66.89 197.32 66.7 196.99 66.6 196.59 66.6 196.13 66.6 195.67 66.7 195.28 66.89 194.95 67.08 194.62 67.34 194.38 67.65 194.21 67.96 194.04 68.31 193.96 68.67 193.96 69.03 193.96 69.36 194.04 69.65 194.2ZM68.07 195.07C67.92 195.21 67.81 195.4 67.76 195.65L69.41 195.65C69.39 195.39 69.31 195.2 69.17 195.06 69.03 194.92 68.85 194.86 68.64 194.86 68.43 194.86 68.23 194.93 68.08 195.07Z" stroke-width="0"/><path d="M73.95 197.95C73.63 198.19 73.22 198.31 72.71 198.31 72.27 198.31 71.9 198.22 71.58 198.03 71.26 197.84 71.05 197.58 70.94 197.25L71.75 196.78C71.83 196.98 71.96 197.13 72.13 197.24 72.3 197.35 72.5 197.4 72.73 197.4 72.9 197.4 73.04 197.37 73.14 197.3 73.24 197.24 73.29 197.15 73.29 197.03 73.29 196.9 73.22 196.79 73.09 196.72 72.96 196.65 72.75 196.57 72.47 196.49 72.19 196.4 71.96 196.32 71.78 196.24 71.6 196.16 71.45 196.04 71.32 195.89 71.19 195.74 71.12 195.54 71.12 195.29 71.12 195.01 71.2 194.77 71.35 194.57 71.5 194.37 71.71 194.21 71.96 194.11 72.22 194 72.5 193.95 72.8 193.95 73.22 193.95 73.57 194.04 73.86 194.22 74.15 194.4 74.33 194.63 74.4 194.93L73.59 195.39C73.43 195.04 73.16 194.87 72.78 194.87 72.62 194.87 72.49 194.9 72.4 194.96 72.3 195.02 72.26 195.11 72.26 195.22 72.26 195.35 72.32 195.45 72.45 195.51 72.58 195.58 72.78 195.65 73.05 195.72 73.34 195.8 73.57 195.88 73.76 195.96 73.95 196.04 74.11 196.16 74.24 196.32 74.37 196.48 74.44 196.7 74.44 196.96 74.44 197.37 74.28 197.69 73.96 197.93Z" stroke-width="0"/><path d="M77.77 197.95C77.45 198.19 77.04 198.31 76.53 198.31 76.09 198.31 75.72 198.22 75.4 198.03 75.08 197.84 74.87 197.58 74.76 197.25L75.57 196.78C75.65 196.98 75.77 197.13 75.95 197.24 76.12 197.35 76.32 197.4 76.55 197.4 76.72 197.4 76.86 197.37 76.96 197.3 77.06 197.24 77.11 197.15 77.11 197.03 77.11 196.9 77.04 196.79 76.91 196.72 76.78 196.65 76.57 196.57 76.29 196.49 76.01 196.4 75.78 196.32 75.6 196.24 75.42 196.16 75.27 196.04 75.14 195.89 75.01 195.74 74.94 195.54 74.94 195.29 74.94 195.01 75.02 194.77 75.17 194.57 75.32 194.37 75.53 194.21 75.78 194.11 76.04 194 76.32 193.95 76.62 193.95 77.04 193.95 77.39 194.04 77.68 194.22 77.97 194.4 78.15 194.63 78.22 194.93L77.41 195.39C77.25 195.04 76.98 194.87 76.6 194.87 76.44 194.87 76.31 194.9 76.22 194.96 76.12 195.02 76.08 195.11 76.08 195.22 76.08 195.35 76.14 195.45 76.27 195.51 76.4 195.58 76.6 195.65 76.87 195.72 77.16 195.8 77.39 195.88 77.58 195.96 77.77 196.04 77.93 196.16 78.06 196.32 78.19 196.48 78.26 196.7 78.26 196.96 78.26 197.37 78.1 197.69 77.78 197.93Z" stroke-width="0"/><path d="M78.97 194.99C79.16 194.66 79.42 194.4 79.75 194.23 80.08 194.06 80.43 193.96 80.81 193.96 81.19 193.96 81.53 194.05 81.85 194.23 82.17 194.41 82.43 194.66 82.63 194.99 82.82 195.32 82.92 195.7 82.92 196.13 82.92 196.56 82.82 196.94 82.63 197.27 82.44 197.6 82.18 197.85 81.85 198.03 81.53 198.21 81.18 198.29 80.81 198.29 80.44 198.29 80.08 198.2 79.75 198.03 79.42 197.85 79.16 197.6 78.97 197.27 78.78 196.94 78.68 196.56 78.68 196.13 78.68 195.7 78.78 195.32 78.97 194.99ZM80.11 197.01C80.29 197.23 80.52 197.33 80.8 197.33 81.08 197.33 81.31 197.22 81.49 197.01 81.67 196.79 81.76 196.5 81.76 196.13 81.76 195.76 81.67 195.47 81.49 195.25 81.31 195.03 81.08 194.92 80.8 194.92 80.52 194.92 80.29 195.03 80.11 195.25 79.93 195.47 79.83 195.76 79.83 196.13 79.83 196.5 79.92 196.79 80.11 197.01Z" stroke-width="0"/><path d="M86.38 194.03C86.52 194.08 86.63 194.14 86.7 194.21L86.27 195.07C86.13 194.97 85.97 194.93 85.8 194.93 85.51 194.93 85.28 195.05 85.11 195.29 84.94 195.53 84.85 195.86 84.85 196.28L84.85 198.21 83.74 198.21 83.74 194.07 84.72 194.07C84.75 194.39 84.77 194.61 84.79 194.73 84.91 194.48 85.07 194.29 85.27 194.16 85.47 194.03 85.69 193.97 85.94 193.97 86.1 193.97 86.25 193.99 86.39 194.04Z" stroke-width="0"/><path d="M87.25 193.33C87.12 193.19 87.05 193.04 87.05 192.85 87.05 192.66 87.11 192.5 87.24 192.37 87.37 192.24 87.52 192.17 87.7 192.17 87.88 192.17 88.04 192.24 88.17 192.37 88.3 192.51 88.37 192.67 88.37 192.85 88.37 193.03 88.3 193.19 88.17 193.33 88.04 193.47 87.88 193.53 87.7 193.53 87.52 193.53 87.37 193.46 87.24 193.33ZM88.28 198.21 87.17 198.21 87.17 194.07 88.28 194.07 88.28 198.21Z" stroke-width="0"/><path d="M92.13 194.2C92.42 194.36 92.64 194.59 92.79 194.89 92.95 195.19 93.03 195.53 93.03 195.91 93.03 196.08 93.01 196.25 92.98 196.43L90.23 196.43C90.28 196.74 90.39 196.97 90.57 197.13 90.75 197.29 90.96 197.37 91.23 197.37 91.42 197.37 91.58 197.33 91.73 197.25 91.88 197.17 91.99 197.04 92.07 196.88L92.89 197.36C92.78 197.66 92.56 197.9 92.25 198.06 91.93 198.23 91.58 198.31 91.19 198.31 90.8 198.31 90.47 198.23 90.15 198.06 89.83 197.89 89.57 197.65 89.38 197.32 89.19 196.99 89.09 196.59 89.09 196.13 89.09 195.67 89.19 195.28 89.38 194.95 89.57 194.62 89.83 194.38 90.14 194.21 90.45 194.04 90.8 193.96 91.16 193.96 91.52 193.96 91.85 194.04 92.14 194.2ZM90.56 195.07C90.41 195.21 90.3 195.4 90.25 195.65L91.9 195.65C91.88 195.39 91.8 195.2 91.66 195.06 91.52 194.92 91.34 194.86 91.13 194.86 90.92 194.86 90.72 194.93 90.57 195.07Z" stroke-width="0"/><path d="M96.44 197.95C96.12 198.19 95.71 198.31 95.2 198.31 94.76 198.31 94.39 198.22 94.07 198.03 93.75 197.84 93.54 197.58 93.43 197.25L94.24 196.78C94.32 196.98 94.45 197.13 94.62 197.24 94.79 197.35 94.99 197.4 95.22 197.4 95.39 197.4 95.53 197.37 95.63 197.3 95.73 197.24 95.78 197.15 95.78 197.03 95.78 196.9 95.71 196.79 95.58 196.72 95.45 196.65 95.24 196.57 94.96 196.49 94.68 196.4 94.45 196.32 94.27 196.24 94.09 196.16 93.94 196.04 93.81 195.89 93.68 195.74 93.61 195.54 93.61 195.29 93.61 195.01 93.69 194.77 93.84 194.57 93.99 194.37 94.2 194.21 94.45 194.11 94.71 194 94.99 193.95 95.29 193.95 95.71 193.95 96.06 194.04 96.35 194.22 96.64 194.4 96.82 194.63 96.89 194.93L96.08 195.39C95.92 195.04 95.65 194.87 95.27 194.87 95.11 194.87 94.98 194.9 94.89 194.96 94.79 195.02 94.75 195.11 94.75 195.22 94.75 195.35 94.81 195.45 94.94 195.51 95.07 195.58 95.27 195.65 95.54 195.72 95.83 195.8 96.06 195.88 96.25 195.96 96.44 196.04 96.6 196.16 96.73 196.32 96.86 196.48 96.93 196.7 96.93 196.96 96.93 197.37 96.77 197.69 96.45 197.93Z" stroke-width="0"/></g><g><g><path d="M56.75 137.53 54.37 137.53 54.37 138.99 57.11 138.99 57.11 140.01 53.21 140.01 53.21 134.15 57.03 134.15 57.03 135.16 54.37 135.16 54.37 136.54 56.75 136.54 56.75 137.54Z" stroke-width="0"/><path d="M59.58 137.09 60.46 135.86 61.68 135.86 60.16 137.91 61.68 140.01 60.41 140.01 59.54 138.77 58.68 140.01 57.45 140.01 58.97 137.96 57.45 135.86 58.74 135.86 59.6 137.09Z" stroke-width="0"/><path d="M65.24 139.76C64.97 139.98 64.59 140.1 64.1 140.1 63.65 140.1 63.29 139.98 63.02 139.74 62.75 139.5 62.61 139.08 62.61 138.46L62.61 136.79 61.87 136.79 61.87 135.85 62.61 135.85 62.61 134.58 63.72 134.58 63.72 135.85 64.97 135.85 64.97 136.79 63.72 136.79 63.72 138.28C63.72 138.56 63.77 138.77 63.86 138.91 63.96 139.05 64.11 139.13 64.32 139.13 64.51 139.13 64.68 139.07 64.85 138.96L65.23 139.76Z" stroke-width="0"/><path d="M68.49 136C68.78 136.16 69 136.39 69.15 136.69 69.3 136.99 69.39 137.33 69.39 137.71 69.39 137.88 69.37 138.05 69.34 138.23L66.59 138.23C66.64 138.54 66.75 138.77 66.93 138.93 67.11 139.09 67.32 139.17 67.59 139.17 67.78 139.17 67.94 139.13 68.09 139.05 68.24 138.97 68.35 138.84 68.43 138.68L69.25 139.16C69.14 139.46 68.92 139.7 68.61 139.86 68.29 140.03 67.94 140.11 67.55 140.11 67.16 140.11 66.83 140.03 66.51 139.86 66.19 139.69 65.93 139.45 65.74 139.12 65.55 138.79 65.45 138.39 65.45 137.93 65.45 137.47 65.55 137.08 65.74 136.75 65.93 136.42 66.19 136.18 66.5 136.01 66.81 135.84 67.16 135.76 67.52 135.76 67.88 135.76 68.21 135.84 68.5 136ZM66.92 136.87C66.77 137.01 66.66 137.2 66.61 137.45L68.26 137.45C68.24 137.19 68.16 137 68.02 136.86 67.88 136.72 67.7 136.66 67.49 136.66 67.28 136.66 67.08 136.73 66.93 136.87Z" stroke-width="0"/><path d="M73.59 136.2C73.86 136.5 73.99 136.94 73.99 137.52L73.99 140 72.88 140 72.88 137.88C72.88 137.12 72.63 136.74 72.13 136.74 71.86 136.74 71.65 136.84 71.49 137.05 71.33 137.26 71.25 137.55 71.25 137.92L71.25 140 70.14 140 70.14 135.86 71.12 135.86C71.15 136.19 71.17 136.41 71.19 136.52 71.46 136.01 71.9 135.75 72.52 135.75 72.98 135.75 73.34 135.9 73.61 136.2Z" stroke-width="0"/><path d="M77.84 133.91 78.95 133.91 78.95 140 77.97 140C77.94 139.69 77.92 139.48 77.91 139.38 77.77 139.62 77.58 139.8 77.35 139.92 77.12 140.04 76.87 140.1 76.59 140.1 76.25 140.1 75.94 140.01 75.65 139.84 75.37 139.67 75.14 139.42 74.97 139.09 74.8 138.76 74.71 138.37 74.71 137.93 74.71 137.49 74.8 137.09 74.97 136.76 75.14 136.43 75.37 136.18 75.65 136.01 75.93 135.84 76.24 135.75 76.59 135.75 76.84 135.75 77.07 135.8 77.29 135.9 77.51 136 77.69 136.16 77.84 136.36L77.84 133.9ZM77.55 138.84C77.74 138.64 77.84 138.33 77.84 137.93 77.84 137.53 77.74 137.23 77.55 137.04 77.36 136.85 77.12 136.75 76.85 136.75 76.56 136.75 76.32 136.85 76.14 137.06 75.96 137.27 75.87 137.56 75.87 137.93 75.87 138.3 75.96 138.6 76.14 138.82 76.32 139.04 76.55 139.15 76.85 139.15 77.13 139.15 77.36 139.05 77.55 138.85Z" stroke-width="0"/><path d="M85.89 139.31C85.68 139.58 85.42 139.78 85.09 139.91 84.76 140.04 84.41 140.1 84.04 140.1 83.5 140.1 83 139.97 82.57 139.72 82.13 139.47 81.84 139.11 81.7 138.64L82.64 138.1C82.77 138.4 82.95 138.63 83.2 138.8 83.45 138.97 83.74 139.05 84.08 139.05 84.36 139.05 84.58 138.99 84.74 138.88 84.9 138.77 84.98 138.61 84.98 138.39 84.98 138.22 84.93 138.08 84.82 137.97 84.71 137.86 84.57 137.77 84.41 137.71 84.25 137.65 84.02 137.57 83.74 137.49 83.36 137.38 83.05 137.27 82.81 137.16 82.57 137.05 82.36 136.89 82.19 136.67 82.02 136.45 81.93 136.16 81.93 135.81 81.93 135.43 82.03 135.11 82.23 134.85 82.43 134.59 82.69 134.39 83.02 134.26 83.35 134.13 83.7 134.06 84.08 134.06 84.6 134.06 85.04 134.18 85.41 134.41 85.78 134.64 86.02 134.96 86.12 135.36L85.18 135.9C85.08 135.65 84.94 135.45 84.75 135.31 84.56 135.17 84.32 135.1 84.03 135.1 83.77 135.1 83.56 135.16 83.39 135.28 83.23 135.4 83.15 135.56 83.15 135.76 83.15 135.91 83.2 136.03 83.3 136.13 83.4 136.23 83.53 136.31 83.69 136.37 83.85 136.43 84.06 136.5 84.33 136.58 84.71 136.69 85.03 136.81 85.28 136.92 85.53 137.03 85.75 137.21 85.92 137.43 86.1 137.66 86.19 137.95 86.19 138.32 86.19 138.72 86.09 139.05 85.88 139.32Z" stroke-width="0"/><path d="M89.71 136C90 136.16 90.22 136.39 90.37 136.69 90.53 136.99 90.61 137.33 90.61 137.71 90.61 137.88 90.59 138.05 90.56 138.23L87.81 138.23C87.86 138.54 87.97 138.77 88.15 138.93 88.33 139.09 88.54 139.17 88.81 139.17 89 139.17 89.16 139.13 89.31 139.05 89.46 138.97 89.57 138.84 89.65 138.68L90.47 139.16C90.36 139.46 90.14 139.7 89.83 139.86 89.51 140.03 89.16 140.11 88.77 140.11 88.38 140.11 88.05 140.03 87.73 139.86 87.41 139.69 87.15 139.45 86.96 139.12 86.77 138.79 86.67 138.39 86.67 137.93 86.67 137.47 86.77 137.08 86.96 136.75 87.15 136.42 87.41 136.18 87.72 136.01 88.03 135.84 88.38 135.76 88.74 135.76 89.1 135.76 89.43 135.84 89.72 136ZM88.14 136.87C87.99 137.01 87.88 137.2 87.83 137.45L89.48 137.45C89.46 137.19 89.38 137 89.24 136.86 89.1 136.72 88.92 136.66 88.71 136.66 88.5 136.66 88.3 136.73 88.15 136.87Z" stroke-width="0"/><path d="M94.41 136.23C94.72 136.55 94.88 137 94.88 137.59L94.88 140.01 93.94 140.01C93.94 140.01 93.93 139.9 93.92 139.8 93.92 139.7 93.9 139.61 93.88 139.54 93.76 139.73 93.6 139.87 93.4 139.97 93.21 140.06 92.97 140.11 92.69 140.11 92.41 140.11 92.14 140.06 91.9 139.96 91.66 139.86 91.47 139.71 91.34 139.52 91.2 139.33 91.13 139.09 91.13 138.83 91.13 138.57 91.21 138.31 91.37 138.11 91.53 137.9 91.74 137.75 92.01 137.63 92.28 137.52 92.57 137.46 92.89 137.46 93.18 137.46 93.47 137.51 93.78 137.6 93.76 136.99 93.5 136.68 93 136.68 92.59 136.68 92.3 136.86 92.11 137.22L91.32 136.76C91.47 136.45 91.7 136.21 92.01 136.03 92.32 135.85 92.68 135.76 93.1 135.76 93.66 135.76 94.1 135.92 94.41 136.24ZM93.79 138.32C93.52 138.26 93.29 138.22 93.09 138.22 92.83 138.22 92.63 138.27 92.48 138.36 92.34 138.45 92.26 138.59 92.26 138.76 92.26 138.91 92.32 139.03 92.43 139.12 92.54 139.21 92.69 139.25 92.87 139.25 93.11 139.25 93.32 139.18 93.5 139.05 93.68 138.91 93.77 138.73 93.77 138.49L93.77 138.33Z" stroke-width="0"/><path d="M96.97 140 95.86 140 95.86 133.91 96.97 133.91 96.97 140Z" stroke-width="0"/></g><g><path d="M65.38 144.98 70.1 144.98 70.1 146.01 68.32 146.01 68.32 150.83 67.15 150.83 67.15 146.01 65.37 146.01 65.37 144.98Z" stroke-width="0"/><path d="M70.78 145.96C70.65 145.82 70.58 145.67 70.58 145.48 70.58 145.29 70.64 145.13 70.77 145 70.9 144.87 71.05 144.8 71.23 144.8 71.41 144.8 71.57 144.87 71.7 145 71.83 145.14 71.9 145.3 71.9 145.48 71.9 145.66 71.83 145.82 71.7 145.96 71.57 146.1 71.41 146.16 71.23 146.16 71.05 146.16 70.9 146.09 70.77 145.96ZM71.81 150.84 70.7 150.84 70.7 146.7 71.81 146.7 71.81 150.84Z" stroke-width="0"/><path d="M78.48 147.04C78.73 147.34 78.86 147.77 78.86 148.34L78.86 150.84 77.77 150.84 77.77 148.72C77.77 147.96 77.56 147.58 77.14 147.58 76.91 147.58 76.73 147.68 76.59 147.89 76.45 148.1 76.39 148.39 76.39 148.75L76.39 150.83 75.31 150.83 75.31 148.71C75.31 147.95 75.1 147.57 74.68 147.57 74.45 147.57 74.27 147.67 74.14 147.88 74.01 148.09 73.94 148.38 73.94 148.74L73.94 150.82 72.85 150.82 72.85 146.68 73.8 146.68C73.83 146.98 73.85 147.19 73.86 147.29 74.13 146.82 74.53 146.58 75.04 146.58 75.32 146.58 75.56 146.65 75.77 146.8 75.98 146.94 76.14 147.16 76.24 147.44 76.37 147.15 76.55 146.93 76.77 146.79 76.99 146.65 77.23 146.58 77.51 146.58 77.91 146.58 78.24 146.73 78.49 147.03Z" stroke-width="0"/><path d="M82.65 146.83C82.94 146.99 83.16 147.22 83.31 147.52 83.46 147.82 83.55 148.16 83.55 148.54 83.55 148.71 83.53 148.88 83.5 149.06L80.75 149.06C80.8 149.37 80.91 149.6 81.09 149.76 81.27 149.92 81.48 150 81.75 150 81.94 150 82.1 149.96 82.25 149.88 82.4 149.8 82.51 149.67 82.59 149.51L83.41 149.99C83.3 150.29 83.08 150.53 82.77 150.69 82.45 150.85 82.1 150.94 81.71 150.94 81.32 150.94 80.99 150.86 80.67 150.69 80.35 150.52 80.09 150.28 79.9 149.95 79.71 149.62 79.61 149.22 79.61 148.76 79.61 148.3 79.71 147.91 79.9 147.58 80.09 147.25 80.35 147.01 80.66 146.84 80.97 146.67 81.32 146.59 81.68 146.59 82.04 146.59 82.37 146.67 82.66 146.83ZM81.08 147.7C80.93 147.84 80.82 148.03 80.77 148.28L82.42 148.28C82.4 148.02 82.32 147.83 82.18 147.69 82.04 147.55 81.86 147.49 81.65 147.49 81.44 147.49 81.24 147.56 81.09 147.7Z" stroke-width="0"/></g></g><g><path d="M309.43 89.15C309.22 89.42 308.96 89.62 308.63 89.75 308.3 89.88 307.95 89.94 307.58 89.94 307.04 89.94 306.54 89.81 306.11 89.56 305.67 89.31 305.38 88.95 305.24 88.48L306.18 87.94C306.31 88.24 306.49 88.47 306.74 88.64 306.99 88.81 307.28 88.89 307.62 88.89 307.9 88.89 308.12 88.83 308.28 88.72 308.44 88.61 308.52 88.45 308.52 88.23 308.52 88.06 308.47 87.92 308.36 87.81 308.25 87.7 308.11 87.61 307.95 87.55 307.79 87.49 307.56 87.41 307.28 87.33 306.9 87.22 306.59 87.11 306.35 87 306.11 86.89 305.9 86.73 305.73 86.51 305.56 86.29 305.47 86 305.47 85.65 305.47 85.27 305.57 84.95 305.77 84.69 305.97 84.43 306.23 84.23 306.56 84.1 306.89 83.97 307.24 83.9 307.62 83.9 308.14 83.9 308.58 84.02 308.95 84.25 309.32 84.48 309.56 84.8 309.66 85.2L308.72 85.74C308.62 85.49 308.48 85.29 308.29 85.15 308.1 85.01 307.86 84.94 307.57 84.94 307.31 84.94 307.1 85 306.93 85.12 306.77 85.24 306.69 85.4 306.69 85.6 306.69 85.75 306.74 85.87 306.84 85.97 306.94 86.07 307.07 86.15 307.23 86.21 307.39 86.27 307.6 86.34 307.87 86.42 308.25 86.53 308.57 86.65 308.82 86.76 309.07 86.87 309.29 87.05 309.46 87.27 309.64 87.5 309.73 87.79 309.73 88.16 309.73 88.56 309.63 88.89 309.42 89.16Z" stroke-width="0"/><path d="M313.3 89.6C313.03 89.82 312.65 89.94 312.16 89.94 311.71 89.94 311.35 89.82 311.08 89.58 310.81 89.34 310.67 88.92 310.67 88.3L310.67 86.63 309.93 86.63 309.93 85.69 310.67 85.69 310.67 84.42 311.78 84.42 311.78 85.69 313.03 85.69 313.03 86.63 311.78 86.63 311.78 88.12C311.78 88.4 311.83 88.61 311.92 88.75 312.02 88.89 312.17 88.97 312.38 88.97 312.57 88.97 312.74 88.91 312.91 88.8L313.29 89.6Z" stroke-width="0"/><path d="M316.87 86.07C317.18 86.39 317.34 86.84 317.34 87.43L317.34 89.85 316.4 89.85C316.4 89.85 316.39 89.74 316.38 89.64 316.38 89.54 316.36 89.45 316.34 89.38 316.22 89.57 316.06 89.71 315.86 89.81 315.67 89.9 315.43 89.95 315.15 89.95 314.87 89.95 314.6 89.9 314.36 89.8 314.12 89.7 313.93 89.55 313.8 89.36 313.67 89.17 313.59 88.93 313.59 88.67 313.59 88.41 313.67 88.15 313.83 87.95 313.99 87.74 314.2 87.59 314.47 87.47 314.74 87.36 315.03 87.3 315.35 87.3 315.64 87.3 315.93 87.35 316.24 87.44 316.22 86.83 315.96 86.52 315.46 86.52 315.05 86.52 314.76 86.7 314.57 87.06L313.78 86.6C313.93 86.29 314.16 86.05 314.47 85.87 314.78 85.69 315.14 85.6 315.56 85.6 316.12 85.6 316.56 85.76 316.87 86.08ZM316.25 88.16C315.98 88.1 315.75 88.06 315.55 88.06 315.29 88.06 315.09 88.11 314.94 88.2 314.8 88.29 314.72 88.43 314.72 88.6 314.72 88.75 314.78 88.87 314.89 88.96 315 89.05 315.15 89.09 315.33 89.09 315.57 89.09 315.78 89.02 315.96 88.89 316.14 88.75 316.23 88.57 316.23 88.33L316.23 88.17Z" stroke-width="0"/><path d="M320.42 85.59C320.58 85.59 320.73 85.62 320.85 85.69L320.85 86.68C320.72 86.6 320.56 86.56 320.39 86.56 319.75 86.56 319.43 87.01 319.43 87.91L319.43 89.84 318.32 89.84 318.32 85.7 319.3 85.7C319.33 86.03 319.35 86.24 319.36 86.33 319.58 85.84 319.94 85.59 320.42 85.59ZM324.5 89.6C324.23 89.82 323.85 89.94 323.37 89.94 322.92 89.94 322.56 89.82 322.29 89.58 322.02 89.34 321.88 88.92 321.88 88.3L321.88 86.63 321.18 86.63 321.18 85.69 321.88 85.69 321.88 84.42 322.99 84.42 322.99 85.69 324.23 85.69 324.23 86.63 322.99 86.63 322.99 88.12C322.99 88.4 323.04 88.62 323.13 88.76 323.23 88.9 323.38 88.97 323.59 88.97 323.78 88.97 323.95 88.91 324.12 88.8L324.5 89.6Z" stroke-width="0"/></g><g><path d="M238.01 144.8C237.8 145.07 237.54 145.27 237.21 145.4 236.88 145.53 236.53 145.59 236.16 145.59 235.62 145.59 235.12 145.46 234.69 145.21 234.25 144.96 233.96 144.6 233.82 144.13L234.76 143.59C234.89 143.89 235.07 144.12 235.32 144.29 235.57 144.46 235.86 144.54 236.2 144.54 236.48 144.54 236.7 144.48 236.86 144.37 237.02 144.26 237.1 144.1 237.1 143.88 237.1 143.71 237.05 143.57 236.94 143.46 236.83 143.35 236.69 143.26 236.53 143.2 236.37 143.14 236.14 143.06 235.86 142.98 235.48 142.87 235.17 142.76 234.93 142.65 234.69 142.54 234.48 142.38 234.31 142.16 234.14 141.94 234.05 141.65 234.05 141.3 234.05 140.92 234.15 140.6 234.35 140.34 234.55 140.08 234.81 139.88 235.14 139.75 235.47 139.62 235.82 139.55 236.2 139.55 236.72 139.55 237.16 139.67 237.53 139.9 237.9 140.13 238.14 140.45 238.24 140.85L237.3 141.39C237.2 141.14 237.06 140.94 236.87 140.8 236.68 140.66 236.44 140.59 236.15 140.59 235.89 140.59 235.68 140.65 235.51 140.77 235.35 140.89 235.27 141.05 235.27 141.25 235.27 141.4 235.32 141.52 235.42 141.62 235.52 141.72 235.65 141.8 235.81 141.86 235.97 141.92 236.18 141.99 236.45 142.07 236.83 142.18 237.15 142.3 237.4 142.41 237.65 142.52 237.87 142.7 238.04 142.92 238.21 143.14 238.31 143.44 238.31 143.81 238.31 144.21 238.21 144.54 238 144.81Z" stroke-width="0"/><path d="M241.82 141.48C242.11 141.64 242.33 141.87 242.48 142.17 242.64 142.47 242.72 142.81 242.72 143.19 242.72 143.36 242.7 143.53 242.67 143.71L239.92 143.71C239.97 144.02 240.08 144.25 240.26 144.41 240.44 144.57 240.65 144.65 240.92 144.65 241.11 144.65 241.27 144.61 241.42 144.53 241.57 144.45 241.68 144.32 241.76 144.16L242.58 144.64C242.47 144.94 242.25 145.18 241.94 145.34 241.62 145.51 241.27 145.59 240.88 145.59 240.49 145.59 240.16 145.51 239.84 145.34 239.52 145.17 239.26 144.93 239.07 144.6 238.88 144.27 238.78 143.87 238.78 143.41 238.78 142.95 238.88 142.56 239.07 142.23 239.26 141.9 239.52 141.66 239.83 141.49 240.14 141.32 240.49 141.24 240.85 141.24 241.21 141.24 241.54 141.32 241.83 141.48ZM240.25 142.35C240.1 142.49 239.99 142.68 239.94 142.93L241.59 142.93C241.57 142.67 241.49 142.48 241.35 142.34 241.21 142.2 241.03 142.14 240.82 142.14 240.61 142.14 240.41 142.21 240.26 142.35Z" stroke-width="0"/><path d="M246.52 141.71C246.83 142.03 246.99 142.48 246.99 143.07L246.99 145.49 246.05 145.49C246.05 145.49 246.04 145.38 246.03 145.28 246.03 145.18 246.01 145.09 245.99 145.02 245.87 145.21 245.71 145.35 245.51 145.45 245.32 145.54 245.08 145.59 244.8 145.59 244.52 145.59 244.25 145.54 244.01 145.44 243.77 145.34 243.58 145.19 243.45 145 243.31 144.81 243.24 144.57 243.24 144.31 243.24 144.05 243.32 143.79 243.48 143.59 243.64 143.38 243.85 143.23 244.12 143.11 244.39 143 244.68 142.94 245 142.94 245.29 142.94 245.58 142.99 245.89 143.08 245.87 142.47 245.61 142.16 245.11 142.16 244.7 142.16 244.41 142.34 244.22 142.7L243.43 142.24C243.58 141.93 243.81 141.69 244.12 141.51 244.43 141.33 244.79 141.24 245.21 141.24 245.77 141.24 246.21 141.4 246.52 141.72ZM245.9 143.8C245.63 143.74 245.4 143.7 245.2 143.7 244.94 143.7 244.74 143.75 244.59 143.84 244.45 143.93 244.37 144.07 244.37 144.24 244.37 144.39 244.43 144.51 244.54 144.6 244.65 144.69 244.8 144.73 244.98 144.73 245.22 144.73 245.43 144.66 245.61 144.53 245.79 144.39 245.88 144.21 245.88 143.97L245.88 143.81Z" stroke-width="0"/><path d="M249.08 145.49 247.97 145.49 247.97 139.4 249.08 139.4 249.08 145.49Z" stroke-width="0"/></g><g><path d="M322.92 143.9C322.71 144.17 322.45 144.37 322.12 144.5 321.79 144.63 321.44 144.69 321.07 144.69 320.53 144.69 320.03 144.56 319.6 144.31 319.16 144.06 318.87 143.7 318.73 143.23L319.67 142.69C319.8 142.99 319.98 143.22 320.23 143.39 320.48 143.56 320.77 143.64 321.11 143.64 321.39 143.64 321.61 143.58 321.77 143.47 321.93 143.36 322.01 143.2 322.01 142.98 322.01 142.81 321.96 142.67 321.85 142.56 321.74 142.45 321.6 142.36 321.44 142.3 321.28 142.24 321.06 142.16 320.77 142.08 320.39 141.97 320.08 141.86 319.84 141.75 319.6 141.64 319.39 141.48 319.22 141.26 319.05 141.04 318.96 140.75 318.96 140.4 318.96 140.02 319.06 139.7 319.26 139.44 319.46 139.18 319.72 138.98 320.05 138.85 320.38 138.72 320.73 138.65 321.11 138.65 321.63 138.65 322.07 138.77 322.44 139 322.81 139.23 323.05 139.55 323.15 139.95L322.21 140.49C322.11 140.24 321.97 140.04 321.78 139.9 321.59 139.76 321.35 139.69 321.06 139.69 320.8 139.69 320.59 139.75 320.42 139.87 320.26 139.99 320.18 140.15 320.18 140.35 320.18 140.5 320.23 140.62 320.33 140.72 320.43 140.82 320.56 140.9 320.72 140.96 320.88 141.02 321.09 141.09 321.36 141.17 321.74 141.28 322.06 141.4 322.31 141.51 322.56 141.62 322.77 141.8 322.95 142.02 323.13 142.25 323.22 142.54 323.22 142.91 323.22 143.31 323.12 143.64 322.91 143.91Z" stroke-width="0"/><path d="M326.79 144.35C326.52 144.57 326.14 144.69 325.65 144.69 325.2 144.69 324.84 144.57 324.57 144.33 324.29 144.09 324.16 143.67 324.16 143.05L324.16 141.38 323.42 141.38 323.42 140.44 324.16 140.44 324.16 139.17 325.27 139.17 325.27 140.44 326.52 140.44 326.52 141.38 325.27 141.38 325.27 142.87C325.27 143.15 325.32 143.36 325.41 143.5 325.51 143.64 325.66 143.72 325.87 143.72 326.06 143.72 326.23 143.66 326.4 143.55L326.78 144.35Z" stroke-width="0"/><path d="M327.28 141.38C327.48 141.05 327.74 140.79 328.06 140.62 328.38 140.44 328.74 140.35 329.12 140.35 329.5 140.35 329.84 140.44 330.16 140.62 330.48 140.8 330.74 141.05 330.94 141.38 331.14 141.71 331.23 142.09 331.23 142.52 331.23 142.95 331.13 143.33 330.94 143.66 330.75 143.99 330.49 144.24 330.16 144.42 329.84 144.6 329.49 144.68 329.12 144.68 328.75 144.68 328.39 144.59 328.06 144.42 327.73 144.24 327.47 143.99 327.28 143.66 327.09 143.33 326.99 142.95 326.99 142.52 326.99 142.09 327.09 141.71 327.28 141.38ZM328.42 143.4C328.6 143.62 328.83 143.72 329.11 143.72 329.39 143.72 329.62 143.61 329.8 143.4 329.98 143.18 330.07 142.89 330.07 142.52 330.07 142.15 329.98 141.86 329.8 141.64 329.62 141.42 329.39 141.31 329.11 141.31 328.83 141.31 328.6 141.42 328.42 141.64 328.24 141.86 328.14 142.15 328.14 142.52 328.14 142.89 328.23 143.18 328.42 143.4Z" stroke-width="0"/><path d="M335.33 140.6C335.62 140.77 335.84 141.02 336.01 141.35 336.18 141.68 336.26 142.07 336.26 142.52 336.26 142.97 336.18 143.36 336.01 143.68 335.84 144.01 335.62 144.26 335.33 144.43 335.04 144.6 334.73 144.69 334.4 144.69 334.14 144.69 333.91 144.64 333.69 144.54 333.47 144.44 333.29 144.28 333.15 144.08L333.15 146.46 332.04 146.46 332.04 140.46 333.02 140.46 333.04 140.73C333.04 140.78 333.05 140.84 333.06 140.9 333.06 140.96 333.07 141.02 333.08 141.08 333.22 140.83 333.41 140.65 333.64 140.53 333.87 140.41 334.13 140.35 334.4 140.35 334.74 140.35 335.05 140.44 335.33 140.61ZM334.84 143.39C335.02 143.18 335.11 142.89 335.11 142.52 335.11 142.15 335.02 141.84 334.85 141.62 334.67 141.4 334.44 141.29 334.15 141.29 333.87 141.29 333.64 141.39 333.44 141.6 333.25 141.81 333.15 142.11 333.15 142.52 333.15 142.93 333.25 143.22 333.44 143.41 333.63 143.6 333.87 143.7 334.15 143.7 334.43 143.7 334.67 143.6 334.85 143.38Z" stroke-width="0"/></g></g><g opacity="0.69"><g><path d="M343.11 67.25 343.11 11.47 366.38 11.47" stroke="#FFFFFF" stroke-width="2" stroke-miterlimit="10" fill="none"/><path d="M350.63 66.88C350.63 71.03 347.26 74.4 343.11 74.4 338.96 74.4 335.59 71.03 335.59 66.88 335.59 62.73 338.96 59.36 343.11 59.36 347.26 59.36 350.63 62.73 350.63 66.88Z" stroke-width="0" fill="#FFFFFF"/></g><g><path d="M338.88 211.53 338.88 261.35 357.11 261.35" stroke="#FFFFFF" stroke-width="2" stroke-miterlimit="10" fill="none"/><path d="M331.36 211.91C331.36 207.76 334.73 204.39 338.88 204.39 343.03 204.39 346.4 207.76 346.4 211.91 346.4 216.06 343.03 219.43 338.88 219.43 334.73 219.43 331.36 216.06 331.36 211.91Z" stroke-width="0" fill="#FFFFFF"/></g><g><path d="M245.3 212.16 245.3 261.35 261.73 261.35" stroke="#FFFFFF" stroke-width="2" stroke-miterlimit="10" fill="none"/><path d="M237.78 212.54C237.78 208.39 241.15 205.02 245.3 205.02 249.45 205.02 252.82 208.39 252.82 212.54 252.82 216.69 249.45 220.06 245.3 220.06 241.15 220.06 237.78 216.69 237.78 212.54Z" stroke-width="0" fill="#FFFFFF"/></g><g><path d="M64.36 124.86 64.36 13.35 46.06 13.35" stroke="#FFFFFF" stroke-width="2" stroke-miterlimit="10" fill="none"/><path d="M71.88 124.48C71.88 128.63 68.51 132 64.36 132 60.21 132 56.84 128.63 56.84 124.48 56.84 120.33 60.21 116.96 64.36 116.96 68.51 116.96 71.88 120.33 71.88 124.48Z" stroke-width="0" fill="#FFFFFF"/></g><g><path d="M65.59 212.38 65.59 261.09 47.94 261.09" stroke="#FFFFFF" stroke-width="2" stroke-miterlimit="10" fill="none"/><path d="M58.07 212.76C58.07 208.61 61.44 205.24 65.59 205.24 69.74 205.24 73.11 208.61 73.11 212.76 73.11 216.91 69.74 220.28 65.59 220.28 61.44 220.28 58.07 216.91 58.07 212.76Z" stroke-width="0" fill="#FFFFFF"/></g><g><path d="M345.89 128.48 345.89 113.97 447.94 113.97" stroke="#FFFFFF" stroke-width="2" stroke-miterlimit="10" fill="none"/><path d="M353.41 128.1C353.41 132.25 350.04 135.62 345.89 135.62 341.74 135.62 338.37 132.25 338.37 128.1 338.37 123.95 341.74 120.58 345.89 120.58 350.04 120.58 353.41 123.95 353.41 128.1Z" stroke-width="0" fill="#FFFFFF"/></g><g><path d="M217.53 134.58 192.25 134.58 192.25 261.09 207.46 261.09" stroke="#FFFFFF" stroke-width="2" stroke-miterlimit="10" fill="none"/><path d="M217.16 127.07C221.31 127.07 224.68 130.44 224.68 134.59 224.68 138.74 221.31 142.11 217.16 142.11 213.01 142.11 209.64 138.74 209.64 134.59 209.64 130.44 213.01 127.07 217.16 127.07Z" stroke-width="0" fill="#FFFFFF"/></g></g><g><g><path d="M343.11 66.87 343.11 11.47 366.38 11.47" stroke="#000000" stroke-width="1.5" stroke-miterlimit="10" fill="none"/><path d="M348.75 66.59C348.75 69.7 346.22 72.23 343.11 72.23 340 72.23 337.47 69.7 337.47 66.59 337.47 63.48 340 60.95 343.11 60.95 346.22 60.95 348.75 63.48 348.75 66.59Z" stroke-width="0"/></g><g><path d="M338.88 211.52 338.88 261.35 357.11 261.35" stroke="#000000" stroke-width="1.5" stroke-miterlimit="10" fill="none"/><path d="M333.24 211.8C333.24 208.69 335.77 206.16 338.88 206.16 341.99 206.16 344.52 208.69 344.52 211.8 344.52 214.91 341.99 217.44 338.88 217.44 335.77 217.44 333.24 214.91 333.24 211.8Z" stroke-width="0"/></g><g><path d="M245.3 212.16 245.3 261.35 261.73 261.35" stroke="#000000" stroke-width="1.5" stroke-miterlimit="10" fill="none"/><path d="M239.66 212.44C239.66 209.33 242.19 206.8 245.3 206.8 248.41 206.8 250.94 209.33 250.94 212.44 250.94 215.55 248.41 218.08 245.3 218.08 242.19 218.08 239.66 215.55 239.66 212.44Z" stroke-width="0"/></g><g><path d="M64.36 124.7 64.36 13.35 46.06 13.35" stroke="#000000" stroke-width="1.5" stroke-miterlimit="10" fill="none"/><path d="M70 124.42C70 127.53 67.47 130.06 64.36 130.06 61.25 130.06 58.72 127.53 58.72 124.42 58.72 121.31 61.25 118.78 64.36 118.78 67.47 118.78 70 121.31 70 124.42Z" stroke-width="0"/></g><g><path d="M65.59 212.5 65.59 261.09 47.94 261.09" stroke="#000000" stroke-width="1.5" stroke-miterlimit="10" fill="none"/><path d="M59.95 212.78C59.95 209.67 62.48 207.14 65.59 207.14 68.7 207.14 71.23 209.67 71.23 212.78 71.23 215.89 68.7 218.42 65.59 218.42 62.48 218.42 59.95 215.89 59.95 212.78Z" stroke-width="0"/></g><g><path d="M345.89 128.29 345.89 113.97 447.94 113.97" stroke="#000000" stroke-width="1.5" stroke-miterlimit="10" fill="none"/><path d="M351.53 128C351.53 131.11 349 133.64 345.89 133.64 342.78 133.64 340.25 131.11 340.25 128 340.25 124.89 342.78 122.36 345.89 122.36 349 122.36 351.53 124.89 351.53 128Z" stroke-width="0"/></g><g><path d="M217.31 134.58 192.25 134.58 192.25 261.09 207.46 261.09" stroke="#000000" stroke-width="1.5" stroke-miterlimit="10" fill="none"/><path d="M217.03 128.95C220.14 128.95 222.67 131.48 222.67 134.59 222.67 137.7 220.14 140.23 217.03 140.23 213.92 140.23 211.39 137.7 211.39 134.59 211.39 131.48 213.92 128.95 217.03 128.95Z" stroke-width="0"/></g></g><circle cx="34.59" cy="13.35" r="11.47" stroke-width="0"/><circle cx="370.01" cy="11.47" r="11.47" stroke-width="0"/><circle cx="452.6" cy="114.24" r="11.47" stroke-width="0"/><circle cx="364.35" cy="261.35" r="11.47" stroke-width="0"/><circle cx="267.16" cy="261.35" r="11.47" stroke-width="0"/><circle cx="213.35" cy="261.09" r="11.47" stroke-width="0"/><circle cx="38.11" cy="261.09" r="11.47" stroke-width="0"/><text fill="#FFFFFF" font-family="HarmonyOS_Sans_Light,HarmonyOS Sans" font-size="18" transform="translate(364.66 17.18)"><tspan x="0" y="0">1</tspan></text><text fill="#FFFFFF" font-family="HarmonyOS_Sans_Light,HarmonyOS Sans" font-size="18" transform="translate(447.94 120.5)"><tspan x="0" y="0">2</tspan></text><text fill="#FFFFFF" font-family="HarmonyOS_Sans_Light,HarmonyOS Sans" font-size="18" transform="translate(359.41 267.94)"><tspan x="0" y="0">3</tspan></text><text fill="#FFFFFF" font-family="HarmonyOS_Sans_Light,HarmonyOS Sans" font-size="18" transform="translate(261.28 267.93)"><tspan x="0" y="0">4</tspan></text><text fill="#FFFFFF" font-family="HarmonyOS_Sans_Light,HarmonyOS Sans" font-size="18" transform="translate(208.47 267.93)"><tspan x="0" y="0">5</tspan></text><text fill="#FFFFFF" font-family="HarmonyOS_Sans_Light,HarmonyOS Sans" font-size="18" transform="translate(32.87 267.15)"><tspan x="0" y="0">6</tspan></text><text fill="#FFFFFF" font-family="HarmonyOS_Sans_Light,HarmonyOS Sans" font-size="18" transform="translate(29.86 21.05)"><tspan x="0" y="0">7</tspan></text></svg>