<svg viewBox="0 0 85.96 126.69" xmlns="http://www.w3.org/2000/svg" xmlns:xlink="http://www.w3.org/1999/xlink" id="_图层_1" overflow="hidden"><defs><clipPath id="clippath"><rect x="0" y="56.23" width="80.47" height="70.47" stroke-width="0" fill="none"/></clipPath></defs><g clip-path="url(#clippath)"><g><path d="M39.83 77.09C40.41 77.18 41 77.32 41.55 77.52 42.07 77.72 42.66 78.02 43.03 78.47" stroke="#231815" stroke-width="0.55" stroke-linecap="round" stroke-linejoin="round" fill="none"/><path d="M36.25 86.4C36.2 86.4 36.15 86.4 36.09 86.41 36 86.41 35.91 86.41 35.81 86.41 35.76 86.41 35.7 86.41 35.65 86.4 35.61 86.4 35.58 86.4 35.54 86.39 35.49 86.39 35.43 86.37 35.38 86.36 35.1 86.3 34.82 86.21 34.57 86.07 34.45 86 34.32 85.92 34.21 85.83 34.1 85.74 34 85.64 33.91 85.52 33.74 85.3 33.61 85.02 33.6 84.73" stroke="#231815" stroke-width="0.55" stroke-linecap="round" stroke-linejoin="round" fill="none"/><path d="M42.73 68.94C42.73 69.44 42.4 69.87 42.06 70.17 41.7 70.48 41.26 70.73 40.84 70.93 39.98 71.32 38.99 71.57 38.07 71.72" stroke="#231815" stroke-width="0.55" stroke-linecap="round" stroke-linejoin="round" fill="none"/><path d="M41.19 67.24C41.46 67.38 41.73 67.54 41.95 67.76 42.17 67.97 42.34 68.24 42.37 68.56 42.38 68.7 42.37 68.85 42.32 68.98 42.27 69.14 42.19 69.29 42.09 69.42 41.91 69.67 41.67 69.87 41.42 70.05 40.93 70.39 40.32 70.65 39.76 70.84 39.18 71.03 38.57 71.17 37.96 71.27" stroke="#231815" stroke-width="0.55" stroke-linecap="round" stroke-linejoin="round" fill="none"/><path d="M30.51 69.73C30.53 69.89 30.58 70.03 30.65 70.17" stroke="#231815" stroke-width="0.55" stroke-linecap="round" stroke-linejoin="round" fill="none"/><path d="M24.17 82.76C24.17 82.76 24.21 82.82 24.23 82.86" stroke="#231815" stroke-width="0.55" stroke-linecap="round" stroke-linejoin="round" fill="none"/><path d="M63.26 79C63.26 79 63.19 78.94 63.15 78.93" stroke="#231815" stroke-width="0.55" stroke-linecap="round" stroke-linejoin="round" fill="none"/><path d="M11.45 78.31C10.59 78.7 9.67 79.2 8.94 79.82" stroke="#231815" stroke-width="0.55" stroke-linecap="round" stroke-linejoin="round" fill="none"/><path d="M42.74 69.97C43.77 69.86 44.86 69.76 45.89 69.73 46.42 69.71 46.94 69.71 47.47 69.73 48 69.75 48.52 69.8 49.04 69.87" stroke="#231815" stroke-width="0.55" stroke-linecap="round" stroke-linejoin="round" fill="none"/><path d="M32.89 73.83C32.77 73.85 32.66 73.88 32.54 73.9" stroke="#231815" stroke-width="0.55" stroke-linecap="round" stroke-linejoin="round" fill="none"/><path d="M33.59 74.72C33.36 74.77 33.13 74.81 32.9 74.86" stroke="#231815" stroke-width="0.55" stroke-linecap="round" stroke-linejoin="round" fill="none"/><path d="M44.51 80.33C44.83 80.49 45.11 80.68 45.4 80.89 45.67 81.09 45.97 81.33 46.22 81.55 46.76 82.01 47.25 82.5 47.71 83.04" stroke="#231815" stroke-width="0.55" stroke-linecap="round" stroke-linejoin="round" fill="none"/><path d="M38.21 84.86C38.21 85.06 38.17 85.24 38.07 85.41 37.98 85.58 37.85 85.73 37.7 85.85 37.56 85.97 37.38 86.08 37.21 86.15 37.03 86.23 36.85 86.29 36.67 86.33" stroke="#231815" stroke-width="0.55" stroke-linecap="round" stroke-linejoin="round" fill="none"/><path d="M44.09 82.5C44.15 82.92 44.09 83.39 43.94 83.78 43.86 83.99 43.76 84.18 43.63 84.35 43.58 84.41 43.53 84.47 43.48 84.53 43.44 84.57 43.41 84.61 43.37 84.64 43.34 84.66 43.32 84.69 43.29 84.71 43.25 84.74 43.21 84.77 43.17 84.8 43.1 84.85 42.99 84.91 42.91 84.95 42.86 84.97 42.81 84.99 42.76 85.01 42.7 85.03 42.64 85.05 42.57 85.07 42.44 85.1 42.31 85.12 42.18 85.12 42.09 85.12 42.01 85.12 41.92 85.1 41.8 85.08 41.69 85.04 41.57 84.99 41.49 84.95 41.4 84.89 41.34 84.83 41.18 84.68 41.08 84.48 41.05 84.26" stroke="#231815" stroke-width="0.55" stroke-linecap="round" stroke-linejoin="round" fill="none"/><path d="M44.45 80C44.47 80.49 44.23 80.94 43.93 81.29" stroke="#231815" stroke-width="0.55" stroke-linecap="round" stroke-linejoin="round" fill="none"/><path d="M43.13 78.39C43.5 78.84 43.61 79.36 43.35 79.9 43.12 80.38 42.66 80.77 42.24 81.05 41.36 81.62 40.23 81.99 39.23 82.2" stroke="#231815" stroke-width="0.55" stroke-linecap="round" stroke-linejoin="round" fill="none"/><path d="M39.85 76.98C40.44 77.07 41.05 77.21 41.61 77.42 42.14 77.62 42.75 77.93 43.13 78.39" stroke="#231815" stroke-width="0.55" stroke-linecap="round" stroke-linejoin="round" fill="none"/><path d="M40.91 83.03C40.89 82.85 40.91 82.65 40.94 82.47 40.98 82.28 41.05 82.12 41.16 81.95 41.26 81.79 41.39 81.66 41.54 81.54 41.69 81.42 41.84 81.32 42 81.23 42.16 81.14 42.33 81.05 42.51 80.98 42.69 80.91 42.86 80.85 43.05 80.83 43.23 80.8 43.43 80.8 43.6 80.88 43.78 80.96 43.91 81.1 43.93 81.3" stroke="#231815" stroke-width="0.55" stroke-linecap="round" stroke-linejoin="round" fill="none"/><path d="M43.03 78.47C43.32 78.81 43.46 79.22 43.35 79.68" stroke="#231815" stroke-width="0.55" stroke-linecap="round" stroke-linejoin="round" fill="none"/><path d="M30.99 80.55C30.82 80.11 30.91 79.69 31.15 79.31 31.38 78.95 31.74 78.65 32.08 78.42 32.78 77.95 33.66 77.62 34.47 77.41" stroke="#231815" stroke-width="0.55" stroke-linecap="round" stroke-linejoin="round" fill="none"/><path d="M31.49 81.07C31.71 81.35 32.01 81.56 32.31 81.73" stroke="#231815" stroke-width="0.55" stroke-linecap="round" stroke-linejoin="round" fill="none"/><path d="M42.19 81.04C42.54 80.78 42.9 80.42 43.05 79.99 43.22 79.52 43.1 79.08 42.79 78.71" stroke="#231815" stroke-width="0.55" stroke-linecap="round" stroke-linejoin="round" fill="none"/><path d="M34.52 77.71C33.71 77.93 32.79 78.29 32.11 78.81 31.77 79.07 31.43 79.41 31.27 79.83 31.1 80.28 31.2 80.71 31.49 81.08" stroke="#231815" stroke-width="0.55" stroke-linecap="round" stroke-linejoin="round" fill="none"/><path d="M35.43 79.96C35.42 80.08 35.47 80.18 35.54 80.26 35.61 80.34 35.71 80.4 35.8 80.45 35.99 80.54 36.22 80.6 36.42 80.63 36.84 80.69 37.31 80.67 37.72 80.59" stroke="#231815" stroke-width="0.55" stroke-linecap="round" stroke-linejoin="round" fill="none"/><path d="M37.73 80.58C37.97 80.53 38.22 80.45 38.44 80.34 38.55 80.28 38.66 80.21 38.74 80.12 38.83 80.03 38.9 79.92 38.9 79.79" stroke="#231815" stroke-width="0.55" stroke-linecap="round" stroke-linejoin="round" fill="none"/><path d="M39.22 82.19C38.07 82.43 36.84 82.53 35.67 82.48 35.08 82.45 34.48 82.38 33.9 82.27 33.59 82.21 33.28 82.13 32.98 82.03 32.71 81.94 32.46 81.84 32.21 81.72 31.91 81.57 31.61 81.39 31.37 81.16 31.18 80.99 31.02 80.78 30.92 80.55 30.81 80.29 30.79 80.03 30.85 79.76 30.93 79.44 31.11 79.16 31.33 78.92 31.52 78.72 31.73 78.54 31.96 78.38 32.22 78.2 32.5 78.04 32.79 77.91 33.32 77.66 33.9 77.46 34.47 77.31" stroke="#231815" stroke-width="0.55" stroke-linecap="round" stroke-linejoin="round" fill="none"/><path d="M33.56 83.48C33.56 83.24 33.71 83.04 33.88 82.9 34.06 82.76 34.28 82.68 34.5 82.62 34.72 82.56 34.95 82.53 35.18 82.52 35.41 82.5 35.64 82.5 35.87 82.51 36.1 82.51 36.33 82.53 36.56 82.56 36.79 82.59 37.01 82.63 37.23 82.7 37.45 82.77 37.66 82.87 37.83 83.03 38 83.18 38.14 83.38 38.15 83.62" stroke="#231815" stroke-width="0.55" stroke-linecap="round" stroke-linejoin="round" fill="none"/><path d="M29.92 80.89C29.92 80.81 29.94 80.73 29.97 80.65 30 80.59 30.04 80.54 30.09 80.5 30.22 80.41 30.38 80.43 30.51 80.47 30.77 80.56 31.02 80.81 31.16 81.03 31.33 81.3 31.37 81.56 31.38 81.87 31.39 82.12 31.38 82.49 31.38 82.74" stroke="#231815" stroke-width="0.55" stroke-linecap="round" stroke-linejoin="round" fill="none"/><path d="M33.24 77.57C33.19 77.59 33.14 77.61 33.09 77.64 33.04 77.67 32.98 77.7 32.93 77.73 32.83 77.79 32.73 77.85 32.63 77.91 32.4 78.05 32.25 78.13 32.02 78.25 31.81 78.36 31.6 78.46 31.4 78.57 31.2 78.69 31 78.81 30.83 78.98" stroke="#231815" stroke-width="0.55" stroke-linecap="round" stroke-linejoin="round" fill="none"/><path d="M33.6 84.72C33.59 84.31 33.57 83.89 33.56 83.48" stroke="#231815" stroke-width="0.55" stroke-linecap="round" stroke-linejoin="round" fill="none"/><path d="M31.34 83.97C31.34 84.11 31.31 84.26 31.25 84.39 31.19 84.52 31.1 84.64 30.97 84.72 30.84 84.79 30.69 84.81 30.55 84.77 30.41 84.73 30.29 84.63 30.21 84.52" stroke="#231815" stroke-width="0.55" stroke-linecap="round" stroke-linejoin="round" fill="none"/><path d="M29.92 80.89C29.91 81.29 29.89 81.69 29.88 82.09" stroke="#231815" stroke-width="0.55" stroke-linecap="round" stroke-linejoin="round" fill="none"/><path d="M41.06 84.25C41.01 83.84 40.96 83.44 40.91 83.03" stroke="#231815" stroke-width="0.55" stroke-linecap="round" stroke-linejoin="round" fill="none"/><path d="M42.85 77.82C42.85 77.82 42.85 77.82 42.85 77.82 42.85 77.82 42.85 77.82 42.85 77.82 42.85 77.82 42.85 77.83 42.85 77.84 42.85 77.86 42.87 77.89 42.88 77.91 42.91 77.98 42.95 78.05 42.99 78.12 43.05 78.22 43.12 78.31 43.19 78.4 43.34 78.57 43.52 78.72 43.69 78.88 43.86 79.03 44.02 79.19 44.16 79.38 44.29 79.55 44.42 79.78 44.45 80" stroke="#231815" stroke-width="0.55" stroke-linecap="round" stroke-linejoin="round" fill="none"/><path d="M41.19 67.53C41.19 67.53 41.14 67.49 41.11 67.5" stroke="#231815" stroke-width="0.55" stroke-linecap="round" stroke-linejoin="round" fill="none"/><line x1="37.85" y1="71.13" x2="37.86" y2="71.17" stroke="#231815" stroke-width="0.55" stroke-linecap="round" stroke-linejoin="round" fill="none"/><path d="M31.29 69.75C31.22 69.62 31.18 69.48 31.17 69.33" stroke="#231815" stroke-width="0.55" stroke-linecap="round" stroke-linejoin="round" fill="none"/><path d="M40.96 67.53C40.96 67.53 40.96 67.53 40.96 67.53" stroke="#231815" stroke-width="0.55" stroke-linecap="round" stroke-linejoin="round" fill="none"/><path d="M32.15 68.87C32.15 68.87 32.15 68.87 32.15 68.88" stroke="#231815" stroke-width="0.55" stroke-linecap="round" stroke-linejoin="round" fill="none"/><path d="M41.11 67.49C41.11 67.49 41.11 67.49 41.11 67.49" stroke="#231815" stroke-width="0.55" stroke-linecap="round" stroke-linejoin="round" fill="none"/><path d="M37.91 80C37.91 80 37.91 80 37.91 80" stroke="#231815" stroke-width="0.55" stroke-linecap="round" stroke-linejoin="round" fill="none"/><path d="M34.97 79.38C34.97 79.38 34.92 79.32 34.92 79.29" stroke="#231815" stroke-width="0.55" stroke-linecap="round" stroke-linejoin="round" fill="none"/><path d="M30.73 71.87C30.75 72.02 30.79 72.17 30.87 72.31" stroke="#231815" stroke-width="0.55" stroke-linecap="round" stroke-linejoin="round" fill="none"/><path d="M38.06 71.71C38.06 71.71 38.06 71.71 38.06 71.7" stroke="#231815" stroke-width="0.55" stroke-linecap="round" stroke-linejoin="round" fill="none"/><path d="M37.97 71.26C37.97 71.26 37.95 71.26 37.94 71.26" stroke="#231815" stroke-width="0.55" stroke-linecap="round" stroke-linejoin="round" fill="none"/><path d="M37.85 71.13C36.72 71.3 35.49 71.33 34.36 71.18 33.8 71.1 33.2 70.97 32.66 70.77 32.18 70.58 31.55 70.26 31.28 69.75" stroke="#231815" stroke-width="0.55" stroke-linecap="round" stroke-linejoin="round" fill="none"/><path d="M42.04 68.62C42.06 69.08 41.76 69.47 41.46 69.74 41.14 70.02 40.74 70.25 40.36 70.43 39.59 70.78 38.69 71.01 37.86 71.14" stroke="#231815" stroke-width="0.55" stroke-linecap="round" stroke-linejoin="round" fill="none"/><path d="M67.02 91.6 67.02 91.51" stroke="#231815" stroke-width="0.55" stroke-linecap="round" stroke-linejoin="round" fill="none"/><path d="M46.91 98.73C46.91 98.73 46.95 98.75 46.96 98.73 46.96 98.71 46.96 98.69 46.96 98.66" stroke="#231815" stroke-width="0.55" stroke-linecap="round" stroke-linejoin="round" fill="none"/><path d="M22.72 101.63C22.72 101.63 22.67 101.66 22.65 101.63 22.63 101.61 22.63 101.58 22.62 101.56" stroke="#231815" stroke-width="0.55" stroke-linecap="round" stroke-linejoin="round" fill="none"/><path d="M67.9 89.44C67.88 90.25 67.55 90.93 67.03 91.51" stroke="#231815" stroke-width="0.55" stroke-linecap="round" stroke-linejoin="round" fill="none"/><path d="M54.93 72.43C54.65 72.12 54.18 71.92 53.81 71.81" stroke="#231815" stroke-width="0.55" stroke-linecap="round" stroke-linejoin="round" fill="none"/><path d="M63.14 78.94C64.47 80.39 65.69 81.98 66.66 83.7 66.89 84.1 67.15 84.6 67.34 85.02 67.54 85.47 67.72 85.94 67.8 86.43 67.89 86.92 67.87 87.41 67.72 87.9 67.57 88.38 67.3 88.8 66.97 89.17" stroke="#231815" stroke-width="0.55" stroke-linecap="round" stroke-linejoin="round" fill="none"/><path d="M32.16 68.88C32.25 69.04 32.39 69.18 32.53 69.29 32.73 69.44 32.96 69.56 33.19 69.66 33.59 69.83 34.03 69.94 34.46 70.01 35.31 70.15 36.23 70.16 37.09 70.07 37.93 69.98 38.86 69.78 39.64 69.44 39.86 69.34 40.07 69.23 40.27 69.1 40.44 68.99 40.6 68.87 40.74 68.72 40.83 68.62 40.91 68.52 40.97 68.41 41.02 68.31 41.06 68.21 41.08 68.1 41.11 67.9 41.07 67.71 40.97 67.53" stroke="#231815" stroke-width="0.55" stroke-linecap="round" stroke-linejoin="round" fill="none"/><path d="M35.24 66.47C34.54 66.6 33.77 66.82 33.14 67.16 32.83 67.33 32.5 67.56 32.28 67.84 32.04 68.15 31.95 68.51 32.15 68.87" stroke="#231815" stroke-width="0.55" stroke-linecap="round" stroke-linejoin="round" fill="none"/><path d="M29.08 89.42C28.96 89.22 28.77 89.08 28.57 88.98 28.37 88.88 28.14 88.81 27.92 88.78" stroke="#231815" stroke-width="0.55" stroke-linecap="round" stroke-linejoin="round" fill="none"/><path d="M24.68 90.85C24.8 91.04 24.99 91.18 25.19 91.28 25.39 91.38 25.62 91.44 25.84 91.48" stroke="#231815" stroke-width="0.55" stroke-linecap="round" stroke-linejoin="round" fill="none"/><path d="M12.2 77.4C12.27 77.34 12.35 77.31 12.44 77.3" stroke="#231815" stroke-width="0.55" stroke-linecap="round" stroke-linejoin="round" fill="none"/><path d="M12.45 77.29C13.45 76.42 15.38 75.74 16.57 75.35 17.3 75.11 18.03 74.9 18.77 74.69 19.51 74.48 20.24 74.28 20.98 74.09 23.94 73.31 26.91 72.63 29.91 72.03" stroke="#231815" stroke-width="0.55" stroke-linecap="round" stroke-linejoin="round" fill="none"/><path d="M29.49 86.88C28.84 86.78 28.2 86.6 27.6 86.34 26.97 86.07 26.46 85.73 25.93 85.31 25.68 85.11 25.41 84.88 25.18 84.67 24.94 84.45 24.7 84.22 24.47 83.99 24.01 83.52 23.58 83.03 23.18 82.5" stroke="#231815" stroke-width="0.55" stroke-linecap="round" stroke-linejoin="round" fill="none"/><path d="M10.91 92.66C10.91 92.66 10.85 92.61 10.85 92.57" stroke="#231815" stroke-width="0.55" stroke-linecap="round" stroke-linejoin="round" fill="none"/><path d="M29.88 72.03C29.88 72.03 29.9 72.03 29.91 72.03" stroke="#231815" stroke-width="0.55" stroke-linecap="round" stroke-linejoin="round" fill="none"/><path d="M51.93 81.84C52.12 81.43 52.08 81.02 51.93 80.62 51.86 80.42 51.77 80.23 51.67 80.05 51.57 79.87 51.47 79.68 51.36 79.51 50.92 78.78 50.42 78.14 49.86 77.5" stroke="#231815" stroke-width="0.55" stroke-linecap="round" stroke-linejoin="round" fill="none"/><path d="M66.99 91.68C66.99 91.68 67.02 91.63 67.02 91.6" stroke="#231815" stroke-width="0.55" stroke-linecap="round" stroke-linejoin="round" fill="none"/><line x1="51.7" y1="82.16" x2="51.7" y2="82.16" stroke="#231815" stroke-width="0.55" stroke-linecap="round" stroke-linejoin="round" fill="none"/><path d="M23.16 81.19C23.16 81.19 23.16 81.19 23.16 81.19" stroke="#231815" stroke-width="0.55" stroke-linecap="round" stroke-linejoin="round" fill="none"/><path d="M46.95 98.57C46.95 98.57 46.95 98.63 46.95 98.66" stroke="#231815" stroke-width="0.55" stroke-linecap="round" stroke-linejoin="round" fill="none"/><path d="M22.63 101.56C22.63 101.56 22.63 101.5 22.63 101.47" stroke="#231815" stroke-width="0.55" stroke-linecap="round" stroke-linejoin="round" fill="none"/><path d="M10.83 92.48C10.83 92.48 10.83 92.54 10.84 92.57" stroke="#231815" stroke-width="0.55" stroke-linecap="round" stroke-linejoin="round" fill="none"/><path d="M40.95 67.52C40.8 67.27 40.54 67.08 40.29 66.94 40.03 66.8 39.75 66.69 39.47 66.6 38.91 66.43 38.3 66.35 37.72 66.31" stroke="#231815" stroke-width="0.55" stroke-linecap="round" stroke-linejoin="round" fill="none"/><path d="M37.72 66.24C38.33 66.27 38.97 66.36 39.56 66.53 39.85 66.62 40.15 66.73 40.42 66.88 40.68 67.02 40.95 67.23 41.11 67.49" stroke="#231815" stroke-width="0.55" stroke-linecap="round" stroke-linejoin="round" fill="none"/><path d="M27.92 88.77C27.55 88.71 27.16 88.72 26.79 88.77 26.42 88.83 26.05 88.94 25.71 89.11 25.38 89.27 25.05 89.5 24.82 89.79 24.71 89.94 24.61 90.11 24.58 90.3 24.55 90.49 24.58 90.68 24.68 90.84" stroke="#231815" stroke-width="0.55" stroke-linecap="round" stroke-linejoin="round" fill="none"/><path d="M29.91 72.03C30.18 71.97 30.46 71.92 30.73 71.87" stroke="#231815" stroke-width="0.55" stroke-linecap="round" stroke-linejoin="round" fill="none"/><path d="M44.38 72.65C45.02 72.75 45.65 72.91 46.25 73.16 46.87 73.42 47.39 73.74 47.93 74.13 48.19 74.32 48.45 74.52 48.7 74.72 48.95 74.92 49.2 75.13 49.44 75.35 49.92 75.78 50.38 76.24 50.81 76.73" stroke="#231815" stroke-width="0.55" stroke-linecap="round" stroke-linejoin="round" fill="none"/><path d="M43.99 73.55C44.58 73.64 45.17 73.8 45.72 74.05 46.29 74.3 46.76 74.62 47.25 75 47.7 75.35 48.2 75.79 48.61 76.19 49.05 76.61 49.46 77.04 49.85 77.5" stroke="#231815" stroke-width="0.55" stroke-linecap="round" stroke-linejoin="round" fill="none"/><path d="M52.46 81.98C52.83 81.61 53.05 81.16 53.01 80.62 52.99 80.37 52.92 80.12 52.83 79.89 52.74 79.65 52.63 79.43 52.52 79.2 52.29 78.75 52.03 78.32 51.74 77.91 51.45 77.5 51.14 77.1 50.81 76.72" stroke="#231815" stroke-width="0.55" stroke-linecap="round" stroke-linejoin="round" fill="none"/><path d="M22.13 77.2C22.29 77.06 22.46 76.93 22.65 76.81 22.86 76.68 23.07 76.56 23.29 76.46 23.49 76.36 23.7 76.27 23.9 76.19 24.12 76.1 24.34 76.02 24.56 75.94 24.99 75.79 25.43 75.66 25.87 75.53 26.31 75.4 26.75 75.28 27.19 75.16 28.07 74.92 28.96 74.7 29.86 74.49 30.75 74.28 31.65 74.09 32.54 73.9" stroke="#231815" stroke-width="0.55" stroke-linecap="round" stroke-linejoin="round" fill="none"/><path d="M44.38 72.65C43.59 72.53 42.74 72.51 41.94 72.54" stroke="#231815" stroke-width="0.55" stroke-linecap="round" stroke-linejoin="round" fill="none"/><path d="M43.99 73.55C43.48 73.47 42.95 73.44 42.44 73.44 41.92 73.44 41.4 73.47 40.88 73.52" stroke="#231815" stroke-width="0.55" stroke-linecap="round" stroke-linejoin="round" fill="none"/><path d="M23.04 77.84C23.19 77.7 23.36 77.59 23.53 77.48 23.73 77.36 23.93 77.25 24.14 77.16 24.53 76.98 24.94 76.83 25.35 76.69 25.76 76.55 26.17 76.43 26.59 76.32 27.01 76.21 27.42 76.1 27.84 75.99 28.68 75.78 29.52 75.58 30.36 75.39 31.2 75.2 32.05 75.03 32.89 74.86" stroke="#231815" stroke-width="0.55" stroke-linecap="round" stroke-linejoin="round" fill="none"/><path d="M48.26 82.53C48.52 82.84 48.77 83.17 48.99 83.51" stroke="#231815" stroke-width="0.55" stroke-linecap="round" stroke-linejoin="round" fill="none"/><path d="M48.26 82.53C47.99 82.21 47.7 81.91 47.39 81.62 47.08 81.33 46.76 81.06 46.43 80.8 46.11 80.55 45.75 80.28 45.4 80.07 45.04 79.85 44.67 79.66 44.26 79.53" stroke="#231815" stroke-width="0.55" stroke-linecap="round" stroke-linejoin="round" fill="none"/><path d="M47.71 83.03C47.9 83.26 48.09 83.49 48.26 83.74" stroke="#231815" stroke-width="0.55" stroke-linecap="round" stroke-linejoin="round" fill="none"/><path d="M22.13 77.2C21.76 77.53 21.48 77.95 21.43 78.47 21.41 78.72 21.43 78.97 21.5 79.21 21.56 79.45 21.64 79.69 21.73 79.92 21.91 80.38 22.12 80.83 22.37 81.26 22.62 81.69 22.89 82.1 23.19 82.5" stroke="#231815" stroke-width="0.55" stroke-linecap="round" stroke-linejoin="round" fill="none"/><path d="M23.04 77.84C22.81 78.04 22.62 78.29 22.52 78.58 22.41 78.88 22.41 79.18 22.47 79.49 22.53 79.78 22.64 80.09 22.76 80.36 22.88 80.64 23.01 80.92 23.16 81.19" stroke="#231815" stroke-width="0.55" stroke-linecap="round" stroke-linejoin="round" fill="none"/><path d="M29.49 86.88C30 86.97 30.54 87.01 31.06 87.02 31.59 87.04 32.11 87.02 32.64 86.99 33.66 86.93 34.76 86.78 35.77 86.63 37.9 86.32 39.88 85.96 41.98 85.51" stroke="#231815" stroke-width="0.55" stroke-linecap="round" stroke-linejoin="round" fill="none"/><path d="M52.46 81.98C52.31 82.14 52.14 82.27 51.96 82.4 51.76 82.54 51.54 82.67 51.32 82.78 50.91 83 50.48 83.18 50.05 83.34 49.83 83.42 49.62 83.5 49.4 83.57 49.18 83.64 48.95 83.72 48.73 83.79 48.29 83.93 47.84 84.06 47.39 84.18 46.94 84.31 46.49 84.43 46.05 84.55 45.6 84.67 45.15 84.79 44.7 84.9 43.8 85.12 42.89 85.33 41.98 85.53" stroke="#231815" stroke-width="0.55" stroke-linecap="round" stroke-linejoin="round" fill="none"/><path d="M29.88 82.09C29.87 82.48 29.85 82.94 29.88 83.33 29.9 83.7 29.97 84.19 30.21 84.51" stroke="#231815" stroke-width="0.55" stroke-linecap="round" stroke-linejoin="round" fill="none"/><path d="M49.05 69.88C50.08 70.03 51.03 70.32 51.96 70.78 52.42 71.01 52.85 71.27 53.28 71.55 53.68 71.82 54.14 72.14 54.53 72.43 56.17 73.65 57.69 75.01 59.07 76.52" stroke="#231815" stroke-width="0.55" stroke-linecap="round" stroke-linejoin="round" fill="none"/><path d="M46.39 119.72C45.5 119.94 44.61 120.15 43.71 120.35 42.82 120.55 41.92 120.74 41.02 120.92 40.12 121.1 39.22 121.27 38.32 121.44 37.42 121.6 36.52 121.76 35.61 121.9 34.71 122.04 33.8 122.18 32.89 122.29 32.43 122.34 31.98 122.39 31.52 122.42 31.06 122.45 30.61 122.48 30.15 122.49 29.24 122.51 28.31 122.47 27.41 122.32 26.5 122.17 25.63 121.92 24.79 121.53" stroke="#231815" stroke-width="0.55" stroke-linecap="round" stroke-linejoin="round" fill="none"/><path d="M64.98 105.56C64.87 105.93 64.68 106.26 64.45 106.56 64.16 106.92 63.81 107.23 63.44 107.5 63.11 107.74 62.77 107.94 62.41 108.13 62.02 108.34 61.62 108.53 61.22 108.7 60.84 108.87 60.46 109.02 60.07 109.17 59.67 109.32 59.27 109.47 58.86 109.61 58.11 109.87 57.21 110.16 56.46 110.41 55.66 110.67 54.85 110.91 54.04 111.15 53.23 111.39 52.42 111.62 51.61 111.84 50.8 112.06 49.98 112.28 49.16 112.49 48.34 112.7 47.52 112.9 46.7 113.1" stroke="#231815" stroke-width="0.55" stroke-linecap="round" stroke-linejoin="round" fill="none"/><path d="M65.98 92.91C65.89 93.31 65.7 93.67 65.45 93.99 65.15 94.38 64.76 94.71 64.36 94.99 64.01 95.24 63.64 95.45 63.26 95.65 62.84 95.87 62.41 96.06 61.98 96.24 61.57 96.41 61.16 96.57 60.75 96.72 60.32 96.88 59.89 97.02 59.45 97.17 58.6 97.45 57.74 97.72 56.88 97.98 53.45 99.02 49.95 99.94 46.45 100.73" stroke="#231815" stroke-width="0.55" stroke-linecap="round" stroke-linejoin="round" fill="none"/><path d="M49.11 69.87C49.11 69.87 49.07 69.87 49.05 69.87" stroke="#231815" stroke-width="0.55" stroke-linecap="round" stroke-linejoin="round" fill="none"/><path d="M14.6 85.85C13.69 84.55 12.89 83.16 12.3 81.69 12.15 81.32 12.02 80.95 11.9 80.57 11.78 80.19 11.67 79.81 11.62 79.41 11.57 79.01 11.58 78.62 11.73 78.24 11.8 78.07 11.89 77.91 12 77.77 12.13 77.6 12.28 77.44 12.44 77.3" stroke="#231815" stroke-width="0.55" stroke-linecap="round" stroke-linejoin="round" fill="none"/><path d="M24.29 93.71C25.14 93.85 26.06 93.87 26.92 93.84 27.8 93.8 28.67 93.71 29.55 93.6 30.42 93.49 31.29 93.37 32.16 93.24 33.03 93.11 33.9 92.98 34.77 92.84 35.64 92.7 36.51 92.55 37.37 92.4 38.24 92.25 39.1 92.09 39.97 91.93 41.7 91.6 43.42 91.25 45.14 90.87" stroke="#231815" stroke-width="0.55" stroke-linecap="round" stroke-linejoin="round" fill="none"/><path d="M62.85 85.3C62.61 85.56 62.31 85.77 62.01 85.95 61.65 86.16 61.26 86.35 60.87 86.51 60.18 86.8 59.38 87.07 58.67 87.29 57.98 87.51 57.13 87.76 56.44 87.97 55.69 88.19 54.95 88.41 54.2 88.61 51.2 89.45 48.18 90.19 45.14 90.85" stroke="#231815" stroke-width="0.55" stroke-linecap="round" stroke-linejoin="round" fill="none"/><path d="M63.68 83.23C63.56 82.87 63.41 82.53 63.24 82.2" stroke="#231815" stroke-width="0.55" stroke-linecap="round" stroke-linejoin="round" fill="none"/><path d="M61.35 114.69C60.81 115.05 60.2 115.36 59.61 115.62 59.31 115.75 59.01 115.88 58.71 116 58.4 116.12 58.09 116.24 57.77 116.35 56.65 116.76 55.16 117.25 54.02 117.6 53.39 117.8 52.76 117.99 52.13 118.17 51.5 118.36 50.86 118.54 50.23 118.71 49.59 118.89 48.96 119.06 48.32 119.22 47.68 119.39 47.04 119.55 46.4 119.7" stroke="#231815" stroke-width="0.55" stroke-linecap="round" stroke-linejoin="round" fill="none"/><path d="M62.85 85.3C63.15 84.98 63.34 84.6 63.39 84.16 63.44 83.73 63.35 83.3 63.22 82.9 63.09 82.49 62.92 82.11 62.72 81.72 62.53 81.34 62.32 80.97 62.11 80.6 61.25 79.13 60.21 77.77 59.06 76.51" stroke="#231815" stroke-width="0.55" stroke-linecap="round" stroke-linejoin="round" fill="none"/><path d="M24.29 93.71C23.21 93.53 22.26 93.15 21.34 92.57 21.11 92.42 20.88 92.27 20.66 92.11 20.45 91.96 20.25 91.8 20.05 91.63 19.67 91.32 19.21 90.92 18.85 90.59 17.28 89.16 15.84 87.59 14.61 85.85" stroke="#231815" stroke-width="0.55" stroke-linecap="round" stroke-linejoin="round" fill="none"/><path d="M63.99 87.26C63.75 87.53 63.46 87.76 63.16 87.95 62.79 88.2 62.39 88.41 61.98 88.6 61.63 88.77 61.28 88.92 60.92 89.06 60.53 89.22 60.13 89.36 59.73 89.5 59.36 89.63 58.98 89.75 58.6 89.88 58.21 90.01 57.81 90.13 57.41 90.25 56.64 90.49 55.86 90.72 55.08 90.94 54.3 91.16 53.52 91.38 52.74 91.59 51.96 91.8 51.17 92.01 50.39 92.2 48.82 92.6 47.24 92.97 45.66 93.32" stroke="#231815" stroke-width="0.55" stroke-linecap="round" stroke-linejoin="round" fill="none"/><path d="M46.85 96.18C50.35 95.39 53.82 94.51 57.27 93.49 58.13 93.24 58.99 92.97 59.84 92.7 60.27 92.56 60.7 92.42 61.13 92.28 61.55 92.14 61.97 91.99 62.39 91.83 62.82 91.67 63.24 91.5 63.66 91.31 64.06 91.13 64.46 90.95 64.84 90.74 65.26 90.51 65.67 90.27 66.06 89.99 66.4 89.74 66.72 89.47 67 89.16" stroke="#231815" stroke-width="0.55" stroke-linecap="round" stroke-linejoin="round" fill="none"/><path d="M63.24 82.2C63.48 82.6 63.7 83 63.91 83.41 64.12 83.81 64.32 84.25 64.46 84.68 64.6 85.12 64.68 85.58 64.6 86.04 64.52 86.51 64.3 86.91 63.99 87.26" stroke="#231815" stroke-width="0.55" stroke-linecap="round" stroke-linejoin="round" fill="none"/><path d="M63.14 78.94C61.88 77.57 60.51 76.31 59.04 75.16 58.67 74.87 58.3 74.59 57.93 74.32 57.74 74.18 57.56 74.05 57.37 73.92 57.18 73.78 56.98 73.65 56.79 73.52 56 73 55.22 72.56 54.34 72.2" stroke="#231815" stroke-width="0.55" stroke-linecap="round" stroke-linejoin="round" fill="none"/><path d="M13.6 88.03C13.15 87.38 12.72 86.71 12.34 86.01 12.15 85.66 11.97 85.31 11.8 84.95 11.63 84.59 11.47 84.23 11.33 83.86 11.18 83.49 11.05 83.12 10.93 82.74 10.81 82.37 10.7 81.97 10.64 81.59 10.58 81.2 10.56 80.8 10.64 80.41 10.72 80.01 10.89 79.66 11.15 79.34" stroke="#231815" stroke-width="0.55" stroke-linecap="round" stroke-linejoin="round" fill="none"/><path d="M10.59 90.12C10.05 89.33 9.56 88.52 9.13 87.67 8.91 87.25 8.71 86.82 8.53 86.38 8.34 85.94 8.18 85.5 8.03 85.04 7.96 84.81 7.89 84.58 7.82 84.35 7.76 84.12 7.7 83.89 7.65 83.66 7.55 83.19 7.51 82.72 7.56 82.24 7.68 81.23 8.22 80.46 8.96 79.83" stroke="#231815" stroke-width="0.55" stroke-linecap="round" stroke-linejoin="round" fill="none"/><path d="M23.86 96.09C23.31 96 22.77 95.86 22.24 95.68 21.71 95.5 21.21 95.27 20.72 95 20.23 94.73 19.77 94.42 19.33 94.08 19.11 93.91 18.89 93.73 18.68 93.55 18.47 93.37 18.26 93.19 18.05 93 17.84 92.81 17.63 92.62 17.43 92.43 17.23 92.24 17.03 92.05 16.84 91.86 16.64 91.66 16.44 91.46 16.25 91.26 16.06 91.06 15.87 90.86 15.69 90.65 14.94 89.82 14.25 88.95 13.61 88.03" stroke="#231815" stroke-width="0.55" stroke-linecap="round" stroke-linejoin="round" fill="none"/><path d="M10.59 90.12C12.02 92.22 13.75 94.11 15.66 95.78 16.14 96.2 16.63 96.6 17.15 96.96 17.67 97.33 18.22 97.65 18.79 97.93 19.94 98.49 21.16 98.84 22.42 99.06" stroke="#231815" stroke-width="0.55" stroke-linecap="round" stroke-linejoin="round" fill="none"/><path d="M45.65 93.33C43.86 93.73 42.06 94.1 40.25 94.44 39.35 94.61 38.44 94.77 37.54 94.93 36.63 95.09 35.73 95.24 34.82 95.38 34.37 95.45 33.91 95.52 33.46 95.59 33.01 95.66 32.55 95.72 32.1 95.79 31.64 95.85 31.18 95.92 30.71 95.97 30.26 96.03 29.81 96.08 29.36 96.12 28.89 96.17 28.42 96.2 27.95 96.23 27.5 96.26 27.06 96.27 26.61 96.28 25.7 96.28 24.77 96.24 23.87 96.09" stroke="#231815" stroke-width="0.55" stroke-linecap="round" stroke-linejoin="round" fill="none"/><path d="M46.85 96.18C44.84 96.63 42.82 97.05 40.8 97.43 39.79 97.62 38.78 97.8 37.76 97.98 36.74 98.15 35.73 98.32 34.71 98.48 34.2 98.56 33.7 98.63 33.19 98.71 32.68 98.78 32.17 98.86 31.65 98.92 31.14 98.99 30.64 99.05 30.13 99.1 29.61 99.16 29.1 99.2 28.58 99.24 28.07 99.28 27.55 99.31 27.04 99.32 26.52 99.34 26.01 99.34 25.49 99.33 24.97 99.32 24.44 99.29 23.92 99.25 23.42 99.21 22.92 99.14 22.42 99.06" stroke="#231815" stroke-width="0.55" stroke-linecap="round" stroke-linejoin="round" fill="none"/><path d="M8.95 79.82C8.95 79.82 8.9 79.84 8.89 79.86" stroke="#231815" stroke-width="0.55" stroke-linecap="round" stroke-linejoin="round" fill="none"/><line x1="54.95" y1="72.46" x2="54.93" y2="72.43" stroke="#231815" stroke-width="0.55" stroke-linecap="round" stroke-linejoin="round" fill="none"/><path d="M55.05 72.47C55.05 72.47 54.97 72.42 54.93 72.43" stroke="#231815" stroke-width="0.55" stroke-linecap="round" stroke-linejoin="round" fill="none"/><path d="M46.95 98.57C44.95 99.02 42.94 99.44 40.92 99.83 39.91 100.02 38.9 100.21 37.89 100.38 36.88 100.56 35.86 100.72 34.85 100.88 34.35 100.96 33.84 101.03 33.34 101.11 32.83 101.18 32.32 101.26 31.81 101.32 31.3 101.39 30.8 101.45 30.29 101.5 29.78 101.56 29.26 101.6 28.75 101.64 27.73 101.72 26.7 101.76 25.67 101.74 25.15 101.73 24.63 101.7 24.11 101.66 23.61 101.62 23.11 101.55 22.61 101.47" stroke="#231815" stroke-width="0.55" stroke-linecap="round" stroke-linejoin="round" fill="none"/><path d="M67.02 91.51C66.74 91.82 66.42 92.1 66.09 92.35 65.9 92.49 65.71 92.62 65.51 92.74 65.3 92.87 65.09 92.99 64.88 93.11 64.49 93.32 64.1 93.51 63.7 93.68 63.28 93.86 62.86 94.04 62.43 94.2 62.01 94.36 61.6 94.51 61.18 94.65 60.75 94.8 60.33 94.94 59.9 95.07 59.05 95.34 58.19 95.61 57.34 95.86 53.91 96.88 50.45 97.77 46.96 98.56" stroke="#231815" stroke-width="0.55" stroke-linecap="round" stroke-linejoin="round" fill="none"/><path d="M25.84 91.48C26.21 91.54 26.61 91.54 26.97 91.48 27.34 91.43 27.72 91.32 28.06 91.16 28.39 91.01 28.73 90.78 28.96 90.48 29.07 90.33 29.16 90.16 29.19 89.97 29.22 89.78 29.19 89.59 29.08 89.42" stroke="#231815" stroke-width="0.55" stroke-linecap="round" stroke-linejoin="round" fill="none"/><path d="M22.62 101.47C21.36 101.25 20.15 100.89 19 100.33 18.43 100.05 17.89 99.72 17.37 99.36 16.85 98.99 16.36 98.59 15.89 98.17 15.65 97.96 15.41 97.74 15.18 97.52 14.95 97.31 14.72 97.09 14.5 96.87 14.27 96.64 14.05 96.41 13.83 96.18 13.61 95.95 13.4 95.72 13.19 95.49 12.98 95.25 12.77 95.01 12.56 94.76 12.36 94.52 12.16 94.28 11.97 94.03 11.58 93.53 11.21 93.02 10.85 92.49" stroke="#231815" stroke-width="0.55" stroke-linecap="round" stroke-linejoin="round" fill="none"/><path d="M23.16 81.19C23.47 81.78 23.83 82.33 24.23 82.86" stroke="#231815" stroke-width="0.55" stroke-linecap="round" stroke-linejoin="round" fill="none"/><path d="M15.26 107.59C15.26 107.59 15.23 107.54 15.21 107.52" stroke="#231815" stroke-width="0.55" stroke-linecap="round" stroke-linejoin="round" fill="none"/><path d="M14.45 106.3C14.45 106.3 14.48 106.35 14.5 106.37" stroke="#231815" stroke-width="0.55" stroke-linecap="round" stroke-linejoin="round" fill="none"/><path d="M43.34 79.71C43.32 79.77 43.3 79.83 43.28 79.89" stroke="#231815" stroke-width="0.55" stroke-linecap="round" stroke-linejoin="round" fill="none"/><path d="M25.39 90.25C25.34 90.34 25.33 90.45 25.37 90.55 25.41 90.65 25.49 90.72 25.57 90.78 25.74 90.89 25.96 90.96 26.15 90.99 26.54 91.06 26.99 91.04 27.38 90.96" stroke="#231815" stroke-width="0.55" stroke-linecap="round" stroke-linejoin="round" fill="none"/><path d="M27.38 90.96C27.63 90.91 27.91 90.81 28.13 90.67 28.24 90.6 28.35 90.5 28.41 90.38 28.48 90.25 28.47 90.12 28.38 90" stroke="#231815" stroke-width="0.55" stroke-linecap="round" stroke-linejoin="round" fill="none"/><path d="M31.37 82.75C31.36 83.16 31.35 83.56 31.34 83.97" stroke="#231815" stroke-width="0.55" stroke-linecap="round" stroke-linejoin="round" fill="none"/><path d="M42.79 78.71C42.44 78.29 41.89 78.01 41.41 77.82 40.9 77.62 40.34 77.49 39.81 77.4" stroke="#231815" stroke-width="0.55" stroke-linecap="round" stroke-linejoin="round" fill="none"/><path d="M29.92 80.86 29.92 80.89" stroke="#231815" stroke-width="0.55" stroke-linecap="round" stroke-linejoin="round" fill="none"/><path d="M31.32 81.05C31.37 81.08 31.43 81.08 31.49 81.07" stroke="#231815" stroke-width="0.55" stroke-linecap="round" stroke-linejoin="round" fill="none"/><path d="M43.93 81.29C43.98 81.69 44.04 82.1 44.09 82.5" stroke="#231815" stroke-width="0.55" stroke-linecap="round" stroke-linejoin="round" fill="none"/><path d="M29.91 82.13C29.91 82.13 29.88 82.11 29.88 82.09" stroke="#231815" stroke-width="0.55" stroke-linecap="round" stroke-linejoin="round" fill="none"/><path d="M31.31 83.93C31.31 83.93 31.33 83.96 31.34 83.97" stroke="#231815" stroke-width="0.55" stroke-linecap="round" stroke-linejoin="round" fill="none"/><path d="M31.34 82.71C31.34 82.71 31.36 82.74 31.37 82.75" stroke="#231815" stroke-width="0.55" stroke-linecap="round" stroke-linejoin="round" fill="none"/><path d="M38.15 83.61C38.17 84.02 38.19 84.44 38.21 84.85" stroke="#231815" stroke-width="0.55" stroke-linecap="round" stroke-linejoin="round" fill="none"/><path d="M37.73 80.58C37.73 80.58 37.66 80.5 37.61 80.51" stroke="#231815" stroke-width="0.55" stroke-linecap="round" stroke-linejoin="round" fill="none"/><path d="M11.58 99.56C11.62 99.86 11.69 100.16 11.77 100.45 11.85 100.74 11.94 101.03 12.03 101.32 12.12 101.61 12.23 101.9 12.34 102.18 12.45 102.46 12.56 102.74 12.69 103.02 13.18 104.13 13.77 105.2 14.43 106.22" stroke="#231815" stroke-width="0.55" stroke-linecap="round" stroke-linejoin="round" fill="none"/><path d="M15.18 107.44C15.07 107.26 14.95 107.09 14.85 106.91" stroke="#231815" stroke-width="0.55" stroke-linecap="round" stroke-linejoin="round" fill="none"/><path d="M46.45 100.74C43.57 101.4 40.68 101.98 37.76 102.49 37.03 102.62 36.31 102.74 35.58 102.86 34.85 102.98 34.12 103.09 33.39 103.2 32.66 103.31 31.93 103.41 31.19 103.5 30.46 103.59 29.72 103.67 28.99 103.72 27.53 103.83 26.03 103.86 24.57 103.68 23.78 103.58 23.01 103.43 22.25 103.19 21.59 102.98 20.97 102.72 20.36 102.39 19.67 102.02 19.06 101.58 18.45 101.09 17.92 100.66 17.37 100.15 16.88 99.68 15.81 98.66 14.82 97.56 13.92 96.39" stroke="#231815" stroke-width="0.55" stroke-linecap="round" stroke-linejoin="round" fill="none"/><path d="M46.69 113.11C45.98 113.28 45.28 113.44 44.57 113.6 43.86 113.76 43.14 113.91 42.43 114.06 41.72 114.21 41.01 114.35 40.29 114.49 39.57 114.63 38.85 114.76 38.13 114.89 36.75 115.14 35.21 115.39 33.82 115.6 33.1 115.71 32.37 115.81 31.65 115.89 30.93 115.97 30.2 116.03 29.48 116.07 29.1 116.09 28.72 116.1 28.34 116.1 27.97 116.1 27.6 116.09 27.22 116.07 26.86 116.05 26.5 116.01 26.14 115.97 25.8 115.93 25.46 115.87 25.12 115.8 24.72 115.71 24.32 115.61 23.93 115.48 23.57 115.36 23.22 115.22 22.88 115.06 22.27 114.77 21.7 114.43 21.16 114.03 20.85 113.8 20.56 113.56 20.27 113.31 19.99 113.07 19.72 112.82 19.46 112.57 18.95 112.08 18.45 111.58 17.97 111.05 17.71 110.77 17.47 110.49 17.22 110.2 16.98 109.92 16.75 109.63 16.52 109.34 16.08 108.78 15.67 108.2 15.27 107.61" stroke="#231815" stroke-width="0.55" stroke-linecap="round" stroke-linejoin="round" fill="none"/><path d="M15.17 107.45C15.17 107.45 15.2 107.5 15.22 107.52" stroke="#231815" stroke-width="0.55" stroke-linecap="round" stroke-linejoin="round" fill="none"/><path d="M14.45 106.3C14.45 106.3 14.42 106.25 14.4 106.23" stroke="#231815" stroke-width="0.55" stroke-linecap="round" stroke-linejoin="round" fill="none"/><path d="M14.45 106.3C14.45 106.3 14.47 106.39 14.5 106.42" stroke="#231815" stroke-width="0.55" stroke-linecap="round" stroke-linejoin="round" fill="none"/><path d="M34.92 79.29C34.85 78.54 34.72 77.78 34.53 77.05 34.43 76.68 34.32 76.32 34.18 75.97 34.04 75.62 33.89 75.27 33.71 74.94" stroke="#231815" stroke-width="0.55" stroke-linecap="round" stroke-linejoin="round" fill="none"/><path d="M38.11 73.99C38.11 73.99 38.05 74.04 38.03 74.07 38 74.12 37.98 74.16 37.96 74.21 37.94 74.28 37.92 74.35 37.91 74.41 37.89 74.5 37.88 74.58 37.87 74.67 37.84 74.92 37.82 75.17 37.81 75.42 37.79 75.9 37.79 76.44 37.81 76.92 37.83 77.88 37.88 78.95 37.94 79.91" stroke="#231815" stroke-width="0.55" stroke-linecap="round" stroke-linejoin="round" fill="none"/><line x1="36.41" y1="80.51" x2="36.38" y2="80.13" stroke="#231815" stroke-width="0.55" stroke-linecap="round" stroke-linejoin="round" fill="none"/><path d="M39.75 79.12C39.75 79.3 39.56 79.43 39.43 79.5 39.28 79.58 39.11 79.64 38.95 79.69 38.63 79.78 38.26 79.86 37.93 79.91" stroke="#231815" stroke-width="0.55" stroke-linecap="round" stroke-linejoin="round" fill="none"/><path d="M37.93 79.91C37.41 79.99 36.8 80.06 36.27 80.04 36.01 80.04 35.7 80 35.45 79.9 35.38 79.87 35.31 79.84 35.25 79.79 35.2 79.75 35.16 79.71 35.12 79.65 35.09 79.61 35.04 79.53 35.02 79.48 34.98 79.42 34.95 79.35 34.91 79.29" stroke="#231815" stroke-width="0.55" stroke-linecap="round" stroke-linejoin="round" fill="none"/><path d="M37.92 80C37.92 80 37.92 79.98 37.93 79.98 37.93 79.98 37.93 79.96 37.93 79.96 37.93 79.94 37.93 79.93 37.93 79.91" stroke="#231815" stroke-width="0.55" stroke-linecap="round" stroke-linejoin="round" fill="none"/><path d="M34.92 79.29C34.86 79.18 34.81 79.07 34.75 78.96 34.69 78.84 34.64 78.75 34.63 78.61" stroke="#231815" stroke-width="0.55" stroke-linecap="round" stroke-linejoin="round" fill="none"/><path d="M40.21 73.47C40.57 73.34 40.93 73.18 41.26 73" stroke="#231815" stroke-width="0.55" stroke-linecap="round" stroke-linejoin="round" fill="none"/><path d="M38.11 73.99C38.81 73.88 39.53 73.71 40.2 73.47" stroke="#231815" stroke-width="0.55" stroke-linecap="round" stroke-linejoin="round" fill="none"/><path d="M32.68 73.66C33.52 73.96 34.49 74.1 35.37 74.14 35.83 74.16 36.28 74.16 36.74 74.14 37.2 74.11 37.65 74.07 38.1 74" stroke="#231815" stroke-width="0.55" stroke-linecap="round" stroke-linejoin="round" fill="none"/><path d="M67.87 89.49C67.97 89.25 68.04 89.01 68.07 88.76" stroke="#231815" stroke-width="0.55" stroke-linecap="round" stroke-linejoin="round" fill="none"/><path d="M30.9 72.39C30.9 72.39 30.88 72.34 30.88 72.31" stroke="#231815" stroke-width="0.55" stroke-linecap="round" stroke-linejoin="round" fill="none"/><path d="M38.06 71.7C38.99 71.55 39.99 71.3 40.85 70.9 41.28 70.7 41.72 70.45 42.08 70.13 42.42 69.82 42.75 69.39 42.73 68.88" stroke="#231815" stroke-width="0.55" stroke-linecap="round" stroke-linejoin="round" fill="none"/><path d="M30.51 69.68C30.52 69.85 30.57 70 30.65 70.15 30.74 70.32 30.86 70.46 30.99 70.59 31.11 70.7 31.23 70.8 31.37 70.89 31.53 70.99 31.69 71.08 31.87 71.16 32.49 71.45 33.21 71.63 33.88 71.73 35.23 71.94 36.72 71.91 38.06 71.7" stroke="#231815" stroke-width="0.55" stroke-linecap="round" stroke-linejoin="round" fill="none"/><path d="M30.65 70.17C30.96 70.74 31.67 71.1 32.21 71.31 32.81 71.54 33.49 71.69 34.12 71.77 35.4 71.94 36.78 71.9 38.05 71.71" stroke="#231815" stroke-width="0.55" stroke-linecap="round" stroke-linejoin="round" fill="none"/><path d="M37.93 71.17C38.89 71.02 39.99 70.73 40.85 70.24 41.27 70.01 41.74 69.67 41.99 69.23 42.28 68.72 42.17 68.23 41.77 67.83" stroke="#231815" stroke-width="0.55" stroke-linecap="round" stroke-linejoin="round" fill="none"/><path d="M37.88 71.18C37.88 71.18 37.91 71.18 37.93 71.18" stroke="#231815" stroke-width="0.55" stroke-linecap="round" stroke-linejoin="round" fill="none"/><path d="M31.34 68.51C31.22 68.66 31.13 68.83 31.08 69.02 31.04 69.18 31.04 69.34 31.08 69.5 31.12 69.66 31.19 69.8 31.28 69.93 31.4 70.09 31.54 70.22 31.7 70.34 32.25 70.75 33.01 70.99 33.66 71.12 35 71.4 36.54 71.39 37.89 71.18" stroke="#231815" stroke-width="0.55" stroke-linecap="round" stroke-linejoin="round" fill="none"/><path d="M37.93 71.17C37.93 71.17 37.93 71.16 37.92 71.17" stroke="#231815" stroke-width="0.55" stroke-linecap="round" stroke-linejoin="round" fill="none"/><path d="M37.93 71.27C37.13 71.39 36.3 71.45 35.49 71.42 34.69 71.4 33.84 71.3 33.06 71.09 32.67 70.98 32.27 70.84 31.92 70.65 31.72 70.54 31.52 70.42 31.35 70.27 31.21 70.15 31.09 70.02 31 69.86 30.77 69.48 30.78 69.08 31 68.7 31.09 68.54 31.21 68.39 31.34 68.26 31.5 68.1 31.67 67.97 31.86 67.84" stroke="#231815" stroke-width="0.55" stroke-linecap="round" stroke-linejoin="round" fill="none"/><path d="M55.04 72.49C55.44 72.68 55.82 72.89 56.2 73.12 56.58 73.35 56.94 73.59 57.3 73.84 58 74.33 58.75 74.88 59.41 75.42 59.75 75.7 60.09 75.98 60.42 76.26 60.75 76.55 61.08 76.84 61.4 77.14 61.72 77.44 62.04 77.74 62.35 78.06 62.66 78.37 62.96 78.69 63.26 79.01" stroke="#231815" stroke-width="0.55" stroke-linecap="round" stroke-linejoin="round" fill="none"/><path d="M54.33 72.18C54.57 72.28 54.8 72.38 55.04 72.5" stroke="#231815" stroke-width="0.55" stroke-linecap="round" stroke-linejoin="round" fill="none"/><path d="M67.9 89.38C67.9 89.38 67.9 89.43 67.9 89.46" stroke="#231815" stroke-width="0.55" stroke-linecap="round" stroke-linejoin="round" fill="none"/><path d="M66.25 92.38C65.93 92.63 65.59 92.86 65.24 93.06 64.86 93.29 64.46 93.49 64.06 93.68 63.3 94.04 62.49 94.36 61.7 94.64 61.3 94.78 60.9 94.92 60.5 95.05 60.09 95.18 59.68 95.32 59.27 95.44 58.46 95.7 57.64 95.94 56.83 96.18 56.01 96.42 55.19 96.65 54.37 96.88 53.55 97.11 52.73 97.33 51.9 97.54 51.08 97.75 50.25 97.96 49.42 98.16 48.59 98.36 47.76 98.55 46.93 98.74" stroke="#231815" stroke-width="0.55" stroke-linecap="round" stroke-linejoin="round" fill="none"/><path d="M66.99 91.68C66.76 91.94 66.51 92.16 66.24 92.38" stroke="#231815" stroke-width="0.55" stroke-linecap="round" stroke-linejoin="round" fill="none"/><path d="M46.94 98.75C45.94 98.98 44.94 99.19 43.94 99.4 42.94 99.61 41.94 99.81 40.93 100 39.92 100.19 38.92 100.37 37.91 100.55 36.9 100.72 35.89 100.89 34.88 101.05 33.93 101.2 32.79 101.37 31.84 101.49 30.83 101.62 29.81 101.74 28.79 101.82 28.28 101.86 27.76 101.89 27.25 101.91 26.74 101.93 26.23 101.93 25.72 101.92 24.7 101.9 23.67 101.82 22.67 101.64" stroke="#231815" stroke-width="0.55" stroke-linecap="round" stroke-linejoin="round" fill="none"/><path d="M22.67 101.65C21.41 101.43 20.19 101.07 19.04 100.5 18.47 100.22 17.92 99.89 17.4 99.52 17.13 99.33 16.88 99.13 16.62 98.93 16.38 98.73 16.14 98.53 15.91 98.32 14.01 96.64 12.28 94.74 10.86 92.62" stroke="#231815" stroke-width="0.55" stroke-linecap="round" stroke-linejoin="round" fill="none"/><path d="M10.51 92.09C10.24 91.67 9.98 91.24 9.74 90.8 9.62 90.58 9.5 90.36 9.39 90.14 9.28 89.92 9.17 89.69 9.06 89.46 8.85 89 8.66 88.54 8.48 88.07 8.39 87.84 8.31 87.6 8.24 87.36 8.16 87.12 8.09 86.88 8.03 86.64" stroke="#231815" stroke-width="0.55" stroke-linecap="round" stroke-linejoin="round" fill="none"/><path d="M67.87 89.49C67.87 89.49 67.89 89.42 67.89 89.37" stroke="#231815" stroke-width="0.55" stroke-linecap="round" stroke-linejoin="round" fill="none"/><path d="M8.16 87.04C7.98 86.57 7.81 86.05 7.68 85.57 7.61 85.32 7.55 85.07 7.5 84.82 7.45 84.57 7.42 84.31 7.41 84.05" stroke="#231815" stroke-width="0.55" stroke-linecap="round" stroke-linejoin="round" fill="none"/><path d="M37.91 80C37.99 79.99 38.07 79.97 38.15 79.96" stroke="#231815" stroke-width="0.55" stroke-linecap="round" stroke-linejoin="round" fill="none"/><path d="M31.16 69.43C31.17 69.57 31.22 69.71 31.29 69.83 31.37 69.98 31.49 70.11 31.61 70.22 31.84 70.42 32.12 70.58 32.4 70.71 32.96 70.96 33.6 71.11 34.2 71.2 35.4 71.38 36.73 71.35 37.92 71.16" stroke="#231815" stroke-width="0.55" stroke-linecap="round" stroke-linejoin="round" fill="none"/><path d="M30.51 69.68C30.49 69.35 30.59 69.05 30.76 68.77 30.93 68.5 31.16 68.27 31.41 68.07 31.9 67.68 32.51 67.39 33.09 67.18" stroke="#231815" stroke-width="0.55" stroke-linecap="round" stroke-linejoin="round" fill="none"/><path d="M42.74 69.96C42.74 70.33 42.75 70.71 42.76 71.08" stroke="#231815" stroke-width="0.55" stroke-linecap="round" stroke-linejoin="round" fill="none"/><line x1="38.83" y1="80.23" x2="40.08" y2="79.97" stroke="#231815" stroke-width="0.55" stroke-linecap="round" stroke-linejoin="round" fill="none"/><line x1="38.83" y1="80.23" x2="38.83" y2="80.17" stroke="#231815" stroke-width="0.55" stroke-linecap="round" stroke-linejoin="round" fill="none"/><line x1="40.08" y1="79.91" x2="40.08" y2="79.97" stroke="#231815" stroke-width="0.55" stroke-linecap="round" stroke-linejoin="round" fill="none"/><path d="M39.9 66.75C40.49 66.88 41.14 67.09 41.66 67.41 41.93 67.57 42.18 67.77 42.38 68.02 42.58 68.27 42.71 68.56 42.73 68.88" stroke="#231815" stroke-width="0.55" stroke-linecap="round" stroke-linejoin="round" fill="none"/><path d="M33.44 73.89C32.96 73.78 32.46 73.61 32.01 73.38 31.58 73.16 31.13 72.83 30.89 72.39" stroke="#231815" stroke-width="0.55" stroke-linecap="round" stroke-linejoin="round" fill="none"/><path d="M42.76 71.08C42.76 71.4 42.65 71.69 42.48 71.95 42.31 72.21 42.08 72.43 41.84 72.62 41.36 72.99 40.76 73.27 40.2 73.47" stroke="#231815" stroke-width="0.55" stroke-linecap="round" stroke-linejoin="round" fill="none"/><line x1="44.72" y1="81.7" x2="45.12" y2="84.28" stroke="#231815" stroke-width="0.55" stroke-linecap="round" stroke-linejoin="round" fill="none"/><path d="M44.72 81.7C44.71 81.61 44.69 81.52 44.67 81.43 44.66 81.34 44.64 81.25 44.63 81.16" stroke="#231815" stroke-width="0.55" stroke-linecap="round" stroke-linejoin="round" fill="none"/><path d="M43.35 79.68 43.35 79.68" stroke="#231815" stroke-width="0.55" stroke-linecap="round" stroke-linejoin="round" fill="none"/><path d="M29.77 85.37C29.76 85.78 29.91 86.16 30.15 86.48" stroke="#231815" stroke-width="0.55" stroke-linecap="round" stroke-linejoin="round" fill="none"/><path d="M40.51 77.1C40.33 76.98 40.1 76.93 39.9 76.9" stroke="#231815" stroke-width="0.55" stroke-linecap="round" stroke-linejoin="round" fill="none"/><path d="M31.52 81.25C31.52 81.25 31.52 81.25 31.52 81.25" stroke="#231815" stroke-width="0.55" stroke-linecap="round" stroke-linejoin="round" fill="none"/><path d="M36.38 80.5C36.38 80.5 36.38 80.5 36.39 80.49" stroke="#231815" stroke-width="0.55" stroke-linecap="round" stroke-linejoin="round" fill="none"/><line x1="40.08" y1="79.91" x2="38.83" y2="80.17" stroke="#231815" stroke-width="0.55" stroke-linecap="round" stroke-linejoin="round" fill="none"/><path d="M29.92 80.86C29.93 80.5 30.03 80.16 30.19 79.84 30.35 79.52 30.58 79.24 30.83 78.99" stroke="#231815" stroke-width="0.55" stroke-linecap="round" stroke-linejoin="round" fill="none"/><path d="M28.37 89.98C28.37 89.98 28.38 90 28.39 90" stroke="#231815" stroke-width="0.55" stroke-linecap="round" stroke-linejoin="round" fill="none"/><path d="M28.23 89.81C28.28 89.86 28.33 89.92 28.37 89.98" stroke="#231815" stroke-width="0.55" stroke-linecap="round" stroke-linejoin="round" fill="none"/><path d="M30.95 78.88C31.12 78.74 31.3 78.63 31.49 78.52 31.68 78.41 31.87 78.31 32.07 78.21 32.26 78.11 32.45 78 32.64 77.89 32.73 77.83 32.83 77.78 32.92 77.73 33.01 77.68 33.11 77.62 33.21 77.58" stroke="#231815" stroke-width="0.55" stroke-linecap="round" stroke-linejoin="round" fill="none"/><path d="M15.17 107.45C15.17 107.45 15.17 107.42 15.17 107.41" stroke="#231815" stroke-width="0.55" stroke-linecap="round" stroke-linejoin="round" fill="none"/><line x1="55.05" y1="72.47" x2="55.11" y2="72.54" stroke="#231815" stroke-width="0.55" stroke-linecap="round" stroke-linejoin="round" fill="none"/><line x1="15.26" y1="107.61" x2="15.28" y2="107.6" stroke="#231815" stroke-width="0.55" stroke-linecap="round" stroke-linejoin="round" fill="none"/><line x1="15.26" y1="107.59" x2="15.26" y2="107.61" stroke="#231815" stroke-width="0.55" stroke-linecap="round" stroke-linejoin="round" fill="none"/><path d="M14.63 106.56C14.63 106.56 14.58 106.52 14.57 106.49" stroke="#231815" stroke-width="0.55" stroke-linecap="round" stroke-linejoin="round" fill="none"/><line x1="15.28" y1="107.6" x2="15.28" y2="107.59" stroke="#231815" stroke-width="0.55" stroke-linecap="round" stroke-linejoin="round" fill="none"/><path d="M15.83 108.41C15.64 108.15 15.46 107.88 15.28 107.61" stroke="#231815" stroke-width="0.55" stroke-linecap="round" stroke-linejoin="round" fill="none"/><path d="M67.87 89.49C67.87 89.49 67.87 89.5 67.87 89.51" stroke="#231815" stroke-width="0.55" stroke-linecap="round" stroke-linejoin="round" fill="none"/><path d="M68.12 87.95C68.16 88.48 68.08 89 67.88 89.49" stroke="#231815" stroke-width="0.55" stroke-linecap="round" stroke-linejoin="round" fill="none"/><path d="M8.88 79.86C9.64 79.21 10.59 78.69 11.5 78.29" stroke="#231815" stroke-width="0.55" stroke-linecap="round" stroke-linejoin="round" fill="none"/><path d="M11.02 79.92C11.08 79.64 11.13 79.37 11.19 79.09" stroke="#231815" stroke-width="0.55" stroke-linecap="round" stroke-linejoin="round" fill="none"/><path d="M59.4 76.67C59.85 77.16 60.27 77.66 60.68 78.18 61.09 78.7 61.48 79.23 61.85 79.78 62.03 80.05 62.21 80.33 62.38 80.62 62.55 80.9 62.72 81.19 62.87 81.48 62.95 81.62 63.02 81.77 63.1 81.92 63.18 82.07 63.25 82.22 63.32 82.37 63.46 82.67 63.59 82.97 63.69 83.29" stroke="#231815" stroke-width="0.55" stroke-linecap="round" stroke-linejoin="round" fill="none"/><path d="M15.94 112.33C15.3 111.33 14.72 110.28 14.24 109.2 14 108.65 13.79 108.1 13.6 107.54 13.43 107.02 13.23 106.36 13.15 105.81" stroke="#231815" stroke-width="0.55" stroke-linecap="round" stroke-linejoin="round" fill="none"/><path d="M11.45 78.31C11.64 77.95 11.9 77.65 12.2 77.39" stroke="#231815" stroke-width="0.55" stroke-linecap="round" stroke-linejoin="round" fill="none"/><path d="M11.2 79.02C11.25 78.77 11.33 78.54 11.45 78.32" stroke="#231815" stroke-width="0.55" stroke-linecap="round" stroke-linejoin="round" fill="none"/><path d="M34.21 71.21C34.27 71.21 34.33 71.19 34.38 71.18" stroke="#231815" stroke-width="0.55" stroke-linecap="round" stroke-linejoin="round" fill="none"/><path d="M49.11 69.87C49.53 69.93 49.95 70.02 50.36 70.13 50.78 70.24 51.18 70.38 51.57 70.55 52.38 70.89 53.09 71.31 53.8 71.81" stroke="#231815" stroke-width="0.55" stroke-linecap="round" stroke-linejoin="round" fill="none"/><path d="M51.7 82.16C51.79 82.07 51.87 81.96 51.93 81.84" stroke="#231815" stroke-width="0.55" stroke-linecap="round" stroke-linejoin="round" fill="none"/><path d="M41.79 85.38C42.65 85.2 43.5 85 44.35 84.8 44.78 84.7 45.2 84.59 45.62 84.48 46.04 84.37 46.47 84.26 46.89 84.14 47.68 83.92 48.63 83.65 49.4 83.38 49.81 83.23 50.22 83.08 50.61 82.89 50.83 82.78 51.05 82.66 51.26 82.52 51.41 82.42 51.57 82.3 51.7 82.17" stroke="#231815" stroke-width="0.55" stroke-linecap="round" stroke-linejoin="round" fill="none"/><path d="M29.78 86.74C30.27 86.82 30.79 86.86 31.29 86.87 31.8 86.88 32.3 86.87 32.81 86.83 33.79 86.76 34.85 86.62 35.82 86.47 37.87 86.16 39.77 85.82 41.79 85.38" stroke="#231815" stroke-width="0.55" stroke-linecap="round" stroke-linejoin="round" fill="none"/><path d="M24.17 82.76C24.52 83.23 24.9 83.68 25.31 84.1 25.51 84.31 25.72 84.52 25.94 84.72 26.14 84.91 26.39 85.13 26.6 85.3 27.07 85.69 27.52 85.99 28.09 86.24 28.63 86.48 29.21 86.63 29.78 86.73" stroke="#231815" stroke-width="0.55" stroke-linecap="round" stroke-linejoin="round" fill="none"/><path d="M23.16 81.19C23.45 81.74 23.8 82.26 24.17 82.76" stroke="#231815" stroke-width="0.55" stroke-linecap="round" stroke-linejoin="round" fill="none"/><path d="M23.16 81.19C23.16 81.19 23.16 81.19 23.16 81.19" stroke="#231815" stroke-width="0.55" stroke-linecap="round" stroke-linejoin="round" fill="none"/><path d="M46.96 98.66C50.45 97.87 53.91 96.98 57.34 95.96 58.2 95.7 59.05 95.44 59.9 95.17 60.33 95.03 60.76 94.89 61.18 94.75 61.6 94.61 62.02 94.46 62.43 94.3 62.86 94.14 63.28 93.97 63.7 93.78 64.1 93.6 64.49 93.41 64.88 93.21 65.09 93.09 65.31 92.97 65.51 92.84 65.71 92.72 65.9 92.59 66.09 92.45 66.42 92.2 66.74 91.93 67.02 91.61" stroke="#231815" stroke-width="0.55" stroke-linecap="round" stroke-linejoin="round" fill="none"/><path d="M46.96 98.66C45.96 98.89 44.96 99.1 43.95 99.31 42.95 99.52 41.94 99.72 40.93 99.91 39.92 100.1 38.91 100.29 37.9 100.46 36.89 100.63 35.88 100.8 34.86 100.96 33.91 101.11 32.77 101.28 31.81 101.4 30.79 101.53 29.77 101.65 28.75 101.73 28.24 101.77 27.72 101.8 27.21 101.82 26.7 101.84 26.19 101.84 25.68 101.83 25.16 101.82 24.63 101.79 24.11 101.75 23.61 101.71 23.11 101.64 22.62 101.56" stroke="#231815" stroke-width="0.55" stroke-linecap="round" stroke-linejoin="round" fill="none"/><path d="M10.84 92.57C11.19 93.1 11.57 93.61 11.96 94.11 12.15 94.36 12.35 94.6 12.55 94.84 12.76 95.09 12.97 95.33 13.18 95.57 13.39 95.8 13.6 96.03 13.82 96.26 14.04 96.49 14.27 96.72 14.49 96.95 14.71 97.17 14.94 97.39 15.17 97.6 15.4 97.82 15.64 98.04 15.88 98.25 16.36 98.67 16.84 99.07 17.36 99.44 17.88 99.81 18.42 100.13 18.99 100.41 20.14 100.98 21.35 101.33 22.61 101.55" stroke="#231815" stroke-width="0.55" stroke-linecap="round" stroke-linejoin="round" fill="none"/><path d="M10.84 92.57C10.24 91.67 9.69 90.75 9.22 89.77 8.98 89.28 8.77 88.79 8.57 88.29 8.38 87.79 8.21 87.28 8.06 86.76" stroke="#231815" stroke-width="0.55" stroke-linecap="round" stroke-linejoin="round" fill="none"/><path d="M64.92 109.47C64.92 109.55 64.92 109.63 64.92 109.71" stroke="#231815" stroke-width="0.55" stroke-linecap="round" stroke-linejoin="round" fill="none"/><path d="M46.15 119.9C45.27 120.11 44.39 120.32 43.5 120.52 42.62 120.72 41.73 120.9 40.84 121.08 39.95 121.26 39.06 121.43 38.17 121.59 37.28 121.75 36.39 121.9 35.49 122.04 34.59 122.18 33.7 122.31 32.8 122.41 31.9 122.51 31 122.57 30.09 122.57 29.63 122.57 29.18 122.55 28.72 122.52 28.27 122.48 27.83 122.43 27.39 122.35 26.93 122.26 26.48 122.15 26.03 122.01 25.61 121.88 25.2 121.72 24.8 121.53" stroke="#231815" stroke-width="0.55" stroke-linecap="round" stroke-linejoin="round" fill="none"/><path d="M61.35 114.69C61.07 114.88 60.78 115.05 60.49 115.21 60.19 115.37 59.89 115.52 59.59 115.67 58.98 115.96 58.36 116.21 57.73 116.44 57.1 116.68 56.47 116.9 55.83 117.11 55.19 117.32 54.55 117.53 53.91 117.74 53.27 117.94 52.63 118.14 51.98 118.33 51.34 118.52 50.69 118.71 50.04 118.89 49.39 119.07 48.74 119.24 48.09 119.41 47.44 119.58 46.79 119.74 46.14 119.9" stroke="#231815" stroke-width="0.55" stroke-linecap="round" stroke-linejoin="round" fill="none"/><path d="M14.45 106.35C14.45 106.35 14.42 106.29 14.41 106.25" stroke="#231815" stroke-width="0.55" stroke-linecap="round" stroke-linejoin="round" fill="none"/><line x1="14.55" y1="106.5" x2="14.55" y2="106.5" stroke="#231815" stroke-width="0.55" stroke-linecap="round" stroke-linejoin="round" fill="none"/><path d="M37.92 80C37.65 80.04 37.37 80.08 37.1 80.1 36.83 80.12 36.54 80.14 36.27 80.13 36.01 80.12 35.7 80.08 35.46 79.97 35.39 79.94 35.33 79.9 35.28 79.85 35.23 79.8 35.19 79.76 35.15 79.7 35.08 79.58 35.01 79.46 34.94 79.34" stroke="#231815" stroke-width="0.55" stroke-linecap="round" stroke-linejoin="round" fill="none"/><path d="M39.75 79.14C39.75 79.33 39.61 79.47 39.46 79.56 39.31 79.65 39.13 79.72 38.97 79.77 38.65 79.87 38.25 79.95 37.92 80" stroke="#231815" stroke-width="0.55" stroke-linecap="round" stroke-linejoin="round" fill="none"/><path d="M66.22 92.44C66.16 92.56 66.1 92.68 66.04 92.79" stroke="#231815" stroke-width="0.55" stroke-linecap="round" stroke-linejoin="round" fill="none"/><path d="M12.75 103.21C12.5 102.65 12.28 102.09 12.08 101.51 11.98 101.22 11.89 100.93 11.81 100.64 11.73 100.35 11.65 100.05 11.6 99.75" stroke="#231815" stroke-width="0.55" stroke-linecap="round" stroke-linejoin="round" fill="none"/><path d="M14.85 106.91C14.77 106.8 14.7 106.68 14.62 106.57" stroke="#231815" stroke-width="0.55" stroke-linecap="round" stroke-linejoin="round" fill="none"/><path d="M14.41 106.25C14.41 106.25 14.41 106.23 14.41 106.23" stroke="#231815" stroke-width="0.55" stroke-linecap="round" stroke-linejoin="round" fill="none"/><path d="M36.39 80.5C36.39 80.38 36.37 80.25 36.36 80.13" stroke="#231815" stroke-width="0.55" stroke-linecap="round" stroke-linejoin="round" fill="none"/><path d="M14.5 106.37C14.5 106.37 14.53 106.46 14.55 106.49" stroke="#231815" stroke-width="0.55" stroke-linecap="round" stroke-linejoin="round" fill="none"/><path d="M15.94 112.33C16.72 113.54 17.6 114.68 18.56 115.76 18.79 116.02 19.03 116.27 19.27 116.52 19.52 116.78 19.77 117.03 20.02 117.28 20.28 117.53 20.54 117.78 20.81 118.03 21.09 118.28 21.38 118.52 21.67 118.75 22.86 119.66 24.09 120.24 25.55 120.57 26.23 120.73 26.92 120.82 27.61 120.86 28.35 120.91 29.1 120.91 29.84 120.88 30.56 120.85 31.27 120.79 31.99 120.71 32.71 120.63 33.42 120.53 34.14 120.43 34.85 120.32 35.57 120.21 36.28 120.09 36.99 119.97 37.7 119.85 38.4 119.72 41.23 119.2 44.05 118.61 46.85 117.93" stroke="#231815" stroke-width="0.55" stroke-linecap="round" stroke-linejoin="round" fill="none"/><path d="M14.56 106.49C14.56 106.49 14.52 106.41 14.51 106.37" stroke="#231815" stroke-width="0.55" stroke-linecap="round" stroke-linejoin="round" fill="none"/><path d="M64.92 109.71C64.91 110.11 64.81 110.49 64.63 110.85 64.42 111.27 64.12 111.62 63.77 111.94 63.47 112.21 63.14 112.45 62.79 112.66 62.4 112.9 62 113.11 61.59 113.31 60.83 113.68 60 114 59.2 114.29 58.42 114.57 57.55 114.87 56.76 115.12 56.35 115.25 55.95 115.38 55.54 115.51 55.13 115.64 54.72 115.77 54.3 115.89 53.48 116.14 52.65 116.38 51.82 116.61 50.17 117.08 48.5 117.51 46.83 117.91" stroke="#231815" stroke-width="0.55" stroke-linecap="round" stroke-linejoin="round" fill="none"/><path d="M65.77 103.66C65.73 104.33 65.48 104.93 65.07 105.46" stroke="#231815" stroke-width="0.55" stroke-linecap="round" stroke-linejoin="round" fill="none"/><path d="M38.15 79.96C38.15 80.08 38.15 80.19 38.16 80.31" stroke="#231815" stroke-width="0.55" stroke-linecap="round" stroke-linejoin="round" fill="none"/><path d="M41.26 73C41.18 73.08 41.11 73.17 41.05 73.27 40.96 73.4 40.88 73.53 40.8 73.66 40.67 73.89 40.56 74.14 40.46 74.39 40.27 74.88 40.12 75.41 40.01 75.93 39.8 76.96 39.72 78.08 39.74 79.13" stroke="#231815" stroke-width="0.55" stroke-linecap="round" stroke-linejoin="round" fill="none"/><path d="M33.71 74.93C33.58 74.69 33.43 74.46 33.26 74.24 33.1 74.04 32.89 73.81 32.68 73.66" stroke="#231815" stroke-width="0.55" stroke-linecap="round" stroke-linejoin="round" fill="none"/><path d="M34.64 78.62C34.58 78 34.48 77.35 34.34 76.74 34.27 76.43 34.19 76.12 34.09 75.82 33.99 75.52 33.87 75.23 33.72 74.95" stroke="#231815" stroke-width="0.55" stroke-linecap="round" stroke-linejoin="round" fill="none"/><path d="M37.92 71.16C38.34 71.09 38.76 71.01 39.17 70.89 39.58 70.78 39.98 70.64 40.37 70.46 40.75 70.29 41.14 70.07 41.46 69.8 41.76 69.54 42.08 69.16 42.06 68.72" stroke="#231815" stroke-width="0.55" stroke-linecap="round" stroke-linejoin="round" fill="none"/><path d="M24.8 121.52C23.87 121.08 23.03 120.55 22.24 119.91 21.84 119.59 21.47 119.26 21.1 118.91 20.73 118.56 20.37 118.21 20.02 117.85 19.67 117.49 19.32 117.12 18.99 116.74 18.65 116.36 18.33 115.97 18.01 115.58 17.38 114.79 16.78 113.97 16.23 113.12" stroke="#231815" stroke-width="0.55" stroke-linecap="round" stroke-linejoin="round" fill="none"/><line x1="51.93" y1="81.84" x2="51.93" y2="81.84" stroke="#231815" stroke-width="0.55" stroke-linecap="round" stroke-linejoin="round" fill="none"/><path d="M29.88 72.03C30.16 71.97 30.45 71.92 30.73 71.86" stroke="#231815" stroke-width="0.55" stroke-linecap="round" stroke-linejoin="round" fill="none"/><path d="M12.2 77.4C12.47 77.16 12.79 76.95 13.1 76.77 13.45 76.56 13.82 76.39 14.19 76.22 14.54 76.07 14.89 75.92 15.25 75.79 15.62 75.65 15.99 75.52 16.36 75.4 16.73 75.28 17.1 75.17 17.46 75.05 17.83 74.94 18.2 74.83 18.58 74.73 19.32 74.52 20.07 74.32 20.82 74.12 21.57 73.92 22.32 73.73 23.07 73.55 23.82 73.36 24.57 73.18 25.33 73.01 26.84 72.66 28.35 72.34 29.87 72.03" stroke="#231815" stroke-width="0.55" stroke-linecap="round" stroke-linejoin="round" fill="none"/><path d="M67.9 89.37 67.9 89.37" stroke="#231815" stroke-width="0.55" stroke-linecap="round" stroke-linejoin="round" fill="none"/><path d="M67.9 89.46C67.9 90.29 67.56 90.99 67.03 91.6" stroke="#231815" stroke-width="0.55" stroke-linecap="round" stroke-linejoin="round" fill="none"/><path d="M25.07 83.89C24.77 83.56 24.49 83.22 24.23 82.86" stroke="#231815" stroke-width="0.55" stroke-linecap="round" stroke-linejoin="round" fill="none"/><path d="M49.52 83.53C49.38 83.58 49.24 83.63 49.1 83.68" stroke="#231815" stroke-width="0.55" stroke-linecap="round" stroke-linejoin="round" fill="none"/><path d="M11.36 78.51C11.36 78.51 11.37 78.51 11.38 78.51" stroke="#231815" stroke-width="0.55" stroke-linecap="round" stroke-linejoin="round" fill="none"/><path d="M55.04 72.49C55.04 72.49 55.04 72.49 55.05 72.5" stroke="#231815" stroke-width="0.55" stroke-linecap="round" stroke-linejoin="round" fill="none"/><path d="M54.33 72.18C54.33 72.18 54.33 72.18 54.34 72.18" stroke="#231815" stroke-width="0.55" stroke-linecap="round" stroke-linejoin="round" fill="none"/><path d="M11.19 79.09C11.19 79.09 11.19 79.04 11.2 79.02" stroke="#231815" stroke-width="0.55" stroke-linecap="round" stroke-linejoin="round" fill="none"/><path d="M53.75 71.77C54.19 71.89 54.73 72.11 55.05 72.47" stroke="#231815" stroke-width="0.55" stroke-linecap="round" stroke-linejoin="round" fill="none"/><path d="M67.9 89.46C67.9 90.32 67.56 91.05 67 91.68" stroke="#231815" stroke-width="0.55" stroke-linecap="round" stroke-linejoin="round" fill="none"/><path d="M51.92 81.85C51.89 81.92 51.86 81.99 51.83 82.06" stroke="#231815" stroke-width="0.55" stroke-linecap="round" stroke-linejoin="round" fill="none"/><path d="M53.81 71.81C53.99 71.93 54.16 72.05 54.33 72.18" stroke="#231815" stroke-width="0.55" stroke-linecap="round" stroke-linejoin="round" fill="none"/><path d="M54.34 72.19C54.57 72.36 54.8 72.52 55.02 72.69 55.24 72.86 55.47 73.03 55.69 73.21 56.13 73.56 56.56 73.92 56.99 74.3 57.41 74.67 57.82 75.06 58.23 75.45 58.63 75.85 59.02 76.25 59.4 76.67" stroke="#231815" stroke-width="0.55" stroke-linecap="round" stroke-linejoin="round" fill="none"/><path d="M11.2 79.02C11.2 79.02 11.2 79.02 11.2 79.02" stroke="#231815" stroke-width="0.55" stroke-linecap="round" stroke-linejoin="round" fill="none"/><path d="M68.05 87.01C68.07 87.32 68.1 87.63 68.12 87.95" stroke="#231815" stroke-width="0.55" stroke-linecap="round" stroke-linejoin="round" fill="none"/><path d="M7.37 83.11C7.36 82.8 7.37 82.49 7.43 82.18 7.49 81.87 7.59 81.58 7.72 81.3 7.99 80.74 8.41 80.26 8.87 79.86" stroke="#231815" stroke-width="0.55" stroke-linecap="round" stroke-linejoin="round" fill="none"/><path d="M37.66 70.26C38.39 70.15 39.18 69.95 39.85 69.64 40.19 69.49 40.54 69.29 40.82 69.04 41.09 68.8 41.35 68.46 41.33 68.06" stroke="#231815" stroke-width="0.55" stroke-linecap="round" stroke-linejoin="round" fill="none"/><path d="M31.91 69.05C32.15 69.49 32.7 69.78 33.12 69.94 33.59 70.12 34.11 70.23 34.61 70.3 35.6 70.43 36.68 70.41 37.67 70.26" stroke="#231815" stroke-width="0.55" stroke-linecap="round" stroke-linejoin="round" fill="none"/><path d="M31.16 69.43C31.16 69.36 31.16 69.29 31.16 69.22" stroke="#231815" stroke-width="0.55" stroke-linecap="round" stroke-linejoin="round" fill="none"/><line x1="42.73" y1="68.88" x2="42.73" y2="68.88" stroke="#231815" stroke-width="0.55" stroke-linecap="round" stroke-linejoin="round" fill="none"/><line x1="30.73" y1="71.87" x2="30.73" y2="71.87" stroke="#231815" stroke-width="0.55" stroke-linecap="round" stroke-linejoin="round" fill="none"/><path d="M40.34 73.42C40.34 73.42 40.34 73.42 40.34 73.42" stroke="#231815" stroke-width="0.55" stroke-linecap="round" stroke-linejoin="round" fill="none"/><path d="M42.73 68.94C42.73 69.28 42.73 69.62 42.74 69.96" stroke="#231815" stroke-width="0.55" stroke-linecap="round" stroke-linejoin="round" fill="none"/><line x1="39.98" y1="70.63" x2="39.98" y2="70.63" stroke="#231815" stroke-width="0.55" stroke-linecap="round" stroke-linejoin="round" fill="none"/><path d="M34.94 79.34C34.88 79.22 34.82 79.11 34.76 78.99 34.7 78.86 34.65 78.77 34.64 78.62" stroke="#231815" stroke-width="0.55" stroke-linecap="round" stroke-linejoin="round" fill="none"/><path d="M37.92 80 37.92 80" stroke="#231815" stroke-width="0.55" stroke-linecap="round" stroke-linejoin="round" fill="none"/><path d="M41.19 67.53C41.28 67.67 41.33 67.82 41.34 67.99" stroke="#231815" stroke-width="0.55" stroke-linecap="round" stroke-linejoin="round" fill="none"/><line x1="41.34" y1="67.98" x2="41.34" y2="68.06" stroke="#231815" stroke-width="0.55" stroke-linecap="round" stroke-linejoin="round" fill="none"/><path d="M31.79 68.6C31.77 68.24 31.96 67.93 32.19 67.69 32.42 67.45 32.73 67.25 33.02 67.1" stroke="#231815" stroke-width="0.55" stroke-linecap="round" stroke-linejoin="round" fill="none"/><path d="M39.95 66.65C40.38 66.81 40.93 67.09 41.19 67.52" stroke="#231815" stroke-width="0.55" stroke-linecap="round" stroke-linejoin="round" fill="none"/><path d="M31.17 69.33C31.15 68.97 31.26 68.63 31.44 68.34 31.63 68.04 31.89 67.8 32.17 67.59" stroke="#231815" stroke-width="0.55" stroke-linecap="round" stroke-linejoin="round" fill="none"/><path d="M32.17 67.59C32.5 67.35 32.89 67.15 33.27 66.99" stroke="#231815" stroke-width="0.55" stroke-linecap="round" stroke-linejoin="round" fill="none"/><path d="M39.69 66.58C40.08 66.69 40.49 66.83 40.85 67.03" stroke="#231815" stroke-width="0.55" stroke-linecap="round" stroke-linejoin="round" fill="none"/><path d="M40.85 67.03C41.21 67.23 41.55 67.49 41.77 67.84" stroke="#231815" stroke-width="0.55" stroke-linecap="round" stroke-linejoin="round" fill="none"/><line x1="31.8" y1="68.68" x2="31.79" y2="68.6" stroke="#231815" stroke-width="0.55" stroke-linecap="round" stroke-linejoin="round" fill="none"/><path d="M31.8 68.68C31.8 68.81 31.85 68.94 31.91 69.05" stroke="#231815" stroke-width="0.55" stroke-linecap="round" stroke-linejoin="round" fill="none"/><path d="M41.34 68.06C41.34 68.06 41.34 68.04 41.34 68.02" stroke="#231815" stroke-width="0.55" stroke-linecap="round" stroke-linejoin="round" fill="none"/><path d="M31.8 68.64C31.8 68.64 31.8 68.66 31.8 68.68" stroke="#231815" stroke-width="0.55" stroke-linecap="round" stroke-linejoin="round" fill="none"/><path d="M41.82 67.91C41.95 68.13 42.02 68.36 42.04 68.62" stroke="#231815" stroke-width="0.55" stroke-linecap="round" stroke-linejoin="round" fill="none"/><line x1="42.04" y1="68.62" x2="42.05" y2="68.88" stroke="#231815" stroke-width="0.55" stroke-linecap="round" stroke-linejoin="round" fill="none"/><line x1="31.18" y1="69.58" x2="31.17" y2="69.33" stroke="#231815" stroke-width="0.55" stroke-linecap="round" stroke-linejoin="round" fill="none"/><path d="M41.77 67.84C41.77 67.84 41.8 67.89 41.82 67.92" stroke="#231815" stroke-width="0.55" stroke-linecap="round" stroke-linejoin="round" fill="none"/><path d="M30.89 72.39C30.8 72.23 30.75 72.06 30.73 71.88" stroke="#231815" stroke-width="0.55" stroke-linecap="round" stroke-linejoin="round" fill="none"/><path d="M41.26 72.99C41.26 72.99 41.26 72.99 41.26 72.99" stroke="#231815" stroke-width="0.55" stroke-linecap="round" stroke-linejoin="round" fill="none"/><path d="M42.74 69.96C43.27 69.9 43.8 69.85 44.33 69.81 44.86 69.77 45.39 69.74 45.92 69.72 46.45 69.7 46.98 69.7 47.51 69.72 48.04 69.74 48.57 69.79 49.1 69.87" stroke="#231815" stroke-width="0.55" stroke-linecap="round" stroke-linejoin="round" fill="none"/><path d="M40.92 70.19C40.92 70.19 40.95 70.19 40.97 70.19" stroke="#231815" stroke-width="0.55" stroke-linecap="round" stroke-linejoin="round" fill="none"/><line x1="30.73" y1="71.86" x2="30.51" y2="69.73" stroke="#231815" stroke-width="0.55" stroke-linecap="round" stroke-linejoin="round" fill="none"/><line x1="30.73" y1="71.87" x2="30.73" y2="71.86" stroke="#231815" stroke-width="0.55" stroke-linecap="round" stroke-linejoin="round" fill="none"/><line x1="30.73" y1="71.87" x2="30.73" y2="71.87" stroke="#231815" stroke-width="0.55" stroke-linecap="round" stroke-linejoin="round" fill="none"/><path d="M30.9 72.39C30.9 72.39 30.9 72.39 30.9 72.39" stroke="#231815" stroke-width="0.55" stroke-linecap="round" stroke-linejoin="round" fill="none"/><path d="M32.69 73.67C32.69 73.67 32.69 73.67 32.69 73.67" stroke="#231815" stroke-width="0.55" stroke-linecap="round" stroke-linejoin="round" fill="none"/><path d="M63.26 79C63.53 79.29 63.79 79.58 64.04 79.88 64.3 80.18 64.54 80.48 64.79 80.8 65.03 81.11 65.27 81.42 65.5 81.75 65.73 82.07 65.95 82.4 66.16 82.73 66.58 83.38 66.99 84.09 67.33 84.78 67.51 85.13 67.67 85.49 67.8 85.87 67.93 86.24 68.02 86.63 68.05 87.02" stroke="#231815" stroke-width="0.55" stroke-linecap="round" stroke-linejoin="round" fill="none"/><path d="M7.41 84.04C7.4 83.73 7.38 83.42 7.37 83.11" stroke="#231815" stroke-width="0.55" stroke-linecap="round" stroke-linejoin="round" fill="none"/><path d="M10.87 92.63C10.75 92.45 10.63 92.28 10.52 92.1" stroke="#231815" stroke-width="0.55" stroke-linecap="round" stroke-linejoin="round" fill="none"/><path d="M38.15 79.96 38.15 79.96" stroke="#231815" stroke-width="0.55" stroke-linecap="round" stroke-linejoin="round" fill="none"/><path d="M32.86 73.72C33.05 73.79 33.24 73.84 33.44 73.89" stroke="#231815" stroke-width="0.55" stroke-linecap="round" stroke-linejoin="round" fill="none"/><path d="M33.03 67.1C33.7 66.75 34.51 66.52 35.24 66.39" stroke="#231815" stroke-width="0.55" stroke-linecap="round" stroke-linejoin="round" fill="none"/><path d="M31.15 80.86C31.09 80.77 31.04 80.68 31 80.58" stroke="#231815" stroke-width="0.55" stroke-linecap="round" stroke-linejoin="round" fill="none"/><path d="M35.24 66.65 35.24 66.65" stroke="#231815" stroke-width="0.55" stroke-linecap="round" stroke-linejoin="round" fill="none"/><path d="M35.37 70.1C35.32 69.24 35.29 68.37 35.26 67.51" stroke="#231815" stroke-width="0.55" stroke-linecap="round" stroke-linejoin="round" fill="none"/><path d="M35.37 70.11C35.37 70.11 35.37 70.11 35.37 70.11" stroke="#231815" stroke-width="0.55" stroke-linecap="round" stroke-linejoin="round" fill="none"/><path d="M37.85 69.95C37.85 69.95 37.85 69.95 37.85 69.95" stroke="#231815" stroke-width="0.55" stroke-linecap="round" stroke-linejoin="round" fill="none"/><path d="M63.6 82.99C63.6 82.99 63.6 82.99 63.6 82.99" stroke="#231815" stroke-width="0.55" stroke-linecap="round" stroke-linejoin="round" fill="none"/><path d="M45.14 84.6C45.14 84.49 45.14 84.39 45.12 84.28" stroke="#231815" stroke-width="0.55" stroke-linecap="round" stroke-linejoin="round" fill="none"/><path d="M39.9 76.9C40.88 77.04 41.97 77.31 42.85 77.82" stroke="#231815" stroke-width="0.55" stroke-linecap="round" stroke-linejoin="round" fill="none"/><path d="M35.24 66.65C35.24 66.65 35.24 66.65 35.24 66.65" stroke="#231815" stroke-width="0.55" stroke-linecap="round" stroke-linejoin="round" fill="none"/><path d="M39.71 79.3C39.71 79.3 39.69 79.3 39.69 79.3" stroke="#231815" stroke-width="0.55" stroke-linecap="round" stroke-linejoin="round" fill="none"/><path d="M35.65 70.11C35.65 70.11 35.65 70.11 35.65 70.11" stroke="#231815" stroke-width="0.55" stroke-linecap="round" stroke-linejoin="round" fill="none"/><path d="M36.37 80.13C36.37 80.13 36.37 80.13 36.37 80.13" stroke="#231815" stroke-width="0.55" stroke-linecap="round" stroke-linejoin="round" fill="none"/><path d="M37.72 66.23C38.45 66.27 39.26 66.39 39.95 66.65" stroke="#231815" stroke-width="0.55" stroke-linecap="round" stroke-linejoin="round" fill="none"/><path d="M30.16 86.48C30.25 86.6 30.36 86.72 30.47 86.82" stroke="#231815" stroke-width="0.55" stroke-linecap="round" stroke-linejoin="round" fill="none"/><path d="M44.63 81.16C44.57 80.77 44.51 80.39 44.45 80" stroke="#231815" stroke-width="0.55" stroke-linecap="round" stroke-linejoin="round" fill="none"/><line x1="38.83" y1="80.17" x2="39" y2="79.76" stroke="#231815" stroke-width="0.55" stroke-linecap="round" stroke-linejoin="round" fill="none"/><line x1="39.29" y1="79.65" x2="40.08" y2="79.91" stroke="#231815" stroke-width="0.55" stroke-linecap="round" stroke-linejoin="round" fill="none"/><path d="M42.85 77.82C42.85 77.82 42.9 77.86 42.92 77.89 42.93 77.91 42.94 77.93 42.96 77.95 42.99 78 43.02 78.05 43.05 78.1 43.11 78.2 43.18 78.29 43.25 78.38 43.4 78.57 43.55 78.71 43.72 78.88 43.88 79.04 44.04 79.2 44.18 79.39 44.31 79.57 44.43 79.78 44.46 80.01" stroke="#231815" stroke-width="0.55" stroke-linecap="round" stroke-linejoin="round" fill="none"/><path d="M39.86 76.89C39.86 76.89 39.89 76.89 39.9 76.89" stroke="#231815" stroke-width="0.55" stroke-linecap="round" stroke-linejoin="round" fill="none"/><path d="M39.86 76.89 39.86 76.89" stroke="#231815" stroke-width="0.55" stroke-linecap="round" stroke-linejoin="round" fill="none"/><path d="M30.99 80.55C31.08 80.79 31.25 80.99 31.43 81.16 31.67 81.38 31.95 81.56 32.24 81.7 32.48 81.82 32.74 81.92 32.99 82 33.28 82.1 33.58 82.17 33.88 82.24 34.99 82.47 36.2 82.52 37.33 82.44 37.91 82.4 38.48 82.32 39.05 82.21 39.61 82.1 40.18 81.95 40.72 81.75 41.01 81.65 41.29 81.53 41.57 81.39 41.81 81.27 42.05 81.14 42.27 80.98 42.54 80.8 42.79 80.59 43 80.34 43.16 80.15 43.29 79.92 43.36 79.68" stroke="#231815" stroke-width="0.55" stroke-linecap="round" stroke-linejoin="round" fill="none"/><path d="M43.34 79.71C43.32 79.77 43.3 79.83 43.28 79.89" stroke="#231815" stroke-width="0.55" stroke-linecap="round" stroke-linejoin="round" fill="none"/><path d="M36.19 80.42C36.19 80.42 36.19 80.42 36.19 80.42 36.19 80.42 36.19 80.42 36.19 80.42 36.19 80.42 36.19 80.42 36.19 80.42 36.2 80.42 36.21 80.43 36.22 80.44 36.26 80.46 36.3 80.47 36.34 80.49 36.4 80.51 36.46 80.52 36.52 80.53 36.64 80.55 36.76 80.56 36.88 80.57 37.12 80.57 37.37 80.56 37.6 80.51" stroke="#231815" stroke-width="0.55" stroke-linecap="round" stroke-linejoin="round" fill="none"/><path d="M37.61 80.51C37.77 80.48 38.02 80.41 38.16 80.31" stroke="#231815" stroke-width="0.55" stroke-linecap="round" stroke-linejoin="round" fill="none"/><path d="M33.24 77.57C33.63 77.43 34.03 77.31 34.43 77.2" stroke="#231815" stroke-width="0.55" stroke-linecap="round" stroke-linejoin="round" fill="none"/><line x1="29.77" y1="85.37" x2="29.9" y2="81.44" stroke="#231815" stroke-width="0.55" stroke-linecap="round" stroke-linejoin="round" fill="none"/><path d="M35.26 67.51C35.26 67.51 35.26 67.47 35.26 67.46" stroke="#231815" stroke-width="0.55" stroke-linecap="round" stroke-linejoin="round" fill="none"/><path d="M35.26 67.46C35.26 67.19 35.24 66.93 35.24 66.66" stroke="#231815" stroke-width="0.55" stroke-linecap="round" stroke-linejoin="round" fill="none"/><path d="M35.24 66.65C35.24 66.57 35.24 66.48 35.24 66.4" stroke="#231815" stroke-width="0.55" stroke-linecap="round" stroke-linejoin="round" fill="none"/><path d="M35.24 66.4C35.2 64.5 35.21 62.6 35.28 60.7 35.35 58.78 35.48 56.87 35.67 54.97 35.76 54.03 35.87 53.08 36 52.14 36.13 51.2 36.27 50.25 36.43 49.31 36.75 47.42 37.15 45.54 37.62 43.68 38.09 41.84 38.63 40.02 39.25 38.23 39.88 36.41 40.59 34.63 41.39 32.89 42.18 31.16 43.05 29.48 44 27.84 44.97 26.17 46.02 24.57 47.16 23.02 48.29 21.49 49.48 20.03 50.77 18.62 52.07 17.2 53.44 15.86 54.88 14.58 56.31 13.32 57.79 12.15 59.35 11.04 60.13 10.48 60.92 9.95 61.73 9.44 62.54 8.92 63.36 8.43 64.2 7.95 65.86 7 67.56 6.14 69.3 5.35 71.04 4.56 72.82 3.85 74.62 3.22 76.43 2.58 78.26 2.02 80.11 1.54 81.03 1.3 81.96 1.07 82.89 0.87 83.82 0.66 84.75 0.47 85.68 0.3" stroke="#231815" stroke-width="0.55" stroke-linecap="round" stroke-linejoin="round" fill="none"/><path d="M84.38 3.14C82.63 3.51 80.89 3.94 79.17 4.44 77.44 4.94 75.73 5.51 74.05 6.14 72.37 6.78 70.72 7.48 69.09 8.26 67.47 9.04 65.9 9.89 64.36 10.81 62.81 11.74 61.31 12.74 59.86 13.82 59.14 14.36 58.44 14.91 57.75 15.48 57.06 16.05 56.39 16.63 55.74 17.24 54.4 18.47 53.14 19.76 51.95 21.12 50.77 22.46 49.67 23.86 48.64 25.32 48.12 26.06 47.61 26.81 47.13 27.58 46.65 28.34 46.19 29.11 45.75 29.9 45.31 30.68 44.89 31.47 44.5 32.27 44.1 33.06 43.73 33.87 43.37 34.68 43 35.51 42.66 36.35 42.33 37.19 42.01 38.03 41.7 38.88 41.41 39.73 40.84 41.43 40.35 43.14 39.92 44.88 39.49 46.63 39.13 48.39 38.83 50.17 38.68 51.05 38.55 51.94 38.43 52.83 38.31 53.71 38.21 54.6 38.13 55.49 37.78 59.06 37.66 62.66 37.72 66.25" stroke="#231815" stroke-width="0.55" stroke-linecap="round" stroke-linejoin="round" fill="none"/><path d="M37.72 66.24C37.74 67.48 37.78 68.72 37.85 69.95" stroke="#231815" stroke-width="0.55" stroke-linecap="round" stroke-linejoin="round" fill="none"/><path d="M25.39 90.25C25.64 89.78 26.08 89.44 26.6 89.32" stroke="#231815" stroke-width="0.55" stroke-linecap="round" stroke-linejoin="round" fill="none"/><path d="M26.61 89.33C27.2 89.2 27.81 89.38 28.23 89.82" stroke="#231815" stroke-width="0.55" stroke-linecap="round" stroke-linejoin="round" fill="none"/><path d="M14.42 106.22C14.42 106.22 14.44 106.3 14.47 106.34" stroke="#231815" stroke-width="0.55" stroke-linecap="round" stroke-linejoin="round" fill="none"/><path d="M14.62 106.57C14.62 106.57 14.65 106.59 14.66 106.6" stroke="#231815" stroke-width="0.55" stroke-linecap="round" stroke-linejoin="round" fill="none"/><path d="M66.3 92.28C66.28 92.33 66.25 92.38 66.23 92.43" stroke="#231815" stroke-width="0.55" stroke-linecap="round" stroke-linejoin="round" fill="none"/><path d="M66.04 92.74C65.95 96.35 65.86 99.96 65.77 103.56" stroke="#231815" stroke-width="0.55" stroke-linecap="round" stroke-linejoin="round" fill="none"/><path d="M14.47 106.34C13.82 105.34 13.24 104.29 12.75 103.2" stroke="#231815" stroke-width="0.55" stroke-linecap="round" stroke-linejoin="round" fill="none"/><path d="M13.15 105.81C13.01 104.9 12.87 103.98 12.73 103.07" stroke="#231815" stroke-width="0.55" stroke-linecap="round" stroke-linejoin="round" fill="none"/><path d="M11.58 99.56C11.22 97.06 10.87 94.56 10.51 92.06" stroke="#231815" stroke-width="0.55" stroke-linecap="round" stroke-linejoin="round" fill="none"/><path d="M14.62 106.57C14.62 106.57 14.58 106.51 14.56 106.49" stroke="#231815" stroke-width="0.55" stroke-linecap="round" stroke-linejoin="round" fill="none"/><path d="M65.08 105.36C65.03 106.81 64.98 108.26 64.92 109.72" stroke="#231815" stroke-width="0.55" stroke-linecap="round" stroke-linejoin="round" fill="none"/><path d="M64.92 109.47C64.94 110.03 64.86 110.57 64.66 111.1 64.47 111.62 64.18 112.1 63.83 112.53 63.49 112.96 63.09 113.36 62.67 113.71 62.25 114.07 61.81 114.4 61.34 114.7" stroke="#231815" stroke-width="0.55" stroke-linecap="round" stroke-linejoin="round" fill="none"/><path d="M16.22 113.11C15.85 112.53 15.49 111.93 15.17 111.33 15.01 111.03 14.85 110.72 14.7 110.41 14.55 110.1 14.41 109.78 14.27 109.47 14.13 109.15 14.01 108.83 13.89 108.51 13.77 108.19 13.66 107.86 13.56 107.53 13.46 107.21 13.36 106.86 13.28 106.53 13.2 106.19 13.14 105.85 13.11 105.51" stroke="#231815" stroke-width="0.55" stroke-linecap="round" stroke-linejoin="round" fill="none"/><path d="M64.92 109.47C64.94 110.03 64.86 110.57 64.66 111.1 64.47 111.62 64.18 112.1 63.83 112.53 63.49 112.96 63.09 113.36 62.67 113.71 62.25 114.07 61.81 114.4 61.34 114.7" stroke="#231815" stroke-width="0.55" stroke-linecap="round" stroke-linejoin="round" fill="none"/><path d="M65.08 105.36C65.03 106.81 64.98 108.26 64.92 109.72" stroke="#231815" stroke-width="0.55" stroke-linecap="round" stroke-linejoin="round" fill="none"/><path d="M11.58 99.56C11.22 97.06 10.87 94.56 10.51 92.06" stroke="#231815" stroke-width="0.55" stroke-linecap="round" stroke-linejoin="round" fill="none"/><path d="M66.04 92.74C65.95 96.35 65.86 99.96 65.77 103.56" stroke="#231815" stroke-width="0.55" stroke-linecap="round" stroke-linejoin="round" fill="none"/><path d="M66.3 92.28C66.28 92.33 66.25 92.38 66.23 92.43" stroke="#231815" stroke-width="0.55" stroke-linecap="round" stroke-linejoin="round" fill="none"/><path d="M84.38 3.14C82.63 3.51 80.89 3.94 79.17 4.44 77.44 4.94 75.73 5.51 74.05 6.14 72.37 6.78 70.72 7.48 69.09 8.26 67.47 9.04 65.9 9.89 64.36 10.81 62.81 11.74 61.31 12.74 59.86 13.82 59.14 14.36 58.44 14.91 57.75 15.48 57.06 16.05 56.39 16.63 55.74 17.24 54.4 18.47 53.14 19.76 51.95 21.12 50.77 22.46 49.67 23.86 48.64 25.32 48.12 26.06 47.61 26.81 47.13 27.58 46.65 28.34 46.19 29.11 45.75 29.9 45.31 30.68 44.89 31.47 44.5 32.27 44.1 33.06 43.73 33.87 43.37 34.68 43 35.51 42.66 36.35 42.33 37.19 42.01 38.03 41.7 38.88 41.41 39.73 40.84 41.43 40.35 43.14 39.92 44.88 39.49 46.63 39.13 48.39 38.83 50.17 38.68 51.05 38.55 51.94 38.43 52.83 38.31 53.71 38.21 54.6 38.13 55.49 37.78 59.06 37.66 62.66 37.72 66.25" stroke="#231815" stroke-width="0.55" stroke-linecap="round" stroke-linejoin="round" fill="none"/><path d="M35.24 66.4C35.2 64.5 35.21 62.6 35.28 60.7 35.35 58.78 35.48 56.87 35.67 54.97 35.76 54.03 35.87 53.08 36 52.14 36.13 51.2 36.27 50.25 36.43 49.31 36.75 47.42 37.15 45.54 37.62 43.68 38.09 41.84 38.63 40.02 39.25 38.23 39.88 36.41 40.59 34.63 41.39 32.89 42.18 31.16 43.05 29.48 44 27.84 44.97 26.17 46.02 24.57 47.16 23.02 48.29 21.49 49.48 20.03 50.77 18.62 52.07 17.2 53.44 15.86 54.88 14.58 56.31 13.32 57.79 12.15 59.35 11.04 60.13 10.48 60.92 9.95 61.73 9.44 62.54 8.92 63.36 8.43 64.2 7.95 65.86 7 67.56 6.14 69.3 5.35 71.04 4.56 72.82 3.85 74.62 3.22 76.43 2.58 78.26 2.02 80.11 1.54 81.03 1.3 81.96 1.07 82.89 0.87 83.82 0.66 84.75 0.47 85.68 0.3" stroke="#231815" stroke-width="0.55" stroke-linecap="round" stroke-linejoin="round" fill="none"/><path d="M37.72 66.23C38.45 66.27 39.26 66.39 39.95 66.65" stroke="#231815" stroke-width="0.55" stroke-linecap="round" stroke-linejoin="round" fill="none"/><path d="M33.03 67.1C33.7 66.75 34.51 66.52 35.24 66.39" stroke="#231815" stroke-width="0.55" stroke-linecap="round" stroke-linejoin="round" fill="none"/><path d="M7.41 84.04C7.4 83.73 7.38 83.42 7.37 83.11" stroke="#231815" stroke-width="0.55" stroke-linecap="round" stroke-linejoin="round" fill="none"/><path d="M63.26 79C63.53 79.29 63.79 79.58 64.04 79.88 64.3 80.18 64.54 80.48 64.79 80.8 65.03 81.11 65.27 81.42 65.5 81.75 65.73 82.07 65.95 82.4 66.16 82.73 66.58 83.38 66.99 84.09 67.33 84.78 67.51 85.13 67.67 85.49 67.8 85.87 67.93 86.24 68.02 86.63 68.05 87.02" stroke="#231815" stroke-width="0.55" stroke-linecap="round" stroke-linejoin="round" fill="none"/><line x1="30.73" y1="71.87" x2="30.73" y2="71.87" stroke="#231815" stroke-width="0.55" stroke-linecap="round" stroke-linejoin="round" fill="none"/><line x1="30.73" y1="71.86" x2="30.51" y2="69.73" stroke="#231815" stroke-width="0.55" stroke-linecap="round" stroke-linejoin="round" fill="none"/><path d="M42.74 69.96C43.27 69.9 43.8 69.85 44.33 69.81 44.86 69.77 45.39 69.74 45.92 69.72 46.45 69.7 46.98 69.7 47.51 69.72 48.04 69.74 48.57 69.79 49.1 69.87" stroke="#231815" stroke-width="0.55" stroke-linecap="round" stroke-linejoin="round" fill="none"/><path d="M42.73 68.94C42.73 69.28 42.73 69.62 42.74 69.96" stroke="#231815" stroke-width="0.55" stroke-linecap="round" stroke-linejoin="round" fill="none"/><line x1="42.73" y1="68.88" x2="42.73" y2="68.88" stroke="#231815" stroke-width="0.55" stroke-linecap="round" stroke-linejoin="round" fill="none"/><path d="M7.37 83.11C7.36 82.8 7.37 82.49 7.43 82.18 7.49 81.87 7.59 81.58 7.72 81.3 7.99 80.74 8.41 80.26 8.87 79.86" stroke="#231815" stroke-width="0.55" stroke-linecap="round" stroke-linejoin="round" fill="none"/><path d="M68.05 87.01C68.07 87.32 68.1 87.63 68.12 87.95" stroke="#231815" stroke-width="0.55" stroke-linecap="round" stroke-linejoin="round" fill="none"/><path d="M67.9 89.46C67.9 90.32 67.56 91.05 67 91.68" stroke="#231815" stroke-width="0.55" stroke-linecap="round" stroke-linejoin="round" fill="none"/><path d="M53.75 71.77C54.19 71.89 54.73 72.11 55.05 72.47" stroke="#231815" stroke-width="0.55" stroke-linecap="round" stroke-linejoin="round" fill="none"/><path d="M67.9 89.37 67.9 89.37" stroke="#231815" stroke-width="0.55" stroke-linecap="round" stroke-linejoin="round" fill="none"/><path d="M12.2 77.4C12.47 77.16 12.79 76.95 13.1 76.77 13.45 76.56 13.82 76.39 14.19 76.22 14.54 76.07 14.89 75.92 15.25 75.79 15.62 75.65 15.99 75.52 16.36 75.4 16.73 75.28 17.1 75.17 17.46 75.05 17.83 74.94 18.2 74.83 18.58 74.73 19.32 74.52 20.07 74.32 20.82 74.12 21.57 73.92 22.32 73.73 23.07 73.55 23.82 73.36 24.57 73.18 25.33 73.01 26.84 72.66 28.35 72.34 29.87 72.03" stroke="#231815" stroke-width="0.55" stroke-linecap="round" stroke-linejoin="round" fill="none"/><path d="M29.88 72.03C30.16 71.97 30.45 71.92 30.73 71.86" stroke="#231815" stroke-width="0.55" stroke-linecap="round" stroke-linejoin="round" fill="none"/><path d="M24.8 121.52C23.87 121.08 23.03 120.55 22.24 119.91 21.84 119.59 21.47 119.26 21.1 118.91 20.73 118.56 20.37 118.21 20.02 117.85 19.67 117.49 19.32 117.12 18.99 116.74 18.65 116.36 18.33 115.97 18.01 115.58 17.38 114.79 16.78 113.97 16.23 113.12" stroke="#231815" stroke-width="0.55" stroke-linecap="round" stroke-linejoin="round" fill="none"/><path d="M65.77 103.66C65.73 104.33 65.48 104.93 65.07 105.46" stroke="#231815" stroke-width="0.55" stroke-linecap="round" stroke-linejoin="round" fill="none"/><path d="M12.75 103.21C12.5 102.65 12.28 102.09 12.08 101.51 11.98 101.22 11.89 100.93 11.81 100.64 11.73 100.35 11.65 100.05 11.6 99.75" stroke="#231815" stroke-width="0.55" stroke-linecap="round" stroke-linejoin="round" fill="none"/><path d="M66.22 92.44C66.16 92.56 66.1 92.68 66.04 92.79" stroke="#231815" stroke-width="0.55" stroke-linecap="round" stroke-linejoin="round" fill="none"/><path d="M61.35 114.69C61.07 114.88 60.78 115.05 60.49 115.21 60.19 115.37 59.89 115.52 59.59 115.67 58.98 115.96 58.36 116.21 57.73 116.44 57.1 116.68 56.47 116.9 55.83 117.11 55.19 117.32 54.55 117.53 53.91 117.74 53.27 117.94 52.63 118.14 51.98 118.33 51.34 118.52 50.69 118.71 50.04 118.89 49.39 119.07 48.74 119.24 48.09 119.41 47.44 119.58 46.79 119.74 46.14 119.9" stroke="#231815" stroke-width="0.55" stroke-linecap="round" stroke-linejoin="round" fill="none"/><path d="M46.15 119.9C45.27 120.11 44.39 120.32 43.5 120.52 42.62 120.72 41.73 120.9 40.84 121.08 39.95 121.26 39.06 121.43 38.17 121.59 37.28 121.75 36.39 121.9 35.49 122.04 34.59 122.18 33.7 122.31 32.8 122.41 31.9 122.51 31 122.57 30.09 122.57 29.63 122.57 29.18 122.55 28.72 122.52 28.27 122.48 27.83 122.43 27.39 122.35 26.93 122.26 26.48 122.15 26.03 122.01 25.61 121.88 25.2 121.72 24.8 121.53" stroke="#231815" stroke-width="0.55" stroke-linecap="round" stroke-linejoin="round" fill="none"/><path d="M64.92 109.47C64.92 109.55 64.92 109.63 64.92 109.71" stroke="#231815" stroke-width="0.55" stroke-linecap="round" stroke-linejoin="round" fill="none"/><path d="M49.11 69.87C49.53 69.93 49.95 70.02 50.36 70.13 50.78 70.24 51.18 70.38 51.57 70.55 52.38 70.89 53.09 71.31 53.8 71.81" stroke="#231815" stroke-width="0.55" stroke-linecap="round" stroke-linejoin="round" fill="none"/><path d="M11.45 78.31C11.64 77.95 11.9 77.65 12.2 77.39" stroke="#231815" stroke-width="0.55" stroke-linecap="round" stroke-linejoin="round" fill="none"/><path d="M8.88 79.86C9.64 79.21 10.59 78.69 11.5 78.29" stroke="#231815" stroke-width="0.55" stroke-linecap="round" stroke-linejoin="round" fill="none"/><path d="M68.12 87.95C68.16 88.48 68.08 89 67.88 89.49" stroke="#231815" stroke-width="0.55" stroke-linecap="round" stroke-linejoin="round" fill="none"/><line x1="55.05" y1="72.47" x2="55.11" y2="72.54" stroke="#231815" stroke-width="0.55" stroke-linecap="round" stroke-linejoin="round" fill="none"/><path d="M8.16 87.04C7.98 86.57 7.81 86.05 7.68 85.57 7.61 85.32 7.55 85.07 7.5 84.82 7.45 84.57 7.42 84.31 7.41 84.05" stroke="#231815" stroke-width="0.55" stroke-linecap="round" stroke-linejoin="round" fill="none"/><path d="M67.87 89.49C67.87 89.49 67.89 89.42 67.89 89.37" stroke="#231815" stroke-width="0.55" stroke-linecap="round" stroke-linejoin="round" fill="none"/><path d="M10.51 92.09C10.24 91.67 9.98 91.24 9.74 90.8 9.62 90.58 9.5 90.36 9.39 90.14 9.28 89.92 9.17 89.69 9.06 89.46 8.85 89 8.66 88.54 8.48 88.07 8.39 87.84 8.31 87.6 8.24 87.36 8.16 87.12 8.09 86.88 8.03 86.64" stroke="#231815" stroke-width="0.55" stroke-linecap="round" stroke-linejoin="round" fill="none"/><path d="M66.99 91.68C66.76 91.94 66.51 92.16 66.24 92.38" stroke="#231815" stroke-width="0.55" stroke-linecap="round" stroke-linejoin="round" fill="none"/><path d="M67.9 89.38C67.9 89.38 67.9 89.43 67.9 89.46" stroke="#231815" stroke-width="0.55" stroke-linecap="round" stroke-linejoin="round" fill="none"/><path d="M55.04 72.49C55.44 72.68 55.82 72.89 56.2 73.12 56.58 73.35 56.94 73.59 57.3 73.84 58 74.33 58.75 74.88 59.41 75.42 59.75 75.7 60.09 75.98 60.42 76.26 60.75 76.55 61.08 76.84 61.4 77.14 61.72 77.44 62.04 77.74 62.35 78.06 62.66 78.37 62.96 78.69 63.26 79.01" stroke="#231815" stroke-width="0.55" stroke-linecap="round" stroke-linejoin="round" fill="none"/><path d="M32.17 67.59C32.5 67.35 32.89 67.15 33.27 66.99" stroke="#231815" stroke-width="0.55" stroke-linecap="round" stroke-linejoin="round" fill="none"/><path d="M39.69 66.58C40.08 66.69 40.49 66.83 40.85 67.03" stroke="#231815" stroke-width="0.55" stroke-linecap="round" stroke-linejoin="round" fill="none"/></g></g></svg>