<svg viewBox="0 0 331.25 346.02" xmlns="http://www.w3.org/2000/svg" xmlns:xlink="http://www.w3.org/1999/xlink" id="_图层_1" overflow="hidden"><defs></defs><g><path d="M16.92 325.68 21.73 325.68M20.38 290.05 20.48 290.76 20.48 293.6 20.58 294.21 20.58 296.85 20.68 297.56 20.68 299.49 20.78 300.1 20.78 302.64 20.88 303.25 20.88 305.69 20.98 306.2 20.98 308.53 21.08 309.14 21.08 311.37 21.18 311.88 21.18 313.5 21.28 314.01 21.28 316.04 21.38 316.55 21.38 318.58 21.48 318.99 21.48 320.92 21.58 321.33 21.58 323.16 21.68 323.57 21.68 325.3 21.78 325.71 21.78 325.81 21.68 325.81 21.68 325.91 21.58 325.91 21.58 326.01 21.48 326.01 21.38 326.11 21.28 326.21 21.09 326.21 20.99 326.31 20.89 326.31 20.7 326.41 20.6 326.41 20.41 326.51 20.03 326.51 19.84 326.61 19.65 326.61M33.6 290.07 31.48 290.07 31.29 289.97 22.73 289.97 22.54 290.07 20.42 290.07M34.47 326.61 34.18 326.61 34.08 326.51 33.6 326.51 33.5 326.41 33.31 326.41 33.21 326.31 33.02 326.31 32.92 326.21 32.82 326.21 32.72 326.11 32.62 326.11 32.52 326.01 32.42 325.91 32.32 325.91 32.32 324.49 32.42 324.08 32.42 322.25 32.52 321.84 32.52 320.01 32.62 319.5 32.62 317.57 32.72 317.06 32.72 315.54 32.82 315.03 32.82 313 32.92 312.39 32.92 310.26 33.02 309.65 33.02 307.42 33.12 306.81 33.12 304.48 33.22 303.87 33.22 301.43 33.32 300.72 33.32 298.89 33.42 298.18 33.42 295.54 33.52 294.93 33.52 292.19 33.62 291.48 33.62 290.06M46.52 324.47 36.99 326.6 17.17 326.6M48.45 324.06 48.55 323.96 48.65 323.96M47.69 324.16 47.98 324.16 48.08 324.06M46.54 324.47 46.73 324.37 47.12 324.37M17.19 326.6 16.61 326.6M37.59 326.6 37.01 326.6M35.86 328.33 18.25 328.33M22.68 341.93 22.97 341.93M31.15 344.37 31.15 343.15 31.25 341.93 31.44 341.93M22.97 341.93 22.97 344.37M23.93 345.28 23.74 345.28 23.64 345.18 23.45 345.18 23.45 345.08 23.35 345.08 23.25 344.98 23.15 344.88 23.05 344.78 23.05 344.58 22.95 344.48 22.95 344.38M31.13 344.38 22.95 344.38M31.13 344.38 31.13 344.68 31.03 344.78 30.93 344.88 30.93 344.98 30.83 344.98 30.83 345.08 30.73 345.08 30.63 345.18 30.53 345.18 30.43 345.28 30.24 345.28M30.24 345.28 23.89 345.28" stroke="#000000" stroke-width="1.5" stroke-linecap="round" stroke-linejoin="round" fill="none"/><path d="M16.92 325.68 16.92 325.98 16.92 326.19 16.92 326.39 17.01 326.49" stroke="#000000" stroke-width="1.5" stroke-linecap="round" stroke-linejoin="round" fill="none"/><path d="M46.56 291.88 42.33 291.07 37.9 290.46 33.57 290.05M32.9 288.32 33 288.32 33 288.42 33.19 288.42 33.19 288.52 33.29 288.62 33.39 288.72 33.39 288.92 33.49 288.92 33.49 289.22 33.59 289.32 33.59 290.03M20.41 290.03 20.41 289.62 20.51 289.52 20.51 289.11 20.61 289.01 20.61 288.81 20.71 288.81 20.71 288.61 20.81 288.61 20.81 288.51 20.91 288.41 21.01 288.41 21.11 288.31 21.21 288.31M7.74 290.14 12.17 289.33 16.69 288.72 21.21 288.31M6.1 290.44 6 290.44M6.77 290.34 6.48 290.34M7.73 290.14 7.34 290.14 7.24 290.24M46.89 290.24 46.79 290.14 46.41 290.14M47.66 290.34 47.28 290.34M48.05 290.44 47.86 290.44M32.94 288.31 37.46 288.72 41.89 289.33 46.41 290.14M32.94 288.31 31.79 288.31 31.6 288.21 28.62 288.21 28.43 288.11 25.64 288.11 25.45 288.21 22.47 288.21 22.37 288.31 21.22 288.31M6.98 324.35 7.46 324.35 7.56 324.45M6.02 324.04 6.12 324.14 6.5 324.14M5.35 323.94 5.64 323.94 5.64 324.04M7.56 324.45 17.09 326.58M17.09 326.58 17.19 326.58" stroke="#000000" stroke-width="1.5" stroke-linecap="round" stroke-linejoin="round" fill="none"/><path d="M46.56 291.88 46.65 291.47 46.65 291.06 46.65 290.66 46.56 290.46 46.46 290.25 46.36 290.15" stroke="#000000" stroke-width="1.5" stroke-linecap="round" stroke-linejoin="round" fill="none"/><path d="M46.56 291.88 46.56 323.55M46.56 323.55 47.04 323.55 47.14 323.45 47.62 323.45 47.72 323.35 48.2 323.35 48.3 323.25 48.78 323.25 48.88 323.15 49.36 323.15M49.36 292.19 48.98 292.19 48.88 292.09 48.21 292.09 48.11 291.99 47.44 291.99 47.34 291.89 46.57 291.89" stroke="#000000" stroke-width="1.5" stroke-linecap="round" stroke-linejoin="round" fill="none"/><path d="M46.56 324.36 46.56 324.26 46.65 324.05 46.56 323.85 46.56 323.55" stroke="#000000" stroke-width="1.5" stroke-linecap="round" stroke-linejoin="round" fill="none"/><line x1="37.13" y1="325.68" x2="46.56" y2="323.55" stroke="#000000" stroke-width="1.5" stroke-linecap="round" stroke-linejoin="round" fill="none"/><path d="M36.93 326.49 37.03 326.39 37.03 326.19 37.03 325.98 37.03 325.68" stroke="#000000" stroke-width="1.5" stroke-linecap="round" stroke-linejoin="round" fill="none"/><line x1="32.31" y1="325.68" x2="37.13" y2="325.68" stroke="#000000" stroke-width="1.5" stroke-linecap="round" stroke-linejoin="round" fill="none"/><path d="M7.68 290.15 7.58 290.25 7.49 290.46 7.39 290.66 7.39 291.06 7.39 291.47 7.49 291.88" stroke="#000000" stroke-width="1.5" stroke-linecap="round" stroke-linejoin="round" fill="none"/><path d="M20.38 290.05 16.05 290.46 11.72 291.06 7.39 291.88 7.39 323.55 16.92 325.68" stroke="#000000" stroke-width="1.5" stroke-linecap="round" stroke-linejoin="round" fill="none"/><path d="M7.49 323.55 7.49 323.85 7.39 324.05 7.49 324.26 7.49 324.36" stroke="#000000" stroke-width="1.5" stroke-linecap="round" stroke-linejoin="round" fill="none"/><path d="M31.35 341.92 31.64 328.32M22.59 341.92 22.4 328.32M7.39 291.88 6.62 291.88 6.52 291.98 5.94 291.98 5.75 292.08 5.08 292.08 4.98 292.18 4.69 292.18M4.69 323.14 5.08 323.14 5.18 323.24 5.66 323.24 5.76 323.34 6.24 323.34 6.34 323.44 6.92 323.44 7.02 323.54 7.41 323.54" stroke="#000000" stroke-width="1.5" stroke-linecap="round" stroke-linejoin="round" fill="none"/><path d="M16.53 326.59 16.63 327 16.72 327.51 17.01 327.81 17.4 328.12 17.78 328.22 18.17 328.32" stroke="#000000" stroke-width="1.5" stroke-linecap="round" stroke-linejoin="round" fill="none"/><path d="M35.78 328.32 36.16 328.22 36.55 328.12 36.93 327.81 37.22 327.51 37.32 327 37.41 326.59" stroke="#000000" stroke-width="1.5" stroke-linecap="round" stroke-linejoin="round" fill="none"/><line x1="7.2" y1="290.25" x2="7.2" y2="290.15" stroke="#000000" stroke-width="1.5" stroke-linecap="round" stroke-linejoin="round" fill="none"/><line x1="6.72" y1="290.35" x2="6.72" y2="290.25" stroke="#000000" stroke-width="1.5" stroke-linecap="round" stroke-linejoin="round" fill="none"/><path d="M6.04 290.46 6.14 290.46 6.24 290.46 6.33 290.35 6.43 290.35" stroke="#000000" stroke-width="1.5" stroke-linecap="round" stroke-linejoin="round" fill="none"/><path d="M6.72 290.35 6.81 290.25 6.91 290.25 7.1 290.25 7.2 290.25" stroke="#000000" stroke-width="1.5" stroke-linecap="round" stroke-linejoin="round" fill="none"/><path d="M4.7 323.14 4.7 292.18 4.7 292.08 4.7 291.98 4.7 291.78 4.7 291.67 4.79 291.57 4.79 291.47 4.89 291.37 4.89 291.27 4.98 291.17 5.08 291.06 5.08 290.96 5.18 290.86 5.27 290.76 5.37 290.76 5.47 290.66 5.56 290.66 5.66 290.56 5.85 290.56 5.95 290.46 6.04 290.46 6.14 290.46 6.24 290.46 6.33 290.35 6.43 290.35" stroke="#000000" stroke-width="1.5" stroke-linecap="round" stroke-linejoin="round" fill="none"/><path d="M6.91 324.36 6.81 324.26 6.72 324.26 6.52 324.26 6.43 324.16" stroke="#000000" stroke-width="1.5" stroke-linecap="round" stroke-linejoin="round" fill="none"/><path d="M5.95 324.05 5.85 324.05 5.75 324.05 5.66 324.05 5.56 324.05" stroke="#000000" stroke-width="1.5" stroke-linecap="round" stroke-linejoin="round" fill="none"/><line x1="5.37" y1="323.95" x2="5.27" y2="323.95" stroke="#000000" stroke-width="1.5" stroke-linecap="round" stroke-linejoin="round" fill="none"/><line x1="5.56" y1="324.05" x2="5.56" y2="323.95" stroke="#000000" stroke-width="1.5" stroke-linecap="round" stroke-linejoin="round" fill="none"/><path d="M5.27 323.95 5.18 323.95 5.08 323.85 4.98 323.85 4.89 323.75 4.79 323.65 4.79 323.55 4.7 323.45 4.7 323.34 4.7 323.24 4.7 323.14" stroke="#000000" stroke-width="1.5" stroke-linecap="round" stroke-linejoin="round" fill="none"/><path d="M7.68 290.15 8.45 289.95 9.31 289.74 10.18 289.64 10.95 289.54 11.82 289.34 12.68 289.24 13.55 289.14 14.32 289.03 15.18 288.93 16.05 288.83 16.92 288.73 17.78 288.63 18.55 288.53 19.42 288.43 20.29 288.43 21.15 288.32" stroke="#000000" stroke-width="1.5" stroke-linecap="round" stroke-linejoin="round" fill="none"/><path d="M48.38 324.05 48.29 324.05 48.19 324.05 48.1 324.05 48 324.05" stroke="#000000" stroke-width="1.5" stroke-linecap="round" stroke-linejoin="round" fill="none"/><path d="M47.61 324.16 47.42 324.26 47.33 324.26 47.23 324.26 47.04 324.36" stroke="#000000" stroke-width="1.5" stroke-linecap="round" stroke-linejoin="round" fill="none"/><path d="M49.35 323.14 49.35 323.24 49.35 323.34 49.25 323.34 49.25 323.45 49.25 323.55 49.15 323.55 49.15 323.65 49.06 323.75 48.96 323.85 48.87 323.85 48.77 323.95 48.67 323.95" stroke="#000000" stroke-width="1.5" stroke-linecap="round" stroke-linejoin="round" fill="none"/><line x1="48.67" y1="323.95" x2="48.58" y2="323.95" stroke="#000000" stroke-width="1.5" stroke-linecap="round" stroke-linejoin="round" fill="none"/><line x1="49.35" y1="323.14" x2="49.35" y2="292.18" stroke="#000000" stroke-width="1.5" stroke-linecap="round" stroke-linejoin="round" fill="none"/><path d="M46.85 290.25 46.94 290.25 47.04 290.25 47.13 290.25 47.23 290.35" stroke="#000000" stroke-width="1.5" stroke-linecap="round" stroke-linejoin="round" fill="none"/><path d="M47.61 290.35 47.71 290.46 47.81 290.46" stroke="#000000" stroke-width="1.5" stroke-linecap="round" stroke-linejoin="round" fill="none"/><line x1="48" y1="290.46" x2="48" y2="290.35" stroke="#000000" stroke-width="1.5" stroke-linecap="round" stroke-linejoin="round" fill="none"/><path d="M48 290.46 48.1 290.46 48.19 290.56 48.29 290.56 48.38 290.56 48.38 290.66 48.48 290.66 48.58 290.66 48.58 290.76 48.67 290.76 48.67 290.86 48.77 290.86 48.87 290.96 48.96 291.06 49.06 291.17 49.06 291.27 49.15 291.37 49.15 291.47 49.25 291.57 49.25 291.67 49.25 291.78 49.35 291.78 49.35 291.88 49.35 291.98 49.35 292.08 49.35 292.18" stroke="#000000" stroke-width="1.5" stroke-linecap="round" stroke-linejoin="round" fill="none"/><path d="M32.89 288.32 33.66 288.43 34.53 288.43 35.39 288.53 36.26 288.63 37.13 288.73 37.9 288.83 38.76 288.93 39.63 289.03 40.49 289.14 41.36 289.24 42.13 289.34 43 289.54 43.86 289.64 44.73 289.74 45.5 289.95 46.36 290.15" stroke="#000000" stroke-width="1.5" stroke-linecap="round" stroke-linejoin="round" fill="none"/><path d="M6.43 324.16 6.33 324.16 6.24 324.16 6.14 324.16 6.04 324.16 5.95 324.05" stroke="#000000" stroke-width="1.5" stroke-linecap="round" stroke-linejoin="round" fill="none"/><path d="M47.9 324.16 47.81 324.16 47.71 324.16 47.61 324.16" stroke="#000000" stroke-width="1.5" stroke-linecap="round" stroke-linejoin="round" fill="none"/><line x1="47.61" y1="324.16" x2="47.61" y2="324.05" stroke="#000000" stroke-width="1.5" stroke-linecap="round" stroke-linejoin="round" fill="none"/><line x1="16.53" y1="326.49" x2="16.53" y2="326.59" stroke="#000000" stroke-width="1.5" stroke-linecap="round" stroke-linejoin="round" fill="none"/><line x1="37.51" y1="326.49" x2="37.51" y2="326.59" stroke="#000000" stroke-width="1.5" stroke-linecap="round" stroke-linejoin="round" fill="none"/><line x1="2.48" y1="0.75" x2="2.39" y2="0.75" stroke="#000000" stroke-width="1.5" stroke-linecap="round" stroke-linejoin="round" fill="none"/><path d="M45.02 0.75 44.92 0.75 44.82 0.75 44.73 0.75 44.63 0.75 44.54 0.75 44.44 0.75 44.34 0.75 44.25 0.75 44.15 0.75 44.05 0.75 43.96 0.75 43.86 0.75 43.77 0.75 43.67 0.75 43.57 0.75 43.48 0.75 43.38 0.75 43.28 0.75 43.19 0.75 43.09 0.75 43 0.75 42.9 0.75 42.71 0.75 42.61 0.75 42.51 0.75 42.42 0.75 42.23 0.75 42.13 0.75 41.94 0.75 41.84 0.75 41.74 0.75 41.55 0.75 41.46 0.75 41.26 0.75 41.17 0.75 40.97 0.75 40.78 0.75 40.69 0.75 40.49 0.75 40.3 0.75 40.21 0.75 40.01 0.75 39.82 0.75 39.63 0.75 39.53 0.75 39.34 0.75 39.15 0.75 38.95 0.75 38.76 0.75 38.57 0.75 38.38 0.75 38.18 0.75 37.99 0.75 37.8 0.75 37.61 0.75 37.41 0.75 37.22 0.75 37.03 0.75 36.84 0.75 36.64 0.75 36.45 0.75 36.16 0.75 35.97 0.75 35.78 0.75 35.59 0.75 35.3 0.75 35.1 0.75 34.91 0.75 34.62 0.75 34.43 0.75 34.24 0.75 33.95 0.75 33.76 0.75 33.57 0.75 33.28 0.75 33.08 0.75 32.8 0.75 32.6 0.75 32.31 0.75 32.12 0.75 31.83 0.75 31.64 0.75 31.35 0.75 31.16 0.75 30.87 0.75 30.68 0.75 30.39 0.75 30.2 0.75 29.91 0.75 29.62 0.75 29.43 0.75 29.14 0.75 28.85 0.75 28.66 0.75 28.37 0.75 28.18 0.75 27.89 0.75 27.6 0.75 27.41 0.75 27.12 0.75 26.83 0.75 26.64 0.75 26.35 0.75 26.06 0.75 25.77 0.75 25.58 0.75 25.29 0.75 25 0.75 24.81 0.75 24.52 0.75 24.23 0.75 23.94 0.75 23.75 0.75 23.46 0.75 23.17 0.75 22.98 0.75 22.69 0.75 22.4 0.75 22.11 0.75 21.92 0.75 21.63 0.75 21.34 0.75 21.15 0.75 20.86 0.75 20.57 0.75 20.38 0.75 20.09 0.75 19.8 0.75 19.61 0.75 19.32 0.75 19.03 0.75 18.84 0.75 18.55 0.75 18.26 0.75 18.07 0.75 17.78 0.75 17.59 0.75 17.3 0.75 17.01 0.75 16.82 0.75 16.53 0.75 16.34 0.75 16.05 0.75 15.86 0.75 15.57 0.75 15.38 0.75 15.09 0.75 14.9 0.75 14.61 0.75 14.41 0.75 14.13 0.75 13.93 0.75 13.65 0.75 13.45 0.75 13.26 0.75 12.97 0.75 12.78 0.75 12.59 0.75 12.3 0.75 12.11 0.75 11.91 0.75 11.72 0.75 11.43 0.75 11.24 0.75 11.05 0.75 10.85 0.75 10.66 0.75 10.47 0.75 10.18 0.75 9.99 0.75 9.8 0.75 9.6 0.75 9.41 0.75 9.22 0.75 9.03 0.75 8.83 0.75 8.64 0.75 8.45 0.75 8.35 0.75 8.16 0.75 7.97 0.75 7.77 0.75 7.58 0.75 7.39 0.75 7.29 0.75 7.1 0.75 6.91 0.75 6.81 0.75 6.62 0.75 6.43 0.75 6.33 0.75 6.14 0.75 6.04 0.75 5.85 0.75 5.75 0.75 5.56 0.75 5.47 0.75 5.37 0.75 5.18 0.75 5.08 0.75 4.98 0.75 4.79 0.75 4.7 0.75 4.6 0.75 4.5 0.75 4.41 0.75 4.31 0.75 4.12 0.75 4.02 0.75 3.93 0.75 3.83 0.75 3.73 0.75 3.64 0.75 3.54 0.75 3.44 0.75 3.35 0.75 3.25 0.75 3.16 0.75 3.06 0.75 2.96 0.75 2.87 0.75 2.77 0.75 2.67 0.75 2.58 0.75 2.48 0.75" stroke="#000000" stroke-width="1.5" stroke-linecap="round" stroke-linejoin="round" fill="none"/><path d="M14.03 37.7 14.13 38.11 14.32 38.51 14.51 38.82 14.9 39.12 15.28 39.22 15.67 39.32" stroke="#000000" stroke-width="1.5" stroke-linecap="round" stroke-linejoin="round" fill="none"/><path d="M45.98 10.7 45.98 10.6M1.42 10.7 45.98 10.7M1.42 10.7 1.8 11 2.18 11.3 2.56 11.5 2.94 11.8 3.23 12.1 3.62 12.4 3.91 12.7 4.29 13 4.58 13.3 4.96 13.71 5.25 14.01 5.54 14.31 5.83 14.61 6.12 15.02 6.5 15.32 6.79 15.62 7.08 16.03 7.37 16.33 7.56 16.74 7.85 17.04 8.14 17.45 8.43 17.86 8.62 18.16 8.91 18.57 9.1 18.98 9.39 19.39 9.58 19.8 9.77 20.21 10.06 20.62 10.25 21.03 10.44 21.44 10.63 21.85 10.82 22.26 11.01 22.67 11.2 23.18 11.39 23.59 11.49 24 11.68 24.51 11.87 24.92 11.97 25.43 12.16 25.84 12.26 26.35 12.36 26.76 12.55 27.27 12.65 27.78 12.75 28.29 12.85 28.7 12.95 29.21 13.05 29.72 13.15 30.23 13.25 30.74 13.35 31.25 13.45 31.76 13.55 32.27 13.55 32.88 13.65 33.39 13.75 33.9 13.75 34.41 13.85 35.02 13.85 35.53 13.95 36.04 13.95 37.16 14.05 37.77M15.69 39.39 31.86 39.39M33.5 37.77 14.03 37.77" stroke="#000000" stroke-width="1.5" stroke-linecap="round" stroke-linejoin="round" fill="none"/><path d="M0.75 9.28 0.75 9.68 0.94 10.09 1.14 10.39 1.42 10.7" stroke="#000000" stroke-width="1.5" stroke-linecap="round" stroke-linejoin="round" fill="none"/><path d="M19.52 39.32 19.52 39.83M27.99 39.32 27.99 40.13M0.75 2.48 0.75 2.28 0.85 2.18 0.85 1.88 0.95 1.78 0.95 1.68 1.05 1.68 1.05 1.58 1.15 1.48 1.25 1.38 1.25 1.28 1.35 1.28 1.45 1.18 1.55 1.08 1.65 1.08 1.65 0.98 1.75 0.98 1.85 0.88 2.14 0.88 2.24 0.78 2.43 0.78M46.7 2.51 46.7 2.41M0.75 2.48 46.65 2.48M0.75 9.28 0.75 9.18M46.65 9.28 0.75 9.28" stroke="#000000" stroke-width="1.5" stroke-linecap="round" stroke-linejoin="round" fill="none"/><path d="M14.03 37.7 14.13 38.11 14.32 38.51 14.51 38.82 14.9 39.12 15.28 39.22 15.67 39.32" stroke="#000000" stroke-width="1.5" stroke-linecap="round" stroke-linejoin="round" fill="none"/><path d="M31.83 39.32 32.22 39.22 32.6 39.12 32.99 38.82 33.18 38.51 33.37 38.11 33.47 37.7" stroke="#000000" stroke-width="1.5" stroke-linecap="round" stroke-linejoin="round" fill="none"/><path d="M14.03 37.7 13.93 37.09 13.93 35.97 13.83 35.46 13.83 34.95 13.73 34.34 13.73 33.83 13.63 33.32 13.53 32.81 13.53 32.2 13.43 31.69 13.33 31.18 13.23 30.67 13.13 30.16 13.03 29.65 12.93 29.14 12.83 28.63 12.73 28.22 12.63 27.71 12.53 27.2 12.34 26.69 12.24 26.28 12.14 25.77 11.95 25.36 11.85 24.85 11.66 24.44 11.47 23.93 11.37 23.52 11.18 23.11 10.99 22.6 10.8 22.19 10.61 21.78 10.42 21.37 10.23 20.96 10.04 20.55 9.75 20.14 9.56 19.73 9.37 19.32 9.08 18.91 8.89 18.5 8.6 18.09 8.41 17.79 8.12 17.38 7.83 16.97 7.54 16.67 7.35 16.26 7.06 15.96 6.77 15.55 6.48 15.25 6.1 14.95 5.81 14.54 5.52 14.24 5.23 13.94 4.94 13.64 4.55 13.23 4.26 12.93 3.88 12.63 3.59 12.33 3.21 12.03 2.92 11.73 2.54 11.43 2.15 11.23 1.77 10.93 1.39 10.63M33.44 37.63 33.44 36.51 33.54 35.9 33.54 35.39 33.64 34.88 33.64 34.27 33.74 33.76 33.74 33.25 33.84 32.74 33.94 32.13 33.94 31.62 34.04 31.11 34.14 30.6 34.24 30.09 34.34 29.58 34.44 29.07 34.54 28.56 34.64 28.15 34.74 27.64 34.93 27.13 35.03 26.62 35.13 26.21 35.32 25.7 35.42 25.29 35.61 24.78 35.71 24.37 35.9 23.86 36.09 23.45 36.28 23.04 36.38 22.53 36.57 22.12 36.76 21.71 36.95 21.3 37.24 20.89 37.43 20.48 37.62 20.07 37.81 19.66 38.1 19.25 38.29 18.84 38.58 18.43 38.77 18.02 39.06 17.72 39.35 17.31 39.54 16.9 39.83 16.6 40.12 16.19 40.41 15.89 40.7 15.48 40.99 15.18 41.28 14.88 41.57 14.47 41.86 14.17 42.24 13.87 42.53 13.57 42.82 13.16 43.21 12.86 43.5 12.56 43.88 12.26 44.17 11.96 44.55 11.66 44.93 11.36 45.22 11.16 45.61 10.86 45.99 10.56" stroke="#000000" stroke-width="1.5" stroke-linecap="round" stroke-linejoin="round" fill="none"/><path d="M0.75 9.28 0.75 9.68 0.94 10.09 1.14 10.39 1.42 10.7" stroke="#000000" stroke-width="1.5" stroke-linecap="round" stroke-linejoin="round" fill="none"/><path d="M45.98 10.7 46.27 10.39 46.46 10.09 46.65 9.68 46.65 9.28" stroke="#000000" stroke-width="1.5" stroke-linecap="round" stroke-linejoin="round" fill="none"/><path d="M46.65 2.48 46.65 2.37 46.65 2.27 46.65 2.17 46.65 2.07 46.56 1.97 46.56 1.87 46.56 1.77 46.46 1.66 46.36 1.56 46.36 1.46 46.27 1.46 46.27 1.36 46.17 1.26 46.08 1.16 45.98 1.16 45.88 1.05 45.79 0.95 45.69 0.95 45.59 0.85 45.5 0.85 45.4 0.85 45.31 0.85 45.21 0.75 45.11 0.75 45.02 0.75" stroke="#000000" stroke-width="1.5" stroke-linecap="round" stroke-linejoin="round" fill="none"/><path d="M0.75 9.28 0.75 2.48 0.75 2.37 0.75 2.27 0.85 2.17 0.85 2.07 0.85 1.97 0.85 1.87 0.94 1.77 0.94 1.66 1.04 1.66 1.04 1.56 1.14 1.46 1.23 1.36 1.23 1.26 1.33 1.26 1.42 1.16 1.52 1.05 1.62 1.05 1.62 0.95 1.71 0.95 1.81 0.85 1.9 0.85 2 0.85 2.1 0.85 2.19 0.75 2.29 0.75 2.39 0.75" stroke="#000000" stroke-width="1.5" stroke-linecap="round" stroke-linejoin="round" fill="none"/><line x1="46.65" y1="2.48" x2="46.65" y2="9.28" stroke="#000000" stroke-width="1.5" stroke-linecap="round" stroke-linejoin="round" fill="none"/><path d="M34.53 259.7 34.33 261.53 34.14 263.25 34.05 265.08 33.85 266.91 33.76 268.63 33.66 270.46 33.47 272.18 33.37 274.01 33.28 275.84 33.18 277.56 33.08 278.48 33.08 279.39 32.99 280.3 32.99 281.12 32.99 282.03 32.89 282.94 32.89 283.86 32.89 284.77 32.89 285.68 32.89 286.5 32.8 287.41 32.8 288.32" stroke="#000000" stroke-width="1.5" stroke-linecap="round" stroke-linejoin="round" fill="none"/><path d="M21.54 288.32 21.54 287.41 21.54 286.4 21.54 285.48 21.54 284.57 21.54 283.55 21.54 282.64 21.63 281.73 21.63 280.71 21.63 279.8 21.73 278.88 21.73 277.97 21.82 276.95 21.82 276.04 21.92 275.13 22.02 274.11 22.02 273.2 22.11 272.29 22.11 271.27 22.31 269.44 22.4 267.51 22.59 265.69 22.79 263.76 22.98 261.83 23.08 260 23.27 258.07" stroke="#000000" stroke-width="1.5" stroke-linecap="round" stroke-linejoin="round" fill="none"/><line x1="21.54" y1="290.05" x2="21.54" y2="289.95" stroke="#000000" stroke-width="1.5" stroke-linecap="round" stroke-linejoin="round" fill="none"/><path d="M29.04 40.14 28.95 41.05 28.95 41.86 28.95 42.77 28.85 43.59 28.85 44.5 28.85 45.41 28.95 46.23 28.95 47.14 28.95 48.05 29.04 48.87 29.04 49.78 29.14 50.69 29.23 51.5 29.23 52.42 29.33 53.23 29.43 54.14 29.52 55.06 29.62 55.87 29.81 56.78 29.91 57.59 30 58.51 30.1 59.32 30.29 60.23 30.39 61.05 30.68 62.77 30.97 64.5 31.35 66.22 31.64 67.95 32.03 69.67 32.31 71.4 32.99 74.85 33.66 78.2 34.05 79.93 34.33 81.65 34.72 83.38 35.01 85.1 35.3 86.83 35.39 87.74 35.59 88.55 35.68 89.47 35.78 90.28 35.97 91.19 36.07 92.11 36.16 92.92 36.26 93.83 36.36 94.65 36.45 95.56 36.55 96.47 36.64 97.28 36.64 98.2 36.74 99.01 36.74 99.92 36.84 100.84 36.84 101.65 36.93 102.56 36.93 103.48 36.93 104.29 36.93 105.2 36.93 106.01 36.93 106.93 36.84 107.84 36.84 108.65 36.74 109.57 36.74 110.38 36.64 111.29 36.55 112.21 36.45 113.02 36.36 113.93 36.26 114.74 36.07 115.66 35.97 116.47 35.78 117.38 35.68 118.2 35.49 119.11 35.3 119.92 35.1 120.83 34.91 121.65 34.72 122.56 34.53 123.37 34.24 124.18 34.05 125.1 33.85 125.91 33.57 126.82 33.37 127.64 33.08 128.45 32.8 129.26 32.6 130.17 32.31 130.99 32.03 131.8 31.74 132.61 31.45 133.52 31.16 134.34 30.87 135.15 30.58 135.96 30.29 136.77 29.62 138.4 29.04 140.02 28.37 141.64 27.79 143.27 27.12 144.89 26.44 146.52 26.16 147.33 25.87 148.14 25.58 148.95 25.29 149.76 25 150.58 24.71 151.49 24.42 152.3 24.13 153.11 23.94 153.93 23.65 154.74 23.36 155.65 23.17 156.46 22.98 157.28 22.79 158.19 22.59 159 22.4 159.81 22.21 160.73 22.11 161.54 21.92 162.45 21.82 163.27 21.73 164.18 21.73 164.58 21.63 165.09 21.63 165.5 21.54 165.9 21.54 166.41 21.54 166.82 21.54 167.22 21.54 167.73 21.54 168.14 21.54 168.54 21.54 169.46 21.54 170.27 21.54 171.18 21.63 172.1 21.63 172.91 21.73 173.82 21.82 174.74 21.92 175.55 22.11 176.46 22.21 177.27 22.31 178.19 22.5 179 22.69 179.91 22.88 180.72 22.98 181.64 23.17 182.45 23.46 183.36 23.65 184.18 23.85 184.99 24.04 185.9 24.33 186.71 24.52 187.53 24.71 188.34 25 189.25 25.48 190.88 25.96 192.6 26.54 194.23 27.5 197.58 28.08 199.2 28.56 200.92 29.04 202.55 29.52 204.27 30 206 30.49 207.62 30.97 209.35 31.45 211.08 31.83 212.8 32.22 214.53 32.41 215.34 32.7 216.25 32.89 217.06 33.08 217.88 33.18 218.79 33.37 219.6 33.57 220.52 33.76 221.33 33.95 222.24 34.05 223.16 34.24 223.97 34.33 224.88 34.53 225.69 34.62 226.61 34.82 227.42 34.91 228.33 35.01 229.14 35.1 230.06 35.2 230.97 35.3 231.78 35.39 232.7 35.49 233.51 35.59 234.42 35.68 235.34 35.68 236.15 35.78 237.06 35.78 237.87 35.87 238.79 35.87 239.7 35.87 240.51 35.97 241.43 35.97 242.24 35.97 243.15 35.97 244.07 35.87 244.88 35.87 245.79 35.87 246.71 35.78 247.52 35.78 248.43 35.68 249.24 35.68 250.16 35.59 251.07 35.49 251.88 35.39 252.8 35.3 253.61 35.2 254.52 35.1 255.43 35.01 256.25 34.91 257.16 34.82 257.97 34.62 258.89 34.53 259.7" stroke="#000000" stroke-width="1.5" stroke-linecap="round" stroke-linejoin="round" fill="none"/><path d="M23.27 258.07 23.46 257.26 23.56 256.35 23.65 255.54 23.75 254.62 23.94 253.81 24.04 252.9 24.13 252.09 24.13 251.17 24.23 250.36 24.33 249.45 24.42 248.63 24.42 247.72 24.52 246.81 24.52 245.99 24.52 245.08 24.62 244.17 24.62 243.36 24.62 242.44 24.62 241.53 24.62 240.72 24.52 239.8 24.52 238.99 24.52 238.08 24.42 237.16 24.42 236.35 24.33 235.44 24.33 234.63 24.23 233.71 24.13 232.8 24.04 231.99 23.94 231.07 23.85 230.26 23.75 229.35 23.65 228.54 23.46 227.62 23.36 226.81 23.17 225.9 23.08 225.08 22.88 224.17 22.69 223.36 22.59 222.55 22.4 221.63 22.21 220.82 22.02 220.01 21.82 219.09 21.63 218.28 21.44 217.47 21.25 216.56 20.96 215.75 20.77 214.93 20.29 213.21 19.9 211.58 19.42 209.86 18.94 208.23 18.36 206.61 17.88 204.88 17.4 203.26 16.34 199.91 15.86 198.29 15.38 196.66 14.8 194.94 14.32 193.31 13.84 191.59 13.65 190.77 13.36 189.96 13.16 189.05 12.97 188.24 12.68 187.42 12.49 186.61 12.3 185.7 12.11 184.89 11.91 183.97 11.72 183.16 11.53 182.35 11.43 181.44 11.24 180.62 11.14 179.71 10.95 178.9 10.85 178.09 10.76 177.17 10.57 176.36 10.47 175.45 10.47 174.63 10.37 173.72 10.28 172.81 10.28 171.99 10.18 171.08 10.18 170.27 10.18 169.36 10.18 168.44 10.18 167.63 10.18 166.72 10.28 165.9 10.28 164.99 10.37 164.08 10.47 163.27 10.57 162.35 10.66 161.54 10.76 160.63 10.85 159.81 11.05 158.9 11.14 158.09 11.34 157.17 11.53 156.36 11.72 155.45 11.91 154.64 12.11 153.82 12.3 153.01 12.59 152.1 12.78 151.29 13.07 150.48 13.36 149.66 13.55 148.85 13.84 148.04 14.13 147.13 14.41 146.31 14.7 145.5 14.99 144.69 15.28 143.88 15.86 142.25 16.53 140.63 17.11 139.11 17.78 137.48 18.46 135.86 19.03 134.23 19.61 132.51 20.19 130.88 20.48 130.07 20.77 129.26 21.05 128.45 21.34 127.64 21.63 126.72 21.92 125.91 22.21 125.1 22.4 124.29 22.69 123.37 22.88 122.56 23.17 121.75 23.36 120.83 23.56 120.02 23.75 119.21 23.94 118.3 24.13 117.48 24.33 116.57 24.52 115.76 24.71 114.85 24.81 114.03 24.9 113.22 25.1 112.31 25.19 111.5 25.29 110.58 25.39 109.77 25.48 108.86 25.48 107.94 25.58 107.13 25.58 106.22 25.58 105.41 25.58 104.49 25.58 103.68 25.58 102.77 25.58 101.95 25.48 101.04 25.48 100.13 25.39 99.31 25.29 98.4 25.29 97.59 25.19 96.68 25.1 95.86 25 94.95 24.9 94.14 24.81 93.22 24.62 92.41 24.52 91.5 24.42 90.69 24.23 89.77 24.13 88.96 24.04 88.05 23.65 86.32 23.36 84.6 23.08 82.97 22.69 81.25 22.4 79.52 22.02 77.8 21.34 74.34 21.05 72.72 20.67 70.99 20.38 69.27 20 67.54 19.71 65.82 19.42 64.09 19.13 62.37 19.03 61.45 18.84 60.64 18.75 59.73 18.65 58.91 18.55 58 18.36 57.19 18.26 56.28 18.17 55.46 18.07 54.55 17.98 53.74 17.98 52.82 17.88 51.91 17.78 51.1 17.78 50.18 17.69 49.37 17.69 48.46 17.59 47.65 17.59 46.73 17.59 45.82 17.59 45.01 17.59 44.09 17.59 43.28 17.59 42.37 17.59 41.56 17.69 40.64 17.69 39.83" stroke="#000000" stroke-width="1.5" stroke-linecap="round" stroke-linejoin="round" fill="none"/><path d="M21.54 288.32 21.54 287.92 21.54 287.51 21.54 287.21 21.54 286.8 21.54 286.4 21.54 285.99 21.54 285.58 21.54 285.18 21.54 284.77 21.54 284.36 21.54 283.96 21.54 283.55 21.63 283.15 21.63 282.74 21.63 282.33 21.63 281.93 21.63 281.42 21.63 281.02 21.63 280.61 21.73 280.2 21.73 279.7 21.73 279.29 21.73 278.78 21.82 278.38 21.82 277.87 21.82 277.46 21.82 276.95 21.82 276.55 21.92 276.04 21.92 275.64 21.92 275.13 22.02 274.62 22.02 274.21 22.02 273.71 22.11 273.2 22.11 272.69 22.11 272.29 22.21 271.78 22.21 271.27 22.21 270.76 22.31 270.26 22.31 269.75 22.31 269.24 22.4 268.73 22.4 268.23 22.5 267.72 22.5 267.21 22.5 266.7 22.59 266.19 22.59 265.69 22.69 264.57 22.79 263.56 22.88 262.44 22.98 261.42 23.08 260.31 23.17 259.19 23.27 258.07" stroke="#000000" stroke-width="1.5" stroke-linecap="round" stroke-linejoin="round" fill="none"/><line x1="21.54" y1="290.05" x2="21.54" y2="289.95" stroke="#000000" stroke-width="1.5" stroke-linecap="round" stroke-linejoin="round" fill="none"/><path d="M17.69 39.83 17.78 39.83 18.17 39.83 18.65 39.83 19.32 39.83 20.19 39.83 21.15 39.93 22.31 39.93 23.36 39.93 24.42 40.03 25.58 40.03 26.54 40.03 27.41 40.03 28.08 40.14 28.56 40.14 28.95 40.14 29.04 40.14" stroke="#000000" stroke-width="1.5" stroke-linecap="round" stroke-linejoin="round" fill="none"/><path d="M23.27 258.07 23.46 257.16 23.56 256.35 23.65 255.43 23.85 254.52 23.94 253.61 24.04 252.69 24.13 251.78 24.23 250.87 24.33 250.06 24.33 249.14 24.42 248.23 24.52 247.31 24.52 246.4 24.52 245.59 24.62 244.68 24.62 243.76 24.62 242.85 24.62 242.04 24.62 241.12 24.62 240.21 24.62 239.4 24.52 238.48 24.52 237.57 24.42 236.76 24.42 235.84 24.33 234.93 24.23 234.12 24.13 233.2 24.13 232.29 24.04 231.48 23.85 230.57 23.75 229.65 23.65 228.84 23.56 227.93 23.36 227.01 23.27 226.2 23.08 225.29 22.98 224.37 22.79 223.56 22.59 222.65 22.4 221.73 22.21 220.92 22.02 220.01 21.82 219.09 21.63 218.28 21.44 217.37 21.25 216.46 20.96 215.64 20.77 214.73 20.48 213.82 20.29 213 20 212.09 19.8 211.18 19.52 210.37 19.03 208.54 18.46 206.81 17.98 204.99 17.4 203.26 16.82 201.43 16.24 199.71 15.76 197.88 15.18 196.05 14.61 194.23 14.13 192.5 13.84 191.59 13.55 190.67 13.36 189.76 13.07 188.85 12.88 187.93 12.59 187.02 12.39 186.1 12.2 185.19 12.01 184.28 11.82 183.36 11.62 182.35 11.43 181.44 11.24 180.52 11.05 179.61 10.95 178.69 10.76 177.78 10.66 176.87 10.57 175.85 10.47 174.94 10.37 174.03 10.28 173.11 10.28 172.2 10.18 171.18 10.18 170.27 10.18 169.36 10.18 168.44 10.18 167.53 10.18 166.51 10.28 165.6 10.28 164.69 10.37 163.77 10.47 162.86 10.57 161.95 10.66 161.03 10.85 160.12 10.95 159.1 11.14 158.19 11.34 157.38 11.53 156.46 11.72 155.55 11.91 154.64 12.11 153.72 12.39 152.81 12.59 152 12.88 151.08 13.16 150.17 13.45 149.36 13.74 148.44 14.03 147.63 14.32 146.72 14.61 145.91 14.9 144.99 15.18 144.18 15.47 143.27 16.15 141.64 16.82 139.92 17.49 138.29 18.07 136.67 18.75 135.05 19.42 133.42 19.71 132.61 20 131.8 20.29 130.99 20.57 130.17 20.86 129.36 21.15 128.55 21.44 127.74 21.73 126.93 22.02 126.11 22.21 125.4 22.5 124.59 22.79 123.78 22.98 122.97 23.17 122.15 23.46 121.34 23.65 120.63 23.85 119.82 24.04 119.01 24.13 118.2 24.33 117.38 24.52 116.67 24.62 115.86 24.81 115.05 24.9 114.24 25 113.42 25.1 112.61 25.19 111.8 25.29 110.99 25.39 110.18 25.39 109.36 25.48 108.55 25.48 107.74 25.58 106.93 25.58 106.12 25.58 105.3 25.58 104.49 25.58 103.68 25.58 102.87 25.58 102.06 25.48 101.14 25.48 100.33 25.39 99.52 25.39 98.71 25.29 97.79 25.19 96.98 25.1 96.17 25 95.25 24.9 94.44 24.81 93.53 24.71 92.72 24.62 91.9 24.42 90.99 24.33 90.18 24.23 89.27 24.04 88.45 23.94 87.54 23.56 85.81 23.27 84.09 22.98 82.36 22.59 80.74 22.31 79.01 21.92 77.29 21.63 75.56 21.25 73.84 20.86 72.21 20.57 70.49 20.29 68.86 20 67.14 19.8 66.32 19.71 65.51 19.52 64.7 19.42 63.89 19.23 63.08 19.13 62.26 19.03 61.45 18.84 60.64 18.75 59.83 18.65 59.02 18.55 58.31 18.46 57.49 18.36 56.68 18.26 55.87 18.17 55.16 18.07 54.35 17.98 53.64 17.98 52.82 17.88 52.11 17.78 51.3 17.78 50.59 17.69 49.78 17.69 49.07 17.69 48.36 17.59 47.55 17.59 46.83 17.59 46.12 17.59 45.41 17.59 44.7 17.59 43.99 17.59 43.28 17.59 42.57 17.59 41.86 17.59 41.15 17.69 40.44 17.69 39.83" stroke="#000000" stroke-width="1.5" stroke-linecap="round" stroke-linejoin="round" fill="none"/><path d="M23.27 258.07 23.36 258.18 23.65 258.18 24.04 258.18 24.62 258.28 25.29 258.38 26.06 258.48 26.93 258.68 27.89 258.78 28.85 258.89 30 259.09 31.06 259.19 32.03 259.39 32.89 259.5 33.57 259.6 34.05 259.7 34.43 259.7 34.53 259.7" stroke="#000000" stroke-width="1.5" stroke-linecap="round" stroke-linejoin="round" fill="none"/></g><g><line x1="223.72" y1="325.68" x2="228.53" y2="325.68" stroke="#000000" stroke-width="1.5" stroke-linecap="round" stroke-linejoin="round" fill="none"/><path d="M227.28 290.05 227.28 290.76 227.38 291.47 227.38 292.18 227.38 292.89 227.38 293.6 227.38 294.21 227.47 294.92 227.47 295.53 227.47 296.24 227.47 296.85 227.47 297.56 227.57 298.17 227.57 298.88 227.57 299.49 227.57 300.1 227.66 300.71 227.66 301.42 227.66 302.03 227.66 302.64 227.66 303.25 227.76 303.85 227.76 304.46 227.76 305.07 227.76 305.68 227.76 306.19 227.86 306.8 227.86 307.41 227.86 308.02 227.86 308.52 227.86 309.13 227.95 309.64 227.95 310.25 227.95 310.76 227.95 311.37 227.95 311.87 228.05 312.38 228.05 312.99 228.05 313.5 228.05 314.01 228.15 314.51 228.15 315.02 228.15 315.53 228.15 316.04 228.15 316.54 228.24 317.05 228.24 317.56 228.24 318.07 228.24 318.57 228.24 318.98 228.34 319.49 228.34 319.99 228.34 320.4 228.34 320.91 228.34 321.31 228.43 321.82 228.43 322.23 228.43 322.74 228.43 323.14 228.43 323.55 228.53 324.05 228.53 324.46 228.53 324.87 228.53 325.27 228.53 325.68 228.53 325.78 228.53 325.88 228.43 325.88 228.43 325.98 228.34 325.98 228.24 326.08 228.15 326.08 228.15 326.19 228.05 326.19 227.95 326.19 227.86 326.29 227.66 326.29 227.57 326.39 227.38 326.39 227.28 326.49 227.09 326.49 226.99 326.49 226.89 326.49 226.7 326.59 226.61 326.59 226.41 326.59" stroke="#000000" stroke-width="1.5" stroke-linecap="round" stroke-linejoin="round" fill="none"/><path d="M240.46 290.05 240.27 290.05 240.08 290.05 239.89 290.05 239.69 290.05 239.5 290.05 239.31 290.05 239.12 290.05 238.92 290.05 238.73 290.05 238.54 290.05 238.35 290.05 238.15 289.95 237.96 289.95 237.77 289.95 237.58 289.95 237.38 289.95 237.1 289.95 236.9 289.95 236.71 289.95 236.52 289.95 236.33 289.95 236.04 289.95 235.84 289.95 235.65 289.95 235.46 289.95 235.17 289.95 234.98 289.95 234.79 289.95 234.5 289.95 234.3 289.95 234.11 289.95 233.92 289.95 233.63 289.95 233.44 289.95 233.25 289.95 232.96 289.95 232.76 289.95 232.57 289.95 232.38 289.95 232.09 289.95 231.9 289.95 231.71 289.95 231.51 289.95 231.23 289.95 231.03 289.95 230.84 289.95 230.65 289.95 230.36 289.95 230.17 289.95 229.97 289.95 229.78 289.95 229.59 289.95 229.4 290.05 229.2 290.05 229.01 290.05 228.82 290.05 228.63 290.05 228.43 290.05 228.24 290.05 228.05 290.05 227.86 290.05 227.66 290.05 227.47 290.05 227.28 290.05" stroke="#000000" stroke-width="1.5" stroke-linecap="round" stroke-linejoin="round" fill="none"/><path d="M241.33 326.59 241.14 326.59 241.04 326.59 240.94 326.49 240.75 326.49 240.66 326.49 240.46 326.49 240.37 326.39 240.17 326.39 240.08 326.29 239.89 326.29 239.79 326.19 239.69 326.19 239.6 326.19 239.6 326.08 239.5 326.08 239.4 325.98 239.31 325.98 239.31 325.88 239.21 325.88 239.21 325.78 239.21 325.68 239.21 325.27 239.21 324.87 239.21 324.46 239.21 324.05 239.31 323.55 239.31 323.14 239.31 322.74 239.31 322.23 239.31 321.82 239.4 321.31 239.4 320.91 239.4 320.4 239.4 319.99 239.4 319.49 239.5 318.98 239.5 318.57 239.5 318.07 239.5 317.56 239.5 317.05 239.6 316.54 239.6 316.04 239.6 315.53 239.6 315.02 239.69 314.51 239.69 314.01 239.69 313.5 239.69 312.99 239.69 312.38 239.79 311.87 239.79 311.37 239.79 310.76 239.79 310.25 239.79 309.64 239.89 309.13 239.89 308.52 239.89 308.02 239.89 307.41 239.89 306.8 239.98 306.19 239.98 305.68 239.98 305.07 239.98 304.46 239.98 303.85 240.08 303.25 240.08 302.64 240.08 302.03 240.08 301.42 240.17 300.71 240.17 300.1 240.17 299.49 240.17 298.88 240.17 298.17 240.27 297.56 240.27 296.85 240.27 296.24 240.27 295.53 240.27 294.92 240.37 294.21 240.37 293.6 240.37 292.89 240.37 292.18 240.37 291.47 240.46 290.76 240.46 290.05" stroke="#000000" stroke-width="1.5" stroke-linecap="round" stroke-linejoin="round" fill="none"/><path d="M253.36 324.46 243.83 326.59 241.33 326.59 239.69 326.59 237.87 326.59 235.94 326.59 233.92 326.59 231.8 326.59 229.88 326.59 228.05 326.59 226.41 326.59 223.91 326.59" stroke="#000000" stroke-width="1.5" stroke-linecap="round" stroke-linejoin="round" fill="none"/><path d="M255.28 324.05 255.38 323.95 255.48 323.95" stroke="#000000" stroke-width="1.5" stroke-linecap="round" stroke-linejoin="round" fill="none"/><path d="M254.42 324.16 254.61 324.16 254.71 324.16 254.8 324.16 254.9 324.05" stroke="#000000" stroke-width="1.5" stroke-linecap="round" stroke-linejoin="round" fill="none"/><path d="M253.36 324.46 253.55 324.36 253.65 324.36 253.74 324.36 253.94 324.36" stroke="#000000" stroke-width="1.5" stroke-linecap="round" stroke-linejoin="round" fill="none"/><path d="M223.91 326.59 223.53 326.59 223.43 326.59" stroke="#000000" stroke-width="1.5" stroke-linecap="round" stroke-linejoin="round" fill="none"/><path d="M244.31 326.59 244.22 326.59 243.83 326.59" stroke="#000000" stroke-width="1.5" stroke-linecap="round" stroke-linejoin="round" fill="none"/><path d="M242.68 328.32 242.48 328.32 242 328.32 241.23 328.32 240.08 328.32 238.73 328.32 237.29 328.32 235.56 328.32 233.92 328.32 232.19 328.32 230.46 328.32 229.01 328.32 227.66 328.32 226.51 328.32 225.74 328.32 225.26 328.32 225.07 328.32" stroke="#000000" stroke-width="1.5" stroke-linecap="round" stroke-linejoin="round" fill="none"/><line x1="229.49" y1="341.92" x2="229.78" y2="341.92" stroke="#000000" stroke-width="1.5" stroke-linecap="round" stroke-linejoin="round" fill="none"/><path d="M237.96 344.36 237.96 343.14 238.06 341.92 238.25 341.92" stroke="#000000" stroke-width="1.5" stroke-linecap="round" stroke-linejoin="round" fill="none"/><path d="M229.78 341.92 229.78 343.14 229.78 344.36" stroke="#000000" stroke-width="1.5" stroke-linecap="round" stroke-linejoin="round" fill="none"/><path d="M230.65 345.27 230.55 345.27 230.46 345.17 230.36 345.17 230.26 345.17 230.17 345.07 230.07 344.97 229.97 344.97 229.97 344.86 229.88 344.76 229.88 344.66 229.78 344.56 229.78 344.46 229.78 344.36" stroke="#000000" stroke-width="1.5" stroke-linecap="round" stroke-linejoin="round" fill="none"/><path d="M237.96 344.36 237.38 344.36 236.61 344.36 235.65 344.36 234.5 344.36 233.25 344.36 232.19 344.36 231.13 344.36 230.36 344.36 229.78 344.36" stroke="#000000" stroke-width="1.5" stroke-linecap="round" stroke-linejoin="round" fill="none"/><path d="M237.96 344.36 237.96 344.46 237.96 344.56 237.87 344.66 237.87 344.76 237.77 344.86 237.77 344.97 237.67 344.97 237.58 345.07 237.48 345.17 237.38 345.17 237.29 345.17 237.19 345.27 237.1 345.27" stroke="#000000" stroke-width="1.5" stroke-linecap="round" stroke-linejoin="round" fill="none"/><path d="M237.1 345.27 236.42 345.27 235.56 345.27 234.4 345.27 233.34 345.27 232.19 345.27 231.32 345.27 230.65 345.27" stroke="#000000" stroke-width="1.5" stroke-linecap="round" stroke-linejoin="round" fill="none"/><path d="M223.82 325.68 223.82 325.98 223.82 326.19 223.82 326.39 223.91 326.49" stroke="#000000" stroke-width="1.5" stroke-linecap="round" stroke-linejoin="round" fill="none"/><path d="M253.45 291.88 249.12 291.07 244.79 290.46 240.46 290.05M239.69 288.32 239.88 288.32 239.88 288.42 239.98 288.42 240.08 288.52 240.08 288.62 240.18 288.62 240.18 288.72 240.28 288.82 240.28 288.92 240.38 289.02 240.38 289.32 240.48 289.42 240.48 290.03M227.3 290.03 227.3 289.52 227.4 289.42 227.4 289.01 227.5 288.91 227.5 288.81 227.6 288.71 227.6 288.61 227.7 288.61 227.7 288.51 227.8 288.41 227.9 288.41 227.9 288.31 228.09 288.31M214.52 290.14 219.04 289.33 223.56 288.72 228.08 288.31M212.97 290.44 212.87 290.44M213.64 290.34 213.26 290.34M214.51 290.14 214.22 290.14 214.03 290.24M253.77 290.24 253.58 290.14 253.29 290.14M254.54 290.34 254.16 290.34M254.93 290.44 254.74 290.44M239.73 288.31 244.25 288.72 248.77 289.33 253.29 290.14M239.72 288.31 238.66 288.31 238.47 288.21 235.49 288.21 235.3 288.11 232.51 288.11 232.32 288.21 229.34 288.21 229.15 288.31 228.09 288.31M213.85 324.35 214.23 324.35 214.42 324.45M212.88 324.04 212.98 324.14 213.36 324.14M212.21 323.94 212.4 323.94 212.5 324.04M223.95 326.58 214.42 324.45" stroke="#000000" stroke-width="1.5" stroke-linecap="round" stroke-linejoin="round" fill="none"/><path d="M253.36 291.88 253.45 291.47 253.45 291.06 253.45 290.66 253.36 290.46 253.26 290.25 253.17 290.15" stroke="#000000" stroke-width="1.5" stroke-linecap="round" stroke-linejoin="round" fill="none"/><path d="M253.45 291.88 253.45 323.55M253.45 323.55 253.83 323.55 254.02 323.45 254.5 323.45 254.6 323.35 255.08 323.35 255.18 323.25 255.66 323.25 255.76 323.15 256.24 323.15M256.24 292.19 255.86 292.19 255.76 292.09 255.09 292.09 254.99 291.99 254.32 291.99 254.22 291.89 253.45 291.89" stroke="#000000" stroke-width="1.5" stroke-linecap="round" stroke-linejoin="round" fill="none"/><path d="M253.36 324.36 253.36 324.26 253.45 324.05 253.36 323.85 253.36 323.55" stroke="#000000" stroke-width="1.5" stroke-linecap="round" stroke-linejoin="round" fill="none"/><line x1="244.02" y1="325.68" x2="253.45" y2="323.55" stroke="#000000" stroke-width="1.5" stroke-linecap="round" stroke-linejoin="round" fill="none"/><path d="M243.83 326.49 243.93 326.39 243.93 326.19 243.93 325.98 243.93 325.68" stroke="#000000" stroke-width="1.5" stroke-linecap="round" stroke-linejoin="round" fill="none"/><line x1="239.21" y1="325.68" x2="244.02" y2="325.68" stroke="#000000" stroke-width="1.5" stroke-linecap="round" stroke-linejoin="round" fill="none"/><path d="M214.58 290.15 214.48 290.25 214.38 290.46 214.29 290.66 214.29 291.06 214.29 291.47 214.38 291.88" stroke="#000000" stroke-width="1.5" stroke-linecap="round" stroke-linejoin="round" fill="none"/><path d="M227.28 290.05 222.95 290.46 218.62 291.06 214.29 291.88 214.29 323.55 223.72 325.68" stroke="#000000" stroke-width="1.5" stroke-linecap="round" stroke-linejoin="round" fill="none"/><path d="M214.38 323.55 214.38 323.85 214.29 324.05 214.38 324.26 214.38 324.36" stroke="#000000" stroke-width="1.5" stroke-linecap="round" stroke-linejoin="round" fill="none"/><path d="M238.25 341.92 238.54 328.32M229.49 341.92 229.2 328.32M214.28 291.88 213.51 291.88 213.41 291.98 212.74 291.98 212.64 292.08 211.97 292.08 211.87 292.18 211.48 292.18M211.48 323.14 211.96 323.14 212.06 323.24 212.54 323.24 212.64 323.34 213.12 323.34 213.22 323.44 213.7 323.44 213.89 323.54 214.28 323.54" stroke="#000000" stroke-width="1.5" stroke-linecap="round" stroke-linejoin="round" fill="none"/><path d="M223.43 326.59 223.53 327 223.62 327.51 223.91 327.81 224.3 328.12 224.68 328.22 225.07 328.32" stroke="#000000" stroke-width="1.5" stroke-linecap="round" stroke-linejoin="round" fill="none"/><path d="M242.68 328.32 243.06 328.22 243.45 328.12 243.83 327.81 244.12 327.51 244.22 327 244.31 326.59" stroke="#000000" stroke-width="1.5" stroke-linecap="round" stroke-linejoin="round" fill="none"/><line x1="214" y1="290.25" x2="214.1" y2="290.25" stroke="#000000" stroke-width="1.5" stroke-linecap="round" stroke-linejoin="round" fill="none"/><line x1="213.61" y1="290.35" x2="213.61" y2="290.25" stroke="#000000" stroke-width="1.5" stroke-linecap="round" stroke-linejoin="round" fill="none"/><path d="M212.94 290.46 213.04 290.46 213.13 290.46 213.23 290.35" stroke="#000000" stroke-width="1.5" stroke-linecap="round" stroke-linejoin="round" fill="none"/><path d="M213.61 290.35 213.71 290.25 213.81 290.25 213.9 290.25 214 290.25" stroke="#000000" stroke-width="1.5" stroke-linecap="round" stroke-linejoin="round" fill="none"/><path d="M211.5 323.14 211.5 292.18 211.5 292.08 211.59 291.98 211.59 291.78 211.59 291.67 211.59 291.57 211.69 291.47 211.69 291.37 211.79 291.27 211.88 291.17 211.88 291.06 211.98 290.96 212.08 290.86 212.17 290.76 212.27 290.76 212.36 290.66 212.46 290.66 212.56 290.56 212.65 290.56 212.75 290.46 212.84 290.46 212.94 290.46 213.04 290.46 213.13 290.46 213.23 290.35" stroke="#000000" stroke-width="1.5" stroke-linecap="round" stroke-linejoin="round" fill="none"/><path d="M213.81 324.36 213.71 324.26 213.52 324.26 213.42 324.26 213.33 324.16" stroke="#000000" stroke-width="1.5" stroke-linecap="round" stroke-linejoin="round" fill="none"/><path d="M212.84 324.05 212.75 324.05 212.65 324.05 212.56 324.05 212.46 324.05" stroke="#000000" stroke-width="1.5" stroke-linecap="round" stroke-linejoin="round" fill="none"/><line x1="212.27" y1="323.95" x2="212.17" y2="323.95" stroke="#000000" stroke-width="1.5" stroke-linecap="round" stroke-linejoin="round" fill="none"/><line x1="212.46" y1="324.05" x2="212.46" y2="323.95" stroke="#000000" stroke-width="1.5" stroke-linecap="round" stroke-linejoin="round" fill="none"/><path d="M212.17 323.95 212.08 323.95 211.98 323.85 211.88 323.85 211.79 323.75 211.69 323.65 211.69 323.55 211.59 323.55 211.59 323.45 211.59 323.34 211.5 323.24 211.5 323.14" stroke="#000000" stroke-width="1.5" stroke-linecap="round" stroke-linejoin="round" fill="none"/><path d="M214.48 290.15 215.35 289.95 216.21 289.74 216.98 289.64 217.85 289.54 218.72 289.34 219.58 289.24 220.35 289.14 221.22 289.03 222.08 288.93 222.95 288.83 223.82 288.73 224.59 288.63 225.45 288.53 226.32 288.43 227.18 288.43 228.05 288.32" stroke="#000000" stroke-width="1.5" stroke-linecap="round" stroke-linejoin="round" fill="none"/><path d="M255.28 324.05 255.19 324.05 255.09 324.05 254.99 324.05 254.9 324.05" stroke="#000000" stroke-width="1.5" stroke-linecap="round" stroke-linejoin="round" fill="none"/><path d="M254.42 324.16 254.32 324.26 254.22 324.26 254.03 324.26 253.94 324.36" stroke="#000000" stroke-width="1.5" stroke-linecap="round" stroke-linejoin="round" fill="none"/><path d="M256.25 323.14 256.25 323.24 256.15 323.34 256.15 323.45 256.15 323.55 256.05 323.55 256.05 323.65 255.96 323.75 255.86 323.85 255.76 323.85 255.67 323.95 255.57 323.95" stroke="#000000" stroke-width="1.5" stroke-linecap="round" stroke-linejoin="round" fill="none"/><line x1="255.57" y1="323.95" x2="255.48" y2="323.95" stroke="#000000" stroke-width="1.5" stroke-linecap="round" stroke-linejoin="round" fill="none"/><line x1="256.25" y1="323.14" x2="256.25" y2="292.18" stroke="#000000" stroke-width="1.5" stroke-linecap="round" stroke-linejoin="round" fill="none"/><path d="M253.74 290.25 253.84 290.25 253.94 290.25 254.03 290.25 254.13 290.35" stroke="#000000" stroke-width="1.5" stroke-linecap="round" stroke-linejoin="round" fill="none"/><path d="M254.51 290.35 254.61 290.46 254.71 290.46" stroke="#000000" stroke-width="1.5" stroke-linecap="round" stroke-linejoin="round" fill="none"/><line x1="254.9" y1="290.46" x2="254.9" y2="290.35" stroke="#000000" stroke-width="1.5" stroke-linecap="round" stroke-linejoin="round" fill="none"/><path d="M254.9 290.46 254.99 290.46 254.99 290.56 255.09 290.56 255.19 290.56 255.28 290.56 255.28 290.66 255.38 290.66 255.48 290.76 255.57 290.76 255.57 290.86 255.67 290.86 255.67 290.96 255.76 290.96 255.76 291.06 255.86 291.06 255.86 291.17 255.96 291.17 255.96 291.27 256.05 291.37 256.05 291.47 256.05 291.57 256.15 291.57 256.15 291.67 256.15 291.78 256.15 291.88 256.25 291.98 256.25 292.08 256.25 292.18" stroke="#000000" stroke-width="1.5" stroke-linecap="round" stroke-linejoin="round" fill="none"/><path d="M239.69 288.32 240.56 288.43 241.43 288.43 242.29 288.53 243.16 288.63 243.93 288.73 244.79 288.83 245.66 288.93 246.53 289.03 247.39 289.14 248.16 289.24 249.03 289.34 249.89 289.54 250.76 289.64 251.53 289.74 252.4 289.95 253.26 290.15" stroke="#000000" stroke-width="1.5" stroke-linecap="round" stroke-linejoin="round" fill="none"/><path d="M213.33 324.16 213.23 324.16 213.13 324.16 213.04 324.16 212.94 324.16 212.84 324.16 212.84 324.05" stroke="#000000" stroke-width="1.5" stroke-linecap="round" stroke-linejoin="round" fill="none"/><path d="M254.8 324.16 254.71 324.16 254.61 324.16 254.51 324.16" stroke="#000000" stroke-width="1.5" stroke-linecap="round" stroke-linejoin="round" fill="none"/><line x1="254.51" y1="324.16" x2="254.42" y2="324.16" stroke="#000000" stroke-width="1.5" stroke-linecap="round" stroke-linejoin="round" fill="none"/><line x1="223.43" y1="326.49" x2="223.43" y2="326.59" stroke="#000000" stroke-width="1.5" stroke-linecap="round" stroke-linejoin="round" fill="none"/><line x1="244.31" y1="326.49" x2="244.31" y2="326.59" stroke="#000000" stroke-width="1.5" stroke-linecap="round" stroke-linejoin="round" fill="none"/><path d="M234.11 7.15 234.02 7.15 233.53 7.15 232.76 7.15 231.8 7.15 230.74 7.15 229.69 7.15 228.82 7.15 228.05 7.15 227.57 7.15 227.38 7.15" stroke="#000000" stroke-width="1.5" stroke-linecap="round" stroke-linejoin="round" fill="none"/><path d="M226.51 8.06 226.8 8.06 227.38 8.06 228.34 8.06 229.49 8.06 230.74 8.06 232.09 8.06 233.25 8.06 234.21 8.06 234.79 8.06 234.98 8.06" stroke="#000000" stroke-width="1.5" stroke-linecap="round" stroke-linejoin="round" fill="none"/><line x1="252.01" y1="60.03" x2="252.01" y2="59.93" stroke="#000000" stroke-width="1.5" stroke-linecap="round" stroke-linejoin="round" fill="none"/><path d="M209.48 60.03 209.57 60.03 209.67 60.03 209.77 60.03 209.86 60.03 209.96 60.03 210.05 60.03 210.15 60.03 210.25 60.03 210.34 60.03 210.44 60.03 210.54 60.03 210.63 60.03 210.73 60.03 210.82 60.03 210.92 60.03 211.02 60.03 211.11 60.03 211.21 60.03 211.31 60.03 211.4 60.03 211.5 60.03 211.59 60.03 211.79 60.03 211.88 60.03 211.98 60.03 212.08 60.03 212.27 60.03 212.36 60.03 212.56 60.03 212.65 60.03 212.75 60.03 212.94 60.03 213.04 60.03 213.23 60.03 213.33 60.03 213.52 60.03 213.71 60.03 213.81 60.03 214 60.03 214.19 60.03 214.29 60.03 214.48 60.03 214.67 60.03 214.87 60.03 214.96 60.03 215.15 60.03 215.35 60.03 215.54 60.03 215.73 60.03 215.92 60.03 216.12 60.03 216.31 60.03 216.5 60.03 216.69 60.03 216.89 60.03 217.08 60.03 217.27 60.03 217.46 60.03 217.66 60.03 217.85 60.03 218.04 60.03 218.33 60.03 218.52 60.03 218.72 60.03 218.91 60.03 219.2 60.03 219.39 60.03 219.58 60.03 219.87 60.03 220.06 60.03 220.25 60.03 220.54 60.03 220.74 60.03 220.93 60.03 221.22 60.03 221.41 60.03 221.7 60.03 221.89 60.03 222.18 60.03 222.37 60.03 222.66 60.03 222.85 60.03 223.14 60.03 223.33 60.03 223.62 60.03 223.82 60.03 224.1 60.03 224.3 60.03 224.59 60.03 224.87 60.03 225.07 60.03 225.36 60.03 225.64 60.03 225.84 60.03 226.12 60.03 226.32 60.03 226.61 60.03 226.89 60.03 227.09 60.03 227.38 60.03 227.66 60.03 227.86 60.03 228.15 60.03 228.43 60.03 228.72 60.03 228.92 60.03 229.2 60.03 229.49 60.03 229.69 60.03 229.97 60.03 230.26 60.03 230.55 60.03 230.74 60.03 231.03 60.03 231.32 60.03 231.51 60.03 231.8 60.03 232.09 60.03 232.38 60.03 232.57 60.03 232.86 60.03 233.15 60.03 233.34 60.03 233.63 60.03 233.92 60.03 234.11 60.03 234.4 60.03 234.69 60.03 234.88 60.03 235.17 60.03 235.46 60.03 235.65 60.03 235.94 60.03 236.23 60.03 236.42 60.03 236.71 60.03 236.9 60.03 237.19 60.03 237.48 60.03 237.67 60.03 237.96 60.03 238.15 60.03 238.44 60.03 238.64 60.03 238.92 60.03 239.12 60.03 239.4 60.03 239.6 60.03 239.89 60.03 240.08 60.03 240.37 60.03 240.56 60.03 240.85 60.03 241.04 60.03 241.23 60.03 241.52 60.03 241.71 60.03 241.91 60.03 242.2 60.03 242.39 60.03 242.58 60.03 242.77 60.03 243.06 60.03 243.25 60.03 243.45 60.03 243.64 60.03 243.83 60.03 244.02 60.03 244.31 60.03 244.51 60.03 244.7 60.03 244.89 60.03 245.08 60.03 245.28 60.03 245.47 60.03 245.66 60.03 245.85 60.03 246.04 60.03 246.14 60.03 246.33 60.03 246.53 60.03 246.72 60.03 246.91 60.03 247.1 60.03 247.2 60.03 247.39 60.03 247.58 60.03 247.68 60.03 247.87 60.03 248.07 60.03 248.16 60.03 248.35 60.03 248.45 60.03 248.64 60.03 248.74 60.03 248.93 60.03 249.03 60.03 249.12 60.03 249.32 60.03 249.41 60.03 249.51 60.03 249.7 60.03 249.8 60.03 249.89 60.03 249.99 60.03 250.09 60.03 250.18 60.03 250.38 60.03 250.47 60.03 250.57 60.03 250.66 60.03 250.76 60.03 250.86 60.03 250.95 60.03 251.05 60.03 251.15 60.03 251.24 60.03 251.34 60.03 251.43 60.03 251.53 60.03 251.63 60.03 251.72 60.03 251.82 60.03 251.92 60.03 252.01 60.03" stroke="#000000" stroke-width="1.5" stroke-linecap="round" stroke-linejoin="round" fill="none"/><path d="M240.46 23.08 240.37 22.68 240.17 22.27 239.98 21.97 239.6 21.66 239.21 21.56 238.83 21.46" stroke="#000000" stroke-width="1.5" stroke-linecap="round" stroke-linejoin="round" fill="none"/><path d="M208.51 50.08 208.51 49.98M253.07 50.08 208.51 50.08M253.07 50.08 252.69 49.78 252.31 49.48 251.93 49.18 251.55 48.98 251.26 48.68 250.88 48.38 250.59 48.08 250.21 47.78 249.92 47.37 249.54 47.07 249.25 46.77 248.96 46.47 248.67 46.17 248.29 45.76 248 45.46 247.71 45.16 247.42 44.75 247.13 44.45 246.94 44.04 246.65 43.74 246.36 43.33 246.07 42.92 245.88 42.62 245.59 42.21 245.4 41.8 245.11 41.39 244.92 40.98 244.73 40.57 244.44 40.16 244.25 39.75 244.06 39.34 243.87 38.93 243.68 38.52 243.49 38.11 243.3 37.6 243.11 37.19 243.01 36.78 242.82 36.27 242.63 35.86 242.53 35.35 242.34 34.94 242.24 34.43 242.14 33.92 241.95 33.51 241.85 33 241.75 32.49 241.65 31.98 241.55 31.57 241.45 31.06 241.35 30.55 241.25 30.04 241.15 29.53 241.05 29.02 240.95 28.41 240.95 27.9 240.85 27.39 240.75 26.88 240.75 26.37 240.65 25.76 240.65 25.25 240.55 24.74 240.55 23.62 240.45 23.01M238.81 21.39 222.64 21.39M221 23.01 240.44 23.01" stroke="#000000" stroke-width="1.5" stroke-linecap="round" stroke-linejoin="round" fill="none"/><path d="M253.65 51.5 253.65 51.1 253.45 50.69 253.26 50.39 252.97 50.08" stroke="#000000" stroke-width="1.5" stroke-linecap="round" stroke-linejoin="round" fill="none"/><path d="M253.74 58.2 253.74 58.31 253.74 58.41 253.74 58.51 253.65 58.61 253.65 58.71 253.65 58.81 253.55 58.91 253.55 59.02 253.45 59.12 253.45 59.22 253.36 59.32 253.26 59.42 253.26 59.52 253.17 59.52 253.07 59.62 252.97 59.73 252.88 59.73 252.88 59.83 252.78 59.83 252.68 59.83 252.59 59.93 252.49 59.93 252.4 59.93 252.3 59.93 252.2 60.03 252.11 60.03 252.01 60.03" stroke="#000000" stroke-width="1.5" stroke-linecap="round" stroke-linejoin="round" fill="none"/><line x1="207.84" y1="58.2" x2="207.84" y2="58.1" stroke="#000000" stroke-width="1.5" stroke-linecap="round" stroke-linejoin="round" fill="none"/><path d="M253.74 58.2 253.65 58.2 253.55 58.2 253.45 58.2 253.36 58.2 253.26 58.2 253.17 58.2 253.07 58.2 252.97 58.2 252.88 58.2 252.78 58.2 252.68 58.2 252.59 58.2 252.49 58.2 252.4 58.2 252.3 58.2 252.2 58.2 252.11 58.2 251.92 58.2 251.82 58.2 251.72 58.2 251.63 58.2 251.53 58.2 251.34 58.2 251.24 58.2 251.15 58.2 250.95 58.2 250.86 58.2 250.76 58.2 250.57 58.2 250.47 58.2 250.28 58.2 250.18 58.2 249.99 58.2 249.89 58.2 249.7 58.2 249.51 58.2 249.32 58.2 249.22 58.2 249.03 58.2 248.84 58.2 248.64 58.2 248.55 58.2 248.35 58.2 248.16 58.2 247.97 58.2 247.78 58.2 247.58 58.2 247.39 58.2 247.2 58.2 247.01 58.2 246.81 58.2 246.62 58.2 246.43 58.2 246.14 58.2 245.95 58.2 245.76 58.2 245.56 58.2 245.28 58.2 245.08 58.2 244.89 58.2 244.7 58.2 244.41 58.2 244.22 58.2 244.02 58.2 243.74 58.2 243.54 58.2 243.25 58.2 243.06 58.2 242.77 58.2 242.58 58.2 242.29 58.2 242.1 58.2 241.81 58.2 241.62 58.2 241.33 58.2 241.04 58.2 240.85 58.2 240.56 58.2 240.37 58.2 240.08 58.2 239.79 58.2 239.6 58.2 239.31 58.2 239.02 58.2 238.73 58.2 238.54 58.2 238.25 58.2 237.96 58.2 237.67 58.2 237.38 58.2 237.19 58.2 236.9 58.2 236.61 58.2 236.33 58.2 236.04 58.2 235.75 58.2 235.56 58.2 235.27 58.2 234.98 58.2 234.69 58.2 234.4 58.2 234.11 58.2 233.82 58.2 233.53 58.2 233.34 58.2 233.05 58.2 232.76 58.2 232.48 58.2 232.19 58.2 231.9 58.2 231.61 58.2 231.32 58.2 231.03 58.2 230.74 58.2 230.46 58.2 230.17 58.2 229.88 58.2 229.69 58.2 229.4 58.2 229.11 58.2 228.82 58.2 228.53 58.2 228.24 58.2 227.95 58.2 227.66 58.2 227.38 58.2 227.09 58.2 226.8 58.2 226.61 58.2 226.32 58.2 226.03 58.2 225.74 58.2 225.45 58.2 225.16 58.2 224.87 58.2 224.68 58.2 224.39 58.2 224.1 58.2 223.82 58.2 223.53 58.2 223.33 58.2 223.05 58.2 222.76 58.2 222.47 58.2 222.28 58.2 221.99 58.2 221.7 58.2 221.51 58.2 221.22 58.2 220.93 58.2 220.74 58.2 220.45 58.2 220.16 58.2 219.97 58.2 219.68 58.2 219.48 58.2 219.2 58.2 219 58.2 218.72 58.2 218.52 58.2 218.23 58.2 218.04 58.2 217.75 58.2 217.56 58.2 217.37 58.2 217.08 58.2 216.89 58.2 216.69 58.2 216.41 58.2 216.21 58.2 216.02 58.2 215.83 58.2 215.54 58.2 215.35 58.2 215.15 58.2 214.96 58.2 214.77 58.2 214.58 58.2 214.38 58.2 214.19 58.2 214 58.2 213.81 58.2 213.61 58.2 213.42 58.2 213.23 58.2 213.04 58.2 212.84 58.2 212.65 58.2 212.56 58.2 212.36 58.2 212.17 58.2 211.98 58.2 211.88 58.2 211.69 58.2 211.5 58.2 211.4 58.2 211.21 58.2 211.11 58.2 210.92 58.2 210.82 58.2 210.63 58.2 210.54 58.2 210.44 58.2 210.25 58.2 210.15 58.2 210.05 58.2 209.96 58.2 209.77 58.2 209.67 58.2 209.57 58.2 209.48 58.2 209.38 58.2 209.28 58.2 209.19 58.2 209.09 58.2 209 58.2 208.9 58.2 208.8 58.2 208.71 58.2 208.61 58.2 208.51 58.2 208.42 58.2 208.32 58.2 208.23 58.2 208.13 58.2 208.03 58.2 207.94 58.2 207.84 58.2" stroke="#000000" stroke-width="1.5" stroke-linecap="round" stroke-linejoin="round" fill="none"/><line x1="253.74" y1="51.5" x2="253.74" y2="51.4" stroke="#000000" stroke-width="1.5" stroke-linecap="round" stroke-linejoin="round" fill="none"/><path d="M207.84 51.5 207.94 51.5 208.03 51.5 208.13 51.5 208.23 51.5 208.32 51.5 208.42 51.5 208.51 51.5 208.61 51.5 208.71 51.5 208.8 51.5 208.9 51.5 209 51.5 209.09 51.5 209.19 51.5 209.28 51.5 209.38 51.5 209.48 51.5 209.57 51.5 209.67 51.5 209.77 51.5 209.96 51.5 210.05 51.5 210.15 51.5 210.25 51.5 210.44 51.5 210.54 51.5 210.63 51.5 210.82 51.5 210.92 51.5 211.11 51.5 211.21 51.5 211.4 51.5 211.5 51.5 211.69 51.5 211.88 51.5 211.98 51.5 212.17 51.5 212.36 51.5 212.56 51.5 212.65 51.5 212.84 51.5 213.04 51.5 213.23 51.5 213.42 51.5 213.61 51.5 213.81 51.5 214 51.5 214.19 51.5 214.38 51.5 214.58 51.5 214.77 51.5 214.96 51.5 215.15 51.5 215.35 51.5 215.54 51.5 215.83 51.5 216.02 51.5 216.21 51.5 216.41 51.5 216.69 51.5 216.89 51.5 217.08 51.5 217.37 51.5 217.56 51.5 217.75 51.5 218.04 51.5 218.23 51.5 218.52 51.5 218.72 51.5 219 51.5 219.2 51.5 219.48 51.5 219.68 51.5 219.97 51.5 220.16 51.5 220.45 51.5 220.74 51.5 220.93 51.5 221.22 51.5 221.51 51.5 221.7 51.5 221.99 51.5 222.28 51.5 222.47 51.5 222.76 51.5 223.05 51.5 223.33 51.5 223.53 51.5 223.82 51.5 224.1 51.5 224.39 51.5 224.68 51.5 224.87 51.5 225.16 51.5 225.45 51.5 225.74 51.5 226.03 51.5 226.32 51.5 226.61 51.5 226.8 51.5 227.09 51.5 227.38 51.5 227.66 51.5 227.95 51.5 228.24 51.5 228.53 51.5 228.82 51.5 229.11 51.5 229.4 51.5 229.69 51.5 229.88 51.5 230.17 51.5 230.46 51.5 230.74 51.5 231.03 51.5 231.32 51.5 231.61 51.5 231.9 51.5 232.19 51.5 232.48 51.5 232.76 51.5 233.05 51.5 233.34 51.5 233.53 51.5 233.82 51.5 234.11 51.5 234.4 51.5 234.69 51.5 234.98 51.5 235.27 51.5 235.56 51.5 235.84 51.5 236.04 51.5 236.33 51.5 236.61 51.5 236.9 51.5 237.19 51.5 237.38 51.5 237.67 51.5 237.96 51.5 238.25 51.5 238.54 51.5 238.73 51.5 239.02 51.5 239.31 51.5 239.5 51.5 239.79 51.5 240.08 51.5 240.37 51.5 240.56 51.5 240.85 51.5 241.04 51.5 241.33 51.5 241.62 51.5 241.81 51.5 242.1 51.5 242.29 51.5 242.58 51.5 242.77 51.5 243.06 51.5 243.25 51.5 243.54 51.5 243.74 51.5 244.02 51.5 244.22 51.5 244.41 51.5 244.7 51.5 244.89 51.5 245.08 51.5 245.28 51.5 245.56 51.5 245.76 51.5 245.95 51.5 246.14 51.5 246.43 51.5 246.62 51.5 246.81 51.5 247.01 51.5 247.2 51.5 247.39 51.5 247.58 51.5 247.78 51.5 247.97 51.5 248.16 51.5 248.35 51.5 248.55 51.5 248.64 51.5 248.84 51.5 249.03 51.5 249.22 51.5 249.32 51.5 249.51 51.5 249.7 51.5 249.8 51.5 249.99 51.5 250.18 51.5 250.28 51.5 250.47 51.5 250.57 51.5 250.76 51.5 250.86 51.5 250.95 51.5 251.15 51.5 251.24 51.5 251.34 51.5 251.53 51.5 251.63 51.5 251.72 51.5 251.82 51.5 251.92 51.5 252.11 51.5 252.2 51.5 252.3 51.5 252.4 51.5 252.49 51.5 252.59 51.5 252.68 51.5 252.78 51.5 252.88 51.5 252.97 51.5 253.07 51.5 253.17 51.5 253.26 51.5 253.36 51.5 253.45 51.5 253.55 51.5 253.65 51.5 253.74 51.5" stroke="#000000" stroke-width="1.5" stroke-linecap="round" stroke-linejoin="round" fill="none"/><path d="M234.88 8.06 234.79 7.75 234.69 7.45 234.4 7.35 234.11 7.25" stroke="#000000" stroke-width="1.5" stroke-linecap="round" stroke-linejoin="round" fill="none"/><path d="M227.38 7.25 227.09 7.35 226.8 7.45 226.7 7.75 226.61 8.06" stroke="#000000" stroke-width="1.5" stroke-linecap="round" stroke-linejoin="round" fill="none"/><path d="M234.98 21.46 234.98 8.06M226.51 21.46 226.51 8.06" stroke="#000000" stroke-width="1.5" stroke-linecap="round" stroke-linejoin="round" fill="none"/><path d="M240.46 23.08 240.37 22.68 240.17 22.27 239.98 21.97 239.6 21.66 239.21 21.56 238.83 21.46" stroke="#000000" stroke-width="1.5" stroke-linecap="round" stroke-linejoin="round" fill="none"/><path d="M222.66 21.46 222.28 21.56 221.89 21.66 221.51 21.97 221.31 22.27 221.12 22.68 221.02 23.08" stroke="#000000" stroke-width="1.5" stroke-linecap="round" stroke-linejoin="round" fill="none"/><path d="M240.46 23.08 240.56 23.69 240.56 24.81 240.66 25.32 240.66 25.83 240.76 26.44 240.76 26.95 240.86 27.46 240.96 27.97 240.96 28.48 241.06 29.09 241.16 29.6 241.26 30.11 241.36 30.62 241.46 31.13 241.56 31.64 241.66 32.05 241.76 32.56 241.86 33.07 241.96 33.58 242.15 33.99 242.25 34.5 242.35 35.01 242.54 35.42 242.64 35.93 242.83 36.34 243.02 36.85 243.12 37.26 243.31 37.67 243.5 38.18 243.69 38.59 243.88 39 244.07 39.41 244.26 39.82 244.45 40.23 244.74 40.64 244.93 41.05 245.12 41.46 245.41 41.87 245.6 42.28 245.89 42.69 246.08 42.99 246.37 43.4 246.66 43.81 246.95 44.11 247.14 44.52 247.43 44.82 247.72 45.23 248.01 45.53 248.3 45.83 248.68 46.24 248.97 46.54 249.26 46.84 249.55 47.14 249.93 47.44 250.22 47.85 250.6 48.15 250.89 48.45 251.27 48.75 251.56 49.05 251.94 49.25 252.32 49.55 252.7 49.85 253.08 50.15M221.03 23.15 221.03 24.27 220.93 24.88 220.93 25.39 220.83 25.9 220.83 26.51 220.73 27.02 220.73 27.53 220.63 28.04 220.53 28.55 220.53 29.16 220.43 29.67 220.33 30.18 220.23 30.69 220.13 31.2 220.03 31.71 219.93 32.12 219.83 32.63 219.73 33.14 219.54 33.65 219.44 34.06 219.34 34.57 219.15 35.08 219.05 35.49 218.86 36 218.76 36.41 218.57 36.92 218.38 37.33 218.19 37.74 218 38.25 217.9 38.66 217.71 39.07 217.52 39.48 217.23 39.89 217.04 40.3 216.85 40.71 216.66 41.12 216.37 41.53 216.18 41.94 215.89 42.35 215.7 42.76 215.41 43.06 215.12 43.47 214.93 43.88 214.64 44.18 214.35 44.59 214.06 44.89 213.77 45.3 213.48 45.6 213.19 45.9 212.9 46.31 212.61 46.61 212.23 46.91 211.94 47.21 211.65 47.51 211.26 47.92 210.97 48.22 210.59 48.52 210.3 48.82 209.92 49.12 209.54 49.32 209.25 49.62 208.86 49.92 208.48 50.22" stroke="#000000" stroke-width="1.5" stroke-linecap="round" stroke-linejoin="round" fill="none"/><path d="M253.65 51.5 253.65 51.1 253.45 50.69 253.26 50.39 252.97 50.08" stroke="#000000" stroke-width="1.5" stroke-linecap="round" stroke-linejoin="round" fill="none"/><path d="M208.51 50.08 208.23 50.39 208.03 50.69 207.84 51.1 207.84 51.5" stroke="#000000" stroke-width="1.5" stroke-linecap="round" stroke-linejoin="round" fill="none"/><path d="M241.43 259.7 241.23 261.53 241.04 263.25 240.94 265.08 240.75 266.91 240.66 268.63 240.46 270.46 240.37 272.18 240.27 274.01 240.17 275.84 240.08 277.56 239.98 278.48 239.98 279.39 239.89 280.3 239.89 281.12 239.79 282.03 239.79 282.94 239.79 283.86 239.79 284.77 239.69 285.68 239.69 286.5 239.69 287.41 239.69 288.32" stroke="#000000" stroke-width="1.5" stroke-linecap="round" stroke-linejoin="round" fill="none"/><path d="M228.34 288.32 228.34 287.41 228.34 286.4 228.43 285.48 228.43 284.57 228.43 283.55 228.43 282.64 228.43 281.73 228.53 280.71 228.53 279.8 228.63 278.88 228.63 277.97 228.72 276.95 228.72 276.04 228.82 275.13 228.82 274.11 228.92 273.2 229.01 272.29 229.01 271.27 229.2 269.44 229.3 267.51 229.49 265.69 229.69 263.76 229.78 261.83 229.97 260 230.17 258.07" stroke="#000000" stroke-width="1.5" stroke-linecap="round" stroke-linejoin="round" fill="none"/><line x1="228.43" y1="290.05" x2="228.43" y2="289.95" stroke="#000000" stroke-width="1.5" stroke-linecap="round" stroke-linejoin="round" fill="none"/><path d="M237.1 60.03 237.38 61.55 237.67 63.18 237.96 64.7 238.25 66.22 238.54 67.85 238.83 69.37 239.4 72.52 240.08 75.66 240.66 78.81 241.04 80.33 241.33 81.86 241.62 83.48 241.91 85 242.1 86.63 242.39 88.15 242.48 88.96 242.58 89.77 242.77 90.59 242.87 91.4 242.97 92.11 243.06 92.92 243.16 93.73 243.25 94.54 243.25 95.36 243.35 96.17 243.45 96.88 243.54 97.69 243.54 98.5 243.64 99.31 243.64 100.13 243.74 100.94 243.74 101.75 243.74 102.46 243.83 103.27 243.83 104.09 243.83 104.9 243.83 105.71 243.74 106.52 243.74 107.33 243.74 108.04 243.74 108.86 243.64 109.67 243.54 110.48 243.54 111.29 243.45 112.1 243.35 112.82 243.25 113.63 243.16 114.44 243.06 115.25 242.87 116.06 242.77 116.77 242.68 117.59 242.48 118.4 242.39 119.11 242.2 119.92 242 120.73 241.81 121.55 241.62 122.26 241.43 123.07 241.23 123.88 241.04 124.59 240.85 125.4 240.66 126.11 240.46 126.93 240.17 127.74 239.98 128.45 239.69 129.26 239.5 129.97 239.21 130.78 239.02 131.49 238.73 132.31 238.44 133.02 238.25 133.83 237.96 134.54 237.67 135.35 237.1 136.77 236.61 138.29 236.04 139.82 235.46 141.24 234.3 144.18 233.73 145.7 233.15 147.23 232.86 147.94 232.57 148.65 232.28 149.46 232 150.17 231.8 150.88 231.51 151.69 231.23 152.4 231.03 153.22 230.74 153.93 230.55 154.64 230.36 155.45 230.17 156.26 229.88 156.97 229.69 157.78 229.59 158.49 229.4 159.31 229.2 160.12 229.11 160.93 228.92 161.64 228.82 162.45 228.72 163.27 228.63 164.08 228.53 164.79 228.43 165.6 228.43 166.41 228.43 167.22 228.34 168.04 228.34 168.85 228.34 169.66 228.43 170.47 228.43 171.18 228.43 171.99 228.53 172.81 228.63 173.62 228.72 174.43 228.82 175.24 228.92 176.06 229.01 176.77 229.11 177.58 229.3 178.39 229.4 179.2 229.59 179.91 229.69 180.72 229.88 181.54 230.07 182.25 230.26 183.06 230.46 183.87 230.65 184.58 230.84 185.39 231.03 186.1 231.23 186.92 231.42 187.73 231.9 189.25 232.28 190.77 232.76 192.3 233.25 193.82 234.21 196.86 234.69 198.39 235.17 199.91 235.56 201.43 236.04 202.96 236.52 204.48 236.9 206 237.38 207.52 237.77 209.05 238.15 210.67 238.54 212.19 238.92 213.71 239.31 215.34 239.69 216.86 239.89 217.67 240.08 218.49 240.17 219.2 240.37 220.01 240.56 220.82 240.66 221.63 240.85 222.34 240.94 223.16 241.14 223.97 241.23 224.78 241.33 225.59 241.52 226.3 241.62 227.11 241.71 227.93 241.81 228.74 241.91 229.55 242 230.26 242.1 231.07 242.2 231.88 242.29 232.7 242.39 233.51 242.48 234.32 242.48 235.03 242.58 235.84 242.68 236.66 242.68 237.47 242.68 238.28 242.77 239.09 242.77 239.8 242.77 240.61 242.77 241.43 242.87 242.24 242.87 243.05 242.77 243.86 242.77 244.68 242.77 245.39 242.77 246.2 242.68 247.01 242.68 247.82 242.68 248.63 242.58 249.45 242.48 250.26 242.48 250.97 242.39 251.78 242.29 252.59 242.2 253.4 242.2 254.22 242.1 255.03 242 255.74 241.81 256.55 241.71 257.36 241.62 258.18 241.52 258.89 241.43 259.7" stroke="#000000" stroke-width="1.5" stroke-linecap="round" stroke-linejoin="round" fill="none"/><path d="M230.17 258.07 230.26 257.36 230.36 256.55 230.55 255.74 230.65 255.03 230.74 254.22 230.84 253.4 230.94 252.59 231.03 251.88 231.03 251.07 231.13 250.26 231.23 249.45 231.23 248.63 231.32 247.82 231.32 247.11 231.42 246.3 231.42 245.49 231.42 244.68 231.42 243.86 231.42 243.05 231.51 242.34 231.42 241.53 231.42 240.72 231.42 239.9 231.42 239.09 231.42 238.28 231.32 237.47 231.32 236.76 231.23 235.95 231.23 235.13 231.13 234.32 231.03 233.51 231.03 232.8 230.94 231.99 230.84 231.17 230.74 230.36 230.65 229.65 230.55 228.84 230.46 228.03 230.26 227.22 230.17 226.51 230.07 225.69 229.88 224.88 229.78 224.17 229.59 223.36 229.49 222.55 229.3 221.84 229.11 221.02 229.01 220.31 228.82 219.5 228.63 218.69 228.43 217.98 228.24 217.17 228.05 216.46 227.86 215.64 227.47 214.12 227.09 212.6 226.61 211.08 226.22 209.55 225.74 208.03 225.26 206.61 224.78 205.09 223.91 202.04 222.95 199 222.47 197.47 221.99 196.05 221.6 194.53 221.12 193.01 220.74 191.48 220.25 189.96 220.06 189.15 219.87 188.44 219.68 187.63 219.48 186.92 219.29 186.1 219.1 185.29 218.91 184.58 218.72 183.77 218.62 183.06 218.43 182.25 218.33 181.44 218.14 180.72 218.04 179.91 217.85 179.1 217.75 178.39 217.66 177.58 217.56 176.77 217.46 175.95 217.37 175.24 217.27 174.43 217.27 173.62 217.18 172.81 217.08 172.1 217.08 171.28 217.08 170.47 217.08 169.66 217.08 168.85 217.08 168.04 217.08 167.33 217.08 166.51 217.18 165.7 217.18 164.89 217.27 164.08 217.37 163.27 217.37 162.55 217.46 161.74 217.56 160.93 217.75 160.12 217.85 159.41 217.95 158.6 218.14 157.78 218.23 157.07 218.43 156.26 218.62 155.45 218.81 154.74 219 153.93 219.2 153.22 219.39 152.4 219.58 151.69 219.77 150.88 220.06 150.17 220.25 149.46 220.54 148.65 220.74 147.94 221.02 147.13 221.31 146.41 221.51 145.7 221.79 144.89 222.37 143.47 222.85 141.95 223.43 140.53 224.59 137.58 225.16 136.16 225.74 134.64 226.32 133.12 226.8 131.7 227.38 130.17 227.66 129.36 227.86 128.65 228.15 127.84 228.43 127.13 228.63 126.42 228.92 125.61 229.11 124.89 229.3 124.08 229.59 123.27 229.78 122.56 229.97 121.75 230.17 121.04 230.36 120.23 230.55 119.52 230.74 118.7 230.94 117.89 231.13 117.18 231.23 116.37 231.42 115.56 231.51 114.85 231.71 114.03 231.8 113.22 231.9 112.51 232 111.7 232.09 110.89 232.19 110.07 232.28 109.36 232.38 108.55 232.38 107.74 232.48 106.93 232.48 106.22 232.48 105.41 232.48 104.59 232.48 103.78 232.48 102.97 232.48 102.26 232.38 101.45 232.38 100.63 232.28 99.82 232.28 99.11 232.19 98.3 232.09 97.49 232.09 96.68 232 95.86 231.9 95.15 231.8 94.34 231.71 93.53 231.61 92.82 231.51 92.01 231.42 91.19 231.23 90.38 231.13 89.67 230.84 88.05 230.65 86.52 230.36 84.9 230.07 83.38 229.69 81.86 229.4 80.23 229.11 78.71 228.43 75.66 228.15 74.04 227.86 72.52 227.57 70.99 227.28 69.37 226.99 67.85 226.7 66.22 226.41 64.7 226.12 63.18 225.93 61.55 225.64 60.03" stroke="#000000" stroke-width="1.5" stroke-linecap="round" stroke-linejoin="round" fill="none"/><path d="M228.43 288.32 228.43 287.92 228.43 287.51 228.43 287.21 228.43 286.8 228.43 286.4 228.43 285.99 228.43 285.58 228.43 285.18 228.43 284.77 228.43 284.36 228.43 283.96 228.43 283.55 228.43 283.15 228.53 282.74 228.53 282.33 228.53 281.93 228.53 281.42 228.53 281.02 228.53 280.61 228.53 280.2 228.63 279.7 228.63 279.29 228.63 278.78 228.63 278.38 228.72 277.87 228.72 277.46 228.72 276.95 228.72 276.55 228.82 276.04 228.82 275.64 228.82 275.13 228.82 274.62 228.92 274.21 228.92 273.71 228.92 273.2 229.01 272.69 229.01 272.29 229.01 271.78 229.11 271.27 229.11 270.76 229.11 270.26 229.2 269.75 229.2 269.24 229.3 268.73 229.3 268.23 229.3 267.72 229.4 267.21 229.4 266.7 229.49 266.19 229.49 265.69 229.59 264.57 229.69 263.56 229.78 262.44 229.88 261.42 229.97 260.31 230.07 259.19 230.17 258.07" stroke="#000000" stroke-width="1.5" stroke-linecap="round" stroke-linejoin="round" fill="none"/><line x1="228.43" y1="290.05" x2="228.43" y2="289.95" stroke="#000000" stroke-width="1.5" stroke-linecap="round" stroke-linejoin="round" fill="none"/><path d="M230.17 258.07 230.26 257.26 230.46 256.45 230.55 255.74 230.65 254.93 230.74 254.12 230.84 253.3 230.94 252.49 231.03 251.68 231.13 250.87 231.13 250.06 231.23 249.24 231.32 248.43 231.32 247.72 231.42 246.91 231.42 246.1 231.42 245.28 231.51 244.47 231.51 243.66 231.51 242.95 231.51 242.14 231.51 241.33 231.51 240.51 231.51 239.7 231.42 238.99 231.42 238.18 231.42 237.37 231.32 236.55 231.32 235.84 231.23 235.03 231.13 234.22 231.13 233.41 231.03 232.7 230.94 231.88 230.84 231.07 230.74 230.26 230.65 229.55 230.55 228.74 230.46 227.93 230.26 227.22 230.17 226.4 230.07 225.59 229.88 224.78 229.78 224.07 229.59 223.26 229.4 222.44 229.3 221.63 229.11 220.92 228.92 220.11 228.72 219.3 228.63 218.49 228.43 217.78 228.24 216.96 228.05 216.15 227.76 215.44 227.57 214.63 227.38 213.82 227.18 213 226.99 212.19 226.51 210.67 226.03 209.05 225.55 207.52 225.07 205.9 224.59 204.27 224.1 202.75 223.62 201.13 222.66 197.88 222.08 196.36 221.6 194.73 221.12 193.11 220.74 191.48 220.45 190.67 220.25 189.86 220.06 189.05 219.77 188.24 219.58 187.42 219.39 186.61 219.2 185.8 219 184.99 218.81 184.07 218.62 183.26 218.52 182.45 218.33 181.64 218.14 180.83 218.04 180.01 217.85 179.2 217.75 178.29 217.66 177.48 217.56 176.66 217.46 175.85 217.37 175.04 217.27 174.13 217.18 173.31 217.18 172.5 217.08 171.69 217.08 170.88 217.08 169.96 217.08 169.15 217.08 168.34 217.08 167.53 217.08 166.61 217.08 165.8 217.18 164.99 217.27 164.18 217.27 163.37 217.37 162.45 217.46 161.64 217.56 160.83 217.75 160.02 217.85 159.2 218.04 158.39 218.14 157.58 218.33 156.77 218.52 155.96 218.72 155.14 218.91 154.33 219.1 153.52 219.29 152.81 219.48 152 219.77 151.19 219.97 150.37 220.16 149.66 220.45 148.85 220.74 148.04 220.93 147.33 221.22 146.52 221.51 145.7 221.79 144.99 222.08 144.18 222.37 143.47 222.66 142.76 223.24 141.24 223.82 139.72 224.39 138.19 224.97 136.77 225.55 135.35 226.12 133.83 226.61 132.41 226.89 131.7 227.18 130.99 227.47 130.27 227.76 129.56 227.95 128.75 228.24 128.04 228.43 127.33 228.72 126.62 228.92 125.91 229.2 125.2 229.4 124.49 229.59 123.78 229.78 123.07 230.07 122.36 230.26 121.65 230.36 120.94 230.55 120.23 230.74 119.52 230.94 118.8 231.03 118.09 231.23 117.38 231.32 116.67 231.51 115.96 231.61 115.25 231.71 114.54 231.8 113.83 231.9 113.12 232 112.41 232.09 111.7 232.19 110.99 232.28 110.28 232.28 109.57 232.38 108.86 232.38 108.04 232.38 107.33 232.48 106.62 232.48 105.91 232.48 105.2 232.48 104.39 232.48 103.68 232.48 102.97 232.48 102.16 232.38 101.45 232.38 100.74 232.28 99.92 232.28 99.21 232.19 98.5 232.19 97.69 232.09 96.98 232 96.17 231.9 95.46 231.8 94.65 231.71 93.93 231.61 93.12 231.51 92.41 231.42 91.6 231.32 90.89 231.23 90.08 231.03 89.37 230.94 88.55 230.65 87.03 230.46 85.51 230.17 83.99 229.88 82.36 229.49 80.84 229.2 79.32 228.92 77.8 228.63 76.27 228.34 74.75 228.05 73.23 227.66 71.7 227.38 70.18 227.09 68.76 226.89 67.24 226.61 65.82 226.32 64.29 226.22 63.58 226.12 62.87 226.03 62.16 225.84 61.45 225.74 60.74 225.64 60.03" stroke="#000000" stroke-width="1.5" stroke-linecap="round" stroke-linejoin="round" fill="none"/><path d="M230.17 258.07 230.26 258.18 230.46 258.18 230.94 258.18 231.51 258.28 232.19 258.38 232.96 258.48 233.82 258.68 234.79 258.78 235.75 258.89 236.9 259.09 237.96 259.19 238.92 259.39 239.69 259.5 240.46 259.6 240.94 259.7 241.23 259.7 241.43 259.7" stroke="#000000" stroke-width="1.5" stroke-linecap="round" stroke-linejoin="round" fill="none"/><path d="M207.84 58.2 207.84 58.31 207.84 58.41 207.84 58.51 207.84 58.61 207.84 58.71 207.94 58.81 207.94 58.91 207.94 59.02 208.03 59.02 208.03 59.12 208.13 59.22 208.13 59.32 208.23 59.32 208.23 59.42 208.32 59.52 208.42 59.62 208.51 59.62 208.51 59.73 208.61 59.73 208.71 59.83 208.8 59.83 208.9 59.83 208.9 59.93 209 59.93 209.09 59.93 209.19 59.93 209.28 59.93 209.28 60.03 209.38 60.03 209.48 60.03" stroke="#000000" stroke-width="1.5" stroke-linecap="round" stroke-linejoin="round" fill="none"/><path d="M253.74 51.5 253.74 58.2 253.74 58.31 253.74 58.41 253.74 58.51 253.65 58.61 253.65 58.71 253.65 58.81 253.55 58.91 253.55 59.02 253.45 59.12 253.45 59.22 253.36 59.32 253.26 59.42 253.26 59.52 253.17 59.52 253.07 59.62 252.97 59.73 252.88 59.73 252.88 59.83 252.78 59.83 252.68 59.83 252.59 59.93 252.49 59.93 252.4 59.93 252.3 59.93 252.2 60.03 252.11 60.03 252.01 60.03" stroke="#000000" stroke-width="1.5" stroke-linecap="round" stroke-linejoin="round" fill="none"/><line x1="207.84" y1="58.2" x2="207.84" y2="51.5" stroke="#000000" stroke-width="1.5" stroke-linecap="round" stroke-linejoin="round" fill="none"/></g><g><g><path d="M236.05 39.32 281.15 39.32 294.79 64.65" stroke="#000000" stroke-linecap="round" stroke-linejoin="round" fill="none"/><path d="M236.24 43.08C234.16 43.08 232.48 41.4 232.48 39.32 232.48 37.24 234.16 35.56 236.24 35.56 238.32 35.56 240 37.24 240 39.32 240 41.4 238.32 43.08 236.24 43.08Z" stroke-width="0"/></g><circle cx="298.49" cy="82.35" r="32.76" stroke-width="0"/><text fill="#FFFFFF" font-family="HarmonyOS_Sans_SC_Light,HarmonyOS Sans SC" font-size="46.77" transform="translate(285.78 99.75)"><tspan x="0" y="0">2</tspan></text></g><g><path d="M34.84 22.27 83.51 22.27 97.15 47.6" stroke="#FFFFFF" stroke-width="2" stroke-linecap="round" stroke-linejoin="round" fill="none"/><g><path d="M38.41 22.27 83.51 22.27 97.15 47.6" stroke="#000000" stroke-linecap="round" stroke-linejoin="round" fill="none"/><path d="M38.6 26.03C36.52 26.03 34.84 24.35 34.84 22.27 34.84 20.19 36.52 18.51 38.6 18.51 40.68 18.51 42.36 20.19 42.36 22.27 42.36 24.35 40.68 26.03 38.6 26.03Z" stroke-width="0"/></g><circle cx="113.8" cy="71.96" r="31.46" stroke-width="0"/><text fill="#FFFFFF" font-family="HarmonyOS_Sans_SC_Light,HarmonyOS Sans SC" font-size="44.92" transform="translate(101.05 88.54)"><tspan x="0" y="0">1</tspan></text></g><g><circle cx="128.27" cy="262.47" r="31.46" stroke-width="0"/><text fill="#FFFFFF" font-family="HarmonyOS_Sans_SC_Light,HarmonyOS Sans SC" font-size="44.92" transform="translate(115.52 279.05)"><tspan x="0" y="0">3</tspan></text><g><path d="M33.77 315.39 90.85 315.39 112.35 289.61" stroke="#000000" stroke-miterlimit="10" fill="none"/><path d="M33.96 319.15C31.88 319.15 30.2 317.47 30.2 315.39 30.2 313.31 31.88 311.63 33.96 311.63 36.04 311.63 37.72 313.31 37.72 315.39 37.72 317.47 36.04 319.15 33.96 319.15Z" stroke-width="0"/></g><g><path d="M222.86 315.39 170.62 315.39 137.85 284.57" stroke="#000000" stroke-miterlimit="10" fill="none"/><path d="M222.67 311.63C224.75 311.63 226.43 313.31 226.43 315.39 226.43 317.47 224.75 319.15 222.67 319.15 220.59 319.15 218.91 317.47 218.91 315.39 218.91 313.31 220.59 311.63 222.67 311.63Z" stroke-width="0"/></g></g></svg>