<svg viewBox="0 0 87.53 107.44" xmlns="http://www.w3.org/2000/svg" xmlns:xlink="http://www.w3.org/1999/xlink" id="_图层_1" overflow="hidden"><defs><clipPath id="clippath"><rect x="0" y="36.97" width="87.53" height="70.47" stroke-width="0" fill="none"/></clipPath></defs><g clip-path="url(#clippath)"><g><path d="M67.76 90.26C65.32 92.49 62.51 94.73 59.78 96.59 59.15 97.02 58.43 97.5 57.77 97.9 57.04 98.34 56.3 98.75 55.52 99.11 54.79 99.44 54.05 99.72 53.27 99.93 52.86 100.04 52.45 100.13 52.04 100.21 51.62 100.28 51.19 100.34 50.77 100.37 50.34 100.4 49.91 100.42 49.49 100.41 49.07 100.41 48.65 100.38 48.23 100.34 47.43 100.26 46.64 100.13 45.86 99.95 45.04 99.76 44.23 99.53 43.43 99.28 42.68 99.04 41.87 98.77 41.13 98.5 40.74 98.36 40.34 98.22 39.95 98.07 39.56 97.92 39.17 97.78 38.79 97.63 38.03 97.33 37.27 97.03 36.52 96.71 35 96.07 33.5 95.38 32.02 94.65" stroke="#231815" stroke-width="0.55" stroke-linecap="round" stroke-linejoin="round" fill="none"/><line x1="19.59" y1="85.32" x2="19.59" y2="85.33" stroke="#231815" stroke-width="0.55" stroke-linecap="round" stroke-linejoin="round" fill="none"/><path d="M75.92 79.6C75.92 79.6 75.92 79.6 75.92 79.6" stroke="#231815" stroke-width="0.55" stroke-linecap="round" stroke-linejoin="round" fill="none"/><path d="M33.75 96.47C33.21 96.2 32.83 95.76 32.55 95.24" stroke="#231815" stroke-width="0.55" stroke-linecap="round" stroke-linejoin="round" fill="none"/><path d="M41.65 67.22 41.65 67.22" stroke="#231815" stroke-width="0.55" stroke-linecap="round" stroke-linejoin="round" fill="none"/><path d="M41.65 67.22C41.62 67.1 41.6 66.98 41.59 66.85" stroke="#231815" stroke-width="0.55" stroke-linecap="round" stroke-linejoin="round" fill="none"/><path d="M48.46 67.52C48.48 67.6 48.49 67.7 48.49 67.78" stroke="#231815" stroke-width="0.55" stroke-linecap="round" stroke-linejoin="round" fill="none"/><path d="M53.28 63.65C53.33 63.8 53.36 63.95 53.38 64.11" stroke="#231815" stroke-width="0.55" stroke-linecap="round" stroke-linejoin="round" fill="none"/><path d="M41.6 65.29C41.6 65.21 41.66 65.13 41.72 65.09" stroke="#231815" stroke-width="0.55" stroke-linecap="round" stroke-linejoin="round" fill="none"/><path d="M43.88 58.2C43.88 58.2 43.82 58.23 43.8 58.26 43.78 58.28 43.77 58.32 43.77 58.35" stroke="#231815" stroke-width="0.55" stroke-linecap="round" stroke-linejoin="round" fill="none"/><path d="M41.65 67.26C41.65 67.26 41.65 67.23 41.65 67.22" stroke="#231815" stroke-width="0.55" stroke-linecap="round" stroke-linejoin="round" fill="none"/><path d="M53.27 63.61C53.27 63.61 53.27 63.64 53.27 63.65" stroke="#231815" stroke-width="0.55" stroke-linecap="round" stroke-linejoin="round" fill="none"/><line x1="43.74" y1="58.15" x2="43.74" y2="58.16" stroke="#231815" stroke-width="0.55" stroke-linecap="round" stroke-linejoin="round" fill="none"/><path d="M50.42 57.64C50.42 57.58 50.4 57.52 50.38 57.46" stroke="#231815" stroke-width="0.55" stroke-linecap="round" stroke-linejoin="round" fill="none"/><line x1="50.42" y1="57.64" x2="50.42" y2="57.64" stroke="#231815" stroke-width="0.55" stroke-linecap="round" stroke-linejoin="round" fill="none"/><path d="M43.74 58.16C43.74 58.23 43.75 58.29 43.77 58.35" stroke="#231815" stroke-width="0.55" stroke-linecap="round" stroke-linejoin="round" fill="none"/><path d="M41.67 67.3C41.67 67.3 41.66 67.27 41.65 67.25" stroke="#231815" stroke-width="0.55" stroke-linecap="round" stroke-linejoin="round" fill="none"/><line x1="53.54" y1="66.12" x2="53.54" y2="66.12" stroke="#231815" stroke-width="0.55" stroke-linecap="round" stroke-linejoin="round" fill="none"/><path d="M50.37 57.43C50.37 57.43 50.37 57.45 50.37 57.46" stroke="#231815" stroke-width="0.55" stroke-linecap="round" stroke-linejoin="round" fill="none"/><path d="M41.65 67.21C41.61 67.06 41.59 66.92 41.59 66.76" stroke="#231815" stroke-width="0.55" stroke-linecap="round" stroke-linejoin="round" fill="none"/><path d="M53.14 63.49C53.2 63.51 53.25 63.55 53.27 63.61" stroke="#231815" stroke-width="0.55" stroke-linecap="round" stroke-linejoin="round" fill="none"/><path d="M51.25 61.71C51.65 61.89 52.04 62.12 52.38 62.42 52.71 62.71 53 63.07 53.14 63.5" stroke="#231815" stroke-width="0.55" stroke-linecap="round" stroke-linejoin="round" fill="none"/><path d="M50.25 57.35C50.3 57.35 50.35 57.39 50.37 57.44" stroke="#231815" stroke-width="0.55" stroke-linecap="round" stroke-linejoin="round" fill="none"/><path d="M48.45 72.66C48.45 72.78 48.44 72.89 48.4 73 48.35 73.13 48.28 73.25 48.19 73.36 48.12 73.44 48.04 73.52 47.96 73.59 47.85 73.68 47.72 73.76 47.6 73.82 47.51 73.87 47.41 73.91 47.32 73.94 47.18 73.99 47.03 74.03 46.89 74.06 46.81 74.07 46.73 74.09 46.65 74.1 46.59 74.1 46.53 74.11 46.47 74.11 46.36 74.11 46.25 74.11 46.13 74.11 46.06 74.11 46 74.11 45.93 74.09 45.89 74.09 45.85 74.08 45.81 74.07 45.75 74.07 45.69 74.05 45.63 74.04 45.55 74.02 45.47 74 45.39 73.98 45.25 73.94 45.11 73.88 44.98 73.82 44.88 73.77 44.79 73.72 44.71 73.67 44.49 73.53 44.31 73.37 44.15 73.16 44.06 73.05 44 72.93 43.95 72.8 43.91 72.69 43.88 72.58 43.88 72.47" stroke="#231815" stroke-width="0.55" stroke-linecap="round" stroke-linejoin="round" fill="none"/><path d="M51.1 70.78C51.15 71.15 51.2 71.52 51.25 71.89" stroke="#231815" stroke-width="0.55" stroke-linecap="round" stroke-linejoin="round" fill="none"/><path d="M39.98 69C39.98 68.64 40 68.28 40.01 67.91" stroke="#231815" stroke-width="0.55" stroke-linecap="round" stroke-linejoin="round" fill="none"/><path d="M41.58 70.33C41.58 70.7 41.56 71.07 41.55 71.43" stroke="#231815" stroke-width="0.55" stroke-linecap="round" stroke-linejoin="round" fill="none"/><path d="M43.85 72.44C43.83 72.06 43.82 71.68 43.8 71.3" stroke="#231815" stroke-width="0.55" stroke-linecap="round" stroke-linejoin="round" fill="none"/><path d="M48.39 71.52C48.41 71.9 48.43 72.28 48.45 72.66" stroke="#231815" stroke-width="0.55" stroke-linecap="round" stroke-linejoin="round" fill="none"/><path d="M40.67 65.88C40.67 65.88 40.67 65.88 40.67 65.88" stroke="#231815" stroke-width="0.55" stroke-linecap="round" stroke-linejoin="round" fill="none"/><path d="M41.16 67.93C41.16 67.93 41.16 67.93 41.16 67.93" stroke="#231815" stroke-width="0.55" stroke-linecap="round" stroke-linejoin="round" fill="none"/><path d="M54.33 66.9C54.4 67.49 54.24 68.05 53.94 68.55" stroke="#231815" stroke-width="0.55" stroke-linecap="round" stroke-linejoin="round" fill="none"/><path d="M40.01 67.91C40.01 67.82 40.03 67.73 40.09 67.66 40.14 67.6 40.2 67.58 40.28 67.57 40.43 67.56 40.6 67.65 40.72 67.73 40.85 67.82 40.96 67.94 41.06 68.06 41.16 68.18 41.25 68.32 41.32 68.46 41.47 68.76 41.53 69.05 41.56 69.38 41.59 69.68 41.58 70.03 41.58 70.33" stroke="#231815" stroke-width="0.55" stroke-linecap="round" stroke-linejoin="round" fill="none"/><path d="M43.81 71.3C43.81 71.19 43.84 71.09 43.9 71 43.96 70.9 44.06 70.81 44.15 70.74 44.34 70.61 44.56 70.53 44.77 70.48 44.99 70.43 45.22 70.4 45.45 70.39 45.68 70.38 45.91 70.38 46.13 70.39 46.36 70.39 46.58 70.42 46.81 70.45 47.04 70.48 47.26 70.53 47.47 70.61 47.68 70.69 47.89 70.79 48.06 70.94 48.15 71.02 48.23 71.11 48.29 71.21 48.34 71.3 48.38 71.41 48.39 71.51" stroke="#231815" stroke-width="0.55" stroke-linecap="round" stroke-linejoin="round" fill="none"/><path d="M53.93 68.56C53.98 68.93 54.03 69.29 54.08 69.66" stroke="#231815" stroke-width="0.55" stroke-linecap="round" stroke-linejoin="round" fill="none"/><path d="M40.67 65.87C40.78 65.72 40.93 65.58 41.07 65.47 41.22 65.35 41.38 65.25 41.54 65.14" stroke="#231815" stroke-width="0.55" stroke-linecap="round" stroke-linejoin="round" fill="none"/><path d="M43.19 69.69C43.19 69.69 43.15 69.69 43.14 69.7" stroke="#231815" stroke-width="0.55" stroke-linecap="round" stroke-linejoin="round" fill="none"/><path d="M41.6 65.29C41.56 65.14 41.53 64.99 41.53 64.83" stroke="#231815" stroke-width="0.55" stroke-linecap="round" stroke-linejoin="round" fill="none"/><path d="M44.57 0.87C44.57 0.87 44.63 0.78 44.63 0.72" stroke="#231815" stroke-width="0.55" stroke-linecap="round" stroke-linejoin="round" fill="none"/><path d="M47.52 5.77C47.52 5.77 47.59 5.86 47.59 5.92" stroke="#231815" stroke-width="0.55" stroke-linecap="round" stroke-linejoin="round" fill="none"/><line x1="46.33" y1="4.62" x2="47.52" y2="5.77" stroke="#231815" stroke-width="0.55" stroke-linecap="round" stroke-linejoin="round" fill="none"/><line x1="46.23" y1="4.56" x2="46.33" y2="4.62" stroke="#231815" stroke-width="0.55" stroke-linecap="round" stroke-linejoin="round" fill="none"/><path d="M40.38 10.48C40.38 10.54 40.4 10.61 40.44 10.65" stroke="#231815" stroke-width="0.55" stroke-linecap="round" stroke-linejoin="round" fill="none"/><path d="M40.38 10.48C40.32 10.43 40.26 10.35 40.25 10.27" stroke="#231815" stroke-width="0.55" stroke-linecap="round" stroke-linejoin="round" fill="none"/><path d="M39.94 4.25C39.94 4.25 39.82 4.2 39.82 4.14" stroke="#231815" stroke-width="0.55" stroke-linecap="round" stroke-linejoin="round" fill="none"/><path d="M41.95 11.86C41.39 11.43 40.87 10.97 40.37 10.48" stroke="#231815" stroke-width="0.55" stroke-linecap="round" stroke-linejoin="round" fill="none"/><path d="M42.16 3.58C42.16 3.58 42.15 3.58 42.14 3.58" stroke="#231815" stroke-width="0.55" stroke-linecap="round" stroke-linejoin="round" fill="none"/><path d="M43.01 1.08C43.35 1.18 43.81 1.16 44.15 1.08" stroke="#231815" stroke-width="0.55" stroke-linecap="round" stroke-linejoin="round" fill="none"/><path d="M44.25 5.27C44.72 5.22 45.28 5.11 45.7 4.89" stroke="#231815" stroke-width="0.55" stroke-linecap="round" stroke-linejoin="round" fill="none"/><path d="M40.96 3.58C40.76 3.6 40.54 3.64 40.36 3.71 40.27 3.74 40.16 3.78 40.08 3.83 40.05 3.85 40.03 3.86 40.01 3.88 39.99 3.89 39.98 3.91 39.97 3.93 39.95 3.99 40.02 4.02 40.06 4.03" stroke="#231815" stroke-width="0.55" stroke-linecap="round" stroke-linejoin="round" fill="none"/><line x1="44.09" y1="5.29" x2="44.67" y2="5.35" stroke="#231815" stroke-width="0.55" stroke-linecap="round" stroke-linejoin="round" fill="none"/><line x1="43.49" y1="5.48" x2="44.59" y2="5.59" stroke="#231815" stroke-width="0.55" stroke-linecap="round" stroke-linejoin="round" fill="none"/><path d="M46.87 6.01C47.08 6.07 47.35 6.1 47.56 6.04 47.66 6.02 47.79 5.96 47.85 5.86 47.91 5.74 47.85 5.63 47.76 5.55" stroke="#231815" stroke-width="0.55" stroke-linecap="round" stroke-linejoin="round" fill="none"/><line x1="40.06" y1="4.03" x2="41.18" y2="4.34" stroke="#231815" stroke-width="0.55" stroke-linecap="round" stroke-linejoin="round" fill="none"/><line x1="41.64" y1="4.93" x2="41.05" y2="4.56" stroke="#231815" stroke-width="0.55" stroke-linecap="round" stroke-linejoin="round" fill="none"/><line x1="39.94" y1="4.25" x2="41.05" y2="4.56" stroke="#231815" stroke-width="0.55" stroke-linecap="round" stroke-linejoin="round" fill="none"/><line x1="41.19" y1="4.33" x2="41.5" y2="4.53" stroke="#231815" stroke-width="0.55" stroke-linecap="round" stroke-linejoin="round" fill="none"/><line x1="46.79" y1="6.25" x2="44.59" y2="5.59" stroke="#231815" stroke-width="0.55" stroke-linecap="round" stroke-linejoin="round" fill="none"/><line x1="47.14" y1="12.55" x2="46.79" y2="6.25" stroke="#231815" stroke-width="0.55" stroke-linecap="round" stroke-linejoin="round" fill="none"/><line x1="44.66" y1="5.35" x2="46.87" y2="6.01" stroke="#231815" stroke-width="0.55" stroke-linecap="round" stroke-linejoin="round" fill="none"/><path d="M42.66 0.81C42.66 0.89 42.74 0.96 42.8 0.99 42.87 1.03 42.95 1.06 43.02 1.08" stroke="#231815" stroke-width="0.55" stroke-linecap="round" stroke-linejoin="round" fill="none"/><path d="M47.87 5.57C47.87 5.57 47.8 5.54 47.76 5.54" stroke="#231815" stroke-width="0.55" stroke-linecap="round" stroke-linejoin="round" fill="none"/><path d="M45.88 54.86C45.76 54.78 45.65 54.65 45.64 54.5" stroke="#231815" stroke-width="0.55" stroke-linecap="round" stroke-linejoin="round" fill="none"/><path d="M45.88 54.86C46.12 55.03 46.46 55.09 46.74 55.09 47.03 55.09 47.35 55.05 47.62 54.93" stroke="#231815" stroke-width="0.55" stroke-linecap="round" stroke-linejoin="round" fill="none"/><path d="M47.63 54.93C47.63 54.93 47.67 54.91 47.69 54.9" stroke="#231815" stroke-width="0.55" stroke-linecap="round" stroke-linejoin="round" fill="none"/><path d="M45.37 13.33C45.37 13.33 45.33 13.35 45.3 13.35" stroke="#231815" stroke-width="0.55" stroke-linecap="round" stroke-linejoin="round" fill="none"/><path d="M43.4 13.3C43.29 13.24 43.15 13.14 43.14 12.99" stroke="#231815" stroke-width="0.55" stroke-linecap="round" stroke-linejoin="round" fill="none"/><path d="M45.86 12.87C45.86 13 45.77 13.1 45.68 13.16 45.59 13.23 45.47 13.29 45.37 13.33" stroke="#231815" stroke-width="0.55" stroke-linecap="round" stroke-linejoin="round" fill="none"/><path d="M47.69 54.9C47.8 54.85 47.91 54.78 47.99 54.69 48.07 54.6 48.14 54.49 48.13 54.36" stroke="#231815" stroke-width="0.55" stroke-linecap="round" stroke-linejoin="round" fill="none"/><path d="M45.31 13.36C45.01 13.46 44.66 13.5 44.35 13.5 44.06 13.5 43.67 13.45 43.4 13.3" stroke="#231815" stroke-width="0.55" stroke-linecap="round" stroke-linejoin="round" fill="none"/><path d="M70.34 64.77C70.34 64.77 70.33 64.75 70.32 64.74" stroke="#231815" stroke-width="0.55" stroke-linecap="round" stroke-linejoin="round" fill="none"/><path d="M69.64 64.21C69.64 64.21 69.61 64.19 69.6 64.19" stroke="#231815" stroke-width="0.55" stroke-linecap="round" stroke-linejoin="round" fill="none"/><path d="M67.89 64.51C67.89 64.51 67.94 64.46 67.97 64.44" stroke="#231815" stroke-width="0.55" stroke-linecap="round" stroke-linejoin="round" fill="none"/><line x1="43.37" y1="12.75" x2="43.4" y2="13.3" stroke="#231815" stroke-width="0.55" stroke-linecap="round" stroke-linejoin="round" fill="none"/><path d="M41.95 11.86C42.05 12.05 42.23 12.18 42.4 12.27 42.58 12.36 42.79 12.43 42.98 12.47 43.38 12.56 43.81 12.58 44.21 12.56" stroke="#231815" stroke-width="0.55" stroke-linecap="round" stroke-linejoin="round" fill="none"/><path d="M47.14 12.55C46.66 12.58 46.17 12.6 45.68 12.6 45.19 12.6 44.71 12.59 44.22 12.56" stroke="#231815" stroke-width="0.55" stroke-linecap="round" stroke-linejoin="round" fill="none"/><path d="M48.23 56.16C48.33 56.17 48.43 56.19 48.53 56.21 48.62 56.23 48.74 56.26 48.83 56.28 49.03 56.34 49.22 56.41 49.4 56.51 49.49 56.56 49.58 56.61 49.66 56.67 49.75 56.73 49.83 56.79 49.9 56.86 49.97 56.93 50.05 57.01 50.11 57.09 50.17 57.17 50.22 57.26 50.25 57.36" stroke="#231815" stroke-width="0.55" stroke-linecap="round" stroke-linejoin="round" fill="none"/><path d="M48.04 5.91C48.04 6.04 47.94 6.13 47.84 6.19 47.74 6.25 47.61 6.28 47.5 6.29 47.27 6.32 47.01 6.3 46.78 6.24" stroke="#231815" stroke-width="0.55" stroke-linecap="round" stroke-linejoin="round" fill="none"/><path d="M51.83 68.87C51.83 68.87 51.79 68.87 51.77 68.85" stroke="#231815" stroke-width="0.55" stroke-linecap="round" stroke-linejoin="round" fill="none"/><path d="M19.59 85.33C19.74 85.99 20.08 86.56 20.5 87.07 20.91 87.57 21.42 88.04 21.92 88.45 22.17 88.66 22.43 88.86 22.7 89.05 22.97 89.25 23.24 89.44 23.51 89.63 23.78 89.82 24.05 90.01 24.32 90.19 24.6 90.38 24.87 90.56 25.15 90.74 27.35 92.18 29.67 93.48 32.03 94.64" stroke="#231815" stroke-width="0.55" stroke-linecap="round" stroke-linejoin="round" fill="none"/><path d="M40.96 3.58C40.96 3.58 40.97 3.58 40.98 3.58" stroke="#231815" stroke-width="0.55" stroke-linecap="round" stroke-linejoin="round" fill="none"/><path d="M38.82 67.63C38.43 67.92 38.04 68.22 37.66 68.54 37.28 68.85 36.91 69.18 36.55 69.51 36.21 69.83 35.82 70.21 35.51 70.54 35.19 70.88 34.84 71.28 34.61 71.7" stroke="#231815" stroke-width="0.55" stroke-linecap="round" stroke-linejoin="round" fill="none"/><path d="M38.82 67.63C39.28 67.29 39.76 66.97 40.24 66.66" stroke="#231815" stroke-width="0.55" stroke-linecap="round" stroke-linejoin="round" fill="none"/><path d="M30.41 68.38C30.37 68.01 30.46 67.64 30.6 67.3 30.75 66.96 30.96 66.65 31.19 66.36 31.42 66.08 31.68 65.8 31.94 65.54 32.2 65.28 32.47 65.03 32.75 64.78 33.02 64.53 33.3 64.29 33.58 64.05 33.86 63.81 34.15 63.58 34.44 63.35 35.02 62.89 35.61 62.45 36.21 62.02" stroke="#231815" stroke-width="0.55" stroke-linecap="round" stroke-linejoin="round" fill="none"/><path d="M50.36 85.28C48.73 85.47 47.08 85.19 45.53 84.8 44.74 84.6 43.96 84.37 43.18 84.12 42.79 84 42.4 83.87 42.01 83.74 41.63 83.62 41.24 83.49 40.86 83.36 37.79 82.31 34.74 81.1 31.8 79.73" stroke="#231815" stroke-width="0.55" stroke-linecap="round" stroke-linejoin="round" fill="none"/><path d="M44.56 53.49C44.92 53.46 45.27 53.44 45.63 53.44" stroke="#231815" stroke-width="0.55" stroke-linecap="round" stroke-linejoin="round" fill="none"/><path d="M29.92 60.66C29.86 60.66 29.79 60.66 29.74 60.7" stroke="#231815" stroke-width="0.55" stroke-linecap="round" stroke-linejoin="round" fill="none"/><path d="M61.02 57.5C61.02 57.5 61.11 57.48 61.16 57.5" stroke="#231815" stroke-width="0.55" stroke-linecap="round" stroke-linejoin="round" fill="none"/><path d="M27.16 62.26C28.06 61.64 28.97 61.05 29.89 60.46 30.81 59.88 31.74 59.31 32.68 58.77" stroke="#231815" stroke-width="0.55" stroke-linecap="round" stroke-linejoin="round" fill="none"/><path d="M18.39 72.81C18.37 72.14 18.63 71.52 18.96 70.97" stroke="#231815" stroke-width="0.55" stroke-linecap="round" stroke-linejoin="round" fill="none"/><path d="M50.6 87.7C49.75 87.8 48.91 87.81 48.05 87.74 47.63 87.71 47.21 87.66 46.8 87.59 46.38 87.52 45.95 87.44 45.53 87.35 45.12 87.26 44.71 87.16 44.3 87.05 43.88 86.94 43.47 86.82 43.06 86.7 42.3 86.47 41.38 86.17 40.63 85.92 37.41 84.83 34.24 83.57 31.16 82.12" stroke="#231815" stroke-width="0.55" stroke-linecap="round" stroke-linejoin="round" fill="none"/><path d="M66.92 78.07C65.71 79.12 64.47 80.12 63.19 81.08 62.55 81.56 61.9 82.03 61.25 82.49 60.92 82.72 60.6 82.94 60.27 83.17 59.94 83.4 59.6 83.62 59.27 83.84 58.94 84.06 58.6 84.28 58.26 84.49 57.92 84.7 57.59 84.92 57.24 85.12 56.56 85.53 55.86 85.93 55.14 86.28 54.78 86.46 54.41 86.62 54.04 86.78 53.67 86.93 53.3 87.07 52.92 87.19 52.54 87.31 52.15 87.42 51.76 87.5 51.37 87.59 50.98 87.65 50.58 87.7" stroke="#231815" stroke-width="0.55" stroke-linecap="round" stroke-linejoin="round" fill="none"/><path d="M15.21 74.67C15.21 74.76 15.21 74.85 15.23 74.93" stroke="#231815" stroke-width="0.55" stroke-linecap="round" stroke-linejoin="round" fill="none"/><path d="M51.1 91.53C50.13 91.65 49.18 91.68 48.2 91.64 47.23 91.6 46.28 91.49 45.32 91.31 44.37 91.14 43.43 90.91 42.5 90.65 42.03 90.52 41.56 90.38 41.09 90.23 40.63 90.09 40.18 89.94 39.73 89.79 39.27 89.64 38.81 89.48 38.35 89.32 37.9 89.16 37.44 89 36.99 88.83 36.53 88.66 36.08 88.49 35.62 88.32 35.17 88.15 34.73 87.97 34.28 87.79 32.49 87.07 30.72 86.29 28.97 85.45" stroke="#231815" stroke-width="0.55" stroke-linecap="round" stroke-linejoin="round" fill="none"/><path d="M13.63 77.25C13.63 77.25 13.63 77.26 13.63 77.27" stroke="#231815" stroke-width="0.55" stroke-linecap="round" stroke-linejoin="round" fill="none"/><path d="M71.14 64.98C71.09 64.8 70.97 64.65 70.85 64.52 70.72 64.39 70.57 64.28 70.41 64.19 70.1 64.01 69.73 63.88 69.39 63.81 69.04 63.73 68.66 63.7 68.3 63.72 67.96 63.74 67.55 63.82 67.25 64.01" stroke="#231815" stroke-width="0.55" stroke-linecap="round" stroke-linejoin="round" fill="none"/><path d="M18.94 71.04 18.94 71.04" stroke="#231815" stroke-width="0.55" stroke-linecap="round" stroke-linejoin="round" fill="none"/><path d="M44.55 53.46C44.55 53.46 44.55 53.46 44.55 53.46 44.55 53.46 44.55 53.46 44.55 53.46 44.55 53.46 44.55 53.47 44.55 53.48" stroke="#231815" stroke-width="0.55" stroke-linecap="round" stroke-linejoin="round" fill="none"/><line x1="74.78" y1="65.6" x2="74.78" y2="65.6" stroke="#231815" stroke-width="0.55" stroke-linecap="round" stroke-linejoin="round" fill="none"/><path d="M27.11 62.28C27.11 62.28 27.14 62.26 27.16 62.26" stroke="#231815" stroke-width="0.55" stroke-linecap="round" stroke-linejoin="round" fill="none"/><path d="M78.76 68.88C78.75 68.52 78.68 68.16 78.57 67.82" stroke="#231815" stroke-width="0.55" stroke-linecap="round" stroke-linejoin="round" fill="none"/><path d="M15.21 74.65C15.21 74.65 15.21 74.66 15.21 74.67" stroke="#231815" stroke-width="0.55" stroke-linecap="round" stroke-linejoin="round" fill="none"/><path d="M18.96 70.97C18.96 70.97 18.96 71.01 18.95 71.04" stroke="#231815" stroke-width="0.55" stroke-linecap="round" stroke-linejoin="round" fill="none"/><line x1="44.55" y1="53.46" x2="44.55" y2="53.46" stroke="#231815" stroke-width="0.55" stroke-linecap="round" stroke-linejoin="round" fill="none"/><path d="M74.78 65.62C75.05 65.94 75.27 66.29 75.4 66.69" stroke="#231815" stroke-width="0.55" stroke-linecap="round" stroke-linejoin="round" fill="none"/><path d="M13.33 76C13.33 76 13.33 76.08 13.35 76.12" stroke="#231815" stroke-width="0.55" stroke-linecap="round" stroke-linejoin="round" fill="none"/><path d="M30.41 68.38C30.45 68.77 30.62 69.14 30.84 69.45 31.07 69.77 31.35 70.04 31.65 70.29 31.94 70.53 32.28 70.76 32.6 70.97 32.76 71.08 32.92 71.18 33.09 71.28 33.26 71.38 33.42 71.48 33.59 71.58 34.95 72.39 36.3 73.07 37.74 73.72" stroke="#231815" stroke-width="0.55" stroke-linecap="round" stroke-linejoin="round" fill="none"/><path d="M48.96 76.55C48.47 76.61 47.99 76.62 47.5 76.61 47.01 76.59 46.53 76.55 46.05 76.47 45.09 76.32 44.14 76.06 43.22 75.77 42.3 75.49 41.35 75.16 40.45 74.83 39.99 74.66 39.54 74.48 39.09 74.3 38.64 74.11 38.19 73.92 37.75 73.73" stroke="#231815" stroke-width="0.55" stroke-linecap="round" stroke-linejoin="round" fill="none"/><path d="M48.96 76.55C49.88 76.45 50.77 76.21 51.63 75.87 52.06 75.7 52.47 75.5 52.88 75.29 53.29 75.08 53.69 74.85 54.08 74.61 54.85 74.15 55.66 73.62 56.4 73.11 56.78 72.85 57.15 72.58 57.52 72.3 57.89 72.02 58.25 71.74 58.61 71.45" stroke="#231815" stroke-width="0.55" stroke-linecap="round" stroke-linejoin="round" fill="none"/><path d="M19.34 71.09C19.33 70.79 19.39 70.49 19.49 70.21 19.6 69.9 19.76 69.6 19.94 69.32 20.27 68.8 20.71 68.3 21.13 67.85 21.56 67.4 22.03 66.95 22.49 66.53 22.96 66.1 23.43 65.68 23.91 65.27 25.82 63.62 27.84 62.09 29.92 60.66" stroke="#231815" stroke-width="0.55" stroke-linecap="round" stroke-linejoin="round" fill="none"/><path d="M70.78 65.83C70.92 65.74 71.04 65.62 71.11 65.46 71.18 65.3 71.19 65.14 71.14 64.97" stroke="#231815" stroke-width="0.55" stroke-linecap="round" stroke-linejoin="round" fill="none"/><path d="M74.31 65.23C74.22 64.94 74.06 64.67 73.87 64.43 73.66 64.16 73.42 63.91 73.16 63.68 72.68 63.26 72.11 62.87 71.58 62.54 71.03 62.2 70.46 61.88 69.89 61.57 69.32 61.26 68.74 60.96 68.16 60.67 65.83 59.49 63.45 58.45 61.02 57.5" stroke="#231815" stroke-width="0.55" stroke-linecap="round" stroke-linejoin="round" fill="none"/><path d="M44.56 53.49C43.88 53.56 43.2 53.69 42.54 53.87 41.88 54.05 41.24 54.29 40.6 54.55 39.97 54.81 39.35 55.11 38.74 55.42 38.13 55.73 37.52 56.05 36.92 56.38 36.32 56.71 35.72 57.04 35.13 57.38 34.54 57.72 33.95 58.07 33.36 58.43 32.19 59.15 31.04 59.89 29.91 60.67" stroke="#231815" stroke-width="0.55" stroke-linecap="round" stroke-linejoin="round" fill="none"/><path d="M54.28 66.72C55.26 67.14 56.19 67.58 57.13 68.09 57.56 68.32 58.08 68.62 58.49 68.89 58.71 69.04 58.92 69.19 59.12 69.37 59.31 69.55 59.49 69.74 59.63 69.97" stroke="#231815" stroke-width="0.55" stroke-linecap="round" stroke-linejoin="round" fill="none"/><path d="M50.46 58.18C51.35 58.42 52.34 58.72 53.21 59.02 53.66 59.17 54.11 59.33 54.56 59.5 55.01 59.66 55.46 59.84 55.9 60.01" stroke="#231815" stroke-width="0.55" stroke-linecap="round" stroke-linejoin="round" fill="none"/><path d="M43.76 57.93C43.06 58.13 42.41 58.4 41.75 58.71 41.43 58.87 41.11 59.03 40.79 59.2 40.47 59.37 40.16 59.55 39.85 59.72 39.54 59.9 39.23 60.08 38.92 60.26 38.61 60.44 38.3 60.63 38 60.83 37.39 61.21 36.8 61.62 36.21 62.03" stroke="#231815" stroke-width="0.55" stroke-linecap="round" stroke-linejoin="round" fill="none"/><path d="M48.13 53.63C48.68 53.72 49.24 53.83 49.78 53.95 50.33 54.08 50.87 54.21 51.41 54.36 52.46 54.64 53.61 54.97 54.65 55.29 56.8 55.95 58.92 56.69 61.01 57.5" stroke="#231815" stroke-width="0.55" stroke-linecap="round" stroke-linejoin="round" fill="none"/><path d="M75.92 79.61C75.87 80.18 75.68 80.73 75.44 81.23 75.2 81.74 74.89 82.23 74.57 82.69 74.41 82.92 74.24 83.15 74.07 83.37 73.9 83.6 73.73 83.82 73.55 84.05 73.38 84.27 73.2 84.49 73.02 84.71 72.84 84.93 72.66 85.15 72.47 85.37 71.01 87.1 69.41 88.73 67.75 90.26" stroke="#231815" stroke-width="0.55" stroke-linecap="round" stroke-linejoin="round" fill="none"/><path d="M22.33 88.87C22.71 89.2 23.1 89.51 23.51 89.81 23.71 89.96 23.91 90.11 24.12 90.25 24.33 90.4 24.53 90.54 24.74 90.68 25.57 91.25 26.41 91.8 27.27 92.32 28.13 92.85 29 93.35 29.88 93.83 30.32 94.07 30.76 94.31 31.21 94.54 31.66 94.77 32.11 95 32.56 95.23" stroke="#231815" stroke-width="0.55" stroke-linecap="round" stroke-linejoin="round" fill="none"/><line x1="48.49" y1="67.78" x2="48.61" y2="69.77" stroke="#231815" stroke-width="0.55" stroke-linecap="round" stroke-linejoin="round" fill="none"/><path d="M48.61 69.77C49.69 69.61 50.83 69.27 51.77 68.7 52.24 68.41 52.7 68.05 53.03 67.6 53.37 67.15 53.58 66.62 53.53 66.03" stroke="#231815" stroke-width="0.55" stroke-linecap="round" stroke-linejoin="round" fill="none"/><path d="M41.65 67.21C41.83 67.87 42.32 68.39 42.85 68.75 43.39 69.12 44.03 69.39 44.66 69.56 45.92 69.91 47.33 69.96 48.62 69.77" stroke="#231815" stroke-width="0.55" stroke-linecap="round" stroke-linejoin="round" fill="none"/><path d="M48.49 67.78C47.84 67.87 47.18 67.9 46.53 67.87 46.2 67.85 45.88 67.82 45.55 67.77 45.23 67.72 44.91 67.66 44.59 67.57 43.97 67.4 43.34 67.15 42.8 66.79 42.69 66.71 42.57 66.63 42.47 66.54 42.4 66.49 42.34 66.43 42.28 66.37 42.25 66.34 42.21 66.31 42.18 66.27 42.14 66.23 42.1 66.18 42.07 66.14 42.01 66.07 41.95 65.99 41.9 65.91 41.86 65.85 41.82 65.78 41.78 65.71 41.7 65.57 41.65 65.43 41.6 65.28" stroke="#231815" stroke-width="0.55" stroke-linecap="round" stroke-linejoin="round" fill="none"/><path d="M47.46 58.77C47.5 59.5 47.56 60.23 47.62 60.97 47.65 61.34 47.68 61.7 47.72 62.07 47.75 62.43 47.79 62.8 47.83 63.17 47.98 64.56 48.19 66.16 48.46 67.53" stroke="#231815" stroke-width="0.55" stroke-linecap="round" stroke-linejoin="round" fill="none"/><path d="M47.43 58.54C47.11 58.58 46.8 58.64 46.49 58.7 46.33 58.73 46.18 58.76 46.02 58.79 45.86 58.81 45.71 58.83 45.55 58.84 45.25 58.86 44.9 58.84 44.6 58.77 44.3 58.7 43.99 58.54 43.89 58.2" stroke="#231815" stroke-width="0.55" stroke-linecap="round" stroke-linejoin="round" fill="none"/><path d="M43.77 58.35C43.82 58.51 43.92 58.65 44.06 58.75 44.19 58.85 44.35 58.92 44.51 58.96 44.82 59.05 45.18 59.07 45.5 59.06 45.67 59.06 45.83 59.04 46 59.02 46.18 59 46.32 58.97 46.49 58.94 46.68 58.9 46.78 58.88 46.98 58.84 47.14 58.81 47.31 58.79 47.47 58.77" stroke="#231815" stroke-width="0.55" stroke-linecap="round" stroke-linejoin="round" fill="none"/><path d="M43.88 58.2C43.81 57.96 43.88 57.72 43.99 57.51 44.1 57.3 44.28 57.12 44.46 56.97 44.64 56.82 44.86 56.7 45.07 56.6 45.18 56.55 45.29 56.51 45.41 56.47 45.53 56.44 45.64 56.41 45.76 56.38" stroke="#231815" stroke-width="0.55" stroke-linecap="round" stroke-linejoin="round" fill="none"/><path d="M50.25 57.35C50.29 57.49 50.31 57.63 50.25 57.77 50.19 57.9 50.08 58.01 49.96 58.08 49.73 58.23 49.41 58.31 49.15 58.36 49.01 58.39 48.87 58.41 48.72 58.42 48.58 58.44 48.43 58.44 48.29 58.45 48 58.47 47.72 58.5 47.43 58.54" stroke="#231815" stroke-width="0.55" stroke-linecap="round" stroke-linejoin="round" fill="none"/><path d="M47.46 58.77C47.74 58.73 48.02 58.7 48.31 58.68 48.47 58.67 48.58 58.66 48.74 58.65 48.88 58.63 49.02 58.61 49.16 58.58 49.43 58.53 49.73 58.44 49.97 58.31 50.09 58.24 50.21 58.15 50.3 58.04 50.39 57.92 50.43 57.79 50.42 57.64" stroke="#231815" stroke-width="0.55" stroke-linecap="round" stroke-linejoin="round" fill="none"/><path d="M47.27 58.05C46.98 58.09 46.65 58.08 46.37 58 46.23 57.96 46.08 57.89 45.98 57.79 45.87 57.68 45.82 57.53 45.86 57.37" stroke="#231815" stroke-width="0.55" stroke-linecap="round" stroke-linejoin="round" fill="none"/><path d="M48.24 57.24C48.29 57.36 48.29 57.48 48.22 57.59 48.16 57.69 48.06 57.78 47.96 57.83 47.76 57.95 47.5 58.02 47.27 58.05" stroke="#231815" stroke-width="0.55" stroke-linecap="round" stroke-linejoin="round" fill="none"/><path d="M53.14 63.49C52.58 63.31 52.12 62.99 51.75 62.54 51.39 62.1 51.14 61.57 50.96 61.04" stroke="#231815" stroke-width="0.55" stroke-linecap="round" stroke-linejoin="round" fill="none"/><path d="M41.72 65.09C42.25 64.76 42.67 64.31 42.99 63.77 43.3 63.24 43.5 62.64 43.62 62.04 43.68 61.74 43.72 61.43 43.75 61.13 43.78 60.82 43.8 60.51 43.81 60.21 43.83 59.59 43.81 58.98 43.78 58.36" stroke="#231815" stroke-width="0.55" stroke-linecap="round" stroke-linejoin="round" fill="none"/><path d="M53.37 64.12C53.42 64.69 53.2 65.22 52.87 65.66 52.54 66.1 52.08 66.46 51.62 66.74 51.38 66.88 51.14 67.01 50.88 67.12 50.63 67.23 50.37 67.33 50.11 67.42 49.59 67.59 49.04 67.71 48.49 67.79" stroke="#231815" stroke-width="0.55" stroke-linecap="round" stroke-linejoin="round" fill="none"/><path d="M53.54 66.12C53.55 66.4 53.5 66.68 53.41 66.94 53.29 67.25 53.11 67.53 52.9 67.78 52.71 68 52.5 68.19 52.27 68.37 52.01 68.57 51.74 68.74 51.46 68.89 50.4 69.45 49.14 69.76 47.96 69.85 46.77 69.94 45.49 69.85 44.35 69.47 43.78 69.29 43.21 69.02 42.72 68.66 42.45 68.46 42.21 68.23 42.01 67.96 41.85 67.74 41.72 67.49 41.65 67.22" stroke="#231815" stroke-width="0.55" stroke-linecap="round" stroke-linejoin="round" fill="none"/><line x1="53.13" y1="72.18" x2="53.37" y2="73.97" stroke="#231815" stroke-width="0.55" stroke-linecap="round" stroke-linejoin="round" fill="none"/><path d="M43.14 69.7C42.72 69.52 42.31 69.29 41.95 69 41.59 68.71 41.28 68.36 41.08 67.94 40.88 67.51 40.82 67.05 40.92 66.59 41.02 66.13 41.25 65.72 41.55 65.37" stroke="#231815" stroke-width="0.55" stroke-linecap="round" stroke-linejoin="round" fill="none"/><path d="M51.77 68.85C51.77 68.85 51.87 68.77 51.91 68.73" stroke="#231815" stroke-width="0.55" stroke-linecap="round" stroke-linejoin="round" fill="none"/><path d="M50.47 69.61C50.93 69.41 51.38 69.16 51.77 68.85" stroke="#231815" stroke-width="0.55" stroke-linecap="round" stroke-linejoin="round" fill="none"/><path d="M52.98 67.76C52.5 68.5 51.7 69.06 50.93 69.43 50.13 69.82 49.25 70.07 48.38 70.21 47.51 70.35 46.6 70.39 45.71 70.31 44.84 70.23 43.93 70.04 43.12 69.69" stroke="#231815" stroke-width="0.55" stroke-linecap="round" stroke-linejoin="round" fill="none"/><path d="M54.33 66.9C54.29 66.67 54.14 66.43 54 66.26 53.85 66.07 53.68 65.89 53.51 65.72" stroke="#231815" stroke-width="0.55" stroke-linecap="round" stroke-linejoin="round" fill="none"/><path d="M51.1 70.78C51.08 70.6 51.1 70.39 51.13 70.22 51.17 70.03 51.23 69.86 51.31 69.69 51.48 69.34 51.74 69.07 52.03 68.83 52.3 68.61 52.66 68.38 53 68.26 53.17 68.2 53.37 68.16 53.56 68.2 53.75 68.24 53.91 68.36 53.94 68.57" stroke="#231815" stroke-width="0.55" stroke-linecap="round" stroke-linejoin="round" fill="none"/><path d="M54.08 69.65C54.11 69.87 54.1 70.13 54.08 70.35 54.05 70.59 54 70.81 53.92 71.03 53.76 71.47 53.5 71.88 53.13 72.17" stroke="#231815" stroke-width="0.55" stroke-linecap="round" stroke-linejoin="round" fill="none"/><path d="M51.24 71.89C51.27 72.09 51.36 72.26 51.52 72.38 51.68 72.5 51.87 72.55 52.06 72.56 52.45 72.57 52.83 72.4 53.13 72.17" stroke="#231815" stroke-width="0.55" stroke-linecap="round" stroke-linejoin="round" fill="none"/><path d="M41.55 71.44C41.55 71.54 41.53 71.63 41.5 71.72 41.47 71.8 41.43 71.88 41.36 71.94 41.3 71.99 41.24 72.03 41.16 72.04 41.11 72.04 41.07 72.05 41.02 72.04 40.96 72.04 40.9 72.02 40.84 72 40.79 71.98 40.74 71.95 40.69 71.92 40.66 71.9 40.62 71.87 40.59 71.84 40.57 71.82 40.55 71.8 40.52 71.78 40.48 71.74 40.45 71.7 40.42 71.66 40.39 71.62 40.37 71.59 40.35 71.55 40.33 71.52 40.31 71.49 40.3 71.46 40.28 71.42 40.26 71.38 40.24 71.34 40.22 71.29 40.19 71.23 40.17 71.17 40.11 71 40.07 70.82 40.04 70.64 40.02 70.54 40.01 70.44 40 70.35 40 70.27 39.98 70.18 39.98 70.1 39.96 69.75 39.96 69.35 39.98 69" stroke="#231815" stroke-width="0.55" stroke-linecap="round" stroke-linejoin="round" fill="none"/><path d="M40.01 67.76C40.01 67.81 40.01 67.86 40.01 67.92" stroke="#231815" stroke-width="0.55" stroke-linecap="round" stroke-linejoin="round" fill="none"/><path d="M41.15 67.92C40.98 67.53 40.93 67.11 41.01 66.69 41.09 66.27 41.29 65.89 41.54 65.56" stroke="#231815" stroke-width="0.55" stroke-linecap="round" stroke-linejoin="round" fill="none"/><line x1="42.5" y1="3.43" x2="40.96" y2="3.58" stroke="#231815" stroke-width="0.55" stroke-linecap="round" stroke-linejoin="round" fill="none"/><path d="M46.23 4.26C46.23 4.41 46.15 4.54 46.05 4.64 45.95 4.74 45.82 4.82 45.69 4.89" stroke="#231815" stroke-width="0.55" stroke-linecap="round" stroke-linejoin="round" fill="none"/><path d="M48.37 12.09C48.37 12.09 48.37 12.14 48.35 12.16 48.33 12.19 48.31 12.21 48.29 12.23 48.25 12.27 48.2 12.3 48.15 12.33 48.05 12.38 47.93 12.42 47.83 12.45 47.61 12.51 47.37 12.54 47.14 12.54" stroke="#231815" stroke-width="0.55" stroke-linecap="round" stroke-linejoin="round" fill="none"/><path d="M68.14 65.78C68.59 65.96 69.16 65.97 69.63 65.84 69.86 65.77 70.11 65.65 70.28 65.47 70.46 65.27 70.5 65.01 70.34 64.78" stroke="#231815" stroke-width="0.55" stroke-linecap="round" stroke-linejoin="round" fill="none"/><path d="M67.63 64.81C67.5 65 67.5 65.22 67.63 65.41 67.75 65.59 67.95 65.71 68.14 65.78" stroke="#231815" stroke-width="0.55" stroke-linecap="round" stroke-linejoin="round" fill="none"/><path d="M63.57 64.88C63.67 65.23 63.65 65.59 63.56 65.94 63.47 66.29 63.3 66.61 63.11 66.91 62.92 67.2 62.69 67.5 62.46 67.76 62.34 67.89 62.23 68.03 62.11 68.16 61.99 68.29 61.87 68.43 61.74 68.56 60.75 69.62 59.72 70.55 58.6 71.46" stroke="#231815" stroke-width="0.55" stroke-linecap="round" stroke-linejoin="round" fill="none"/><path d="M63.57 64.88C63.47 64.5 63.25 64.17 63 63.88 62.75 63.59 62.44 63.34 62.13 63.12 61.82 62.9 61.48 62.69 61.15 62.5 60.81 62.31 60.47 62.12 60.13 61.94 59.79 61.76 59.44 61.58 59.1 61.41 58.75 61.24 58.4 61.07 58.05 60.91 57.35 60.59 56.63 60.29 55.92 60" stroke="#231815" stroke-width="0.55" stroke-linecap="round" stroke-linejoin="round" fill="none"/><path d="M31.8 79.73C29.46 78.64 27.15 77.45 24.94 76.12 24.39 75.79 23.84 75.45 23.29 75.1 22.78 74.77 22.17 74.38 21.68 74.02 21.41 73.83 21.15 73.63 20.89 73.42 20.65 73.22 20.41 73.01 20.19 72.78 19.96 72.54 19.75 72.27 19.59 71.97 19.45 71.69 19.36 71.39 19.34 71.08" stroke="#231815" stroke-width="0.55" stroke-linecap="round" stroke-linejoin="round" fill="none"/><path d="M65.91 75.91C63.59 77.89 61.12 79.73 58.58 81.4 57.98 81.8 57.27 82.26 56.65 82.64 56.33 82.84 56.01 83.03 55.69 83.22 55.52 83.32 55.36 83.41 55.19 83.51 55.02 83.61 54.85 83.7 54.67 83.79 54.34 83.97 54 84.14 53.66 84.3 53.31 84.46 52.95 84.61 52.58 84.74 51.86 85 51.11 85.18 50.35 85.27" stroke="#231815" stroke-width="0.55" stroke-linecap="round" stroke-linejoin="round" fill="none"/><path d="M66.86 64.84C66.91 65.02 67.03 65.18 67.15 65.31 67.28 65.44 67.43 65.56 67.59 65.65 67.9 65.84 68.27 65.98 68.62 66.06 68.98 66.14 69.36 66.18 69.73 66.15 70.08 66.13 70.48 66.03 70.79 65.83" stroke="#231815" stroke-width="0.55" stroke-linecap="round" stroke-linejoin="round" fill="none"/><path d="M67.25 64.01C67.11 64.1 66.98 64.21 66.91 64.36 66.83 64.51 66.82 64.68 66.87 64.84" stroke="#231815" stroke-width="0.55" stroke-linecap="round" stroke-linejoin="round" fill="none"/><path d="M74.31 65.23C74.5 65.82 74.39 66.39 74.15 66.93 73.93 67.45 73.57 67.97 73.23 68.41 73.06 68.64 72.88 68.86 72.69 69.09 72.5 69.32 72.31 69.54 72.12 69.77 71.93 69.99 71.74 70.21 71.55 70.42 71.35 70.64 71.16 70.86 70.96 71.07 69.39 72.78 67.67 74.39 65.9 75.9" stroke="#231815" stroke-width="0.55" stroke-linecap="round" stroke-linejoin="round" fill="none"/><path d="M31.16 82.11C28.72 80.96 26.31 79.69 24.02 78.28 23.73 78.1 23.44 77.92 23.15 77.74 22.87 77.56 22.59 77.38 22.31 77.19 21.76 76.82 21.18 76.43 20.65 76.02 20.37 75.8 20.09 75.58 19.83 75.34 19.6 75.12 19.37 74.89 19.17 74.64 18.94 74.37 18.74 74.06 18.6 73.74 18.47 73.45 18.39 73.14 18.38 72.82" stroke="#231815" stroke-width="0.55" stroke-linecap="round" stroke-linejoin="round" fill="none"/><path d="M75.4 66.69C75.6 67.3 75.54 67.9 75.33 68.49 75.23 68.77 75.11 69.03 74.97 69.28 74.82 69.56 74.64 69.83 74.46 70.1 74.12 70.59 73.72 71.09 73.34 71.55 72.95 72.02 72.55 72.49 72.15 72.94 70.53 74.76 68.75 76.47 66.9 78.06" stroke="#231815" stroke-width="0.55" stroke-linecap="round" stroke-linejoin="round" fill="none"/><path d="M51.1 91.53C51.56 91.48 52.01 91.4 52.46 91.31 52.9 91.22 53.34 91.12 53.77 90.99 54.22 90.86 54.66 90.72 55.09 90.56 55.51 90.41 55.92 90.24 56.33 90.06 57.16 89.69 57.97 89.27 58.75 88.81 59.15 88.58 59.54 88.34 59.94 88.09 60.32 87.85 60.69 87.61 61.07 87.36 61.45 87.11 61.83 86.85 62.21 86.6 62.58 86.35 62.95 86.09 63.32 85.83 63.69 85.57 64.07 85.3 64.44 85.03 64.8 84.76 65.16 84.49 65.52 84.22 66.97 83.12 68.37 81.97 69.74 80.76" stroke="#231815" stroke-width="0.55" stroke-linecap="round" stroke-linejoin="round" fill="none"/><path d="M69.73 80.78C71.62 79.1 73.45 77.3 75.11 75.39 75.32 75.15 75.53 74.91 75.73 74.66 75.93 74.42 76.13 74.17 76.33 73.93 76.53 73.68 76.73 73.43 76.92 73.17 77.11 72.92 77.29 72.66 77.47 72.4 77.65 72.13 77.82 71.86 77.98 71.58 78.13 71.31 78.27 71.03 78.39 70.74 78.51 70.44 78.61 70.14 78.67 69.82 78.73 69.51 78.76 69.2 78.75 68.88" stroke="#231815" stroke-width="0.55" stroke-linecap="round" stroke-linejoin="round" fill="none"/><path d="M51.18 93.3C50.23 93.41 49.28 93.45 48.32 93.4 47.36 93.36 46.42 93.24 45.48 93.07 45.24 93.03 45 92.98 44.76 92.93 44.52 92.88 44.29 92.83 44.06 92.77 43.6 92.66 43.15 92.54 42.7 92.41 41.8 92.15 40.85 91.84 39.97 91.55 39.51 91.4 39.06 91.24 38.61 91.08 38.16 90.92 37.72 90.76 37.27 90.6 36.82 90.43 36.37 90.26 35.92 90.09 35.48 89.92 35.04 89.74 34.6 89.56 32.83 88.84 31.08 88.07 29.36 87.24" stroke="#231815" stroke-width="0.55" stroke-linecap="round" stroke-linejoin="round" fill="none"/><path d="M29.35 87.23C28.26 86.7 27.18 86.16 26.12 85.58 25.59 85.29 25.06 85 24.53 84.7 24.27 84.55 24 84.4 23.74 84.24 23.48 84.09 23.22 83.93 22.97 83.78 22.71 83.62 22.45 83.46 22.19 83.3 21.93 83.14 21.68 82.98 21.43 82.81 20.92 82.48 20.42 82.15 19.92 81.8 19.67 81.63 19.42 81.45 19.17 81.27 18.93 81.09 18.69 80.91 18.45 80.72 18.21 80.53 17.97 80.33 17.75 80.13 17.53 79.93 17.32 79.72 17.11 79.51" stroke="#231815" stroke-width="0.55" stroke-linecap="round" stroke-linejoin="round" fill="none"/><path d="M69.55 82.58C68.21 83.78 66.83 84.92 65.4 86.01 65.05 86.28 64.69 86.55 64.33 86.82 63.97 87.09 63.6 87.36 63.23 87.62 62.87 87.88 62.5 88.13 62.13 88.39 61.76 88.65 61.38 88.9 61 89.15 59.49 90.16 58 91.09 56.33 91.84 55.51 92.21 54.67 92.52 53.8 92.77 53.59 92.83 53.38 92.89 53.16 92.94 52.94 92.99 52.72 93.04 52.5 93.09 52.06 93.18 51.61 93.25 51.16 93.31" stroke="#231815" stroke-width="0.55" stroke-linecap="round" stroke-linejoin="round" fill="none"/><path d="M15.23 74.93C15.3 75.69 15.61 76.36 16.04 76.97 16.25 77.27 16.48 77.54 16.74 77.81 17 78.08 17.28 78.34 17.57 78.58 17.85 78.82 18.14 79.05 18.43 79.27 18.73 79.49 19.03 79.71 19.34 79.92 19.64 80.13 19.95 80.34 20.25 80.54 20.56 80.75 20.87 80.95 21.19 81.15 23.68 82.74 26.31 84.17 28.97 85.45" stroke="#231815" stroke-width="0.55" stroke-linecap="round" stroke-linejoin="round" fill="none"/><path d="M13.35 76.13C13.41 76.52 13.5 76.89 13.64 77.25" stroke="#231815" stroke-width="0.55" stroke-linecap="round" stroke-linejoin="round" fill="none"/><path d="M78.78 69.7C78.68 70.29 78.11 72.68 77.84 73.21 77.56 73.74 77.23 74.24 76.88 74.72 76.7 74.96 76.53 75.2 76.34 75.43 76.16 75.67 75.97 75.9 75.78 76.14 75.59 76.37 75.4 76.6 75.21 76.83 75.02 77.06 74.82 77.29 74.62 77.51 74.23 77.96 73.82 78.4 73.41 78.84 73.21 79.06 73 79.27 72.79 79.48 72.58 79.7 72.37 79.91 72.16 80.12 71.31 80.96 70.44 81.78 69.55 82.58" stroke="#231815" stroke-width="0.55" stroke-linecap="round" stroke-linejoin="round" fill="none"/><path d="M42.87 0.54C42.87 0.54 42.79 0.54 42.76 0.57" stroke="#231815" stroke-width="0.55" stroke-linecap="round" stroke-linejoin="round" fill="none"/><path d="M43.13 0.46C43.13 0.4 43.15 0.34 43.21 0.33" stroke="#231815" stroke-width="0.55" stroke-linecap="round" stroke-linejoin="round" fill="none"/><path d="M42.66 0.81C42.66 0.72 42.69 0.63 42.76 0.57" stroke="#231815" stroke-width="0.55" stroke-linecap="round" stroke-linejoin="round" fill="none"/><path d="M46.64 4.4C46.64 4.4 46.65 4.4 46.66 4.41" stroke="#231815" stroke-width="0.55" stroke-linecap="round" stroke-linejoin="round" fill="none"/><line x1="40.25" y1="10.27" x2="39.82" y2="4.14" stroke="#231815" stroke-width="0.55" stroke-linecap="round" stroke-linejoin="round" fill="none"/><line x1="40.98" y1="3.57" x2="42.53" y2="3.42" stroke="#231815" stroke-width="0.55" stroke-linecap="round" stroke-linejoin="round" fill="none"/><path d="M48.37 12.09C48.37 12.21 48.33 12.32 48.26 12.41 48.18 12.5 48.08 12.56 47.97 12.61 47.77 12.7 47.51 12.76 47.29 12.77" stroke="#231815" stroke-width="0.55" stroke-linecap="round" stroke-linejoin="round" fill="none"/><line x1="46.66" y1="4.41" x2="47.87" y2="5.57" stroke="#231815" stroke-width="0.55" stroke-linecap="round" stroke-linejoin="round" fill="none"/><path d="M43.14 0.61C43.14 0.56 43.14 0.51 43.14 0.46" stroke="#231815" stroke-width="0.55" stroke-linecap="round" stroke-linejoin="round" fill="none"/><path d="M42.01 12.04C41.73 11.83 41.46 11.6 41.2 11.37 40.94 11.14 40.68 10.9 40.44 10.66" stroke="#231815" stroke-width="0.55" stroke-linecap="round" stroke-linejoin="round" fill="none"/><line x1="45.86" y1="12.82" x2="45.86" y2="12.87" stroke="#231815" stroke-width="0.55" stroke-linecap="round" stroke-linejoin="round" fill="none"/><path d="M40.44 10.66C40.33 10.56 40.26 10.42 40.25 10.27" stroke="#231815" stroke-width="0.55" stroke-linecap="round" stroke-linejoin="round" fill="none"/><path d="M47.87 5.57C47.96 5.66 48.03 5.77 48.04 5.91" stroke="#231815" stroke-width="0.55" stroke-linecap="round" stroke-linejoin="round" fill="none"/><line x1="43.14" y1="12.99" x2="43.12" y2="12.71" stroke="#231815" stroke-width="0.55" stroke-linecap="round" stroke-linejoin="round" fill="none"/><path d="M66.27 92.33C66 92.58 65.72 92.83 65.44 93.08 65.16 93.33 64.87 93.58 64.59 93.82 64.01 94.32 63.42 94.81 62.82 95.29 62.23 95.76 61.64 96.22 61.04 96.67 60.43 97.13 59.81 97.57 59.18 98.01 58.88 98.22 58.58 98.42 58.28 98.63 57.97 98.84 57.66 99.04 57.34 99.24 57.02 99.45 56.69 99.64 56.36 99.83 56.02 100.03 55.67 100.21 55.32 100.39 54.99 100.55 54.65 100.71 54.3 100.85 53.95 100.99 53.6 101.12 53.23 101.23 52.86 101.34 52.49 101.44 52.12 101.52 51.74 101.6 51.36 101.66 50.98 101.7 50.21 101.78 49.45 101.78 48.68 101.72 48.3 101.69 47.93 101.64 47.56 101.58 47.19 101.52 46.83 101.45 46.46 101.37 46.08 101.28 45.71 101.19 45.33 101.08 44.96 100.98 44.6 100.87 44.23 100.75 43.56 100.54 42.77 100.26 42.11 100.03 41.39 99.77 40.68 99.51 39.96 99.23 39.26 98.96 38.56 98.67 37.87 98.38 37.17 98.08 36.47 97.77 35.78 97.45 35.1 97.13 34.42 96.81 33.75 96.47" stroke="#231815" stroke-width="0.55" stroke-linecap="round" stroke-linejoin="round" fill="none"/><path d="M43.21 0.33C43.46 0.27 43.76 0.26 44.01 0.29 44.14 0.31 44.28 0.35 44.39 0.41 44.51 0.47 44.61 0.57 44.62 0.72" stroke="#231815" stroke-width="0.55" stroke-linecap="round" stroke-linejoin="round" fill="none"/><path d="M39.82 4.14C39.82 4.08 39.83 4.02 39.87 3.98 39.9 3.93 39.95 3.89 39.99 3.86 40.08 3.8 40.2 3.75 40.3 3.71 40.51 3.64 40.76 3.58 40.98 3.56" stroke="#231815" stroke-width="0.55" stroke-linecap="round" stroke-linejoin="round" fill="none"/><line x1="48.04" y1="5.91" x2="48.37" y2="12.09" stroke="#231815" stroke-width="0.55" stroke-linecap="round" stroke-linejoin="round" fill="none"/><path d="M78.56 67.81C78.56 67.81 78.53 67.73 78.52 67.69" stroke="#231815" stroke-width="0.55" stroke-linecap="round" stroke-linejoin="round" fill="none"/><path d="M44.55 53.46C44.91 53.42 45.27 53.41 45.64 53.4" stroke="#231815" stroke-width="0.55" stroke-linecap="round" stroke-linejoin="round" fill="none"/><line x1="14.59" y1="72.88" x2="16.14" y2="71.82" stroke="#231815" stroke-width="0.55" stroke-linecap="round" stroke-linejoin="round" fill="none"/><path d="M13.28 75.64C13.28 75.41 13.29 75.18 13.33 74.94 13.36 74.71 13.41 74.48 13.48 74.26" stroke="#231815" stroke-width="0.55" stroke-linecap="round" stroke-linejoin="round" fill="none"/><path d="M13.28 75.64C13.28 75.64 13.28 75.64 13.28 75.65" stroke="#231815" stroke-width="0.55" stroke-linecap="round" stroke-linejoin="round" fill="none"/><path d="M65.9 59.51C66.49 59.76 67.08 60.02 67.67 60.28 68.26 60.54 68.84 60.81 69.42 61.09 70 61.36 70.58 61.65 71.15 61.93 71.72 62.22 72.29 62.51 72.86 62.82 73.14 62.97 73.43 63.12 73.71 63.28 73.99 63.44 74.27 63.59 74.54 63.76 74.82 63.93 75.09 64.1 75.37 64.28 75.63 64.45 75.9 64.63 76.15 64.83 76.66 65.21 77.15 65.64 77.57 66.12 77.79 66.37 77.98 66.63 78.15 66.91 78.31 67.18 78.45 67.46 78.55 67.76" stroke="#231815" stroke-width="0.55" stroke-linecap="round" stroke-linejoin="round" fill="none"/><path d="M13.48 74.26C13.57 73.97 13.73 73.7 13.92 73.48 14.12 73.25 14.35 73.05 14.6 72.88" stroke="#231815" stroke-width="0.55" stroke-linecap="round" stroke-linejoin="round" fill="none"/><path d="M78.76 68.88C78.76 69.15 78.78 69.43 78.79 69.7" stroke="#231815" stroke-width="0.55" stroke-linecap="round" stroke-linejoin="round" fill="none"/><path d="M78.55 67.76C78.67 68.12 78.74 68.5 78.76 68.88" stroke="#231815" stroke-width="0.55" stroke-linecap="round" stroke-linejoin="round" fill="none"/><path d="M14.81 78.42C14.56 78.3 14.32 78.15 14.11 77.96 13.91 77.77 13.74 77.54 13.64 77.27" stroke="#231815" stroke-width="0.55" stroke-linecap="round" stroke-linejoin="round" fill="none"/><path d="M48.13 53.6C48.69 53.69 49.25 53.8 49.8 53.92 50.35 54.05 50.9 54.18 51.45 54.33 52 54.48 52.55 54.63 53.09 54.78 53.64 54.94 54.18 55.1 54.72 55.26 55.8 55.59 56.88 55.95 57.95 56.32 59.02 56.69 60.09 57.09 61.14 57.5" stroke="#231815" stroke-width="0.55" stroke-linecap="round" stroke-linejoin="round" fill="none"/><path d="M19.58 85.32C19.25 83.84 18.91 82.37 18.58 80.89" stroke="#231815" stroke-width="0.55" stroke-linecap="round" stroke-linejoin="round" fill="none"/><path d="M74.06 83.38C73.8 83.8 73.52 84.21 73.24 84.62 72.95 85.02 72.65 85.42 72.34 85.81 72.04 86.2 71.73 86.59 71.41 86.97 71.09 87.35 70.77 87.73 70.44 88.1 69.78 88.84 69.11 89.57 68.41 90.27 68.06 90.62 67.71 90.97 67.35 91.31 66.99 91.65 66.63 91.99 66.27 92.33" stroke="#231815" stroke-width="0.55" stroke-linecap="round" stroke-linejoin="round" fill="none"/><path d="M76.29 75.58C76.17 76.92 76.05 78.26 75.92 79.61" stroke="#231815" stroke-width="0.55" stroke-linecap="round" stroke-linejoin="round" fill="none"/><line x1="42.87" y1="0.54" x2="43.16" y2="0.62" stroke="#231815" stroke-width="0.55" stroke-linecap="round" stroke-linejoin="round" fill="none"/><line x1="44.63" y1="0.72" x2="44.89" y2="3.96" stroke="#231815" stroke-width="0.55" stroke-linecap="round" stroke-linejoin="round" fill="none"/><line x1="46.21" y1="4.13" x2="46.64" y2="4.4" stroke="#231815" stroke-width="0.55" stroke-linecap="round" stroke-linejoin="round" fill="none"/><path d="M47.29 12.77C46.29 12.84 45.29 12.84 44.29 12.77" stroke="#231815" stroke-width="0.55" stroke-linecap="round" stroke-linejoin="round" fill="none"/><path d="M44.84 3.26C45.13 3.31 45.45 3.4 45.72 3.54 45.85 3.62 45.98 3.71 46.07 3.83 46.17 3.95 46.23 4.1 46.24 4.25" stroke="#231815" stroke-width="0.55" stroke-linecap="round" stroke-linejoin="round" fill="none"/><path d="M45.86 12.87C45.91 13.76 45.97 14.65 46.04 15.54 46.11 16.51 46.18 17.28 46.27 18.24 46.35 19.11 46.44 20.13 46.49 21 46.52 21.45 46.53 21.89 46.53 22.34 46.53 22.77 46.51 23.2 46.47 23.62 46.41 24.16 46.31 24.68 46.15 25.2 46 25.67 45.82 26.08 45.59 26.52 45.4 26.88 45.19 27.23 45 27.59 44.83 27.91 44.65 28.26 44.53 28.6 44.42 28.92 44.36 29.22 44.36 29.55 44.36 29.76 44.36 29.97 44.39 30.18 44.42 30.42 44.46 30.65 44.52 30.89 44.63 31.38 44.79 31.88 44.96 32.35 45.13 32.83 45.33 33.31 45.53 33.78 45.88 34.61 46.27 35.42 46.65 36.24 47.03 37.05 47.42 37.86 47.79 38.68 48.16 39.5 48.53 40.35 48.84 41.19 49 41.61 49.14 42.04 49.27 42.47 49.39 42.89 49.5 43.32 49.58 43.75 49.63 44.01 49.67 44.26 49.7 44.52 49.73 44.77 49.75 45.02 49.76 45.27 49.78 45.74 49.76 46.2 49.72 46.67 49.64 47.5 49.47 48.28 49.25 49.08 49.19 49.3 49.12 49.52 49.06 49.74 48.99 49.95 48.93 50.16 48.86 50.38 48.73 50.79 48.6 51.2 48.49 51.62 48.25 52.52 48.09 53.39 48.14 54.33" stroke="#231815" stroke-width="0.55" stroke-linecap="round" stroke-linejoin="round" fill="none"/><path d="M13.28 75.65C13.28 75.42 13.29 75.19 13.33 74.97 13.36 74.74 13.41 74.52 13.48 74.3" stroke="#231815" stroke-width="0.55" stroke-linecap="round" stroke-linejoin="round" fill="none"/><path d="M61.15 57.5C62.4 57.99 63.64 58.5 64.86 59.05 65.47 59.32 66.08 59.6 66.69 59.89 67.3 60.18 67.9 60.47 68.5 60.78 69.1 61.08 69.69 61.39 70.28 61.71 70.57 61.87 70.87 62.03 71.16 62.2 71.45 62.37 71.74 62.54 72.02 62.72 72.57 63.07 73.14 63.48 73.62 63.93 74.1 64.38 74.55 64.92 74.76 65.56" stroke="#231815" stroke-width="0.55" stroke-linecap="round" stroke-linejoin="round" fill="none"/><path d="M13.31 75.87C13.3 75.8 13.29 75.72 13.28 75.65" stroke="#231815" stroke-width="0.55" stroke-linecap="round" stroke-linejoin="round" fill="none"/><line x1="13.35" y1="76.13" x2="13.31" y2="75.88" stroke="#231815" stroke-width="0.55" stroke-linecap="round" stroke-linejoin="round" fill="none"/><path d="M13.64 77.28C13.52 76.94 13.42 76.6 13.36 76.24" stroke="#231815" stroke-width="0.55" stroke-linecap="round" stroke-linejoin="round" fill="none"/><path d="M15.21 74.65C15.2 73.9 15.4 73.19 15.73 72.53 16.06 71.88 16.5 71.27 16.97 70.72 17.21 70.44 17.45 70.17 17.71 69.91 17.97 69.64 18.23 69.39 18.51 69.13 19.02 68.65 19.61 68.11 20.14 67.65 21.25 66.68 22.38 65.75 23.55 64.86 24.72 63.96 25.9 63.1 27.12 62.27" stroke="#231815" stroke-width="0.55" stroke-linecap="round" stroke-linejoin="round" fill="none"/><path d="M18.16 80.01C18.16 80.01 18.16 80.01 18.17 80.01 18.17 80.01 18.17 80.01 18.17 80.01 18.17 80.01 18.17 80 18.16 79.99 18.15 79.98 18.14 79.96 18.12 79.95" stroke="#231815" stroke-width="0.55" stroke-linecap="round" stroke-linejoin="round" fill="none"/><line x1="18.16" y1="80.01" x2="14.81" y2="78.42" stroke="#231815" stroke-width="0.55" stroke-linecap="round" stroke-linejoin="round" fill="none"/><line x1="13.35" y1="76.13" x2="13.31" y2="75.88" stroke="#231815" stroke-width="0.55" stroke-linecap="round" stroke-linejoin="round" fill="none"/><path d="M13.31 75.87C13.3 75.8 13.29 75.72 13.28 75.65" stroke="#231815" stroke-width="0.55" stroke-linecap="round" stroke-linejoin="round" fill="none"/><path d="M29.74 60.7C30.88 59.91 32.04 59.16 33.23 58.44 33.82 58.08 34.42 57.72 35.02 57.38 35.62 57.03 36.22 56.7 36.84 56.37 37.14 56.21 37.45 56.04 37.76 55.88 38.07 55.72 38.38 55.56 38.69 55.4 39 55.25 39.31 55.09 39.62 54.95 39.94 54.8 40.26 54.66 40.58 54.53 41.87 53.99 43.18 53.6 44.58 53.46" stroke="#231815" stroke-width="0.55" stroke-linecap="round" stroke-linejoin="round" fill="none"/><path d="M18.94 71.04C19.05 70.42 19.36 69.83 19.71 69.33 20.06 68.82 20.5 68.33 20.93 67.88 21.15 67.65 21.37 67.43 21.6 67.21 21.83 66.99 22.06 66.78 22.29 66.56 22.76 66.13 23.23 65.72 23.71 65.3 24.19 64.89 24.67 64.48 25.17 64.09 25.66 63.69 26.16 63.3 26.66 62.92 27.66 62.15 28.69 61.41 29.73 60.7" stroke="#231815" stroke-width="0.55" stroke-linecap="round" stroke-linejoin="round" fill="none"/><path d="M13.28 75.65C13.28 75.42 13.29 75.19 13.33 74.97 13.36 74.74 13.41 74.52 13.48 74.3" stroke="#231815" stroke-width="0.55" stroke-linecap="round" stroke-linejoin="round" fill="none"/><path d="M18.13 79.94C18.13 79.94 18.04 79.84 17.99 79.8" stroke="#231815" stroke-width="0.55" stroke-linecap="round" stroke-linejoin="round" fill="none"/><path d="M17.89 79.65C17.89 79.65 17.89 79.6 17.89 79.58" stroke="#231815" stroke-width="0.55" stroke-linecap="round" stroke-linejoin="round" fill="none"/><path d="M17.52 79.14C16.99 78.68 16.47 78.15 16.06 77.56 15.86 77.27 15.68 76.95 15.54 76.61 15.41 76.27 15.32 75.93 15.28 75.57" stroke="#231815" stroke-width="0.55" stroke-linecap="round" stroke-linejoin="round" fill="none"/><path d="M17.9 79.58C17.9 79.52 17.77 79.38 17.73 79.34 17.66 79.27 17.59 79.2 17.52 79.14" stroke="#231815" stroke-width="0.55" stroke-linecap="round" stroke-linejoin="round" fill="none"/><path d="M15.27 75.3C15.25 75.09 15.23 74.88 15.21 74.67" stroke="#231815" stroke-width="0.55" stroke-linecap="round" stroke-linejoin="round" fill="none"/><path d="M15.21 74.67C15.19 73.56 15.68 72.55 16.28 71.69" stroke="#231815" stroke-width="0.55" stroke-linecap="round" stroke-linejoin="round" fill="none"/><path d="M67.04 65.05C67.16 64.72 67.46 64.5 67.75 64.36 68.05 64.21 68.4 64.13 68.73 64.1" stroke="#231815" stroke-width="0.55" stroke-linecap="round" stroke-linejoin="round" fill="none"/><path d="M67.97 64.44C68.2 64.26 68.47 64.14 68.75 64.09 69.04 64.05 69.33 64.08 69.6 64.19" stroke="#231815" stroke-width="0.55" stroke-linecap="round" stroke-linejoin="round" fill="none"/><path d="M67.63 64.81C67.72 64.67 67.83 64.55 67.96 64.44" stroke="#231815" stroke-width="0.55" stroke-linecap="round" stroke-linejoin="round" fill="none"/><path d="M69.6 64.19C69.9 64.31 70.15 64.51 70.34 64.77" stroke="#231815" stroke-width="0.55" stroke-linecap="round" stroke-linejoin="round" fill="none"/><line x1="48.13" y1="54.36" x2="48.28" y2="57.04" stroke="#231815" stroke-width="0.55" stroke-linecap="round" stroke-linejoin="round" fill="none"/><path d="M45.86 12.87C45.91 13.76 45.97 14.65 46.04 15.54 46.11 16.51 46.18 17.28 46.27 18.24 46.35 19.11 46.44 20.13 46.49 21 46.52 21.45 46.53 21.89 46.53 22.34 46.53 22.77 46.51 23.2 46.47 23.62 46.41 24.16 46.31 24.68 46.15 25.2 46 25.67 45.82 26.08 45.59 26.52 45.4 26.88 45.19 27.23 45 27.59 44.83 27.91 44.65 28.26 44.53 28.6 44.42 28.92 44.36 29.22 44.36 29.55 44.36 29.76 44.36 29.97 44.39 30.18 44.42 30.42 44.46 30.65 44.52 30.89 44.63 31.38 44.79 31.88 44.96 32.35 45.13 32.83 45.33 33.31 45.53 33.78 45.88 34.61 46.27 35.42 46.65 36.24 47.03 37.05 47.42 37.86 47.79 38.68 48.16 39.5 48.53 40.35 48.84 41.19 49 41.61 49.14 42.04 49.27 42.47 49.39 42.89 49.5 43.32 49.58 43.75 49.63 44.01 49.67 44.26 49.7 44.52 49.73 44.77 49.75 45.02 49.76 45.27 49.78 45.74 49.76 46.2 49.72 46.67 49.64 47.5 49.47 48.28 49.25 49.08 49.19 49.3 49.12 49.52 49.06 49.74 48.99 49.95 48.93 50.16 48.86 50.38 48.73 50.79 48.6 51.2 48.49 51.62 48.25 52.52 48.09 53.39 48.14 54.33" stroke="#231815" stroke-width="0.55" stroke-linecap="round" stroke-linejoin="round" fill="none"/><path d="M45.64 54.5C45.58 53.52 45.68 52.59 45.89 51.63 45.98 51.21 46.09 50.8 46.21 50.39 46.32 50 46.44 49.61 46.56 49.22 46.67 48.84 46.78 48.46 46.88 48.08 46.93 47.89 46.97 47.69 47.01 47.49 47.05 47.29 47.09 47.08 47.11 46.87 47.17 46.42 47.2 45.97 47.19 45.51 47.19 45.25 47.16 45 47.13 44.74 47.09 44.46 47.04 44.18 46.98 43.91 46.88 43.48 46.75 43.06 46.61 42.64 46.46 42.21 46.3 41.79 46.13 41.37 45.8 40.54 45.41 39.69 45.03 38.89 44.84 38.48 44.65 38.08 44.46 37.67 44.27 37.26 44.08 36.86 43.89 36.45 43.7 36.04 43.51 35.63 43.33 35.22 43.15 34.81 42.97 34.39 42.81 33.97 42.64 33.53 42.47 33.09 42.33 32.64 42.19 32.2 42.06 31.75 41.96 31.29 41.91 31.07 41.87 30.85 41.84 30.62 41.81 30.4 41.78 30.18 41.77 29.96 41.74 29.54 41.76 29.13 41.82 28.72 41.9 28.2 42.05 27.71 42.25 27.22 42.43 26.8 42.63 26.4 42.85 26.01 42.95 25.83 43.05 25.65 43.14 25.47 43.23 25.3 43.32 25.12 43.4 24.95 43.57 24.56 43.69 24.15 43.76 23.73 43.82 23.34 43.85 22.94 43.86 22.55 43.86 22.1 43.85 21.65 43.82 21.2 43.79 20.73 43.75 20.26 43.71 19.78 43.67 19.3 43.62 18.82 43.57 18.34 43.49 17.44 43.4 16.54 43.33 15.63 43.26 14.74 43.19 13.85 43.14 12.96" stroke="#231815" stroke-width="0.55" stroke-linecap="round" stroke-linejoin="round" fill="none"/><path d="M45.8 57.19C45.8 57.35 45.92 57.47 46.04 57.56" stroke="#231815" stroke-width="0.55" stroke-linecap="round" stroke-linejoin="round" fill="none"/><line x1="45.8" y1="57.19" x2="45.64" y2="54.5" stroke="#231815" stroke-width="0.55" stroke-linecap="round" stroke-linejoin="round" fill="none"/><path d="M46.04 57.55C46.22 57.67 46.45 57.74 46.65 57.77 46.86 57.8 47.09 57.8 47.3 57.77 47.51 57.74 47.73 57.67 47.91 57.56 48 57.5 48.09 57.44 48.16 57.35 48.23 57.26 48.28 57.16 48.27 57.05" stroke="#231815" stroke-width="0.55" stroke-linecap="round" stroke-linejoin="round" fill="none"/><path d="M44.84 3.26C45.13 3.31 45.45 3.4 45.72 3.54 45.85 3.62 45.98 3.71 46.07 3.83 46.17 3.95 46.23 4.1 46.24 4.25" stroke="#231815" stroke-width="0.55" stroke-linecap="round" stroke-linejoin="round" fill="none"/><path d="M42.16 3.58C42.35 3.48 42.56 3.41 42.76 3.36" stroke="#231815" stroke-width="0.55" stroke-linecap="round" stroke-linejoin="round" fill="none"/><path d="M47.29 12.77C46.29 12.84 45.29 12.84 44.29 12.77" stroke="#231815" stroke-width="0.55" stroke-linecap="round" stroke-linejoin="round" fill="none"/><path d="M41.98 11.98C41.98 11.98 42.02 12.05 42.05 12.07" stroke="#231815" stroke-width="0.55" stroke-linecap="round" stroke-linejoin="round" fill="none"/><path d="M44.3 12.78C44.08 12.8 43.87 12.8 43.66 12.78 43.44 12.77 43.23 12.73 43.02 12.68 42.82 12.63 42.61 12.55 42.43 12.44 42.25 12.33 42.08 12.18 41.99 11.98" stroke="#231815" stroke-width="0.55" stroke-linecap="round" stroke-linejoin="round" fill="none"/><line x1="46.21" y1="4.13" x2="46.64" y2="4.4" stroke="#231815" stroke-width="0.55" stroke-linecap="round" stroke-linejoin="round" fill="none"/><path d="M41.49 4.47C41.48 4.27 41.55 4.08 41.68 3.93 41.81 3.78 41.98 3.67 42.15 3.58" stroke="#231815" stroke-width="0.55" stroke-linecap="round" stroke-linejoin="round" fill="none"/><line x1="44.63" y1="0.72" x2="44.89" y2="3.96" stroke="#231815" stroke-width="0.55" stroke-linecap="round" stroke-linejoin="round" fill="none"/><path d="M42.79 4.05C42.75 2.97 42.7 1.89 42.66 0.8" stroke="#231815" stroke-width="0.55" stroke-linecap="round" stroke-linejoin="round" fill="none"/><path d="M46.21 4.14C46.21 4.14 46.23 4.21 46.24 4.25" stroke="#231815" stroke-width="0.55" stroke-linecap="round" stroke-linejoin="round" fill="none"/><path d="M41.49 4.41C41.49 4.41 41.49 4.45 41.49 4.46" stroke="#231815" stroke-width="0.55" stroke-linecap="round" stroke-linejoin="round" fill="none"/><path d="M43.33 0.74C43.44 0.77 43.58 0.78 43.69 0.77" stroke="#231815" stroke-width="0.55" stroke-linecap="round" stroke-linejoin="round" fill="none"/><path d="M44.2 1.57C44.19 1.4 44.17 1.23 44.16 1.07" stroke="#231815" stroke-width="0.55" stroke-linecap="round" stroke-linejoin="round" fill="none"/><path d="M44.16 1.07C44.16 0.98 44.09 0.88 43.99 0.85" stroke="#231815" stroke-width="0.55" stroke-linecap="round" stroke-linejoin="round" fill="none"/><line x1="43.7" y1="0.77" x2="43.99" y2="0.85" stroke="#231815" stroke-width="0.55" stroke-linecap="round" stroke-linejoin="round" fill="none"/><line x1="42.87" y1="0.54" x2="43.16" y2="0.62" stroke="#231815" stroke-width="0.55" stroke-linecap="round" stroke-linejoin="round" fill="none"/><path d="M53.51 65.66C53.68 65.85 53.85 66.03 54 66.23 54.14 66.41 54.29 66.66 54.33 66.9" stroke="#231815" stroke-width="0.55" stroke-linecap="round" stroke-linejoin="round" fill="none"/><path d="M41.16 67.93C41.34 68.35 41.66 68.71 42.01 69 42.36 69.29 42.77 69.52 43.19 69.7" stroke="#231815" stroke-width="0.55" stroke-linecap="round" stroke-linejoin="round" fill="none"/><path d="M43.19 69.69C43.95 70.01 44.79 70.2 45.6 70.29 46.01 70.33 46.43 70.35 46.84 70.34 47.26 70.34 47.67 70.3 48.08 70.24 48.89 70.13 49.72 69.92 50.48 69.61 51.22 69.3 51.99 68.85 52.54 68.24" stroke="#231815" stroke-width="0.55" stroke-linecap="round" stroke-linejoin="round" fill="none"/><path d="M40.01 67.76C40.01 67.42 40.08 67.09 40.2 66.77 40.31 66.45 40.47 66.15 40.67 65.88" stroke="#231815" stroke-width="0.55" stroke-linecap="round" stroke-linejoin="round" fill="none"/><path d="M43.18 62.46 43.18 62.46C43.18 62.46 43.18 62.46 43.18 62.46 43.18 62.46 43.18 62.46 43.18 62.46 43.18 62.46 43.19 62.44 43.2 62.44 43.22 62.41 43.24 62.38 43.26 62.34 43.32 62.22 43.37 62.1 43.42 61.98 43.48 61.81 43.53 61.63 43.57 61.45 43.65 61.1 43.7 60.72 43.73 60.36 43.79 59.64 43.77 58.88 43.73 58.16" stroke="#231815" stroke-width="0.55" stroke-linecap="round" stroke-linejoin="round" fill="none"/><path d="M50.96 61.04C51.01 61.2 51.07 61.36 51.15 61.51 51.19 61.59 51.23 61.66 51.27 61.73 51.29 61.77 51.31 61.8 51.34 61.84 51.36 61.87 51.38 61.89 51.4 61.91 51.4 61.91 51.41 61.92 51.42 61.93 51.42 61.93 51.42 61.93 51.42 61.93L51.42 61.93C51.42 61.93 51.42 61.93 51.42 61.93" stroke="#231815" stroke-width="0.55" stroke-linecap="round" stroke-linejoin="round" fill="none"/><path d="M50.42 57.64C50.46 58.21 50.51 58.79 50.59 59.35 50.67 59.9 50.78 60.5 50.96 61.03" stroke="#231815" stroke-width="0.55" stroke-linecap="round" stroke-linejoin="round" fill="none"/><path d="M43.74 58.15C43.74 57.9 43.82 57.67 43.95 57.47 44.08 57.27 44.25 57.09 44.44 56.94 44.63 56.79 44.84 56.67 45.06 56.58 45.17 56.53 45.28 56.49 45.4 56.45 45.52 56.42 45.63 56.39 45.75 56.36" stroke="#231815" stroke-width="0.55" stroke-linecap="round" stroke-linejoin="round" fill="none"/><line x1="41.58" y1="66.76" x2="41.53" y2="64.83" stroke="#231815" stroke-width="0.55" stroke-linecap="round" stroke-linejoin="round" fill="none"/><path d="M53.54 66.12C53.57 66.76 53.31 67.34 52.93 67.82 52.55 68.3 52.04 68.68 51.51 68.98 50.45 69.57 49.18 69.89 47.98 69.99 46.78 70.09 45.48 69.98 44.33 69.59 43.75 69.4 43.18 69.12 42.7 68.74 42.45 68.54 42.22 68.31 42.03 68.05 41.86 67.81 41.73 67.54 41.65 67.26" stroke="#231815" stroke-width="0.55" stroke-linecap="round" stroke-linejoin="round" fill="none"/><path d="M53.37 64.12C53.43 64.76 53.48 65.4 53.53 66.04" stroke="#231815" stroke-width="0.55" stroke-linecap="round" stroke-linejoin="round" fill="none"/><path d="M76.29 75.58C76.17 76.92 76.05 78.26 75.92 79.61" stroke="#231815" stroke-width="0.55" stroke-linecap="round" stroke-linejoin="round" fill="none"/><path d="M74.06 83.38C73.8 83.8 73.52 84.21 73.24 84.62 72.95 85.02 72.65 85.42 72.34 85.81 72.04 86.2 71.73 86.59 71.41 86.97 71.09 87.35 70.77 87.73 70.44 88.1 69.78 88.84 69.11 89.57 68.41 90.27 68.06 90.62 67.71 90.97 67.35 91.31 66.99 91.65 66.63 91.99 66.27 92.33" stroke="#231815" stroke-width="0.55" stroke-linecap="round" stroke-linejoin="round" fill="none"/><path d="M19.58 85.32C19.25 83.84 18.91 82.37 18.58 80.89" stroke="#231815" stroke-width="0.55" stroke-linecap="round" stroke-linejoin="round" fill="none"/><path d="M18.16 80C18.16 80 18.13 79.95 18.11 79.93" stroke="#231815" stroke-width="0.55" stroke-linecap="round" stroke-linejoin="round" fill="none"/><path d="M14.81 78.42C14.56 78.3 14.32 78.15 14.11 77.96 13.91 77.77 13.74 77.54 13.64 77.27" stroke="#231815" stroke-width="0.55" stroke-linecap="round" stroke-linejoin="round" fill="none"/><path d="M78.55 67.76C78.67 68.12 78.74 68.5 78.76 68.88" stroke="#231815" stroke-width="0.55" stroke-linecap="round" stroke-linejoin="round" fill="none"/><path d="M78.76 68.88C78.76 69.15 78.78 69.43 78.79 69.7" stroke="#231815" stroke-width="0.55" stroke-linecap="round" stroke-linejoin="round" fill="none"/><path d="M74.76 65.56C74.76 65.56 74.76 65.58 74.77 65.6" stroke="#231815" stroke-width="0.55" stroke-linecap="round" stroke-linejoin="round" fill="none"/><path d="M15.77 77.11C15.77 77.11 15.77 77.1 15.77 77.09" stroke="#231815" stroke-width="0.55" stroke-linecap="round" stroke-linejoin="round" fill="none"/><path d="M13.48 74.26C13.57 73.97 13.73 73.7 13.92 73.48 14.12 73.25 14.35 73.05 14.6 72.88" stroke="#231815" stroke-width="0.55" stroke-linecap="round" stroke-linejoin="round" fill="none"/><path d="M15.23 74.93C15.23 74.84 15.22 74.74 15.21 74.65" stroke="#231815" stroke-width="0.55" stroke-linecap="round" stroke-linejoin="round" fill="none"/><path d="M13.28 75.64C13.28 75.64 13.28 75.64 13.28 75.65" stroke="#231815" stroke-width="0.55" stroke-linecap="round" stroke-linejoin="round" fill="none"/><path d="M13.28 75.64C13.28 75.41 13.29 75.18 13.33 74.94 13.36 74.71 13.41 74.48 13.48 74.26" stroke="#231815" stroke-width="0.55" stroke-linecap="round" stroke-linejoin="round" fill="none"/><path d="M15.29 75.57C15.29 75.48 15.28 75.39 15.27 75.3" stroke="#231815" stroke-width="0.55" stroke-linecap="round" stroke-linejoin="round" fill="none"/><path d="M15.29 75.57C15.27 75.36 15.25 75.14 15.23 74.93" stroke="#231815" stroke-width="0.55" stroke-linecap="round" stroke-linejoin="round" fill="none"/><path d="M44.55 53.46C44.91 53.42 45.27 53.41 45.64 53.4" stroke="#231815" stroke-width="0.55" stroke-linecap="round" stroke-linejoin="round" fill="none"/><path d="M13.32 75.92C13.31 75.83 13.29 75.75 13.28 75.66" stroke="#231815" stroke-width="0.55" stroke-linecap="round" stroke-linejoin="round" fill="none"/><path d="M78.56 67.81C78.56 67.81 78.53 67.73 78.52 67.69" stroke="#231815" stroke-width="0.55" stroke-linecap="round" stroke-linejoin="round" fill="none"/><path d="M17.99 79.8C17.99 79.8 17.9 79.7 17.9 79.65" stroke="#231815" stroke-width="0.55" stroke-linecap="round" stroke-linejoin="round" fill="none"/><line x1="48.04" y1="5.91" x2="48.37" y2="12.09" stroke="#231815" stroke-width="0.55" stroke-linecap="round" stroke-linejoin="round" fill="none"/><path d="M39.82 4.14C39.82 4.08 39.83 4.02 39.87 3.98 39.9 3.93 39.95 3.89 39.99 3.86 40.08 3.8 40.2 3.75 40.3 3.71 40.51 3.64 40.76 3.58 40.98 3.56" stroke="#231815" stroke-width="0.55" stroke-linecap="round" stroke-linejoin="round" fill="none"/><path d="M43.21 0.33C43.46 0.27 43.76 0.26 44.01 0.29 44.14 0.31 44.28 0.35 44.39 0.41 44.51 0.47 44.61 0.57 44.62 0.72" stroke="#231815" stroke-width="0.55" stroke-linecap="round" stroke-linejoin="round" fill="none"/><path d="M50.37 57.43C50.39 57.5 50.41 57.57 50.41 57.64" stroke="#231815" stroke-width="0.55" stroke-linecap="round" stroke-linejoin="round" fill="none"/><path d="M66.27 92.33C66 92.58 65.72 92.83 65.44 93.08 65.16 93.33 64.87 93.58 64.59 93.82 64.01 94.32 63.42 94.81 62.82 95.29 62.23 95.76 61.64 96.22 61.04 96.67 60.43 97.13 59.81 97.57 59.18 98.01 58.88 98.22 58.58 98.42 58.28 98.63 57.97 98.84 57.66 99.04 57.34 99.24 57.02 99.45 56.69 99.64 56.36 99.83 56.02 100.03 55.67 100.21 55.32 100.39 54.99 100.55 54.65 100.71 54.3 100.85 53.95 100.99 53.6 101.12 53.23 101.23 52.86 101.34 52.49 101.44 52.12 101.52 51.74 101.6 51.36 101.66 50.98 101.7 50.21 101.78 49.45 101.78 48.68 101.72 48.3 101.69 47.93 101.64 47.56 101.58 47.19 101.52 46.83 101.45 46.46 101.37 46.08 101.28 45.71 101.19 45.33 101.08 44.96 100.98 44.6 100.87 44.23 100.75 43.56 100.54 42.77 100.26 42.11 100.03 41.39 99.77 40.68 99.51 39.96 99.23 39.26 98.96 38.56 98.67 37.87 98.38 37.17 98.08 36.47 97.77 35.78 97.45 35.1 97.13 34.42 96.81 33.75 96.47" stroke="#231815" stroke-width="0.55" stroke-linecap="round" stroke-linejoin="round" fill="none"/><line x1="43.14" y1="12.99" x2="43.12" y2="12.71" stroke="#231815" stroke-width="0.55" stroke-linecap="round" stroke-linejoin="round" fill="none"/><path d="M48 12.39C48 12.39 48.01 12.39 48.02 12.39" stroke="#231815" stroke-width="0.55" stroke-linecap="round" stroke-linejoin="round" fill="none"/><path d="M51.41 61.94C51.41 61.94 51.33 61.87 51.29 61.85" stroke="#231815" stroke-width="0.55" stroke-linecap="round" stroke-linejoin="round" fill="none"/><path d="M48.23 56.13C48.66 56.18 49.1 56.3 49.48 56.51 49.67 56.61 49.86 56.74 50.01 56.89 50.16 57.04 50.3 57.22 50.37 57.43" stroke="#231815" stroke-width="0.55" stroke-linecap="round" stroke-linejoin="round" fill="none"/><path d="M47.87 5.57C47.96 5.66 48.03 5.77 48.04 5.91" stroke="#231815" stroke-width="0.55" stroke-linecap="round" stroke-linejoin="round" fill="none"/><path d="M40.44 10.66C40.33 10.56 40.26 10.42 40.25 10.27" stroke="#231815" stroke-width="0.55" stroke-linecap="round" stroke-linejoin="round" fill="none"/><path d="M44.22 12.56C44.16 11.97 44.11 11.38 44.05 10.79 44.02 10.5 43.99 10.2 43.96 9.9 43.93 9.61 43.9 9.31 43.87 9.01 43.75 7.83 43.63 6.65 43.49 5.47" stroke="#231815" stroke-width="0.55" stroke-linecap="round" stroke-linejoin="round" fill="none"/><line x1="45.86" y1="12.82" x2="45.86" y2="12.87" stroke="#231815" stroke-width="0.55" stroke-linecap="round" stroke-linejoin="round" fill="none"/><line x1="46.23" y1="4.22" x2="46.23" y2="4.22" stroke="#231815" stroke-width="0.55" stroke-linecap="round" stroke-linejoin="round" fill="none"/><path d="M69.64 64.21C69.64 64.21 69.64 64.21 69.65 64.21" stroke="#231815" stroke-width="0.55" stroke-linecap="round" stroke-linejoin="round" fill="none"/><path d="M41.49 4.47C41.49 4.6 41.58 4.71 41.67 4.8 41.76 4.88 41.88 4.95 41.99 5 42.22 5.11 42.48 5.18 42.72 5.22 43.21 5.31 43.75 5.32 44.24 5.27" stroke="#231815" stroke-width="0.55" stroke-linecap="round" stroke-linejoin="round" fill="none"/><path d="M41.64 4.93C41.68 6.08 41.74 7.24 41.79 8.39 41.8 8.68 41.82 8.97 41.83 9.26 41.84 9.55 41.86 9.84 41.87 10.13 41.9 10.71 41.93 11.28 41.95 11.86" stroke="#231815" stroke-width="0.55" stroke-linecap="round" stroke-linejoin="round" fill="none"/><path d="M43.49 5.48C43.49 5.48 43.52 5.43 43.54 5.42 43.56 5.41 43.59 5.4 43.61 5.39 43.66 5.37 43.71 5.36 43.77 5.34 43.88 5.31 43.98 5.3 44.09 5.29" stroke="#231815" stroke-width="0.55" stroke-linecap="round" stroke-linejoin="round" fill="none"/><path d="M41.5 4.53C41.55 4.76 41.81 4.92 42 5.01 42.21 5.11 42.45 5.17 42.68 5.22 43.14 5.31 43.64 5.33 44.1 5.29" stroke="#231815" stroke-width="0.55" stroke-linecap="round" stroke-linejoin="round" fill="none"/><path d="M43.17 4.35C43.46 4.43 43.82 4.44 44.12 4.4 44.27 4.38 44.44 4.34 44.58 4.28 44.65 4.25 44.73 4.21 44.79 4.16 44.82 4.13 44.86 4.1 44.88 4.06 44.9 4.03 44.91 4 44.9 3.96" stroke="#231815" stroke-width="0.55" stroke-linecap="round" stroke-linejoin="round" fill="none"/><path d="M44.2 1.57C44.33 1.53 44.51 1.47 44.61 1.37" stroke="#231815" stroke-width="0.55" stroke-linecap="round" stroke-linejoin="round" fill="none"/><line x1="43.57" y1="0.42" x2="43.27" y2="0.33" stroke="#231815" stroke-width="0.55" stroke-linecap="round" stroke-linejoin="round" fill="none"/><line x1="44.4" y1="0.65" x2="44.1" y2="0.57" stroke="#231815" stroke-width="0.55" stroke-linecap="round" stroke-linejoin="round" fill="none"/><path d="M42.01 12.04C41.73 11.83 41.46 11.6 41.2 11.37 40.94 11.14 40.68 10.9 40.44 10.66" stroke="#231815" stroke-width="0.55" stroke-linecap="round" stroke-linejoin="round" fill="none"/><line x1="42.14" y1="3.58" x2="42.14" y2="3.58" stroke="#231815" stroke-width="0.55" stroke-linecap="round" stroke-linejoin="round" fill="none"/><line x1="46.3" y1="5.77" x2="46.23" y2="4.56" stroke="#231815" stroke-width="0.55" stroke-linecap="round" stroke-linejoin="round" fill="none"/><path d="M43.14 0.61C43.14 0.56 43.14 0.51 43.14 0.46" stroke="#231815" stroke-width="0.55" stroke-linecap="round" stroke-linejoin="round" fill="none"/><line x1="43.59" y1="0.77" x2="43.57" y2="0.42" stroke="#231815" stroke-width="0.55" stroke-linecap="round" stroke-linejoin="round" fill="none"/><line x1="46.66" y1="4.41" x2="47.87" y2="5.57" stroke="#231815" stroke-width="0.55" stroke-linecap="round" stroke-linejoin="round" fill="none"/><path d="M48.37 12.09C48.37 12.21 48.33 12.32 48.26 12.41 48.18 12.5 48.08 12.56 47.97 12.61 47.77 12.7 47.51 12.76 47.29 12.77" stroke="#231815" stroke-width="0.55" stroke-linecap="round" stroke-linejoin="round" fill="none"/><line x1="40.98" y1="3.57" x2="42.53" y2="3.42" stroke="#231815" stroke-width="0.55" stroke-linecap="round" stroke-linejoin="round" fill="none"/><line x1="40.25" y1="10.27" x2="39.82" y2="4.14" stroke="#231815" stroke-width="0.55" stroke-linecap="round" stroke-linejoin="round" fill="none"/><path d="M46.64 4.4C46.64 4.4 46.65 4.4 46.66 4.41" stroke="#231815" stroke-width="0.55" stroke-linecap="round" stroke-linejoin="round" fill="none"/><path d="M41.5 4.42C41.5 4.42 41.5 4.42 41.5 4.42 41.5 4.42 41.5 4.42 41.5 4.42 41.5 4.42 41.5 4.42 41.5 4.43 41.5 4.43 41.5 4.45 41.5 4.46" stroke="#231815" stroke-width="0.55" stroke-linecap="round" stroke-linejoin="round" fill="none"/><path d="M42.79 4.05C42.79 4.14 42.87 4.21 42.94 4.25 43.01 4.29 43.09 4.33 43.17 4.35" stroke="#231815" stroke-width="0.55" stroke-linecap="round" stroke-linejoin="round" fill="none"/><path d="M43.21 0.33C43.21 0.33 43.25 0.33 43.27 0.33" stroke="#231815" stroke-width="0.55" stroke-linecap="round" stroke-linejoin="round" fill="none"/><path d="M42.66 0.81C42.66 0.72 42.69 0.63 42.76 0.57" stroke="#231815" stroke-width="0.55" stroke-linecap="round" stroke-linejoin="round" fill="none"/><path d="M44.22 12.56 44.22 12.56" stroke="#231815" stroke-width="0.55" stroke-linecap="round" stroke-linejoin="round" fill="none"/><path d="M41.95 11.86C41.95 11.86 41.96 11.94 41.98 11.98" stroke="#231815" stroke-width="0.55" stroke-linecap="round" stroke-linejoin="round" fill="none"/><line x1="41.95" y1="11.86" x2="41.95" y2="11.86" stroke="#231815" stroke-width="0.55" stroke-linecap="round" stroke-linejoin="round" fill="none"/><path d="M46.23 4.56C46.23 4.51 46.23 4.46 46.23 4.41 46.23 4.36 46.23 4.31 46.23 4.26" stroke="#231815" stroke-width="0.55" stroke-linecap="round" stroke-linejoin="round" fill="none"/><path d="M44.66 5.35C44.66 5.35 44.66 5.35 44.66 5.35" stroke="#231815" stroke-width="0.55" stroke-linecap="round" stroke-linejoin="round" fill="none"/><path d="M41.5 4.53C41.52 4.6 41.54 4.67 41.57 4.73 41.58 4.76 41.6 4.8 41.61 4.83 41.62 4.86 41.64 4.9 41.64 4.93" stroke="#231815" stroke-width="0.55" stroke-linecap="round" stroke-linejoin="round" fill="none"/><path d="M41.18 4.34C41.18 4.34 41.18 4.34 41.19 4.34" stroke="#231815" stroke-width="0.55" stroke-linecap="round" stroke-linejoin="round" fill="none"/><path d="M44.57 0.87C44.58 1.04 44.59 1.2 44.61 1.37" stroke="#231815" stroke-width="0.55" stroke-linecap="round" stroke-linejoin="round" fill="none"/><path d="M44.4 0.65C44.49 0.68 44.56 0.78 44.57 0.87" stroke="#231815" stroke-width="0.55" stroke-linecap="round" stroke-linejoin="round" fill="none"/><path d="M43.13 0.46C43.13 0.4 43.15 0.34 43.21 0.33" stroke="#231815" stroke-width="0.55" stroke-linecap="round" stroke-linejoin="round" fill="none"/><path d="M43.16 0.62C43.16 0.62 43.2 0.68 43.23 0.7 43.26 0.72 43.3 0.73 43.33 0.74" stroke="#231815" stroke-width="0.55" stroke-linecap="round" stroke-linejoin="round" fill="none"/><path d="M43.93 0.44C43.82 0.41 43.68 0.4 43.57 0.41" stroke="#231815" stroke-width="0.55" stroke-linecap="round" stroke-linejoin="round" fill="none"/><line x1="44.1" y1="0.57" x2="44.13" y2="0.97" stroke="#231815" stroke-width="0.55" stroke-linecap="round" stroke-linejoin="round" fill="none"/><path d="M44.1 0.57C44.1 0.57 44.06 0.51 44.03 0.49 44 0.47 43.96 0.46 43.93 0.45" stroke="#231815" stroke-width="0.55" stroke-linecap="round" stroke-linejoin="round" fill="none"/><path d="M42.87 0.54C42.87 0.54 42.79 0.54 42.76 0.57" stroke="#231815" stroke-width="0.55" stroke-linecap="round" stroke-linejoin="round" fill="none"/><path d="M52.69 68.1C52.69 68.1 52.69 68.1 52.69 68.1" stroke="#231815" stroke-width="0.55" stroke-linecap="round" stroke-linejoin="round" fill="none"/><line x1="54.54" y1="68.28" x2="54.93" y2="70.77" stroke="#231815" stroke-width="0.55" stroke-linecap="round" stroke-linejoin="round" fill="none"/><path d="M41.66 68.69C41.46 68.47 41.29 68.23 41.17 67.96" stroke="#231815" stroke-width="0.55" stroke-linecap="round" stroke-linejoin="round" fill="none"/><path d="M39.9 71.79C39.9 72.11 39.94 72.42 40.04 72.71 40.15 73.04 40.33 73.34 40.54 73.62 40.73 73.87 40.96 74.09 41.2 74.29 41.47 74.51 41.76 74.7 42.06 74.87 43.2 75.5 44.58 75.82 45.86 75.92 47.17 76.02 48.53 75.92 49.8 75.61 51.05 75.31 52.35 74.78 53.37 73.96" stroke="#231815" stroke-width="0.55" stroke-linecap="round" stroke-linejoin="round" fill="none"/><line x1="39.9" y1="71.79" x2="40.01" y2="67.76" stroke="#231815" stroke-width="0.55" stroke-linecap="round" stroke-linejoin="round" fill="none"/><path d="M40.67 65.87C40.88 65.57 41.25 65.32 41.54 65.12" stroke="#231815" stroke-width="0.55" stroke-linecap="round" stroke-linejoin="round" fill="none"/><path d="M54.54 68.28C54.52 68.17 54.5 68.05 54.49 67.94" stroke="#231815" stroke-width="0.55" stroke-linecap="round" stroke-linejoin="round" fill="none"/><path d="M54.49 67.94C54.44 67.59 54.38 67.25 54.33 66.9" stroke="#231815" stroke-width="0.55" stroke-linecap="round" stroke-linejoin="round" fill="none"/><path d="M53.37 73.97C53.85 73.59 54.29 73.12 54.59 72.57 54.89 72.02 55.03 71.4 54.93 70.77" stroke="#231815" stroke-width="0.55" stroke-linecap="round" stroke-linejoin="round" fill="none"/><path d="M43.59 62.14C43.59 62.14 43.59 62.14 43.58 62.14" stroke="#231815" stroke-width="0.55" stroke-linecap="round" stroke-linejoin="round" fill="none"/><path d="M51.25 61.7C51.68 61.89 52.1 62.14 52.46 62.45 52.82 62.76 53.12 63.15 53.27 63.61" stroke="#231815" stroke-width="0.55" stroke-linecap="round" stroke-linejoin="round" fill="none"/><line x1="53.54" y1="66.12" x2="53.54" y2="66.12" stroke="#231815" stroke-width="0.55" stroke-linecap="round" stroke-linejoin="round" fill="none"/><path d="M53.27 63.61C53.33 63.77 53.36 63.94 53.38 64.11" stroke="#231815" stroke-width="0.55" stroke-linecap="round" stroke-linejoin="round" fill="none"/><path d="M41.53 64.83C41.51 64.25 41.74 63.72 42.08 63.28 42.42 62.84 42.87 62.48 43.34 62.19" stroke="#231815" stroke-width="0.55" stroke-linecap="round" stroke-linejoin="round" fill="none"/><path d="M41.65 67.26C41.62 67.13 41.59 66.99 41.58 66.85" stroke="#231815" stroke-width="0.55" stroke-linecap="round" stroke-linejoin="round" fill="none"/></g></g></svg>